<?xml version="1.0" encoding="utf-8"?>
<!-- Generator: Adobe Illustrator 18.1.1, SVG Export Plug-In . SVG Version: 6.00 Build 0)  -->
<svg version="1.1" id="Calque_1" xmlns="http://www.w3.org/2000/svg" xmlns:xlink="http://www.w3.org/1999/xlink" x="0px" y="0px"
	 width="1334.584px" height="3566.135px" viewBox="0 0 1334.584 3566.135" style="enable-background:new 0 0 1334.584 3566.135;"
	 xml:space="preserve">
<g style="opacity:0.45;">
	<polygon style="fill:#74FFFF;" points="336.982,609.141 220.206,869.356 393.702,1111.83 	"/>
	<polygon style="fill:#BFFFFF;" points="1291.21,946.238 1207.799,1744.627 1334.584,1783.068 	"/>
	<polygon style="fill:#A9FFFF;" points="0,0 36.701,727.421 96.757,295.699 	"/>
	<polygon style="fill:#BDFFFF;" points="1124.387,1945.702 1261.182,2507.531 1334.584,1783.068 	"/>
	<polygon style="fill:#D0FFFF;" points="1207.799,1744.627 1124.387,1945.702 1334.584,1783.068 	"/>
	<polygon style="fill:#A9FFFF;" points="1261.182,2507.531 1301.219,2750.005 1334.584,1783.068 	"/>
	<polygon style="fill:#92FFFF;" points="1321.238,455.377 1291.21,946.238 1334.584,1783.068 	"/>
	<polygon style="fill:#33FFFF;" points="1227.817,3489.254 1027.63,3471.512 1334.584,3566.135 	"/>
	<polygon style="fill:#B4FFFF;" points="0,1783.068 30.028,2566.671 80.075,2537.101 	"/>
	<polygon style="fill:#21FFFF;" points="310.291,2773.661 410.385,2738.177 417.057,2554.843 	"/>
	<polygon style="fill:#0DFFFF;" points="80.075,2537.101 30.028,2566.671 133.458,2903.769 	"/>
	<polygon style="fill:#1FC7C7;" points="236.889,3140.328 430.403,3365.06 507.142,3152.156 	"/>
	<polygon style="fill:#40CFCF;" points="0,3566.135 130.122,3370.974 133.458,2903.769 	"/>
	<polygon style="fill:#26C9C9;" points="30.028,2566.671 0,3566.135 133.458,2903.769 	"/>
	<polygon style="fill:#95FFFF;" points="16.682,1271.508 150.141,1372.046 220.206,869.356 	"/>
	<polygon style="fill:#9FFFFF;" points="200.188,2336.026 310.291,2773.661 417.057,2554.843 	"/>
	<polygon style="fill:#B6FFFF;" points="16.682,1271.508 0,1783.068 150.141,1372.046 	"/>
	<polygon style="fill:#17C5C5;" points="236.889,3140.328 130.122,3370.974 293.608,3412.372 	"/>
	<polygon style="fill:#B7FFFF;" points="0,1783.068 80.075,2537.101 200.188,2336.026 	"/>
	<polygon style="fill:#7AFFFF;" points="36.701,727.421 16.682,1271.508 220.206,869.356 	"/>
	<polygon style="fill:#2ECBCB;" points="133.458,2903.769 130.122,3370.974 236.889,3140.328 	"/>
	<polygon style="fill:#9DFFFF;" points="0,0 96.757,295.699 350.328,29.57 	"/>
	<polygon style="fill:#C8FFFF;" points="413.721,1472.583 290.272,1644.089 443.749,2063.982 	"/>
	<polygon style="fill:#1CC6C6;" points="627.255,3276.35 430.403,3365.06 667.292,3566.135 	"/>
	<polygon style="fill:#C6FFFF;" points="0,1783.068 200.188,2336.026 290.272,1644.089 	"/>
	<polygon style="fill:#C0FFFF;" points="150.141,1372.046 0,1783.068 290.272,1644.089 	"/>
	<polygon style="fill:#C9FFFF;" points="670.628,1525.809 647.273,1827.423 687.311,1780.111 	"/>
	<polygon style="fill:#00BFBF;" points="130.122,3370.974 0,3566.135 293.608,3412.372 	"/>
	<polygon style="fill:#24FFFF;" points="80.075,2537.101 133.458,2903.769 310.291,2773.661 	"/>
	<polygon style="fill:#9FFFFF;" points="200.188,2336.026 80.075,2537.101 310.291,2773.661 	"/>
	<polygon style="fill:#36CCCC;" points="133.458,2903.769 236.889,3140.328 310.291,2773.661 	"/>
	<polygon style="fill:#3BCECE;" points="310.291,2773.661 236.889,3140.328 373.684,2856.457 	"/>
	<polygon style="fill:#66FFFF;" points="36.701,727.421 220.206,869.356 336.982,609.141 	"/>
	<polygon style="fill:#AFFFFF;" points="96.757,295.699 36.701,727.421 336.982,609.141 	"/>
	<polygon style="fill:#36CCCC;" points="627.255,3276.35 667.292,3566.135 767.386,3081.188 	"/>
	<polygon style="fill:#8FFFFF;" points="590.553,893.012 393.702,1111.83 650.61,1259.68 	"/>
	<polygon style="fill:#36CCCC;" points="373.684,2856.457 236.889,3140.328 507.142,3152.156 	"/>
	<polygon style="fill:#92FFFF;" points="220.206,869.356 150.141,1372.046 393.702,1111.83 	"/>
	<polygon style="fill:#CDFFFF;" points="647.273,1827.423 670.628,2022.584 687.311,1780.111 	"/>
	<polygon style="fill:#9FFFFF;" points="350.328,29.57 96.757,295.699 420.394,189.248 	"/>
	<polygon style="fill:#ABFFFF;" points="393.702,1111.83 150.141,1372.046 413.721,1472.583 	"/>
	<polygon style="fill:#36CCCC;" points="310.291,2773.661 373.684,2856.457 410.385,2738.177 	"/>
	<polygon style="fill:#BDFFFF;" points="150.141,1372.046 290.272,1644.089 413.721,1472.583 	"/>
	<polygon style="fill:#AFFFFF;" points="200.188,2336.026 417.057,2554.843 443.749,2063.982 	"/>
	<polygon style="fill:#C2FFFF;" points="290.272,1644.089 200.188,2336.026 443.749,2063.982 	"/>
	<polygon style="fill:#A7FFFF;" points="96.757,295.699 336.982,609.141 420.394,189.248 	"/>
	<polygon style="fill:#36CCCC;" points="744.031,2637.639 507.142,3152.156 767.386,3081.188 	"/>
	<polygon style="fill:#9AFFFF;" points="350.328,29.57 420.394,189.248 667.292,0 	"/>
	<polygon style="fill:#2ECBCB;" points="236.889,3140.328 293.608,3412.372 430.403,3365.06 	"/>
	<polygon style="fill:#77FFFF;" points="336.982,609.141 393.702,1111.83 590.553,893.012 	"/>
	<polygon style="fill:#36CCCC;" points="410.385,2738.177 373.684,2856.457 507.142,3152.156 	"/>
	<polygon style="fill:#B0FFFF;" points="697.32,496.775 590.553,893.012 727.348,620.969 	"/>
	<polygon style="fill:#A6FFFF;" points="393.702,1111.83 413.721,1472.583 650.61,1259.68 	"/>
	<polygon style="fill:#B7FFFF;" points="790.741,2016.67 627.255,2182.262 864.143,2377.424 	"/>
	<polygon style="fill:#AFFFFF;" points="443.749,2063.982 417.057,2554.843 627.255,2182.262 	"/>
	<polygon style="fill:#B6FFFF;" points="650.61,1259.68 413.721,1472.583 670.628,1525.809 	"/>
	<polygon style="fill:#C3FFFF;" points="687.311,1780.111 670.628,2022.584 790.741,2016.67 	"/>
	<polygon style="fill:#3BFFFF;" points="1027.63,3471.512 667.292,3566.135 1334.584,3566.135 	"/>
	<polygon style="fill:#57D5D5;" points="507.142,3152.156 430.403,3365.06 627.255,3276.35 	"/>
	<polygon style="fill:#BFFFFF;" points="790.741,2016.67 864.143,2377.424 987.592,2034.412 	"/>
	<polygon style="fill:#36CCCC;" points="430.403,3365.06 293.608,3412.372 667.292,3566.135 	"/>
	<polygon style="fill:#D0FFFF;" points="413.721,1472.583 443.749,2063.982 647.273,1827.423 	"/>
	<polygon style="fill:#08FFFF;" points="1261.182,2507.531 1241.163,2744.091 1301.219,2750.005 	"/>
	<polygon style="fill:#33FFFF;" points="0,0 350.328,29.57 667.292,0 	"/>
	<polygon style="fill:#21C7C7;" points="1241.163,2744.091 1207.799,3069.36 1301.219,2750.005 	"/>
	<polygon style="fill:#1CC6C6;" points="293.608,3412.372 0,3566.135 667.292,3566.135 	"/>
	<polygon style="fill:#30CBCB;" points="744.031,2637.639 767.386,3081.188 887.498,3027.962 	"/>
	<polygon style="fill:#AFFFFF;" points="954.228,1123.658 670.628,1525.809 1050.985,1431.185 	"/>
	<polygon style="fill:#BCFFFF;" points="443.749,2063.982 627.255,2182.262 670.628,2022.584 	"/>
	<polygon style="fill:#C2FFFF;" points="647.273,1827.423 443.749,2063.982 670.628,2022.584 	"/>
	<polygon style="fill:#C3FFFF;" points="413.721,1472.583 647.273,1827.423 670.628,1525.809 	"/>
	<polygon style="fill:#A1FFFF;" points="667.292,0 420.394,189.248 697.32,496.775 	"/>
	<polygon style="fill:#ABFFFF;" points="420.394,189.248 336.982,609.141 697.32,496.775 	"/>
	<polygon style="fill:#B0FFFF;" points="336.982,609.141 590.553,893.012 697.32,496.775 	"/>
	<polygon style="fill:#24C8C8;" points="507.142,3152.156 627.255,3276.35 767.386,3081.188 	"/>
	<polygon style="fill:#9FFFFF;" points="417.057,2554.843 410.385,2738.177 744.031,2637.639 	"/>
	<polygon style="fill:#A0FFFF;" points="627.255,2182.262 417.057,2554.843 744.031,2637.639 	"/>
	<polygon style="fill:#ABFFFF;" points="627.255,2182.262 744.031,2637.639 864.143,2377.424 	"/>
	<polygon style="fill:#2ECBCB;" points="410.385,2738.177 507.142,3152.156 744.031,2637.639 	"/>
	<polygon style="fill:#C2FFFF;" points="670.628,1525.809 687.311,1780.111 1050.985,1431.185 	"/>
	<polygon style="fill:#03C0C0;" points="987.592,3229.038 667.292,3566.135 1027.63,3471.512 	"/>
	<polygon style="fill:#BCFFFF;" points="670.628,2022.584 627.255,2182.262 790.741,2016.67 	"/>
	<polygon style="fill:#86FFFF;" points="590.553,893.012 650.61,1259.68 794.078,863.442 	"/>
	<polygon style="fill:#6CFFFF;" points="727.348,620.969 590.553,893.012 794.078,863.442 	"/>
	<polygon style="fill:#69FFFF;" points="727.348,620.969 794.078,863.442 947.555,680.109 	"/>
	<polygon style="fill:#9FFFFF;" points="977.583,94.624 1291.21,343.011 1334.584,0 	"/>
	<polygon style="fill:#9DFFFF;" points="977.583,94.624 667.292,0 980.919,307.527 	"/>
	<polygon style="fill:#AEFFFF;" points="1291.21,343.011 1174.434,591.399 1321.238,455.377 	"/>
	<polygon style="fill:#8FFFFF;" points="794.078,863.442 650.61,1259.68 954.228,1123.658 	"/>
	<polygon style="fill:#B3FFFF;" points="987.592,2034.412 864.143,2377.424 1261.182,2507.531 	"/>
	<polygon style="fill:#C6FFFF;" points="1121.051,1768.283 987.592,2034.412 1124.387,1945.702 	"/>
	<polygon style="fill:#A4FFFF;" points="667.292,0 697.32,496.775 980.919,307.527 	"/>
	<polygon style="fill:#A9FFFF;" points="650.61,1259.68 670.628,1525.809 954.228,1123.658 	"/>
	<polygon style="fill:#21C7C7;" points="887.498,3027.962 767.386,3081.188 987.592,3229.038 	"/>
	<polygon style="fill:#ADFFFF;" points="697.32,496.775 727.348,620.969 980.919,307.527 	"/>
	<polygon style="fill:#AFFFFF;" points="727.348,620.969 947.555,680.109 980.919,307.527 	"/>
	<polygon style="fill:#77FFFF;" points="1174.434,591.399 1044.312,946.238 1207.799,958.066 	"/>
	<polygon style="fill:#54D4D4;" points="767.386,3081.188 667.292,3566.135 987.592,3229.038 	"/>
	<polygon style="fill:#45FFFF;" points="1207.799,3069.36 1091.022,3305.92 1227.817,3489.254 	"/>
	<polygon style="fill:#83FFFF;" points="794.078,863.442 954.228,1123.658 1044.312,946.238 	"/>
	<polygon style="fill:#CDFFFF;" points="790.741,2016.67 987.592,2034.412 1050.985,1431.185 	"/>
	<polygon style="fill:#A0FFFF;" points="864.143,2377.424 744.031,2637.639 1014.284,2856.457 	"/>
	<polygon style="fill:#17FFFF;" points="744.031,2637.639 887.498,3027.962 1014.284,2856.457 	"/>
	<polygon style="fill:#1FC7C7;" points="887.498,3027.962 987.592,3229.038 1014.284,2856.457 	"/>
	<polygon style="fill:#74FFFF;" points="947.555,680.109 794.078,863.442 1044.312,946.238 	"/>
	<polygon style="fill:#CDFFFF;" points="687.311,1780.111 790.741,2016.67 1050.985,1431.185 	"/>
	<polygon style="fill:#9CFFFF;" points="1044.312,946.238 954.228,1123.658 1050.985,1431.185 	"/>
	<polygon style="fill:#95FFFF;" points="1044.312,946.238 1050.985,1431.185 1207.799,958.066 	"/>
	<polygon style="fill:#6EFFFF;" points="947.555,680.109 1044.312,946.238 1174.434,591.399 	"/>
	<polygon style="fill:#5AFFFF;" points="987.592,3229.038 1027.63,3471.512 1091.022,3305.92 	"/>
	<polygon style="fill:#1FC7C7;" points="1161.088,2868.285 1014.284,2856.457 1207.799,3069.36 	"/>
	<polygon style="fill:#1CC6C6;" points="1014.284,2856.457 987.592,3229.038 1207.799,3069.36 	"/>
	<polygon style="fill:#B1FFFF;" points="980.919,307.527 947.555,680.109 1174.434,591.399 	"/>
	<polygon style="fill:#CDFFFF;" points="1050.985,1431.185 987.592,2034.412 1121.051,1768.283 	"/>
	<polygon style="fill:#35FFFF;" points="1091.022,3305.92 1027.63,3471.512 1227.817,3489.254 	"/>
	<polygon style="fill:#03C0C0;" points="1301.219,2750.005 1207.799,3069.36 1334.584,3566.135 	"/>
	<polygon style="fill:#97FFFF;" points="1014.284,2856.457 1241.163,2744.091 1261.182,2507.531 	"/>
	<polygon style="fill:#A0FFFF;" points="864.143,2377.424 1014.284,2856.457 1261.182,2507.531 	"/>
	<polygon style="fill:#00BFBF;" points="987.592,3229.038 1091.022,3305.92 1207.799,3069.36 	"/>
	<polygon style="fill:#B9FFFF;" points="1124.387,1945.702 987.592,2034.412 1261.182,2507.531 	"/>
	<polygon style="fill:#66FFFF;" points="1174.434,591.399 1291.21,946.238 1321.238,455.377 	"/>
	<polygon style="fill:#CDFFFF;" points="1121.051,1768.283 1124.387,1945.702 1207.799,1744.627 	"/>
	<polygon style="fill:#C8FFFF;" points="1050.985,1431.185 1121.051,1768.283 1207.799,1744.627 	"/>
	<polygon style="fill:#56FFFF;" points="1207.799,3069.36 1227.817,3489.254 1334.584,3566.135 	"/>
	<polygon style="fill:#1CC6C6;" points="1161.088,2868.285 1207.799,3069.36 1241.163,2744.091 	"/>
	<polygon style="fill:#B4FFFF;" points="1050.985,1431.185 1207.799,1744.627 1291.21,946.238 	"/>
	<polygon style="fill:#00FFFF;" points="1014.284,2856.457 1161.088,2868.285 1241.163,2744.091 	"/>
	<polygon style="fill:#ABFFFF;" points="980.919,307.527 1174.434,591.399 1291.21,343.011 	"/>
	<polygon style="fill:#A5FFFF;" points="1291.21,343.011 1321.238,455.377 1334.584,0 	"/>
	<polygon style="fill:#77FFFF;" points="1174.434,591.399 1207.799,958.066 1291.21,946.238 	"/>
	<polygon style="fill:#99FFFF;" points="667.292,0 977.583,94.624 1334.584,0 	"/>
	<polygon style="fill:#A5FFFF;" points="977.583,94.624 980.919,307.527 1291.21,343.011 	"/>
	<polygon style="fill:#95FFFF;" points="1207.799,958.066 1050.985,1431.185 1291.21,946.238 	"/>
</g>
<g>
</g>
<g>
</g>
<g>
</g>
<g>
</g>
<g>
</g>
<g>
</g>
<g>
</g>
<g>
</g>
<g>
</g>
<g>
</g>
<g>
</g>
<g>
</g>
<g>
</g>
<g>
</g>
<g>
</g>
</svg>
