<?xml version="1.0" encoding="utf-8"?>
<!-- Generator: Adobe Illustrator 18.1.1, SVG Export Plug-In . SVG Version: 6.00 Build 0)  -->
<svg version="1.1" id="Calque_1" xmlns="http://www.w3.org/2000/svg" xmlns:xlink="http://www.w3.org/1999/xlink" x="0px" y="0px"
	 width="12.6px" height="27.1px" viewBox="0 0 12.6 27.1" enable-background="new 0 0 12.6 27.1" xml:space="preserve">
<g>
	<path id="Facebook_2_" fill="#F4F4F4" d="M2.7,5.2c0,0.7,0,3.7,0,3.7H0v4.6h2.7v13.5h5.6V13.5h3.8c0,0,0.4-2.2,0.5-4.6
		c-0.5,0-4.3,0-4.3,0s0-2.7,0-3.1c0-0.5,0.6-1.1,1.2-1.1c0.6,0,1.9,0,3.1,0c0-0.6,0-2.8,0-4.7c-1.6,0-3.4,0-4.2,0
		C2.6,0,2.7,4.6,2.7,5.2z"/>
</g>
<g>
</g>
<g>
</g>
<g>
</g>
<g>
</g>
<g>
</g>
<g>
</g>
<g>
</g>
<g>
</g>
<g>
</g>
<g>
</g>
<g>
</g>
<g>
</g>
<g>
</g>
<g>
</g>
<g>
</g>
</svg>
