<svg xmlns="http://www.w3.org/2000/svg" xmlns:xlink="http://www.w3.org/1999/xlink" preserveAspectRatio="xMidYMid" width="867" height="1760.18" viewBox="0 0 867 1760.18">
  <defs>
    <style>
      .cls-1 {
        fill: #2a2a2a;
      }

      .cls-1, .cls-2, .cls-3, .cls-4, .cls-8 {
        fill-rule: evenodd;
      }

      .cls-2, .cls-8, .cls-9 {
        fill: #353535;
      }

      .cls-3, .cls-6 {
        fill: #404040;
      }

      .cls-10, .cls-4 {
        fill: #1b1c1e;
      }

      .cls-5 {
        fill: #1b1b1b;
        opacity: 0.42;
      }

      .cls-7 {
        fill: #141516;
      }

      .cls-8 {
        stroke: #404040;
        stroke-linejoin: round;
        stroke-width: 3px;
      }
    </style>
  </defs>
  <g>
    <g>
      <path d="M8.500,221.090 C13.194,221.090 17.000,224.896 17.000,229.590 L17.000,283.590 C17.000,288.284 13.194,292.090 8.500,292.090 C3.806,292.090 -0.000,288.284 -0.000,283.590 L-0.000,229.590 C-0.000,224.896 3.806,221.090 8.500,221.090 Z" class="cls-1"/>
      <path d="M8.500,374.090 C13.194,374.090 17.000,377.895 17.000,382.590 L17.000,494.590 C17.000,499.284 13.194,503.090 8.500,503.090 C3.806,503.090 -0.000,499.284 -0.000,494.590 L-0.000,382.590 C-0.000,377.895 3.806,374.090 8.500,374.090 Z" class="cls-1"/>
      <path d="M8.500,533.090 C13.194,533.090 17.000,536.896 17.000,541.590 L17.000,653.590 C17.000,658.284 13.194,662.090 8.500,662.090 C3.806,662.090 -0.000,658.284 -0.000,653.590 L-0.000,541.590 C-0.000,536.896 3.806,533.090 8.500,533.090 Z" class="cls-1"/>
      <path d="M863.000,494.990 L863.000,495.090 L859.000,495.090 L859.000,364.090 L862.000,364.090 L862.000,364.090 C862.003,364.090 862.006,364.090 862.008,364.090 L863.000,364.090 L863.000,364.190 C865.282,364.653 867.000,366.671 867.000,369.090 L867.000,490.090 C867.000,492.509 865.282,494.526 863.000,494.990 Z" class="cls-1"/>
      <path d="M862.000,1631.368 C862.215,1635.224 862.221,1639.134 862.000,1643.090 C858.500,1705.707 805.867,1757.590 737.000,1760.090 C734.413,1760.184 731.861,1760.176 729.340,1760.090 L135.569,1760.090 C132.412,1760.229 129.222,1760.235 126.000,1760.090 C59.383,1757.090 13.000,1705.207 9.000,1643.090 C8.713,1638.641 8.726,1634.252 9.000,1629.930 L9.000,129.017 C8.776,125.095 8.771,121.116 9.000,117.090 C12.666,52.473 62.716,3.090 128.000,0.090 C131.275,-0.061 134.511,-0.053 137.709,0.090 L737.314,0.090 C739.526,0.025 741.754,0.020 744.000,0.090 L745.000,0.090 L745.000,0.133 C808.818,2.622 860.010,52.809 862.000,117.090 C862.069,119.326 862.064,121.546 862.000,123.751 L862.000,1631.368 Z" class="cls-2"/>
      <path d="M733.000,1746.590 L131.000,1746.590 L131.000,1746.438 C62.542,1743.479 21.000,1696.941 21.000,1629.590 L21.000,129.090 C21.000,59.972 66.883,12.090 138.000,12.090 C138.669,12.090 139.334,12.104 140.000,12.115 L140.000,12.090 L732.983,12.090 C732.988,12.090 732.994,12.090 733.000,12.090 C805.617,12.090 850.000,59.972 850.000,129.090 L850.000,1629.590 C850.000,1694.207 797.617,1746.590 733.000,1746.590 Z" class="cls-3"/>
      <path d="M846.000,1626.215 L845.536,1626.215 C845.837,1629.369 846.000,1632.560 846.000,1635.786 C846.000,1690.100 793.231,1744.090 728.138,1744.090 C728.133,1744.090 728.129,1744.090 728.125,1744.090 L728.125,1744.090 L135.812,1744.090 L135.812,1743.956 C62.323,1741.153 25.000,1694.223 25.000,1626.242 C25.000,1626.233 25.000,1626.224 25.000,1626.215 L25.000,1626.215 L25.000,133.965 L25.000,133.965 C25.000,133.956 25.000,133.947 25.000,133.938 C25.000,64.320 68.220,16.090 142.861,16.090 C143.535,16.090 144.204,16.104 144.875,16.115 L144.875,16.090 L728.122,16.090 C728.127,16.090 728.133,16.090 728.139,16.090 C805.290,16.090 846.500,66.820 846.000,133.938 C846.000,133.947 845.999,133.956 845.999,133.965 L846.000,133.965 L846.000,1626.215 Z" class="cls-4"/>
      <rect x="850" y="151.09" width="12" height="16" class="cls-5"/>
      <rect x="9" y="151.09" width="12" height="16" class="cls-5"/>
      <rect x="850" y="1580.09" width="12" height="16" class="cls-5"/>
      <rect x="9" y="1580.09" width="12" height="16" class="cls-5"/>
    </g>
    <g>
      <circle cx="435" cy="1651.09" r="63" class="cls-6"/>
      <circle cx="435" cy="1651.09" r="55" class="cls-7"/>
    </g>
    <path d="M397.500,116.590 L513.500,116.590 C517.918,116.590 521.500,120.172 521.500,124.590 C521.500,129.008 517.918,132.590 513.500,132.590 L397.500,132.590 C393.082,132.590 389.500,129.008 389.500,124.590 C389.500,120.172 393.082,116.590 397.500,116.590 Z" class="cls-8"/>
    <g>
      <circle cx="325" cy="118.09" r="18" class="cls-9"/>
      <circle cx="325" cy="118.09" r="11" class="cls-10"/>
    </g>
  </g>
</svg>
