<?xml version="1.0" encoding="utf-8"?>
<!-- Generator: Adobe Illustrator 18.1.1, SVG Export Plug-In . SVG Version: 6.00 Build 0)  -->
<svg version="1.0" id="Calque_1" xmlns="http://www.w3.org/2000/svg" xmlns:xlink="http://www.w3.org/1999/xlink" x="0px" y="0px"
	 viewBox="0 0 640 335" enable-background="new 0 0 640 335" xml:space="preserve">
<text transform="matrix(1 0 0 1 33.0075 281.7643)" fill="#719EC6" font-family="'HansKendrick-Regular'" font-size="40.1616">fondation nicolas hulot</text>
<g>
	<path fill="#719EC6" d="M39.2,118.4c0.5-1.2,1.2-2.3,1.5-3.5c7.6-31.5,42.3-47.4,71-32.5c18.5,9.6,29.1,30.6,26.1,51.8
		c-2.8,19.8-19.5,37.6-39,41.4c-26.6,5.2-51.9-11.2-58.2-37.5c-0.3-1.2-0.9-2.4-1.4-3.6C39.2,129.2,39.2,123.8,39.2,118.4z
		 M117.5,127.1c0-17.3-12.3-30.3-28.7-30.4c-16.5-0.1-28.9,12.8-28.9,30.1c0,17.4,12.2,29.8,29.1,29.7
		C105.3,156.4,117.5,143.8,117.5,127.1z"/>
	<path fill="#719EC6" d="M578.2,151.7c-2.3,7.5-6,14-12.6,18.7c-14.1,10-39.3,7.6-50.8-5.2c-2-2.2-3.5-4.8-4.8-7.5
		c-2.7-5.8-1.1-10.8,3.9-13.3c4.8-2.5,10-0.6,13.3,4.7c5,8,12.1,10.8,21.5,8.3c5.2-1.4,8-4.3,8.2-8.8c0.3-5.1-1.5-8.2-6.9-10.2
		c-5.5-2-11.2-3.2-16.7-5.1c-4.1-1.4-8.2-3-11.8-5.2c-15.8-9.4-17.7-29.9-4.1-42.3c13.4-12.3,37.1-12,49.4,0.6
		c1.7,1.8,3.2,3.9,4.4,6.1c2.7,4.9,1.8,8.7-2.5,11.7c-4.3,3-8.8,2.6-12.3-1.6c-5-5.9-11-8.6-18.6-6.9c-4.6,1-7.9,4.3-8.3,8.2
		c-0.5,4.9,1.4,8,6.5,9.9c4.3,1.6,8.8,2.9,13.3,4.1c13.6,3.6,24.9,9.9,29,24.6C578.2,145.7,578.2,148.7,578.2,151.7z"/>
	<path fill="#719EC6" d="M473.9,138.5c0-4.4,0-8.8,0-13.3c0-12.3-0.1-24.5,0-36.8c0-5.7,3.1-9.7,8.1-11c3.8-1,8.6,0.9,10.8,4.6
		c0.9,1.6,1.6,3.6,1.6,5.4c0.1,26.2,0.1,52.4,0.1,78.6c0,4.3-2.3,7.6-6.1,9.1c-4.3,1.8-8.8,1.1-12-2.4c-5.8-6.4-11.3-13.1-16.8-19.8
		c-10.1-12.2-20.1-24.5-30.1-36.8c-0.7-0.9-1.6-1.6-3.1-3c0,2.3,0,3.7,0,5.1c0,15.6,0,31.1,0,46.7c0,6.5-4.4,10.9-10.4,10.9
		c-5.8-0.1-10.1-4.6-10.1-10.7c0-25.4,0-50.9-0.1-76.3c0-5,2-8.9,6.5-10.8c4.6-2,9.3-1,12.7,2.8c5.8,6.6,11.4,13.4,17,20.2
		c10.3,12.5,20.6,25.1,31,37.7C473.2,138.7,473.6,138.6,473.9,138.5z"/>
	<path fill="#719EC6" d="M180,76.8c11.6-0.1,21.4,3.5,28.5,13.1c4.6,6.3,3.6,11.9-2.4,15.1c-4.2,2.2-7.6,1.6-11.4-2.8
		c-4.2-4.9-9.3-7.4-15.7-6.8c-6.6,0.6-10.5,4-11,9.2c-0.5,4.6,2.7,8.3,8.9,10.3c6.1,1.9,12.3,3.6,18.4,5.7
		c7.3,2.6,13.8,6.6,17.9,13.4c6.6,10.9,4,25.4-5.9,34.2c-13.8,12.2-40.4,11.2-53-2.2c-2.5-2.7-4.4-6-6-9.3
		c-2.3-4.7-0.8-8.9,3.5-11.6c4.2-2.6,8.8-2,12.2,1.6c0.7,0.8,1.4,1.6,1.9,2.5c4.4,9.6,15.5,10.4,23.2,7.9c3.8-1.3,6.3-3.9,6.7-8.1
		c0.4-4.3-0.9-7.7-5.2-9.3c-4.9-1.8-9.9-3.2-14.8-5c-5.3-2-10.8-3.7-15.6-6.6c-17.5-10.5-17.4-34.4-0.1-45.3
		C166.4,78.6,172,77,180,76.8z"/>
	<g id="_x36_ZFHRA.tif_1_">
		<g>
			<path fill="#719EC6" d="M313.4,39.4c0.1,0.1,0.3,0.2,0.4,0.2c2,0,3.9,0.3,5.9,0.5c0.9,0.1,1.8,0.3,2.7,0.4c0.1,0,0.2,0.1,0.3,0.1
				c-0.1,0.3-0.4,0.3-0.6,0.3c-0.6,0-1.3,0-1.9,0c-1.1-0.1-2.2-0.1-3.4-0.2c-0.5,0-1.1-0.1-1.6-0.1c-0.5,0-1.1,0-1.6,0.1
				c-1.6,0.2-3.2,0.3-4.8,0.5c-0.9,0.1-1.7,0.2-2.6,0.4c-0.6,0.2-1.2,0.5-1.8,0.7c-3.1,1.3-6.2,2.6-9.2,3.9
				c-1.1,0.5-2.2,0.8-3.3,1.2c-1.3,0.5-2.4,1.2-3.5,2c-0.8,0.6-1.6,1.3-2.3,1.9c-0.4,0.3-0.7,0.5-1.2,0.3c-0.5-0.2-0.8-0.5-1-0.9
				c-0.2-0.4,0-0.8,0.3-1.1c0.1-0.2,0.3-0.4,0.5-0.5c1.4-1.3,2.9-2.4,4.6-3.2c0.8-0.3,1.6-0.6,2.4-0.8c1.4-0.4,2.8-0.9,4.2-1.5
				c1.8-0.7,3.5-1.5,5.2-2.3c0.7-0.3,1.3-0.7,2-1c0.7-0.4,1.4-0.6,2.3-0.6c0.1,0,0.3-0.1,0.4-0.2C308.3,39.4,310.8,39.4,313.4,39.4z
				"/>
			<path fill="#719EC6" d="M222.3,128.6c0.2,0,0.3-0.2,0.3-0.4c0.4-0.9,0.8-1.7,1.5-2.4c0.2-0.2,0.5-0.4,0.8-0.4
				c0.6,0,1,0.2,1.2,0.7c0.2,0.5,0.4,0.9,0.4,1.4c0.1,0.8-0.1,1.6-0.6,2.2c-0.4,0.5-0.8,0.9-1.3,1.3c-0.7,0.6-1.5,0.4-1.9-0.4
				c-0.1-0.2-0.3-0.4-0.4-0.6C222.3,129.5,222.3,129,222.3,128.6z"/>
			<path fill="#719EC6" d="M345,131.9c0,0.8-0.1,1.7-0.1,2.5c-0.1,1.1,0,2.2,0.3,3.2c0.3,1.3,0.8,2.7,1.1,4c0.3,1.4,0.6,2.9,0.7,4.3
				c0.1,1.3,0.2,2.5,0.1,3.8c0,1.6-0.2,3.2-0.5,4.8c-0.2,0.9-0.4,1.9-0.7,2.8c-0.1,0.4-0.3,0.7-0.4,1c-0.5,1.2-1,2.3-1.5,3.5
				c-0.2,0.4-0.4,0.8-0.7,1.2c-0.1,0.2-0.3,0.4-0.6,0.3c-0.3-0.1-0.3-0.3-0.4-0.5c-0.2-0.9,0-1.7,0.2-2.5c0.8-2.3,1.1-4.6,1.2-7
				c0-1.1,0.1-2.2,0.1-3.4c0-1.9-0.1-3.8-0.6-5.6c-0.2-1-0.6-2-0.9-3c-0.3-1-0.4-1.9-0.5-2.9c-0.2-1.8-0.3-3.6-0.2-5.5
				c0-1.2,0.1-2.4,0.2-3.6c0.1-1.3,0.1-2.6,0-3.9c-0.1-1-0.4-1.9-0.7-2.9c-0.5-1.6-0.9-3.2-1.2-4.9c-0.5-2.5-0.8-5.1-1.1-7.6
				c-0.2-1.7-0.5-3.3-0.7-5c-0.2-1.5-0.5-2.9-0.6-4.4c-0.1-0.5,0-1,0.1-1.5c0.2-0.8,0.9-1.2,1.7-0.9c0.6,0.2,1,0.5,1.2,1
				c0.4,0.8,0.5,1.7,0.6,2.5c0.2,1.2,0.4,2.4,0.6,3.5c0.3,2,0.6,4,0.7,6c0.1,1.9,0.3,3.9,1,5.7c0.3,0.9,0.7,1.7,1.2,2.4
				c0,0.1,0.1,0.2,0.2,0.2c0.2,0.2,0.6,0.4,0.8,0.3c0.3-0.2,0.4-0.5,0.3-0.8c-0.1-0.8-0.3-1.6-0.4-2.4c-0.2-1.2-0.5-2.4-0.7-3.6
				c-0.2-0.9-0.4-1.9-0.5-2.8c-0.1-0.4-0.1-0.9-0.1-1.3c0-0.7,0.3-1.3,0.8-1.8c0.4-0.4,0.9-0.4,1.3,0.1c0.2,0.3,0.4,0.6,0.5,0.9
				c0.3,1.2,0.7,2.4,0.9,3.7c0.2,1.2,0.4,2.4,0.6,3.6c0.2,1.4,0.4,2.8,0.6,4.1c0.1,0.4,0.1,0.8,0.2,1.3c0.1,1,0.4,2,0.8,2.9
				c0.6,1.5,0.9,3.1,0.8,4.7c-0.1,1-0.1,2.1-0.1,3.1c0,1.8,0.1,3.6,0.5,5.3c0.4,2.1,0.8,4.3,1.2,6.4c0.4,2.2,0.4,4.4,0,6.6
				c-0.4,2.1-0.7,4.1-0.8,6.2c0,0.6-0.2,1.3-0.4,1.9c-0.7,2.2-1.5,4.4-2.3,6.6c-0.7,2-1.4,3.9-2.1,5.9c-0.1,0.2-0.1,0.3-0.2,0.5
				c-0.3,0.5-0.8,0.6-1.2,0.2c-0.4-0.3-0.6-0.7-0.6-1.2c-0.1-0.9-0.1-1.8,0.1-2.6c0.3-1.1,0.6-2.2,1-3.3c0.7-2.2,1.3-4.5,1.8-6.8
				c0.3-1.3,0.6-2.5,0.8-3.8c0.3-1.7,0.5-3.5,0.7-5.2c0.1-0.9,0.2-1.7,0.2-2.6c0-1.3-0.1-2.6-0.5-3.8c-0.4-1.1-0.7-2.1-1-3.2
				c-0.3-1.2-0.4-2.3-0.5-3.5c0-1.3,0.1-2.6,0.2-4c0.1-1.3,0.1-2.6-0.2-3.9c-0.1-0.4-0.2-0.7-0.4-1.1c-0.1-0.2-0.3-0.4-0.5-0.5
				c-0.2-0.1-0.5-0.1-0.5,0.2c-0.2,0.5-0.3,1-0.4,1.5C345,129,345,130.5,345,131.9C344.9,131.9,345,131.9,345,131.9z"/>
			<path fill="#719EC6" d="M373.8,133.3c0,0.9,0,1.9-0.5,2.7c-0.1,0.3-0.3,0.5-0.5,0.7c-0.4,0.5-1,0.4-1.2-0.2c-0.4-1-0.5-2-0.6-3
				c-0.3-2.7-0.5-5.4-0.9-8.1c-0.2-1.6-0.6-3.1-1-4.6c-0.8-3.1-1.9-6.2-3-9.2c-0.2-0.6-0.4-1.3-0.7-1.9c-0.2-0.4-0.4-0.8-0.7-1.1
				c-0.2-0.2-0.4-0.4-0.7-0.3c-0.3,0.1-0.4,0.3-0.4,0.6c0,0.3-0.1,0.5-0.1,0.8c0.1,1.6,0.4,3.1,0.9,4.6c0.4,1.2,0.8,2.4,1.3,3.6
				c0.3,0.8,0.8,1.6,1.1,2.5c0.6,1.3,0.9,2.7,1,4.2c0.3,2.7,0.5,5.3,0.7,8c0.2,1.9,0.3,3.8,0.4,5.7c0.1,1.7,0.1,3.3-0.4,5
				c-0.2,0.6-0.4,1.2-0.8,1.7c-0.5,0.6-0.9,0.6-1.4-0.1c-0.3-0.6-0.5-1.2-0.5-1.8c-0.1-0.9-0.1-1.8-0.1-2.8c0-1.5,0.1-3.1,0-4.6
				c0-1.5-0.1-3-0.3-4.5c-0.1-1.4-0.3-2.7-0.5-4c-0.3-2.3-0.6-4.6-1.3-6.8c-0.5-1.6-1.1-3.3-1.7-4.9c-0.6-1.7-1.1-3.5-1.4-5.3
				c-0.2-1.6-0.3-3.2-0.3-4.8c0-0.7,0-1.4-0.1-2.1c-0.2-1.3-0.5-2.6-1.1-3.7c-0.8-1.5-1.5-3.1-2.3-4.6c-0.8-1.5-1.9-2.8-3.1-3.9
				c-0.7-0.7-1.3-1.4-2-2.2c-1.5-1.8-2.8-3.6-4.3-5.4c-1.8-2.1-3.7-4-5.8-5.8c-1.7-1.4-3.3-3-4.9-4.6c-1-1-1.7-2.2-1.9-3.7
				c-0.2-1.2-0.7-2.2-1.4-3.1c-0.5-0.6-0.6-1.3-0.4-2c0.1-0.5,0.4-0.8,1-0.8c0.8-0.1,1.4,0.2,2,0.7c1,0.9,1.7,1.9,2.1,3.2
				c0.3,0.8,0.6,1.7,0.9,2.5c0.6,1.5,1.5,2.7,2.9,3.4c0.9,0.5,1.7,1.2,2.5,1.9c1.7,1.6,3.3,3.3,5,4.9c1.8,1.7,3.3,3.6,4.9,5.5
				c1.4,1.7,2.9,3.4,4.4,5c1.3,1.5,2.4,3.1,3.1,4.9c0.8,2,1.5,3.9,2.3,5.9c0.6,1.4,1.4,2.7,2.5,3.8c0.6,0.7,1,1.5,1.3,2.3
				c1.1,2.7,2.1,5.5,3.2,8.2c0.9,2.2,1.4,4.6,1.7,6.9c0.5,3.2,0.7,6.4,1,9.7C373.7,132.6,373.7,132.9,373.8,133.3z"/>
			<path fill="#719EC6" d="M324.7,180c0.7-0.1,1.4-0.2,2-0.4c0.1,0,0.2,0,0.3-0.1c0.4,0,0.7,0.2,0.7,0.6c0.1,0.6-0.1,1.2-0.5,1.7
				c-0.3,0.5-0.7,1-1.1,1.4c-1.6,1.8-2.9,3.7-4.1,5.8c-0.8,1.3-1.7,2.5-2.7,3.7c-1.3,1.6-2.5,3.2-3.8,4.8c-1.9,2.3-4.2,4.4-6.6,6.2
				c-2.4,1.8-5.1,3.3-7.7,4.8c-1.4,0.8-2.7,1.5-4.1,2.3c-1.9,1-3.9,1.4-6,1.3c-0.5,0-1-0.2-1.5-0.3c-0.5-0.2-0.6-0.6-0.1-0.9
				c0.4-0.2,0.8-0.4,1.2-0.6c2.7-1,5.4-2.1,7.9-3.6c1.8-1.1,3.6-2.2,5.2-3.5c2.5-1.8,4.9-3.8,7.3-5.7c1.7-1.4,3.1-3,4.3-4.8
				c0.8-1.1,1.6-2.2,2.3-3.4c0.3-0.5,0.7-1.1,1-1.6c0.2-0.3,0.1-0.7,0-1.1c-0.1-0.3-0.3-0.4-0.6-0.3c-0.5,0.1-0.9,0.4-1.2,0.8
				c-1.2,1.5-2.5,3-3.7,4.5c-1.4,1.7-3,3.2-4.7,4.5c-1.3,1-2.7,2-3.9,3.1c-0.9,0.8-1.7,1.6-2.7,2.3c-1.4,1.1-3,2-4.6,2.8
				c-2.1,1.1-4.2,2-6.3,2.8c-1.7,0.7-3.5,1.3-5.2,1.9c-1.8,0.6-3.6,0.5-5.3-0.3c-0.2-0.1-0.5-0.3-0.7-0.4c-0.2-0.2-0.2-0.5,0.1-0.7
				c0.2-0.1,0.4-0.2,0.6-0.3c1.6-0.4,3.3-0.8,4.9-1.3c3.2-1,6.3-2.4,9.3-4.1c2.6-1.5,5.2-3.2,7.7-4.9c2.7-2,5.4-4.1,7.8-6.4
				c1.3-1.2,2.5-2.4,3.7-3.7c1.3-1.4,2.5-2.8,3.6-4.4c1.3-1.9,2.8-3.6,4.1-5.5c1.7-2.3,3.3-4.6,4.9-6.9c1.2-1.8,2.1-3.7,2.9-5.7
				c1.1-2.8,2.1-5.7,3-8.6c0.3-1.1,0.6-2.2,0.9-3.3c0.1-0.4,0.3-0.9,0.6-1.2c0.3-0.4,0.8-0.4,1.1,0c0.3,0.3,0.4,0.7,0.4,1.2
				c0.1,1.8-0.1,3.7-0.6,5.5c-0.6,2.2-1.3,4.4-2.2,6.5c-0.9,2.1-1.9,4.1-2.8,6.2c-0.8,1.7-1.6,3.3-2.6,4.9c-0.3,0.4-0.6,0.9-0.9,1.3
				c-0.7,0.8-1.1,1.8-1.7,2.7C324.8,179.8,324.8,179.8,324.7,180z"/>
			<path fill="#719EC6" d="M333.7,45.2c-0.3-0.5-0.7-1-1-1.4c-0.1-0.2-0.3-0.4-0.4-0.6c-0.3-0.6,0-1.1,0.7-1
				c0.4,0.1,0.8,0.2,1.2,0.3c2.1,0.8,4.1,1.7,6.1,2.6c2.9,1.3,5.8,2.6,8.8,3.9c0.6,0.3,1,0.6,1.2,1.2c0.1,0.2,0.1,0.4,0.1,0.6
				c0,0.4-0.3,0.7-0.7,0.6c-0.4,0-0.7-0.2-1.1-0.3c-0.3-0.1-0.5-0.3-0.8-0.4c-0.4-0.2-0.7,0-0.8,0.5c0,0.2,0,0.4,0.1,0.6
				c0.5,0.8,0.6,1.7,0.5,2.7c0,1.1-0.5,1.4-1.5,1c-0.5-0.2-1-0.4-1.5-0.8c-1.6-1.3-3.2-2.5-4.8-3.8c-1.5-1.2-3.2-1.9-5.1-2.5
				c-2.1-0.6-4.2-1.1-6.3-1.5c-2-0.4-4-0.9-6-1.2c-1.7-0.3-3.5-0.4-5.2-0.5c-1.3-0.1-2.6-0.1-3.9,0.2c-1,0.2-2,0.5-3,0.7
				c-0.4,0.1-0.8,0.3-1.2,0.4c-0.6,0.2-1,0.7-1.6,1.1c0.2,0,0.3,0.1,0.4,0.1c2,0,4-0.1,6.1-0.1c1,0,1.9,0.1,2.8,0.3
				c0.4,0.1,0.8,0.1,1.2,0.1c1.6,0,3.3,0.1,4.9,0.4c1.3,0.2,2.6,0.5,4,0.7c0.9,0.2,1.8,0.3,2.7,0.5c2.4,0.4,4.8,0.9,7.1,1.9
				c0.6,0.3,1.1,0.7,1.7,1c0.5,0.3,0.7,0.8,0.9,1.4c0.3,1-0.2,1.7-1.2,1.9c-0.9,0.1-1.8-0.1-2.6-0.5c-1.3-0.8-2.6-1.6-4-2.1
				c-1.7-0.7-3.5-1-5.4-1.1c-1.8,0-3.6-0.2-5.4-0.2c-1,0-2-0.1-3-0.2c-1.2-0.1-2.4-0.2-3.6-0.4c-1.5-0.3-3.1-0.4-4.7-0.3
				c-1.8,0.1-3.6,0.3-5.3,0.5c-2,0.2-4,0.6-6,1.1c-2.4,0.6-4.7,1.6-7,2.5c-0.1,0.1-0.3,0.1-0.4,0.2c-1.1,0.4-2-0.2-2.2-1.3
				c-0.1-0.7,0-1.3,0.7-1.7c1.4-0.9,2.8-1.8,4.2-2.7c1.5-0.9,3.1-1.5,4.7-2.1c2-0.6,3.9-1.5,5.8-2.5c1.5-0.9,3.2-1.5,4.9-1.9
				c1.8-0.4,3.5-0.6,5.3-0.7c2.4-0.1,4.8,0,7.2,0.3c1.8,0.2,3.5,0.4,5.3,0.9c1.1,0.3,2.1,0.6,3.1,0.9c1,0.3,2.1,0.5,3.1,0.8
				c0.3,0.1,0.6,0.1,0.9,0.2C333.6,45.2,333.6,45.2,333.7,45.2z"/>
			<path fill="#719EC6" d="M299.1,157.1c-0.2,0.1-0.3,0.1-0.4,0.2c-1.5,0.8-2.9,1.7-4.4,2.5c-0.8,0.4-1.7,0.7-2.5,1c0,0-0.1,0-0.1,0
				c-0.9,0.2-1.4-0.2-1.2-1.2c0.2-1,0.7-1.7,1.5-2.2c0.9-0.6,1.9-1.2,2.9-1.8c1.8-1.1,3.5-2.2,5.3-3.3c1.7-1.1,2.9-2.6,3.7-4.5
				c1.5-3.5,3-7,4.5-10.5c0.5-1.3,1.1-2.5,1.4-3.9c0.3-1.3,0.5-2.6,0.3-4c-0.2-1.5-1.2-2.6-2.6-3c-1.9-0.5-4.6,0.3-5.9,2.1
				c-0.8,1.1-1.5,2.3-2.1,3.6c-0.9,2.2-1.8,4.4-2.8,6.6c-0.6,1.5-1.3,2.9-2.1,4.3c-0.7,1.2-1.7,2-2.9,2.6c-0.2,0.1-0.5,0.2-0.7,0.2
				c-0.9,0.2-1.5-0.3-1.6-1.2c0-0.8,0.2-1.5,0.5-2.1c1.1-2,2.1-4,3.2-6c1.4-2.5,2.7-5,4.1-7.5c0.7-1.2,1.4-2.4,2.4-3.5
				c0.9-1,1.8-2,3.1-2.6c1.1-0.5,2.2-0.8,3.4-0.9c1.4-0.1,2.8,0.1,4.1,0.7c1.7,0.8,2.9,2,3.6,3.8c0.4,1.1,0.6,2.2,0.6,3.4
				c0,0.8-0.1,1.6-0.3,2.5c-0.3,2.3-1.3,4.3-2.2,6.3c-1.1,2.2-2,4.5-2.7,6.8c-0.6,1.9-1.2,3.9-1.7,5.9c-0.6,2.3-1.7,4.4-3.1,6.3
				c-1.2,1.6-2.8,2.9-4.1,4.4c-1.4,1.5-2.8,3.1-4.1,4.7c-0.7,0.8-1.4,1.6-2.1,2.4c-0.7,0.8-1.4,1.5-2.1,2.2
				c-0.8,0.8-1.8,0.9-2.8,0.7c-0.3,0-0.4-0.2-0.4-0.5c-0.1-1.2,0-2.3,1-3.2c0.9-0.8,1.6-1.7,2.3-2.6c1-1.3,2-2.5,3.2-3.6
				c0.9-0.8,1.7-1.6,2.6-2.4c0.7-0.6,1.1-1.4,1.5-2.3C299.1,157.4,299.1,157.3,299.1,157.1z"/>
			<path fill="#719EC6" d="M362.2,154.5c-0.5,0.4-0.6,0.9-0.7,1.4c-0.6,2.1-1.1,4.2-1.7,6.2c-0.2,0.6-0.3,1.3-0.5,1.9
				c-0.2,0.9-0.7,1.6-1.2,2.3c-0.3,0.4-0.7,0.7-1.2,0.6c-0.5,0-0.8-0.2-0.7-0.7c0.1-0.5,0.2-1.1,0.3-1.6c0.6-2.2,1.2-4.4,1.8-6.7
				c0.5-1.9,1-3.9,1.6-5.8c0.3-1,0.5-2.1,0.9-3.1c0.3-1.1,0.3-2.1,0.1-3.2c-0.5-2.5-0.9-5.1-1.4-7.6c-0.3-2-0.4-4.1-0.4-6.1
				c0-0.7,0.1-1.4,0.1-2.1c0-0.8,0-1.7-0.1-2.5c-0.2-1.7-0.6-3.4-1.1-5c-0.7-2.5-1.4-4.9-1.8-7.5c-0.3-1.6-0.6-3.2-0.8-4.8
				c-0.2-1.2-0.3-2.5-0.3-3.7c0-2.4-0.7-4.5-2-6.4c-1-1.5-2.1-3-3.4-4.2c-0.2-0.2-0.5-0.4-0.7-0.6c-0.5-0.5-0.9-1.1-1.1-1.7
				c-0.9-2.4-2.4-4.3-4.2-5.9c-1.3-1.1-2.7-2.1-4-3.2c-1.8-1.4-3.5-2.9-5.3-4.3c-0.8-0.6-0.9-1.4-0.8-2.3c0.1-0.6,0.8-1.2,1.5-1.2
				c0.8-0.1,1.5,0.1,2.2,0.6c1.2,0.8,2.4,1.6,3.5,2.7c0.4,0.4,0.8,0.9,1.2,1.3c0.8,1,1.8,1.8,2.8,2.6c1.9,1.5,3.5,3.3,4.7,5.4
				c1.1,1.9,2.5,3.5,4.1,5c2.1,2,3.8,4.3,4.5,7.1c0.3,1.2,0.4,2.3,0.5,3.5c0,1,0.1,2.1,0.1,3.1c0,0.5,0,1,0,1.5
				c0.1,2.3,0.6,4.5,1.3,6.7c0.3,1,0.8,2,1.1,3.1c0.6,1.7,1,3.4,1.2,5.1c0.2,1.8,0.4,3.7,0.4,5.5c0,1.5,0.1,2.9,0.2,4.4
				c0.1,1.5,0.1,2.9,0.2,4.4c0.1,1.5,0.2,3,0.4,4.6c0.2,1.2,0.4,2.5,0.7,3.7c0.3,1.3,0.7,2.6,1.1,3.9c0.1,0.5,0.3,1,0.3,1.5
				c0,0.5,0,1-0.1,1.5c0,0.4-0.1,0.8-0.2,1.1c-0.1,0.5-0.2,0.9-0.5,1.2c-0.5,0.5-1.1,0.4-1.5-0.2c0-0.1-0.1-0.1-0.1-0.2
				C363.1,155,363,154.8,362.2,154.5z"/>
			<path fill="#719EC6" d="M340.1,148.9c-0.1,1.1-0.1,2.1-0.2,3.2c-0.1,1.4-0.2,2.8-0.3,4.2c-0.2,1.6-0.2,3.3-0.6,4.9
				c-0.3,1-0.6,2-0.9,3c-0.7,2.2-1.4,4.5-1.8,6.9c-0.2,1.4-0.7,2.8-1.1,4.2c-0.5,1.8-1.1,3.7-1.6,5.5c-0.7,2.5-1.3,5-2,7.6
				c-0.5,1.7-1,3.5-1.5,5.2c-1.3,3.8-3.1,7.3-5.5,10.5c-1,1.3-2.2,2.5-3.5,3.7c-1.3,1.3-2.6,2.6-3.9,3.9c-0.7,0.7-1.5,1.2-2.4,1.5
				c-0.8,0.3-1.6,0.6-2.5,0.5c-0.2,0-0.4,0-0.5-0.1c-0.6-0.3-0.6-0.5-0.2-1c0.1-0.2,0.3-0.3,0.5-0.5c1.4-1.4,2.9-2.8,4.2-4.2
				c2.4-2.5,4.8-5,6.8-7.8c1.4-1.9,2.7-3.9,3.7-6.1c0.4-0.9,0.7-1.8,0.9-2.7c0-0.2,0.1-0.4-0.2-0.5c-0.2-0.1-0.4,0-0.5,0.2
				c-0.6,0.9-1.2,1.8-1.8,2.7c-1.3,2-2.5,4-3.9,5.9c-1.2,1.6-2.6,3.1-4,4.6c-1.8,2-3.8,3.8-5.9,5.5c-1,0.8-2.1,1.6-3.2,2.4
				c-1.2,0.8-2.5,1.2-4,1.4c-0.7,0.1-1.3,0.2-2,0.2c-0.7,0-1.3-0.1-1.9-0.4c-0.6-0.2-0.6-0.6-0.1-0.9c0.6-0.4,1.2-0.7,1.9-1
				c2.5-1.3,4.8-2.9,7-4.7c1.2-0.9,2.4-1.8,3.5-2.7c2-1.5,3.7-3.3,5.2-5.3c1.9-2.5,3.6-5.1,5.5-7.7c1.3-1.8,2.7-3.5,4-5.2
				c1.2-1.5,2.2-3.1,2.8-4.8c0.3-0.9,0.6-1.9,0.6-2.8c0-1.8,0.5-3.4,1.2-5.1c1.1-2.4,2.1-4.9,3.2-7.3c0.8-1.8,1.3-3.7,1.8-5.6
				c0.3-1.3,0.7-2.6,0.9-3.9c0.2-1,0.3-1.9,0.3-2.9c0.1-1.6,0-3.2-0.2-4.8c-0.1-0.5-0.2-1.1-0.2-1.6c-0.1-0.6-0.1-1.2,0.2-1.7
				c0.1-0.1,0.2-0.3,0.3-0.4c0.2-0.3,0.5-0.3,0.8,0c0.6,0.6,1,1.4,1,2.3C340,147.8,340,148.3,340.1,148.9
				C340,148.9,340.1,148.9,340.1,148.9z"/>
			<path fill="#719EC6" d="M326,75.2c-0.7,0-1.4-0.2-2.1-0.5c-1.6-0.7-3.2-1.2-4.9-1.5c-2.3-0.4-4.7-0.3-7,0c-1.7,0.2-3.3,0.5-5,0.9
				c-1.7,0.5-3.3,1-5,1.6c-1.7,0.6-3.3,1.3-4.9,1.9c-2.1,0.9-4,2.1-5.6,3.7c-3.3,3-6.7,5.9-10.2,8.6c-1.8,1.4-3.6,2.7-5.3,4.1
				c-1.9,1.5-3.6,3.3-5.1,5.1c-2.5,3-4.5,6.3-6.5,9.7c-1.6,2.6-3,5.3-4.3,8c-1.4,2.9-2.7,5.8-3.8,8.8c-0.8,2.2-1.6,4.5-2.3,6.8
				c-0.2,0.7-0.6,1.4-0.9,2.1c-0.4,0.8-1.6,1.3-2.6,1.2c-0.7-0.1-1.1-0.8-0.8-1.5c0.3-0.8,0.6-1.6,1-2.4c1.5-3.7,3-7.3,4.5-11
				c0.8-2.1,1.6-4.2,2.5-6.3c1.6-3.9,3.4-7.6,5.7-11.1c1.3-1.9,2.7-3.8,4.3-5.5c2.1-2.4,4.5-4.3,7.1-6.2c3-2.3,6-4.5,8.9-6.8
				c1.4-1.1,2.7-2.4,4.1-3.6c1.7-1.4,3.5-2.8,5.2-4.2c1.2-0.9,2.4-1.7,3.6-2.5c1.4-0.9,2.9-1.5,4.5-2c1.5-0.5,3-1,4.5-1.4
				c1.5-0.4,3.1-0.7,4.6-1c1.9-0.3,3.8-0.4,5.7-0.5c2.2,0,4.5,0.1,6.7,0.5c1.3,0.3,2.6,0.6,3.7,1.3c0.4,0.3,0.9,0.6,1.2,0.9
				c0.5,0.4,0.6,0.9,0.4,1.5c0,0.1,0,0.1-0.1,0.2C327.4,75.1,327.2,75.2,326,75.2z"/>
			<path fill="#719EC6" d="M332,147.4c0,2.5-0.3,5-1,7.5c-0.5,1.9-1.2,3.7-2,5.6c-1.1,2.6-2.1,5.3-3.3,7.9c-1.3,2.9-3,5.5-4.9,8
				c-1.8,2.3-3.6,4.5-5.6,6.6c-1.7,1.8-3.5,3.4-5.4,5c-1.1,0.9-2.2,2-3.2,3.1c-1.4,1.5-2.9,2.7-4.6,3.8c-2.2,1.4-4.4,2.9-6.6,4.4
				c-1.8,1.2-3.7,2.1-5.7,2.9c-1.3,0.5-2.5,1-3.7,1.6c-1.3,0.6-2.6,1.2-4,1.5c-1,0.2-2,0.3-3,0.3c-0.8,0-1.6,0.1-2.4,0.3
				c-0.9,0.2-1.8,0.2-2.7,0c-0.1,0-0.2-0.1-0.4-0.1c-0.7-0.4-0.8-1.2-0.1-1.6c0.3-0.2,0.6-0.4,1-0.4c0.5-0.1,0.9-0.1,1.4-0.2
				c1.7-0.1,3.4-0.4,5-0.8c1.3-0.3,2.6-0.7,3.9-1.1c1.9-0.6,3.7-1.5,5.3-2.7c3.3-2.4,6.5-4.8,9.8-7.2c1.7-1.3,3.4-2.5,5-3.9
				c0.9-0.8,1.9-1.7,2.8-2.5c0.8-0.8,1.7-1.6,2.5-2.4c0.6-0.6,1.1-1.1,1.6-1.7c2.5-3.1,4.9-6.1,7.3-9.2c2.1-2.6,3.7-5.4,4.9-8.6
				c0.9-2.4,1.9-4.8,2.8-7.2c0.5-1.3,0.8-2.6,1.2-3.8c0.2-0.8,0.5-1.7,0.7-2.5c0.2-0.7,0.3-1.4,0.3-2.1c0.1-1.1,0-2.1,0-3.2
				c0-0.3,0-0.6,0-0.8c0-0.6,0.4-1,1.1-1.1c0.5-0.1,0.9,0.2,1.1,0.7c0.5,1.2,0.6,2.4,0.6,3.7C332,147,332,147.2,332,147.4z"/>
			<path fill="#719EC6" d="M296,40.8c-0.3,0.1-0.5,0.2-0.7,0.3c-1.1,0.3-2.2,0.5-3.3,0.8c-1.9,0.5-3.7,1.3-5.3,2.5
				c-1.5,1-2.9,2.1-4.3,3.3c-1.8,1.6-3.3,3.3-4.8,5.2c-1,1.2-2,2.4-3,3.6c-1.2,1.4-2.4,2.7-3.5,4.2c-0.9,1.1-1.7,2.2-2.5,3.4
				c-1.9,2.7-3.8,5.4-5.7,8.1c-0.7,1-1.5,2-2.2,3c-0.6,0.9-1.1,1.8-1.6,2.8c-1.8,3-3.7,5.9-5.5,8.9c-2.7,4.4-5.4,8.9-8.2,13.4
				c-0.8,1.3-1.7,2.7-2.5,4c-1.3,2.1-2.4,4.3-3.3,6.6c-1.3,3.1-2.5,6.1-3.8,9.2c-0.6,1.4-1.1,2.8-1.7,4.2c-0.1,0.3-0.3,0.7-0.5,1
				c-0.2,0.4-0.6,0.7-1.1,0.6c-0.5-0.1-0.8-0.3-1-0.8c-0.3-0.7-0.1-1.5-0.1-2.2c0-1.2,0.5-2.3,1-3.4c1.1-2.5,2.2-5,3.3-7.5
				c1-2.3,2.1-4.7,3.2-7c0.6-1.4,1.5-2.6,2.4-3.8c1.7-2.3,3.3-4.6,4.8-7.1c2.9-4.9,5.8-9.9,8.6-14.8c0.8-1.4,1.8-2.7,2.7-4
				c1.6-2.4,3.2-4.8,4.7-7.3c1.8-3,3.9-5.8,6.2-8.5c2.2-2.6,4.5-5.3,6.7-7.9c0.9-1.1,1.9-2.1,2.9-3.1c1.2-1.2,2.4-2.3,3.6-3.5
				c0.9-0.9,2-1.4,3.2-1.7c1.5-0.4,3.1-0.9,4.6-1.2c1-0.3,2-0.5,3.1-0.6c1-0.2,2.1-0.4,3.2-0.5C295.6,40.6,295.8,40.5,296,40.8z"/>
			<path fill="#719EC6" d="M387.3,153.9c-0.1-1.1-0.1-2.2-0.2-3.2c-0.1-1-0.5-1.9-1-2.8c-0.9-1.4-1.6-3-2-4.7
				c-0.6-2.4-1.1-4.9-1.7-7.3c-0.2-0.7-0.4-1.4-0.6-2.1c-0.1-0.3-0.4-0.7-0.6-1c-0.2-0.3-0.5-0.3-0.9-0.2c-0.3,0.1-0.4,0.4-0.4,0.7
				c0.1,1.4,0.3,2.8,0.7,4.2c0.2,0.8,0.4,1.5,0.6,2.3c0.3,1.5,0.2,3-0.3,4.5c-0.5,1.5-0.5,3.1-0.3,4.7c0.2,1.4,0.5,2.8,0.8,4.2
				c0.5,2,0.6,4.1,0.5,6.2c0,1.2-0.2,2.4-0.3,3.6c-0.2,1.8-0.3,3.5-0.5,5.3c-0.2,1.8-0.4,3.6-0.6,5.4c-0.1,0.9-0.2,1.9-0.3,2.8
				c-0.1,1.2-0.5,2.3-1.2,3.2c-0.3,0.4-0.6,0.7-1,1c-0.6,0.5-1,0.3-1.1-0.4c-0.1-0.6-0.1-1.2-0.2-1.8c-0.1-0.7,0.1-1.4,0.2-2.1
				c0.2-1.5,0.5-3,0.7-4.6c0.2-1.1,0.3-2.3,0.4-3.5c0.1-1.3,0.1-2.6,0.2-4c0.1-1.4,0.2-2.8,0.3-4.2c0.1-2,0.3-4,0.2-6.1
				c0-1.5-0.3-3-1.1-4.3c-0.8-1.4-0.9-2.9-0.7-4.4c0.3-1.8,0.4-3.7,0.3-5.6c-0.1-1.9-0.4-3.8-0.8-5.6c-0.2-0.7-0.3-1.3-0.4-2
				c-0.3-1.6-0.3-3.2-0.1-4.8c0-0.3,0.2-0.6,0.3-0.8c0.4-0.7,1.1-0.8,1.8-0.7c0.4,0.1,0.9,0.3,1.3,0.5c1.3,0.9,2.6,1.7,3.8,2.5
				c1.6,1.1,2.5,2.7,3,4.6c0.3,1.1,0.4,2.2,0.5,3.4c0.3,2.2,0.7,4.3,1.4,6.3c0.4,1.4,1,2.7,1.4,4.1c0.4,1.1,0.6,2.2,0.6,3.4
				c0.1,1.2,0.1,2.4,0.2,3.6c0.1,0.9,0.2,1.8,0.3,2.7c0.2,1.6-0.3,3-1.2,4.2c0,0-0.1,0.1-0.1,0.1c-0.4,0.5-0.9,0.4-1.2-0.2
				c-0.4-0.7-0.6-1.5-0.6-2.3c-0.1-1.7-0.2-3.5-0.3-5.2C387.2,153.9,387.2,153.9,387.3,153.9z"/>
			<path fill="#719EC6" d="M275.5,80.7c0.7-0.1,1.1,0.3,0.9,1.1c-0.1,0.4-0.3,0.8-0.4,1.2c-0.1,0.2-0.2,0.4-0.2,0.6
				c-0.1,0.3-0.1,0.5,0.1,0.7c0.2,0.2,0.5,0.3,0.8,0.1c0.3-0.2,0.6-0.4,0.9-0.6c1-0.8,1.9-1.6,2.8-2.4c4-3.4,8-6.7,12.4-9.6
				c2.2-1.5,4.5-2.9,6.9-4c1.8-0.8,3.7-1.4,5.7-1.8c1.4-0.2,2.8-0.6,4.2-0.8c1.3-0.2,2.6-0.3,3.8-0.4c1.9-0.2,3.8-0.2,5.7-0.1
				c1.4,0.1,2.8,0.3,4.2,0.5c0.9,0.2,1.8,0.4,2.7,0.7c0.6,0.2,1.1,0.6,1.2,1.4c0.2,1-0.3,1.6-1.3,1.4c-0.8-0.2-1.6-0.4-2.4-0.6
				c-1-0.3-2-0.6-3.1-0.9c-0.7-0.2-1.4-0.3-2.1-0.3c-1.7,0-3.3-0.1-5,0.2c-0.8,0.1-1.5,0.3-2.3,0.5c-0.7,0.1-1.5,0.2-2.2,0.3
				c-1.7,0.2-3.3,0.5-5,1c-0.9,0.2-1.8,0.6-2.7,0.8c-2.3,0.4-4.1,1.7-5.9,3c-0.7,0.5-1.5,1.1-2.3,1.5c-2.1,1.2-4,2.7-5.8,4.3
				c-1.4,1.2-2.7,2.5-4,3.8c-2.7,2.7-5.6,5.2-8.8,7.4c-1.2,0.9-2.5,1.7-3.7,2.6c-2.6,1.9-4.7,4.2-6.5,6.8c-1.7,2.4-3.3,4.8-4.7,7.3
				c-1.4,2.3-2.6,4.7-3.8,7.2c-1.1,2.3-2.1,4.7-3,7.2c-1.2,3.4-2.6,6.7-3.9,10c-0.2,0.4-0.4,0.7-0.6,1.1c-0.2,0.3-0.4,0.3-0.7,0
				c-0.4-0.4-0.6-0.8-0.5-1.4c0.1-0.8,0.5-1.6,0.7-2.4c0.7-2.1,1.7-4,2.6-6.1c1-2.3,1.9-4.6,2.7-7c0.9-2.9,2.2-5.6,3.5-8.3
				c0.6-1.1,1.2-2.2,1.8-3.4c0.3-0.6,0.5-1.2,0.8-1.8c0.7-1.5,1.7-2.9,2.9-4.1c1.3-1.4,2.5-2.7,3.8-4.1c0.6-0.6,1.2-1.2,1.8-1.8
				c1.5-1.6,2.6-3.5,3.4-5.6c0.6-1.6,1.6-3.1,2.6-4.4C274.2,81,274.8,80.7,275.5,80.7z"/>
			<path fill="#719EC6" d="M388.3,113.6c0-1,0.1-2,0.1-3c0-0.5,0-0.9,0.1-1.4c0.1-1.5-0.3-2.8-0.9-4.2c-1.7-3.6-3.3-7.3-4.9-11
				c-0.6-1.4-1.3-2.7-2.3-3.9c-0.8-0.9-1.4-2.1-1.9-3.2c-1.6-3.2-3.5-6.1-5.7-9c-1.9-2.4-3.8-4.8-5.7-7.2c-0.9-1.1-2-2-3.1-2.9
				c-1.3-1.1-2.7-2.2-4-3.4c-2-1.8-3.8-3.7-5.5-5.7c-0.6-0.8-1.2-1.6-1.6-2.5c-0.1-0.3-0.3-0.6-0.3-0.9c-0.1-0.8,0.4-1.4,1.2-1.4
				c0.4,0,0.8,0,1.2,0.2c0.4,0.2,0.7,0.4,0.9,0.7c0.7,1.3,1.6,2.4,2.6,3.5c1.1,1.1,2.2,2.2,3.3,3.3c0.2,0.2,0.5,0.4,0.8,0.6
				c0.2,0.1,0.4,0.3,0.5,0.1c0.1-0.1,0.1-0.4,0.1-0.5c-0.2-0.9-0.6-1.6-1.1-2.3c-0.6-0.7-1.3-1.3-2-1.8c-0.9-0.6-1.7-1.2-2.4-2.1
				c-0.2-0.3-0.4-0.6-0.5-0.9c-0.1-0.1-0.1-0.3-0.1-0.5c0-0.3,0.2-0.4,0.4-0.3c0.2,0.1,0.4,0.2,0.6,0.3c1.4,1,2.8,2.1,4.2,3.1
				c0.9,0.7,1.9,1.4,2.8,2.1c0.8,0.6,1.4,1.4,1.7,2.4c0.4,1.2,0.8,2.5,1.2,3.7c0.8,2,1.8,3.9,3.1,5.7c1.8,2.5,3.8,4.8,5.8,7.1
				c2.8,3.1,5.1,6.5,6.9,10.2c1.1,2.3,2.1,4.7,3.2,7c0.8,1.8,1.7,3.5,2.6,5.3c0.7,1.4,1.1,2.8,1.4,4.3c0.3,1.5,0.6,3,1,4.5
				c0.2,1,0.4,2,0.5,3c0,1-0.1,2-0.2,3c-0.1,0.4-0.3,0.8-0.5,1.2c-0.4,0.6-1.1,0.8-1.8,0.5c-1-0.5-1.8-1.3-1.7-2.5
				C388.3,114.5,388.3,114,388.3,113.6C388.3,113.6,388.3,113.6,388.3,113.6z"/>
			<path fill="#719EC6" d="M314,75c0.6,0.1,1.1,0.1,1.7,0.2c0.9,0.1,1.8,0.2,2.7,0.4c0.9,0.2,1.6,0.5,1.9,1.4
				c0.2,0.6,0.2,1.2-0.2,1.7c-0.2,0.4-0.6,0.5-1,0.4c-0.4-0.1-0.8-0.2-1.2-0.2c-1.7-0.4-3.5-0.5-5.3-0.4c-1.5,0.1-2.9,0.3-4.4,0.7
				c-1.3,0.3-2.6,0.7-3.8,1.2c-1.7,0.6-3.3,1.4-4.9,2.3c-2.1,1.2-3.8,2.8-5.7,4.3c-2.5,2.1-5.2,3.9-8,5.6c-2.3,1.4-4.5,3-6.5,4.8
				c-2.2,2-4.3,4.3-6.1,6.7c-1.1,1.5-2.1,3.1-3.2,4.6c-0.8,1.2-1.4,2.6-2,3.9c-1.4,3.2-2.8,6.3-4.2,9.5c-1.3,3-2.6,5.9-3.8,8.9
				c-0.3,0.6-0.6,1.2-1.1,1.7c-0.3,0.3-0.8,0.5-1.2,0.6c-0.4,0.1-0.8,0-1-0.4c-0.4-0.8-0.3-1.5-0.1-2.3c1.2-3.4,2.5-6.8,4-10.2
				c1.8-4.1,3.9-8.2,5.9-12.2c1.1-2.3,2.3-4.5,3.9-6.4c0.8-1,1.6-1.9,2.4-2.8c2.5-2.7,5.5-5,8.5-7c0.7-0.5,1.4-0.9,2.1-1.3
				c1.5-0.9,2.8-2,4.1-3.1c2-1.7,4-3.4,6-5.1c2.2-1.9,4.8-3.4,7.5-4.5c1.8-0.8,3.7-1.5,5.6-2c1.8-0.5,3.7-0.8,5.5-0.9
				C313,75.1,313.5,75.1,314,75z"/>
			<path fill="#719EC6" d="M313,81.1c1.3,0,2.4,0,3.5,0.3c1.5,0.3,2.9,0.9,4.2,1.6c0.8,0.4,1.2,1.3,1,2.1c-0.2,0.7-0.7,1-1.4,0.8
				c-0.6-0.2-1.3-0.5-1.9-0.8c-1.5-0.8-3.1-1.1-4.8-1.1c-0.9,0-1.8,0.2-2.7,0.4c-1.4,0.3-2.9,0.7-4.3,1.2c-2.7,0.9-5.3,2.3-7.5,4.1
				c-3.5,2.8-7.1,5.6-10.6,8.4c-2.2,1.8-4.4,3.5-6.5,5.4c-1.2,1.1-2.3,2.3-3.4,3.4c-2.6,2.6-4.2,5.7-6,8.8c-1.7,2.8-3.1,5.8-4.4,8.8
				c-0.7,1.7-1.3,3.4-2,5c-0.7,1.8-1.5,3.6-2.3,5.4c-0.1,0.3-0.3,0.5-0.5,0.8c-0.5,0.6-1.5,0.8-2.2,0.3c-0.2-0.1-0.3-0.3-0.4-0.6
				c0-0.7,0-1.4,0.2-2c0.5-1.5,1.3-2.8,2-4.2c1-2.1,2-4.2,2.9-6.4c1.6-3.7,3.2-7.5,5-11.1c1.6-3.3,3.7-6.3,6.2-9
				c2.5-2.7,5.3-5,8.4-7c2.9-1.8,5.7-3.9,8.3-6.1c0.9-0.8,1.9-1.6,2.8-2.5c1.8-1.6,3.9-2.9,6.1-3.8c2.2-0.9,4.5-1.5,6.9-1.7
				C310.9,81.3,312,81.2,313,81.1z"/>
			<path fill="#719EC6" d="M310,101.3c1.4,0,2.7,0.2,4,0.5c0.4,0.1,0.8,0.2,1.2,0.3c0.7,0.2,1.1,0.6,1,1.4c0,0.9-0.3,1.6-1.2,1.9
				c-0.4,0.1-0.9,0.1-1.4,0c-0.8-0.1-1.7-0.3-2.5-0.5c-1.4-0.2-2.8,0-4.1,0.8c-0.4,0.2-0.7,0.5-0.9,1c-0.2,0.5-0.1,0.8,0.5,1
				c0.4,0.1,0.9,0.2,1.4,0.2c0.9,0.1,1.8,0.1,2.7,0.2c0.6,0,1.1,0.2,1.7,0.3c0.2,0,0.4,0.1,0.5,0.2c0.4,0.2,0.6,0.5,0.6,1
				c-0.1,0.9-0.6,1.6-1.6,1.9c-0.8,0.3-1.7,0.3-2.5,0.1c-1.6-0.3-3.2-0.4-4.9-0.1c-2.1,0.4-4,1.2-5.7,2.4c-1.7,1.3-3.1,2.9-4.4,4.6
				c-2.1,2.7-3.8,5.6-5.4,8.7c-1.8,3.5-3.7,7-5.5,10.5c-0.7,1.4-1.3,2.8-1.7,4.3c-0.4,1.3-0.8,2.6-1.3,3.8c-0.2,0.6-0.6,1.2-1.1,1.7
				c-0.6,0.7-1.4,0.7-2,0c-0.5-0.6-0.8-1.3-0.6-2.1c0.2-0.8,0.4-1.5,0.7-2.3c0.8-2.1,1.6-4.2,2.4-6.3c0.5-1.4,1.1-2.9,1.7-4.3
				c1-2.4,2.3-4.7,3.7-7c0.8-1.3,1.5-2.7,2-4.1c0.8-2.1,2.1-3.9,3.6-5.5c0.8-0.9,1.6-1.7,2.4-2.6c1.3-1.4,2.8-2.5,4.4-3.4
				c2.1-1.2,3.8-2.7,5.2-4.7c0.9-1.3,2-2.4,3.4-3C307.4,101.5,308.7,101.3,310,101.3z"/>
			<path fill="#719EC6" d="M317.8,100.2c-0.5-0.1-1-0.2-1.5-0.4c-0.8-0.3-1.6-0.6-2.5-0.9c-2.4-0.7-4.8-0.8-7.2,0.1
				c-1.3,0.5-2.5,1.3-3.5,2.3c-2.6,2.6-5.5,5-8.3,7.4c-2.8,2.3-5.4,4.9-7.6,7.7c-1.7,2.2-3.2,4.5-4.4,7c-1.2,2.4-2.3,4.7-3.5,7.1
				c-0.8,1.8-1.6,3.6-2.4,5.4c-0.7,1.5-1.5,3-2.2,4.4c-0.2,0.3-0.5,0.7-0.8,0.9c-0.8,0.7-1.8,0.5-2.4-0.4c-0.4-0.6-0.5-1.2-0.3-1.9
				c0.2-0.8,0.4-1.6,0.7-2.3c0.6-1.7,1.3-3.3,2-4.9c2.4-5.5,5.2-10.7,8.7-15.5c1.1-1.5,2.3-3,3.5-4.5c0.8-1,1.6-2.1,2.3-3.1
				c1.3-1.8,3-3.3,4.9-4.5c2.5-1.6,4.9-3.2,7.2-5.1c0.6-0.5,1.1-1,1.7-1.5c1.8-1.5,3.8-2.5,6.1-3c2.4-0.5,4.7-0.5,7.1-0.1
				c0.8,0.1,1.6,0.4,2.4,0.6c1.1,0.4,1.8,1.2,2.1,2.3c0.1,0.2,0.1,0.5,0.2,0.7c0.1,0.7-0.1,1.3-0.8,1.5
				C318.8,100,318.3,100,317.8,100.2z"/>
			<path fill="#719EC6" d="M280.5,200.4c-0.1,0-0.3,0-0.4,0c-0.6,0-0.8-0.2-1-0.6c-0.2-0.5-0.1-0.9,0.3-1.3c0.5-0.4,1.1-0.8,1.6-1.1
				c2-1.3,3.9-2.6,5.8-3.9c2-1.4,4-2.6,6-3.9c3.3-2.1,6.4-4.4,9.3-7c0.5-0.4,1-0.9,1.5-1.3c0.9-0.9,1.7-1.9,2.3-3
				c1-1.9,2.3-3.5,3.7-5c0.5-0.6,1-1.1,1.6-1.6c0.9-0.8,1.8-1.7,2.7-2.5c1.3-1.2,2.4-2.6,3.4-4.2c1.2-1.9,2-3.8,2.7-5.9
				c0.6-1.8,1.2-3.6,1.6-5.4c0.5-2.3,0.7-4.5,0.3-6.8c-0.1-0.3-0.1-0.6-0.2-0.9c-0.3-0.8-0.3-1.5-0.4-2.3c0-0.6,0.2-1.2,0.8-1.5
				c0.2-0.1,0.3-0.2,0.5-0.2c1-0.3,1.5-0.1,2,0.6c0.6,0.9,0.9,1.9,1.1,2.9c0.1,1,0.3,2,0.4,3c0,0.3,0,0.5,0,0.8
				c-0.1,1.8-0.5,3.6-0.9,5.4c-0.7,2.7-1.6,5.3-2.8,7.8c-0.8,1.7-1.7,3.3-2.7,4.9c-0.6,0.9-1.2,1.8-1.8,2.8c-0.7,1.1-1.6,2-2.5,2.9
				c-2,1.7-3.6,3.6-4.9,5.8c-0.8,1.4-1.9,2.6-3,3.7c-2.4,2.5-5.1,4.7-7.9,6.6c-3.2,2.2-6.4,4.5-9.7,6.7c-1.9,1.3-3.9,2.4-5.8,3.6
				c-0.4,0.2-0.8,0.5-1.1,0.7C282.2,200.4,281.4,200.4,280.5,200.4z"/>
			<path fill="#719EC6" d="M317,91.5c-0.4-0.1-0.9-0.1-1.3-0.2c-2.5-0.4-5-0.4-7.5,0.3c-1.9,0.5-3.6,1.3-5.1,2.5
				c-2.6,2-5.3,4-7.9,6.1c-2.6,2.1-5.2,4.2-7.7,6.3c-2.6,2.2-4.8,4.7-6.7,7.5c-1.5,2.2-2.8,4.5-3.9,6.9c-1.5,3.3-3.2,6.4-4.8,9.6
				c-0.9,1.9-1.8,3.7-2.7,5.6c-0.4,0.9-1.1,1.6-2.1,2c-0.7,0.2-1.5-0.3-1.5-1c-0.1-0.6,0.1-1.1,0.3-1.6c1.3-3.2,2.6-6.4,3.9-9.6
				c1.9-4.4,4.1-8.7,6.8-12.7c1.6-2.4,3.4-4.7,5.5-6.8c1-1,2.1-1.9,3.2-2.8c4.3-3.4,8.6-6.9,13-10.3c1.7-1.3,3.4-2.6,5.3-3.7
				c1.7-1,3.5-1.6,5.4-2.1c1.5-0.3,3-0.5,4.6-0.6c0.3,0,0.5,0,0.8,0c0.9,0.1,1.9,0.3,2.8,0.4c0.7,0.1,1.2,0.4,1.5,1
				c0.1,0.2,0.3,0.5,0.4,0.7c0.1,0.3,0.1,0.6,0,0.9c-0.2,0.5-0.6,0.9-1,1.2C317.9,91.4,317.4,91.5,317,91.5z"/>
			<path fill="#719EC6" d="M277.1,45.8c0,0.3-0.2,0.5-0.4,0.7c-1.1,1.1-2.2,2.2-3.3,3.3c-1.3,1.4-2.5,2.8-3.7,4.2
				c-2.8,3.3-5.3,6.7-7.6,10.4c-1.1,1.8-2.2,3.6-3.2,5.3c-1.3,2.2-2.8,4.2-4.6,6c-0.4,0.4-0.6,0.9-0.8,1.4c-0.4,2-1.4,3.7-2.7,5.1
				c-1.2,1.2-2,2.6-2.7,4.1c-1.2,2.5-2.7,4.9-4.6,7c-1.2,1.3-2.1,2.8-3,4.4c-1.9,3.3-3.8,6.7-5.7,10c-0.8,1.4-1.5,2.9-2,4.5
				c-0.4,1.3-0.9,2.5-1.3,3.8c-0.2,0.4-0.4,0.8-0.7,1.1c-0.4,0.5-0.9,0.5-1.5,0.3c-0.6-0.2-0.8-0.6-0.9-1.2c-0.1-0.9,0-1.8,0.3-2.6
				c0.8-2,1.7-4.1,2.6-6.1c1-2.1,2-4.1,3.1-6.2c1.2-2.3,2.8-4.4,4.4-6.4c1.6-2,3-4.2,4.1-6.4c0.9-1.8,1.8-3.5,2.7-5.3
				c0.4-0.8,0.9-1.5,1.6-2c1.3-1.1,2.3-2.5,3-4.1c0.1-0.3,0.3-0.5,0.4-0.8c0.7-0.8,1.1-1.7,1.4-2.7c0.3-1.1,0.9-2,1.6-2.9
				c0.8-1.1,1.7-2.1,2.6-3.2c1.1-1.4,2.1-2.9,2.8-4.5c0.3-0.6,0.7-1.1,1.1-1.6c0.7-1.1,1.5-2.2,2.2-3.2c0.6-0.9,1.4-1.7,2.2-2.5
				c1.4-1.5,2.7-3,3.9-4.7c1-1.5,2.2-2.6,3.9-3.2c1.3-0.5,2.7-1.2,4-1.7C276.5,45.9,276.8,45.7,277.1,45.8z"/>
			<path fill="#719EC6" d="M381.9,123.4c-0.8,0-1.2-0.3-1.4-1.1c-0.3-1.2-0.7-2.4-1-3.7c-0.1-0.5-0.2-1-0.3-1.6
				c-0.2-1.9-0.7-3.6-1.5-5.3c-1.7-3.4-3.3-6.9-5-10.3c-1-2.1-2-4.2-3-6.2c-1.2-2.4-2.6-4.7-4.4-6.7c-1.4-1.6-2.5-3.4-3.7-5.2
				c-1.3-2-2.8-3.9-4.4-5.7c-2.3-2.5-4.9-4.7-7.5-6.8c-1.2-0.9-2.3-2-3.1-3.3c-0.3-0.5-0.6-1-0.8-1.5c-0.8-1.8-1.8-3.4-3.1-4.8
				c-0.1-0.1-0.3-0.3-0.4-0.5c-0.3-0.4-0.4-0.8-0.2-1.2c0.2-0.5,0.6-0.6,1.1-0.6c0.7,0,1.4,0.1,1.9,0.6c0.4,0.3,0.7,0.7,1,1.1
				c1.3,2.2,3,4.1,4.9,5.8c0.8,0.7,1.6,1.5,2.3,2.2c1.3,1.4,2.8,2.6,4.4,3.7c2.3,1.7,4.2,3.7,5.7,6.1c1.8,2.9,3.7,5.8,5.5,8.7
				c0.7,1.1,1.2,2.2,1.8,3.3c1.4,2.7,2.9,5.4,4.3,8.2c0.6,1.3,1.1,2.7,1.6,4c0.7,1.9,1.4,3.8,2.4,5.6c0.6,1.1,1,2.3,1.5,3.5
				c0.7,1.8,1.4,3.7,2,5.5c0.5,1.2,0.9,2.5,1.3,3.7c0.1,0.3,0.1,0.6,0.1,0.9c-0.1,0.8-0.7,1.4-1.7,1.5
				C382.1,123.4,382,123.4,381.9,123.4z"/>
			<path fill="#719EC6" d="M388.2,118.9c0,1-0.2,1.6-0.7,2.1c-0.4,0.4-0.9,0.5-1.3,0.1c-0.2-0.2-0.3-0.4-0.4-0.7
				c-0.2-0.5-0.4-1.1-0.6-1.6c-0.5-1.4-1-2.8-1.4-4.2c-0.8-2.6-1.9-5.2-2.9-7.8c-1-2.5-2-5.1-3-7.6c-0.8-2.1-1.8-4.1-2.9-6.1
				c-2.1-3.5-4.1-7.1-6.3-10.5c-1.5-2.4-3.2-4.7-4.9-7c-0.9-1.2-2-2.3-3.1-3.2c-0.8-0.6-1.4-1.4-2.2-2c-1.4-1.2-2.9-2.3-4.4-3.4
				c-0.5-0.4-1.1-0.8-1.6-1.2c-1.1-0.8-1.8-1.9-2.4-3.1c-0.2-0.4-0.4-0.8-0.5-1.1c-0.2-0.5-0.1-0.9,0.3-1.3c0.9-0.8,2.1-0.7,3,0.1
				c0.4,0.4,0.7,0.8,1.2,1.2c1.3,1.2,2.7,2.4,4.1,3.6c1.2,1,2.4,2,3.5,3c0.8,0.7,1.6,1.5,2.4,2.4c1.8,2.1,3.7,4.2,5.5,6.3
				c0.9,1.1,1.6,2.2,2.3,3.4c1.2,2,2.3,4.1,3.5,6.1c2,3.4,3.8,7,5.4,10.6c1.2,2.6,2.2,5.3,3.2,8c0.6,1.7,1.2,3.3,1.8,5
				c0.4,1.2,0.8,2.5,1.2,3.7c0.3,0.8,0.7,1.5,0.9,2.3C387.9,116.9,388.1,118,388.2,118.9z"/>
			<path fill="#719EC6" d="M320,149.1c-0.1,0.8-0.1,1.5-0.3,2.1c-0.2,1.3-0.5,2.6-0.8,3.9c-0.4,1.9-1,3.7-1.8,5.5
				c-1.2,3.1-3.3,5.5-5.8,7.6c-1.5,1.3-3.1,2.6-4.6,3.9c-1.3,1.1-2.3,2.5-3,4.1c-0.5,1.2-1.1,2.4-2,3.3c-0.5,0.5-1,0.8-1.5,1.3
				c-0.9,0.7-1.7,1.4-2.6,2.2c-2.9,2.5-6,4.6-9.2,6.6c-1.7,1-3.3,2.1-5,3.1c-0.5,0.3-1.1,0.6-1.6,0.8c-0.3,0.1-0.7,0.2-1.1,0.1
				c-0.7-0.1-1.1-0.6-1-1.4c0.2-1.4,1-2.5,2.2-3.2c4.2-2.6,8.2-5.5,12.1-8.6c1.2-1,2.5-2,3.7-3c0.4-0.4,0.8-0.8,1.2-1.2
				c0.2-0.2,0.4-0.5,0.5-0.8c0.8-1.8,1.9-3.3,3.3-4.7c1.8-1.8,3.7-3.7,5.5-5.5c1.4-1.4,2.8-2.8,4-4.4c1.6-2.1,2.8-4.4,3.5-6.9
				c0.5-1.6,0.9-3.3,1.3-5c0.2-0.7,0.4-1.4,0.6-2.1c0.2-0.5,0.5-0.7,1-0.7c0.5,0,0.8,0.3,0.9,0.8C319.7,147.7,319.9,148.4,320,149.1
				z"/>
			<path fill="#719EC6" d="M356.5,127c0,1-0.1,2.1-0.1,3.1c0,1.4,0,2.7,0.2,4.1c0.2,2,0.6,4,0.9,5.9c0.2,1.3,0.3,2.7,0.4,4.1
				c0.1,1.7,0.1,3.5,0.1,5.2c0,1.2-0.2,2.4-0.3,3.6c-0.2,1.7-0.6,3.4-1.1,5.1c-0.5,1.5-1,2.9-1.5,4.4c-0.6,1.9-1.2,3.8-1.6,5.7
				c-0.2,0.8-0.3,1.6-0.7,2.4c-0.6,1.1-1.5,1.7-2.7,2.2c-0.2,0.1-0.4,0.1-0.6,0.1c-0.6,0-0.9-0.3-0.9-0.9c0-0.1,0-0.2,0-0.3
				c0.3-2,0.7-4,1.6-5.8c1.1-2.1,1.9-4.3,2.5-6.6c0.4-1.4,0.7-2.8,1-4.2c0.3-1.6,0.5-3.3,0.7-5c0.1-1,0.2-2,0.2-3
				c0.1-1.8-0.1-3.5-0.5-5.2c-0.3-1-0.6-2-0.8-3c-0.3-1.2-0.5-2.4-0.5-3.7c0-2.9,0-5.7,0-8.6c0-2-0.4-3.9-1-5.8
				c-0.4-1.3-0.9-2.6-1.2-3.9c-0.4-1.5-0.6-3-0.6-4.6c0-1.3,0.3-2.6,0.7-3.9c0.2-0.6,0.5-0.9,1.1-0.9c0.5,0,0.9,0.3,1,0.7
				c0.2,0.8,0.5,1.5,0.6,2.3c0.3,1.7,0.6,3.5,0.9,5.2c0.3,1.8,0.8,3.5,1.6,5.2c0.6,1.3,0.9,2.6,0.9,4.1
				C356.4,125.6,356.4,126.3,356.5,127C356.4,127,356.5,127,356.5,127z"/>
			<path fill="#719EC6" d="M338.7,61.1c0.6,0,1.1,0.2,1.6,0.5c1.2,0.6,2.1,1.5,2.6,2.6c0.3,0.6,0.6,1.2,0.8,1.8
				c0.6,1.4,1.4,2.6,2.4,3.8c1.2,1.4,2.7,2.5,4.1,3.7c1.6,1.3,3.1,2.6,4.5,4.1c1.7,1.9,3.2,4,4.5,6.2c0.7,1.1,1.3,2.2,2.1,3.3
				c0.5,0.7,1.1,1.3,1.8,1.9c2,1.7,3.5,3.7,4.7,6c1.1,2.3,2.2,4.5,3.3,6.8c1.7,3.7,3.3,7.5,4.9,11.2c0.4,1,0.9,2.1,1.3,3.1
				c0.5,1.1,0.4,2.2-0.1,3.2c-0.2,0.5-0.5,0.9-1.1,0.8c-0.8-0.1-1.1-0.4-1.3-1c-0.5-1.8-1.2-3.5-2-5.2c-1.1-2.3-2.3-4.5-3.4-6.8
				c-0.5-1.1-1-2.3-1.5-3.5c-1.1-2.6-2.3-5.1-3.7-7.5c-1.6-2.9-3.5-5.6-5.5-8.3c-1.6-2.1-3.3-4.2-5.1-6.1c-1.8-1.8-3.6-3.6-5.4-5.4
				c-1.8-1.8-3.7-3.6-5.5-5.4c-1.2-1.2-2.1-2.6-2.5-4.4c-0.3-1.3-1-2.4-2-3.2c-0.3-0.2-0.6-0.5-0.8-0.8c-0.5-0.5-0.3-1,0.3-1.2
				C338,61.2,338.3,61.2,338.7,61.1z"/>
			<path fill="#719EC6" d="M242.2,110.8c0.1-1.4,0.4-2.8,1-4.1c1.1-2.2,2.4-4.4,3.7-6.5c2.1-3.3,4.3-6.5,6.4-9.8
				c1.9-2.9,3.7-5.9,5.5-8.9c1.4-2.3,2.7-4.7,4.4-6.8c0.8-1,1.7-2,2.6-2.9c1.1-1.1,2.1-2.4,3-3.7c0.6-0.8,1.1-1.7,1.7-2.5
				c0.1-0.2,0.3-0.4,0.3-0.6c0.5-1.4,1.2-2.7,2.1-3.9c1.1-1.5,2.3-2.9,3.4-4.3c0.7-0.9,1.5-1.7,2.3-2.5c0.4-0.4,0.8-0.5,1.3-0.3
				c0.5,0.1,0.7,0.4,0.5,0.9c-0.2,0.5-0.4,1.1-0.8,1.6c-1.8,2.3-3.4,4.7-4.9,7.2c-1.2,2-2.4,4-3.6,6c-0.2,0.3-0.3,0.7-0.5,1.1
				c-0.3,1-0.9,2-1.6,2.8c-2.9,3.3-5.2,6.9-7.3,10.7c-1.5,2.8-3.3,5.3-5.2,7.8c-1.6,2.1-3.3,4.1-4.7,6.3c-0.8,1.4-1.7,2.7-2.4,4.1
				c-1.3,2.5-2.6,5-3.9,7.5c-0.3,0.5-0.5,1.1-0.8,1.6c-0.4,0.6-0.8,1.1-1.7,1.1c-0.4,0-0.7-0.2-0.8-0.6
				C242.3,111.6,242.3,111.2,242.2,110.8z"/>
			<path fill="#719EC6" d="M279.5,67.1c0.4-0.1,0.7-0.3,1-0.4c0.4-0.1,0.7-0.3,1.1-0.4c0.9-0.3,1.4,0.1,1.4,1c0,1-0.3,1.9-1.1,2.5
				c-0.6,0.5-1.3,0.9-1.9,1.2c-2.7,1.3-5,3.3-6.6,5.9c-1,1.6-2,3.2-3,4.8c-1.6,2.5-3.3,4.9-5.4,7.1c-1.5,1.6-2.8,3.3-4.1,5.1
				c-1.2,1.6-2.3,3.2-3.3,4.9c-1.5,2.5-3.1,4.9-4.5,7.4c-1.5,2.6-2.8,5.4-4.2,8c-0.2,0.3-0.3,0.6-0.5,0.8c-0.4,0.4-0.8,0.4-1.1-0.1
				c-0.3-0.5-0.4-1-0.2-1.5c0.2-0.7,0.4-1.3,0.7-2c1.8-3.7,3.6-7.4,5.7-10.9c1.4-2.4,3-4.8,4.7-7.1c1.2-1.6,2.4-3.1,3.6-4.7
				c0.9-1.3,1.6-2.6,2.4-4c1.3-2.2,2.5-4.4,3.7-6.6c1.1-1.9,2.4-3.6,3.8-5.2c0.9-1.1,1.8-2.2,2.4-3.4c0.3-0.6,0.5-1.2,0.8-1.8
				c0.3-0.7,0.7-1.4,1.1-2c1.5-2.3,3-4.5,4.8-6.6c0.4-0.5,0.8-0.9,1.3-1.3c0.5-0.4,1.1-0.2,1.2,0.4c0.2,0.6,0.1,1.3-0.2,1.8
				c-0.5,0.9-0.9,1.7-1.5,2.5c-0.9,1.2-1.5,2.6-2.1,4.1C279.5,66.8,279.5,66.9,279.5,67.1z"/>
			<path fill="#719EC6" d="M332.5,109.4c0-0.3-0.1-0.6-0.1-0.9c-0.3-1.6-0.6-3.2-0.9-4.8c-0.2-1.1,0-2.1,0.4-3.1
				c0.4-0.9,1.3-1.1,2.1-0.5c1.1,0.9,1.8,2,2,3.5c0.1,1.2,0.2,2.5,0.2,3.7c0,1.9,0.2,3.8,0.6,5.6c0.6,2.9,1.3,5.7,1.9,8.5
				c0.3,1.3,0.6,2.6,0.8,3.9c0.2,1.4,0.3,2.9,0.2,4.3c-0.1,1-0.2,2.1-0.3,3.1c-0.1,1.1-0.3,2.2-0.7,3.2c-0.1,0.3-0.3,0.6-0.5,0.9
				c-0.3,0.4-0.8,0.5-1.2,0.2c-0.2-0.1-0.4-0.2-0.6-0.4c-0.7-0.8-1.3-1.6-1.5-2.7c-0.1-0.4-0.1-0.9,0-1.3c0.3-2.3,0.3-4.7,0-7
				c-0.2-1.6-0.5-3.2-0.9-4.8c-0.3-1.3-0.8-2.5-1.4-3.7c-1-2.3-2.4-4.3-3.8-6.4c-0.6-0.9-1.2-1.9-1.6-2.9c-0.4-1.1-1.1-2.2-2-3
				c-0.5-0.5-0.8-1.1-0.5-1.8c0.3-0.8,0.9-1.1,1.6-1.2c1.5-0.3,2.5,0.4,3,1.7c0.6,1.5,1.2,3.1,1.8,4.6c0.1,0.3,0.3,0.6,0.5,0.9
				c0.2,0.4,0.2,0.4,0.6,0.3C332.2,109.5,332.3,109.5,332.5,109.4z"/>
			<path fill="#719EC6" d="M317.6,136.9c-0.1,0.5-0.2,0.9-0.4,1.4c-0.4,1.3-0.9,2.6-1.3,3.9c-0.3,1.1-0.6,2.1-0.8,3.2
				c-0.3,1.7-0.6,3.5-0.9,5.2c-0.6,2.9-1.7,5.5-3.4,7.9c-1.2,1.8-2.7,3.4-4.1,5c-1.9,2.1-3.9,4.3-5.8,6.4c-1.7,1.9-3.4,3.7-5.1,5.6
				c-1,1.1-2.2,2-3.5,2.8c-0.7,0.5-1.4,1-2.1,1.5c-1.3,1-2.5,2.1-3.8,3.2c-0.3,0.2-0.6,0.4-1,0.6c-0.8,0.3-1.4-0.1-1.5-0.9
				c-0.1-0.9,0.1-1.7,0.6-2.5c0.4-0.6,0.9-1.2,1.5-1.6c3.5-2.5,6.6-5.3,9.6-8.3c2.2-2.2,4.3-4.5,6.4-6.7c1.3-1.4,2.6-2.8,3.9-4.3
				c1.8-2.1,3.2-4.5,4.1-7.2c0.5-1.3,0.7-2.7,0.9-4c0.3-1.8,0.5-3.7,1.2-5.3c0.4-0.9,0.9-1.8,1.4-2.7c0.6-1.1,1.2-2.2,1.8-3.3
				c0.1-0.2,0.3-0.5,0.4-0.7c0.1-0.2,0.2-0.3,0.4-0.4c0.4-0.3,0.9-0.1,1.1,0.3c0,0.1,0.1,0.2,0.1,0.4
				C317.5,136.5,317.5,136.7,317.6,136.9C317.5,136.9,317.5,136.9,317.6,136.9z"/>
			<path fill="#719EC6" d="M363,192.5c-0.4,1-0.8,2-1.1,3c-0.4,1.1-1,2-2.1,2.6c-0.3,0.1-0.5,0.3-0.8,0.3c-0.4,0.1-0.6,0-0.5-0.4
				c0.1-0.5,0.2-1,0.3-1.6c0.2-1.5,0.4-3,0.6-4.4c0.1-0.9,0.3-1.8,0.5-2.7c0.4-2.1,0.9-4.3,1.3-6.4c0.1-0.5,0.2-1.1,0.2-1.6
				c0.1-1,0.4-2,0.7-2.9c0.6-1.6,1.2-3.2,1.8-4.9c0.8-2,1.8-4,2.9-5.9c0.7-1.2,1.3-2.5,1.5-3.9c0.1-1.1,0.2-2.1,0.3-3.2
				c0.1-1.6,0.1-3.2,0.2-4.8c0.1-1.5,0.5-3,1.1-4.4c0.4-0.9,0.6-1.9,0.8-2.9c0.2-1.2,0.4-2.4,0.6-3.6c0.1-0.8,0.5-1.5,1-2.2
				c0.6-0.8,1.6-0.6,2,0.3c0.2,0.4,0.2,0.8,0.2,1.2c-0.1,1.9-0.4,3.8-0.9,5.6c-0.5,1.6-1,3.2-1.3,4.9c-0.2,1.3-0.3,2.6-0.4,3.9
				c-0.1,1.6-0.2,3.3-0.5,4.9c-0.3,1.7-0.6,3.4-1.1,5c-0.4,1.4-1,2.8-1.9,4.1c-1.2,1.7-2,3.6-2.7,5.5c-0.4,1.2-0.8,2.3-1.2,3.5
				c-0.4,1.5-0.5,3-0.2,4.6c0.2,1,0.5,2,0.8,3c0.3,1.2,0.6,2.4,0.5,3.6c0,0.5-0.2,1-0.6,1.3c-0.5,0.4-1,0.3-1.3-0.3
				c-0.2-0.3-0.3-0.6-0.4-0.9c-0.1-0.2-0.2-0.4-0.3-0.5C363.1,192.5,363.1,192.5,363,192.5z"/>
			<path fill="#719EC6" d="M271.1,150c0,1.1-0.3,2.1-0.6,3.2c-0.3,1-0.3,1.9-0.2,2.9c0.1,0.9,1,1.2,1.6,0.6c0.3-0.3,0.7-0.6,0.9-0.9
				c0.7-0.9,1.7-1.2,2.8-1.1c0.2,0,0.5,0.2,0.6,0.4c0.5,0.8,0.7,1.7,0,2.6c-0.7,1-1.5,1.9-2.2,2.8c-1.6,2.2-3.3,4.4-4.9,6.7
				c-1.6,2.2-3.1,4.3-4.7,6.5c-0.6,0.8-1.4,1.5-2.2,2.1c-0.2,0.2-0.5,0.3-0.8,0.4c-0.5,0.2-0.9,0-1.2-0.5c-0.4-1-0.4-1.9,0.3-2.7
				c0.4-0.5,0.8-0.9,1.2-1.4c1.7-1.9,3.1-4.1,4.3-6.4c0.3-0.6,0.5-1.2,0.7-1.8c0.1-0.3,0.1-0.5,0.1-0.8c0-0.3-0.2-0.6-0.5-0.7
				c-0.3-0.1-0.6,0-0.7,0.2c-0.3,0.4-0.6,0.8-0.8,1.2c-1.5,2.2-2.9,4.3-4.4,6.5c-0.3,0.5-0.8,0.9-1.2,1.3c-0.7,0.6-1.6,0.5-2.2-0.1
				c-0.5-0.5-0.6-1.1-0.3-1.7c0.2-0.4,0.4-0.8,0.7-1.2c2-2.8,4.1-5.7,6.1-8.5c1.2-1.7,2.3-3.6,3.1-5.6c0.4-1.1,0.6-2.3,0.7-3.5
				c0.1-0.9,0.4-1.6,0.9-2.3c0.3-0.4,0.8-0.7,1.4-0.7c0.5,0,0.9,0.2,1.1,0.7C271,148.8,271.2,149.4,271.1,150z"/>
			<path fill="#719EC6" d="M307.2,115.1c0.9,0.1,1.9,0.2,2.9,0.4c0.5,0.1,0.9,0.4,1.1,0.9c0.3,0.8,0,1.5-0.8,1.8
				c-1.2,0.4-2.4,0.7-3.5,1c-1.3,0.3-2.6,0.5-3.9,0.8c-1.5,0.4-2.7,1.1-3.7,2.3c-2.7,3.3-5.2,6.8-7.1,10.7c-0.8,1.7-1.6,3.5-2.4,5.3
				c-0.6,1.2-1.2,2.5-1.8,3.7c-0.6,1.2-1,2.4-0.9,3.7c0,0.3,0,0.6,0.1,0.9c0.3,1.6,0,2.9-1.2,4c-0.5,0.4-1,0.9-1.5,1.3
				c-0.5,0.4-1.1,0.4-1.6,0c-0.3-0.2-0.4-0.6-0.4-0.9c0.1-0.7,0.2-1.3,0.3-2c0.2-1,0.4-2.1,0.6-3.1c0.2-1.4,0.5-2.8,0.9-4.1
				c1.1-3.4,2.5-6.6,4.1-9.8c1.1-2.2,2.5-4.4,3.9-6.4c0.9-1.3,1.8-2.7,2.6-4.1c1.4-2.3,3.4-3.9,5.8-4.9c1.4-0.6,2.7-1,4.2-1.3
				C305.8,115.2,306.5,115.2,307.2,115.1z"/>
			<path fill="#719EC6" d="M264.6,52.1c-0.1,0.4-0.4,0.7-0.7,0.9c-2,1.1-3.3,2.8-4.4,4.7c-0.8,1.5-1.5,3-2.3,4.4
				c-1.5,2.7-3.3,5.1-5.4,7.3c-1.2,1.4-2.1,2.9-2.7,4.7c-0.5,1.5-1.2,2.9-2.4,4c-0.9,0.9-1.7,2-2.3,3.1c-1.1,1.7-2.2,3.4-3.1,5.1
				c-1.5,2.7-3.2,5.3-4.9,7.8c-0.6,0.9-1.1,2-1.6,3c-0.6,1.1-1.1,2.3-1.7,3.5c-1.1,2.3-2.2,4.6-3.4,6.9c-0.2,0.5-0.5,0.9-1,1.1
				c-0.7,0.4-1.4,0.1-1.4-0.8c-0.1-1.2,0.3-2.3,1-3.3c1.6-2.5,3-5,4.3-7.6c1.2-2.4,2.5-4.8,3.7-7.2c0.8-1.5,1.5-3.1,2.3-4.6
				c1.4-2.5,2.9-5.1,4.3-7.6c0.4-0.6,0.9-1.2,1.3-1.8c0.2-0.3,0.5-0.6,0.7-1c0.7-1.5,1.6-2.8,2.5-4.2c2.5-3.7,4.9-7.4,7.4-11.1
				c0.6-0.9,1.4-1.6,2.2-2.3c2.2-1.8,4.4-3.4,6.8-4.8C264.1,52.2,264.3,51.9,264.6,52.1z"/>
			<path fill="#719EC6" d="M277.5,176.3c0.6,0.3,1.1,0.2,1.6-0.1c1-0.6,2-1.1,3-1.6c0.3-0.1,0.6-0.2,0.9-0.3c0.6-0.1,1,0.2,1,0.8
				c0,1.5-0.5,2.8-1.9,3.5c-0.2,0.1-0.4,0.3-0.6,0.4c-1.5,0.9-2.7,2.1-4,3.2c-0.9,0.8-1.7,1.6-2.6,2.4c-0.9,0.8-2,1.3-3.1,1.7
				c-1.2,0.4-2.2,1-2.9,2c-0.1,0.2-0.3,0.3-0.4,0.5c-0.7,0.8-2.2,0.8-2.7-0.5c-0.4-1.1-0.3-2.1,0.4-3c0.7-1,1.5-1.8,2.5-2.4
				c1.2-0.8,2.1-1.9,2.8-3.2c1.3-2.3,2.7-4.6,4.1-6.9c0.9-1.4,1.9-2.6,3-3.9c1.8-2,3.9-3.7,5.9-5.4c0.3-0.2,0.6-0.4,0.9-0.6
				c0.4-0.2,0.7-0.1,0.8,0.4c0.1,0.5,0.2,1,0,1.6c-0.3,1-0.6,2.1-1.2,3c-0.5,0.9-1.2,1.7-2.1,2.2c-1.2,0.7-2.1,1.6-3,2.6
				c-0.7,0.9-1.4,1.8-2.1,2.6C277.5,175.5,277.4,175.9,277.5,176.3z"/>
			<path fill="#719EC6" d="M313.2,53c1.3,0.1,2.6,0.1,3.9,0.2c0.9,0.1,1.7,0.3,2.4,0.7c1.9,1,4,1.3,6.1,1.2c1.9-0.1,3.6,0.2,5.3,0.9
				c1,0.4,1.7,1.3,1.6,2.3c-0.1,0.6-0.4,1-1,1c-0.3,0-0.6-0.1-0.9-0.1c-1.1-0.3-2.2-0.6-3.2-0.9c-1-0.3-1.9-0.5-2.9-0.7
				c-1-0.2-2-0.3-3-0.2c-0.8,0.1-1.6,0-2.4-0.1c-1.1-0.1-2.2-0.3-3.3-0.4c-1-0.1-1.9-0.2-2.9-0.3c-1.6-0.1-3.2-0.1-4.8-0.1
				c-1.8-0.1-3.5,0.4-5.3,0.8c-2.8,0.8-5.4,2-8,3.2c-1.9,0.8-3.8,1.7-5.7,2.5c-0.3,0.1-0.5,0.2-0.8,0.3c-0.3,0.1-0.6,0.1-0.9,0
				c-0.8-0.1-1.1-0.8-0.7-1.5c0.2-0.4,0.4-0.7,0.8-1c1.7-1.5,3.7-2.6,5.7-3.6c1.7-0.8,3.4-1.5,5.2-2c1-0.3,2-0.5,3-0.7
				c1.5-0.3,3-0.5,4.5-0.8C308.4,53.4,310.8,53,313.2,53z"/>
			<path fill="#719EC6" d="M327.6,63.8c-0.2,0-0.5-0.1-0.8-0.2c-1.3-0.3-2.6-0.6-3.9-0.8c-1.6-0.2-3.2-0.4-4.9-0.5
				c-1.4-0.2-2.8,0.2-4.2,0.3c-1.1,0.1-2.3,0.2-3.4,0.3c-2.3,0.2-4.5,0.3-6.8,0.9c-2.4,0.6-4.6,1.4-6.8,2.6
				c-1.6,0.9-3.1,1.8-4.7,2.7c-0.7,0.4-1.3,0.8-2,1.1c-0.2,0.1-0.4,0.1-0.6,0.2c-1,0.2-1.9-0.6-1.8-1.6c0.1-1.1,0.5-1.9,1.5-2.5
				c2.4-1.6,5-2.8,7.8-3.8c2.3-0.8,4.6-1.5,6.9-2.3c1-0.3,1.9-0.7,2.9-0.9c0.9-0.2,1.9-0.3,2.8-0.4c1.5-0.2,3,0,4.5,0.2
				c0.9,0.1,1.9,0.1,2.9,0.1c2.4,0.1,4.8,0.2,7.2,0.4c1.4,0.1,2.7,0.4,4,0.8c1.5,0.5,1.5,1.7,1.1,2.7c-0.2,0.4-0.6,0.5-1,0.6
				C328,63.8,327.9,63.8,327.6,63.8z"/>
			<path fill="#719EC6" d="M307.6,131c0,1-0.2,1.9-0.5,2.8c-1.1,3.6-2.6,7.1-4.3,10.5c-0.6,1.3-1.3,2.6-2.1,3.8
				c-1.2,2-3,3.4-5.1,4.4c-1.6,0.8-3.2,1.6-4.7,2.6c-0.4,0.2-0.7,0.5-1.1,0.7c-0.8,0.4-1.7,0.2-2.2-0.4c-0.7-0.8-0.8-1.8,0-2.6
				c0.8-0.8,1.6-1.5,2.4-2.2c1-0.7,2-1.4,3-2.1c2.2-1.5,3.9-3.4,5.1-5.9c1.1-2.3,2.1-4.6,3.2-6.9c0.7-1.6,1.5-3.2,2.3-4.8
				c0.2-0.3,0.4-0.6,0.7-1c0.4-0.5,0.9-0.8,1.5-1c0.7-0.3,1.4,0,1.7,0.8c0.1,0.2,0.1,0.4,0.2,0.6C307.6,130.6,307.6,130.8,307.6,131
				z"/>
			<path fill="#719EC6" d="M341.3,170.3c-0.1,0.5-0.2,1.1-0.3,1.7c-0.3,1.3-0.7,2.5-1.1,3.8c-0.3,1.1-0.5,2.1-0.7,3.2
				c-0.3,1.6-0.5,3.2-0.8,4.8c-0.3,1.6-0.8,3.1-1.4,4.6c-0.9,2.3-2,4.6-2.9,6.9c-0.7,1.7-1.3,3.5-2,5.2c-0.2,0.7-0.4,1.3-0.6,2
				c-0.4,1.1-1,2-1.7,2.9c-1.1,1.6-2.2,3.1-3.2,4.7c-0.9,1.3-2.2,1.8-3.7,1.9c-0.2,0-0.5,0-0.7-0.1c-0.5-0.2-0.6-0.6-0.4-1
				c0.2-0.3,0.4-0.5,0.6-0.8c0.5-0.5,1-0.9,1.5-1.3c1.2-1.2,2.2-2.5,3.1-4c1.1-1.9,1.9-3.9,2.7-5.9c0.9-2.3,1.8-4.5,2.5-6.9
				c0.5-1.6,0.9-3.3,1.4-4.9c0.5-1.7,0.9-3.4,1.4-5.1c0.4-1.6,0.9-3.2,1.3-4.8c0.4-1.5,0.9-3,1.4-4.5c0.1-0.4,0.2-0.8,0.4-1.2
				c0.3-0.9,0.9-1.7,1.5-2.4c0.2-0.3,0.6-0.5,1-0.4c0.4,0.1,0.7,0.4,0.8,0.8C341.3,169.6,341.3,169.9,341.3,170.3z"/>
			<path fill="#719EC6" d="M329.2,79.8c0.7,0.1,1.4,0.4,2.1,0.8c1.7,1.2,3.5,2.4,5.2,3.6c1.8,1.3,3.5,2.6,5.3,3.9
				c1.6,1.2,2.8,2.8,3.6,4.7c0.5,1.1,0.9,2.3,1.6,3.4c0.6,0.9,1.3,1.7,2.1,2.4c0.4,0.4,0.8,0.8,1.2,1.3c0.3,0.4,0.4,0.8,0.3,1.3
				c-0.2,0.7-0.9,1-1.5,0.7c-0.2-0.1-0.4-0.3-0.7-0.4c-0.6-0.5-0.9-0.4-1.6,0.1c-0.3,0.2-0.6,0.5-0.9,0.7c-0.8,0.4-1.4,0.1-1.8-0.7
				c-0.4-0.9-0.8-1.8-1-2.8c-0.6-2.2-1.6-4.1-3.1-5.7c-1.1-1.2-2.4-2.3-3.7-3.3c-1.5-1.2-3-2.4-4.5-3.6c-0.9-0.7-1.9-1.4-3.1-1.9
				c-0.6-0.3-1.2-0.7-1.6-1.3c-0.3-0.5-0.4-1-0.2-1.6C327.2,80.3,327.9,79.9,329.2,79.8z"/>
			<path fill="#719EC6" d="M352.3,199.7c0.1-0.4,0.2-0.9,0.3-1.3c0.8-2.2,1.5-4.5,2-6.8c0.4-1.9,0.7-3.7,1.1-5.6
				c0.3-1.4,0.7-2.7,1.1-4c0.7-2,1.3-4.1,1.8-6.2c0.5-2.1,1-4.3,1.5-6.4c0.4-1.7,1-3.4,1.7-5c0.3-0.7,0.7-1.3,1.2-1.8
				c0.1-0.1,0.2-0.2,0.4-0.3c0.3-0.2,0.5-0.4,0.9-0.2c0.3,0.2,0.5,0.8,0.4,1.1c-0.4,1.2-0.8,2.3-1.1,3.5c-0.3,1.2-0.7,2.4-0.9,3.6
				c-0.5,2.1-1,4.3-1.4,6.4c-0.5,2.1-0.9,4.2-1.3,6.3c-0.5,2.1-0.9,4.2-1.6,6.2c-0.4,1.2-0.5,2.4-0.7,3.6c-0.2,1.6-0.6,3.1-1,4.6
				c-0.2,0.6-0.3,1.2-0.5,1.7c-0.4,1.2-1.2,1.9-2.5,2.1c-0.7,0.1-1-0.1-1.2-0.8C352.4,200.3,352.3,200,352.3,199.7
				C352.3,199.7,352.3,199.7,352.3,199.7z"/>
			<path fill="#719EC6" d="M356,174.5c-0.1,1.2-0.3,2.4-0.7,3.6c-0.5,1.2-0.8,2.5-1.1,3.8c-0.4,1.7-0.9,3.4-1.2,5.1
				c-0.3,1.5-0.5,3-0.7,4.5c-0.4,3.9-1.6,7.5-3.5,10.9c-0.5,0.8-0.9,1.7-1.3,2.6c-0.3,0.6-0.7,1.1-1.1,1.6c-0.1,0.1-0.3,0.3-0.4,0.4
				c-0.5,0.3-1,0.4-1.5,0.1c-0.5-0.3-0.7-0.8-0.6-1.4c0-0.7,0.3-1.3,0.6-1.9c0.9-1.8,1.8-3.5,2.7-5.3c0.5-1,0.8-2.1,1-3.1
				c0.4-2.2,0.7-4.5,1.1-6.7c0.3-1.6,0.6-3.3,0.9-4.9c0.4-1.7,1-3.4,1.6-5.1c0.4-1,0.8-1.9,1.2-2.9c0.4-0.9,1-1.7,1.9-2.2
				c0.3-0.2,0.6-0.4,1-0.2c0.4,0.2,0.3,0.6,0.3,0.9C356,174.3,356,174.4,356,174.5z"/>
			<path fill="#719EC6" d="M262.5,181.2c0-1.1,0.4-1.9,1-2.7c2.5-3.1,5.1-6.3,7.6-9.4c2.3-2.9,4.7-5.9,7.3-8.6c0.3-0.3,0.6-0.7,1-1
				c0.9-0.8,1.9-1.3,3-1.7c0.1,0,0.2,0,0.3-0.1c0.7-0.2,1.1,0.1,1.1,0.9c0,1.1-0.4,2.1-1.3,2.8c-1.7,1.3-3.2,2.8-4.5,4.4
				c-1.6,1.9-2.9,4-4.3,6.1c-1.4,2-2.8,4.1-4.2,6.1c-0.8,1.2-1.8,2.3-2.7,3.4c-0.6,0.7-1.4,1.2-2.3,1.6c-0.9,0.3-1.5,0-1.7-1
				C262.6,181.6,262.5,181.3,262.5,181.2z"/>
			<path fill="#719EC6" d="M330.9,210.5c-0.4-0.1-0.8-0.1-1.2-0.3c-0.4-0.2-0.6-0.5-0.5-0.9c0.1-0.4,0.3-0.8,0.5-1.2
				c0.5-0.8,1-1.5,1.5-2.2c1.6-2.4,2.9-5,3.9-7.7c1-2.6,1.9-5.3,2.8-8c0.7-2.1,1.4-4.3,2-6.5c0.4-1.4,0.6-2.9,0.9-4.4
				c0.2-0.9,0.5-1.6,1.2-2.2c0.2-0.2,0.4-0.3,0.7-0.3c0.5-0.1,0.9,0.1,1.1,0.8c0.2,0.9,0.1,1.9-0.1,2.8c-0.3,0.9-0.4,1.8-0.7,2.7
				c-0.2,0.8-0.6,1.5-0.9,2.3c-0.6,1.6-0.9,3.3-1.2,4.9c-0.3,1.4-0.5,2.8-0.9,4.1c-0.4,1.5-1,2.8-1.7,4.2c-1,1.7-1.8,3.5-2.5,5.5
				c-0.4,1.4-1,2.7-1.7,3.9c-0.4,0.7-0.8,1.3-1.4,1.8C332.1,210.4,331.6,210.5,330.9,210.5z"/>
			<path fill="#719EC6" d="M371.8,179.1c-0.1-1.9-0.1-3.9-0.2-5.8c0-1.2,0.2-2.4,0.5-3.5c0.6-2.2,1.1-4.3,1.4-6.6
				c0.2-1.7,0.4-3.4,0.5-5.1c0.1-1.2,0.2-2.5,0.6-3.6c0.1-0.4,0.3-0.8,0.5-1.1c0.2-0.4,0.5-0.7,1-0.7c0.5,0,0.9,0.3,1.1,0.7
				c0.3,0.7,0.5,1.4,0.4,2.1c-0.2,2.3-0.4,4.6-0.7,6.9c-0.1,1.1-0.4,2.1-0.5,3.2c-0.3,2.1-0.7,4.1-0.9,6.2c-0.3,2.6-0.4,5.2-0.5,7.8
				c0,1.1,0,2.2,0.1,3.2c0,0.6,0,1.2-0.2,1.8c-0.3,0.7-0.8,1-1.5,1c-0.7-0.1-1.1-0.5-1.2-1.2c-0.2-1.1-0.3-2.3-0.3-3.4
				C371.7,180.4,371.7,179.8,371.8,179.1C371.7,179.1,371.7,179.1,371.8,179.1z"/>
			<path fill="#719EC6" d="M328,134.6c-0.1-0.7,0.1-1.4,0.3-2.1c0.3-1,0.5-2.1,0.5-3.2c0.1-1.5,0-3-0.3-4.6c-0.3-1.7-0.7-3.4-1.2-5
				c-0.3-0.9-0.7-1.7-1.1-2.6c-0.3-0.6-0.6-1.2-0.9-1.7c-0.2-0.4-0.5-0.8-0.9-1.1c-0.8-0.6-1.4-1.4-2-2.3c-0.2-0.4-0.5-0.7-0.7-1.1
				c-0.6-1-0.2-2.3,0.4-2.9c0.4-0.4,1-0.4,1.5-0.1c0.4,0.2,0.7,0.5,1,0.8c1.4,1.5,2.5,3.2,3.6,4.9c0.5,0.8,1,1.7,1.5,2.5
				c0.7,1.2,1.1,2.5,1.4,3.9c0.4,1.6,0.6,3.3,0.7,4.9c0,0.9,0,1.7-0.1,2.6c-0.1,1.2-0.4,2.3-0.5,3.4c-0.1,1.3-0.3,2.6-0.2,3.8
				c0,0.3,0,0.7,0,1c-0.1,0.8-0.8,1.2-1.6,1c-0.1,0-0.1,0-0.2-0.1c-1.1-0.4-1.3-0.6-1.3-1.8C328,134.8,328,134.7,328,134.6z"/>
			<path fill="#719EC6" d="M348.8,180.2c-0.1,0.4-0.1,0.8-0.2,1.2c-0.4,1.6-0.8,3.3-1.2,4.9c-0.3,1.4-0.7,2.7-0.9,4.1
				c-0.3,1.2-0.5,2.4-0.7,3.6c-0.5,2.7-1.4,5.2-2.6,7.6c-0.8,1.6-1.8,3.2-2.8,4.7c-0.5,0.7-0.9,1.4-1.4,2.1
				c-0.1,0.2-0.3,0.4-0.5,0.5c-0.8,0.7-1.6,0.3-2-0.5c-0.1-0.2-0.2-0.5-0.1-0.8c0.2-0.7,0.5-1.3,0.9-1.9c1.1-1.8,2.2-3.6,3-5.5
				c0.8-1.8,1.5-3.7,2.1-5.6c0.3-1.2,0.6-2.3,0.9-3.5c0.3-1.3,0.5-2.6,0.8-3.9c0.2-1.3,0.5-2.5,0.7-3.8c0.2-1,0.5-2.1,0.7-3.1
				c0.2-0.7,0.4-1.3,0.9-1.8c0.2-0.2,0.4-0.3,0.6-0.4c0.5-0.3,1-0.1,1.3,0.4C348.7,179.1,348.8,179.6,348.8,180.2z"/>
			<path fill="#719EC6" d="M248.9,64.2c-0.2,0.4-0.5,0.8-0.7,1.2c-0.8,1.2-1.6,2.3-2.3,3.5c-0.5,0.7-0.8,1.5-1.2,2.3
				c-0.4,1-0.9,1.8-1.6,2.6c-0.9,1.1-1.8,2.2-2.7,3.4c-1.9,2.5-3.4,5.3-4.7,8.2c-0.8,1.8-1.8,3.6-2.7,5.4c-1,2-1.8,4.1-2.5,6.2
				c-0.2,0.6-0.4,1.1-0.6,1.7c-0.2,0.5-0.6,0.8-1.1,0.9c-0.5,0.1-0.9,0-1.1-0.5c-0.2-0.5-0.1-1.1-0.1-1.7c0.2-2,0.9-3.8,1.7-5.6
				c1.5-3.7,3.4-7.3,5.6-10.7c2.4-3.7,5-7.3,7.9-10.7c1.3-1.5,2.7-3,4-4.5c0.5-0.5,1-1,1.4-1.5c0.1-0.1,0.2-0.2,0.4-0.3
				C248.8,64.1,248.9,64.1,248.9,64.2z"/>
			<path fill="#719EC6" d="M265.6,145.6c0,0.3-0.1,0.7-0.2,1c-0.5,2.3-0.9,4.6-1.4,6.9c-0.4,1.9-1.3,3.6-2.4,5.2
				c-1.7,2.4-3.4,4.7-5.1,7.1c-0.3,0.4-0.5,0.7-0.8,1.1c-0.1,0.1-0.1,0.2-0.2,0.3c-0.6,0.7-1.4,0.6-1.8-0.3
				c-0.3-0.7-0.4-1.4-0.1-2.1c1.1-2.7,2.2-5.3,4.1-7.6c1.5-1.8,2.6-3.9,3.3-6.2c0.6-1.8,1.1-3.5,1.7-5.3c0.1-0.3,0.2-0.6,0.4-0.9
				c0.2-0.4,0.5-0.6,0.9-0.7C265,143.9,265.6,144.4,265.6,145.6z"/>
			<path fill="#719EC6" d="M326.3,127.9c-0.1,1.7-0.2,3.2-0.6,4.7c-0.2,0.9-0.4,1.8-0.7,2.7c-0.4,1.3-2.1,1.7-3.1,0.9
				c-0.3-0.3-0.6-0.6-0.5-1c0.1-0.6,0.2-1.2,0.3-1.8c0.4-1.7,0.8-3.3,0.9-5c0.1-1.6,0-3.1-0.3-4.7c-0.2-1.2-0.5-2.3-0.9-3.4
				c-0.4-1.2-1.1-2.2-2-3c-0.6-0.5-1.2-1.1-1.9-1.7c-0.6-0.5-0.7-1.8-0.3-2.4c0.3-0.5,1.3-0.8,1.8-0.1c0.6,0.8,1.2,1.6,1.9,2.3
				c0.9,1,1.8,2,2.8,3c0.9,0.8,1.4,1.8,1.7,2.9c0.4,1.4,0.6,2.8,0.7,4.3C326.2,126.3,326.2,127.2,326.3,127.9z"/>
			<path fill="#719EC6" d="M246.6,146.6c-0.1,1.5-0.4,2.7-0.9,3.9c-1,2.3-2.4,4.4-4.2,6.2c-2.1,2.2-4.2,4.3-6.3,6.5
				c-0.9,0.9-1.9,1.5-3,1.9c-0.7,0.3-1.2,0.1-1.7-0.6c-0.4-0.6-0.4-1.2,0.1-1.7c0.7-0.7,1.4-1.4,2.1-2c1.5-1.4,2.9-2.8,4.3-4.3
				c0.5-0.6,1.2-1,1.7-1.5c1.5-1.3,2.5-3,3.2-4.8c0.3-0.7,0.5-1.5,0.9-2.3c0.3-0.6,0.7-1.2,1-1.8c0.3-0.6,0.9-0.9,1.5-1.1
				c0.5-0.2,0.9,0,1.1,0.5C246.5,145.9,246.6,146.4,246.6,146.6z"/>
			<path fill="#719EC6" d="M389.1,91.6c0,0.3-0.1,0.6-0.4,0.8c-0.3,0.2-0.6,0.1-0.9-0.1c-0.2-0.2-0.5-0.4-0.7-0.6
				c-0.8-1.1-1.6-2.3-2.3-3.5c-0.6-1.1-1.1-2.3-1.7-3.4c-1.2-2.5-2.5-5-4.3-7.2c-1.7-2.1-3.4-4.3-5-6.5c-1.2-1.6-2.3-3.3-3.2-5.1
				c-0.2-0.3-0.3-0.7-0.4-1c-0.1-0.2-0.1-0.4,0.1-0.5c0.1,0,0.3,0,0.4,0.1c0.7,0.7,1.4,1.4,2,2.1c1.9,2,3.7,4.1,5.4,6.3
				c2.7,3.4,5.2,6.9,7.2,10.7c1,1.9,2,3.8,2.9,5.7c0.3,0.5,0.4,1,0.6,1.6C389.1,91.2,389.1,91.4,389.1,91.6z"/>
			<path fill="#719EC6" d="M249.8,159.9c0-0.9,0.4-1.7,0.8-2.5c1.9-3.9,3.8-7.9,5.8-11.7c0.6-1.1,1.4-2.2,2.1-3.2
				c0.2-0.3,0.6-0.6,1-0.6c0.4-0.1,0.6,0.1,0.5,0.5c-0.1,0.7-0.2,1.4-0.4,2.1c-0.8,2.4-1.6,4.8-2.4,7.2c-1,3-2.3,5.8-3.9,8.4
				c-0.3,0.4-0.5,0.9-0.8,1.3c-0.3,0.3-0.6,0.6-0.9,0.9c-0.5,0.4-1,0.3-1.3-0.3C250,161.3,249.8,160.6,249.8,159.9z"/>
			<path fill="#719EC6" d="M227.6,154.4c-0.8,0-1.2-0.5-1.1-1.3c0.2-1.2,0.9-2.2,1.9-2.9c1.5-1.1,2.7-2.5,3.8-4
				c0.4-0.6,0.9-1.2,1.4-1.8c0.9-1.1,1.5-2.3,1.8-3.7c0.3-1.2,1.1-2.1,1.9-2.9c0.3-0.3,0.7-0.4,1.2-0.2c0.4,0.2,0.6,0.6,0.6,1.1
				c0,0.1,0,0.3-0.1,0.4c-0.7,2.1-1.2,4.2-2.1,6.2c-0.7,1.7-1.8,3.3-3,4.7c-0.9,1-1.9,1.9-2.9,2.8c-0.8,0.7-1.8,1.2-2.8,1.5
				C228.1,154.4,227.8,154.4,227.6,154.4z"/>
			<path fill="#719EC6" d="M382.3,171.2c0.2-1.8,0.4-3.6,0.6-5.5c0.1-1.4,0.2-2.7,0.3-4.1c0.1-1.6,0.2-3.3,0.2-4.9
				c0-1.1-0.1-2.2-0.4-3.2c-0.3-1.5-0.6-3-0.5-4.5c0-0.6,0.2-0.8,0.7-0.8c0.3,0,0.6,0.1,0.8,0.4c0.4,0.7,0.7,1.5,0.8,2.3
				c0.4,2.6,0.7,5.2,0.9,7.9c0.2,2.1,0.4,4.2,0.5,6.3c0,0.6-0.1,1.2-0.2,1.7c-0.5,2.2-1.3,4.2-2.4,6c-0.2,0.3-0.4,0.6-0.8,0.5
				c-0.3,0-0.5-0.4-0.5-0.8c0-0.1,0-0.3,0-0.4C382.3,171.8,382.3,171.6,382.3,171.2z"/>
			<path fill="#719EC6" d="M229.3,159.3c-0.1,0-0.3,0-0.4,0c-0.4-0.1-0.6-0.3-0.6-0.8c0-0.6,0.3-1.1,0.6-1.6c0.8-1,1.6-1.9,2.7-2.7
				c2-1.4,3.9-3.1,5.8-4.7c1-0.9,1.6-2,1.9-3.3c0.2-1,0.4-2.1,0.6-3.1c0.1-0.3,0.1-0.6,0.3-0.8c0.2-0.5,0.6-0.7,1.1-0.8
				c0.2,0,0.5,0.1,0.7,0.2c0.4,0.3,0.6,1,0.5,1.5c-0.5,1.7-0.9,3.4-1.4,5.1c-0.4,1.4-0.8,2.7-1.7,3.9c-0.5,0.8-1.2,1.4-1.9,1.8
				c-2.3,1.3-4.4,2.8-6.4,4.6C230.5,159,230,159.3,229.3,159.3z"/>
			<path fill="#719EC6" d="M235.1,135.1c0,0.8-0.3,1.6-0.7,2.3c-0.9,1.7-1.8,3.4-2.7,5.1c-0.4,0.9-1.1,1.5-1.8,2.2
				c-0.8,0.7-1.6,1.5-2.4,2.2c-0.5,0.4-1,0.7-1.6,0.8c-0.6,0.1-1-0.2-1.4-0.6c-0.3-0.4-0.3-0.9-0.1-1.3c0.5-1,1.2-2,2-2.8
				c2.1-2,3.6-4.5,4.9-7c0.3-0.6,0.5-1.2,0.8-1.8c0.3-0.8,0.8-1.1,1.6-1.1c0.6,0,1,0.3,1.1,0.9C235,134.3,235,134.7,235.1,135.1z"/>
			<path fill="#719EC6" d="M247.6,166.9c0,0.6-0.3,1-0.7,1.3c-0.9,0.6-1.8,1.3-2.8,1.9c-1.5,0.9-2.8,2.2-4,3.5
				c-0.4,0.5-0.8,0.9-1.3,1.4c-0.9,0.8-1.8,0.7-2.5-0.3c-0.2-0.4-0.4-0.8-0.6-1.2c-0.2-0.4-0.1-0.7,0.2-1c0.1-0.1,0.1-0.1,0.2-0.1
				c1.6-1.2,2.9-2.7,4.3-4.1c0.8-0.8,1.5-1.5,2.3-2.3c0.4-0.4,0.9-0.8,1.3-1.1c1.1-0.9,2.6-0.5,3.1,0.8
				C247.4,166.1,247.5,166.5,247.6,166.9z"/>
			<path fill="#719EC6" d="M276.8,186.6c0.1,0,0.2,0,0.3,0c0.4,0,0.5,0.2,0.6,0.6c0.1,0.9-0.2,1.7-0.8,2.4c-0.7,0.7-1.2,1.5-1.6,2.5
				c-0.4,1.1-0.5,2.2-0.4,3.3c0,0.4,0.1,0.8,0.1,1.3c0.1,0.5,0,0.9-0.1,1.4c-0.1,0.3-0.3,0.4-0.6,0.4c-0.2,0-0.4,0-0.5-0.1
				c-0.4-0.2-0.8-0.4-1.2-0.6c-0.5-0.3-0.6-0.6-0.4-1.1c0.1-0.3,0.3-0.6,0.4-1c0.1-0.2,0.2-0.4,0.2-0.6c0.1-0.3,0-0.7-0.3-0.9
				c-0.3-0.2-0.6-0.3-0.9-0.1c-0.4,0.2-0.9,0.4-1.3,0.6c-0.8,0.4-2.1-0.2-2.2-1.5c0-0.3,0.1-0.6,0.3-0.8c1.4-1.3,2.8-2.6,4.3-3.8
				c0.9-0.7,1.8-1.4,2.9-1.7C276.1,186.7,276.4,186.7,276.8,186.6C276.8,186.6,276.8,186.6,276.8,186.6z"/>
			<path fill="#719EC6" d="M235.1,128.4c0-0.7,0.2-1.6,0.5-2.4c0.8-2.4,1.6-4.8,2.5-7.1c0.3-1,0.9-1.8,1.8-2.4
				c0.4-0.2,0.7-0.4,1.2-0.4c0.7,0,1.2,0.5,1.1,1.3c0,0.4-0.1,0.8-0.3,1.2c-0.6,1.6-1.2,3.1-1.7,4.7c-0.6,1.6-1.2,3.2-1.7,4.8
				c-0.2,0.7-0.5,1.3-0.8,1.9c-0.3,0.7-0.9,0.9-1.6,0.5C235.4,130,235.1,129.4,235.1,128.4z"/>
			<path fill="#719EC6" d="M247.6,153c0.1-0.5,0.2-1,0.5-1.5c0.7-1.2,1.2-2.5,1.7-3.9c0.8-2.2,1.8-4.2,2.9-6.2
				c0.2-0.4,0.5-0.9,0.7-1.3c0.2-0.4,0.6-0.7,1.1-0.7c0.3,0,0.6,0,0.9,0c0.6,0.1,0.8,0.4,0.7,0.9c-0.1,0.7-0.3,1.4-0.5,2.1
				c-0.5,1.6-1.3,3.1-2.1,4.5c-1.2,2.1-2.3,4.3-3.5,6.4c-0.3,0.5-0.7,1-1.1,1.4c-0.4,0.4-0.8,0.3-1-0.2
				C247.8,154.1,247.7,153.5,247.6,153z"/>
			<path fill="#719EC6" d="M387.3,127.2c0.5,0,0.9,0.2,1.2,0.6c0.4,0.5,0.6,1.2,0.8,1.8c0.5,1.6,1,3.2,1.5,4.9c0.4,1.5,0.7,3,1,4.6
				c0.3,1.3,0.3,2.7,0.1,4c-0.1,0.6-0.3,1-0.8,1c-0.4,0.1-0.8-0.2-1.1-0.8c-0.4-1.1-0.8-2.2-1.1-3.3c-0.3-1-0.5-2-0.7-3
				c-0.2-1-0.4-2.1-0.6-3.1c-0.2-1.3-0.6-2.7-1.3-3.9c-0.2-0.3-0.3-0.7-0.5-1c-0.4-0.9,0.1-1.6,1-1.7
				C387,127.2,387.1,127.2,387.3,127.2z"/>
			<path fill="#719EC6" d="M246.7,120.3c-0.1,0.7-0.3,1.4-0.4,2.1c-0.3,1.9-1,3.6-1.9,5.3c-0.5,1.1-0.9,2.2-1.5,3.3
				c-0.4,0.9-0.9,1.8-1.5,2.7c-0.4,0.7-0.9,0.7-1.5,0.2c-0.6-0.5-0.8-1.1-0.5-1.8c0.8-2.8,1.7-5.6,2.9-8.3c0.6-1.3,1.3-2.5,2-3.7
				c0.1-0.3,0.4-0.5,0.7-0.7c0.3-0.3,0.7-0.4,1.1-0.2C246.5,119.5,246.7,119.9,246.7,120.3z"/>
			<path fill="#719EC6" d="M257.2,179.9c0,0.5-0.1,0.9-0.4,1.1c-0.3,0.3-0.6,0.6-0.9,0.8c-2.2,1.5-4.5,2.9-6.7,4.3
				c-0.2,0.1-0.4,0.2-0.5,0.3c-0.9,0.5-2-0.1-2.4-1c-0.3-0.7-0.3-1.1,0.3-1.6c1.2-1,2.4-2,3.7-2.9c1.4-1,2.9-1.9,4.4-2.8
				c0.1-0.1,0.3-0.1,0.4-0.2c0.5-0.2,0.9-0.2,1.3,0.2C256.8,178.6,257.1,179.3,257.2,179.9z"/>
			<path fill="#719EC6" d="M259.6,186.4c0,0.8-0.3,1.5-0.8,2.1c-0.8,0.8-1.6,1.7-2.5,2.4c-0.7,0.5-1.4,0.9-2.2,1.2
				c-0.4,0.1-0.8,0.1-1.2-0.1c-1-0.6-2-1.4-2.5-2.6c-0.3-0.7-0.2-1.1,0.5-1.5c2-1.1,4-2.2,5.9-3.2c0.3-0.2,0.6-0.3,1-0.4
				c0.7-0.2,1.3,0.1,1.5,0.7C259.4,185.4,259.5,185.9,259.6,186.4z"/>
			<path fill="#719EC6" d="M244.6,160.8c0,0.4-0.2,0.7-0.4,1c-0.6,0.6-1.2,1.2-1.8,1.7c-2.1,1.8-4.1,3.6-6.2,5.3
				c-0.5,0.4-1,0.7-1.6,0.8c-0.4,0.1-0.8,0-1.1-0.3c-0.3-0.3-0.3-0.7-0.1-1c0.4-0.8,0.9-1.6,1.6-2.2c1.8-1.7,3.6-3.4,5.4-5.2
				c0.6-0.6,1.1-1.2,1.9-1.5c0.4-0.2,0.9-0.4,1.4-0.2C244.1,159.6,244.5,160.1,244.6,160.8z"/>
			<path fill="#719EC6" d="M222.8,138.2c0.1-0.7,0.4-1.4,0.8-2c0.9-1.2,1.8-2.4,2.7-3.6c0.8-1.1,1.6-2.1,2.1-3.4
				c0.2-0.6,0.7-0.7,1.2-0.3c0.7,0.5,1,1.3,1,2.2c0,1.4-0.7,2.4-1.5,3.5c-1,1.4-2.1,2.7-3.2,4.1c-0.2,0.3-0.5,0.5-0.8,0.8
				c-0.4,0.3-0.9,0.5-1.5,0.2C223.1,139.5,222.8,139,222.8,138.2z"/>
			<path fill="#719EC6" d="M243.9,183.1c-0.9,0-1.6-0.5-1.9-1.3c-0.1-0.4-0.2-0.8-0.2-1.2c0-0.7,0.4-1.2,1.1-1.5
				c1.9-0.7,3.6-1.5,5.3-2.6c0.3-0.2,0.7-0.5,1-0.7c0.3-0.2,0.6-0.4,1-0.5c0.5-0.2,0.9-0.1,1.2,0.3c0.3,0.3,0.4,0.7,0.2,1.2
				c-0.3,0.6-0.6,1.1-1.1,1.5c-1.4,1.2-2.7,2.4-4.1,3.6c-0.6,0.5-1.3,0.8-2,1.1C244.3,183.1,244.1,183.1,243.9,183.1z"/>
			<path fill="#719EC6" d="M243.8,176.8c-0.2,0-0.5,0-0.7-0.1c-0.7-0.2-1-0.8-0.8-1.5c0.3-0.8,0.7-1.6,1.3-2.2
				c0.6-0.7,1.4-1.2,2.2-1.6c1.2-0.6,2.4-1.3,3.5-1.9c0.8-0.4,1.5-0.1,1.8,0.8c0.3,1,0,1.8-0.9,2.4c-1.1,0.8-2.2,1.7-3.3,2.5
				c-0.4,0.3-0.7,0.6-1.1,0.9C245.2,176.5,244.5,176.8,243.8,176.8z"/>
			<path fill="#719EC6" d="M317.9,127.9c-0.1-0.7-0.2-1.5-0.3-2.2c-0.2-1.2-0.6-2.3-1.3-3.3c-0.2-0.4-0.5-0.7-0.6-1.1
				c-0.1-0.4-0.2-0.8-0.1-1.2c0.1-0.7,0.7-1,1.3-0.7c1,0.5,1.8,1.2,2.3,2.3c0.6,1.2,0.9,2.4,1.2,3.6c0.1,0.5,0.1,1,0.3,1.5
				c0.4,1.3-0.1,2.4-0.5,3.5c-0.1,0.4-0.4,0.5-0.9,0.4c-0.9-0.2-1.4-0.9-1.4-1.9C317.9,128.5,317.9,128.2,317.9,127.9
				C317.9,127.9,317.9,127.9,317.9,127.9z"/>
			<path fill="#719EC6" d="M262.9,192.7c-0.1,0.7-0.3,1.2-0.8,1.6c-0.8,0.7-1.7,1.3-2.5,1.9c-0.5,0.4-1,0.3-1.5,0.1
				c-0.8-0.3-1.6-0.9-2.2-1.6c-0.1-0.1-0.2-0.3-0.3-0.5c-0.3-0.6-0.3-0.9,0.3-1.2c1.1-0.6,2.1-1.1,3.2-1.7c0.5-0.2,1-0.5,1.5-0.7
				c0.9-0.4,1.5-0.2,1.8,0.7C262.7,191.7,262.8,192.2,262.9,192.7z"/>
			<path fill="#719EC6" d="M270.4,201.3c0,0.1,0,0.3,0,0.4c-0.1,0.7-0.5,1.1-1.2,0.9c-0.4-0.1-0.9-0.2-1.3-0.4
				c-2.1-0.9-4.2-1.9-6-3.3c-0.3-0.2-0.5-0.4-0.7-0.7c-0.2-0.3-0.2-0.5,0.1-0.7c0.9-0.6,1.9-1.1,2.9-1.5c0.2-0.1,0.4-0.1,0.6-0.1
				c0.5,0,0.8,0.2,1,0.7c0.2,0.4,0.2,0.8,0.1,1.1c-0.1,0.4-0.3,0.9-0.4,1.3c-0.2,0.6,0.2,1.2,0.8,1.1c0.4,0,0.8-0.2,1.2-0.3
				c0.4-0.1,0.9-0.3,1.3-0.4c0.7-0.1,1.2,0.2,1.4,0.8c0.1,0.2,0.1,0.4,0.2,0.6C270.4,201,270.4,201.2,270.4,201.3
				C270.4,201.3,270.4,201.3,270.4,201.3z"/>
			<path fill="#719EC6" d="M369.4,180.3c-0.1,0.8-0.2,1.5-0.2,2.2c-0.1,1.1,0.1,2.2,0.4,3.3c0.1,0.5,0.4,0.9,0.5,1.3
				c0.2,0.5,0.3,1,0.4,1.5c0.1,0.6-0.3,1-0.9,1.2c-0.6,0.2-1,0-1.3-0.5c-0.5-1-0.8-2.1-1.1-3.2c-0.4-1.7-0.2-3.4,0.1-5.1
				c0.1-0.5,0.2-1,0.3-1.4c0.1-0.4,0.4-0.8,0.7-1.1c0.4-0.3,0.8-0.2,0.9,0.3C369.3,179.4,369.4,179.9,369.4,180.3z"/>
			<path fill="#719EC6" d="M334.4,91.7c0,0.7-0.4,1.1-0.8,1.5c-0.3,0.3-0.6,0.2-1-0.1c-0.6-0.4-1.2-0.9-1.8-1.3
				c-1-0.7-1.9-1.4-2.9-2.2c-0.3-0.3-0.6-0.6-0.9-0.9c-0.2-0.2-0.3-0.5-0.2-0.9c0.2-0.3,0.4-0.5,0.8-0.5c0.5,0,1,0.1,1.4,0.3
				c1.2,0.5,2.3,1,3.4,1.6c0.7,0.3,1.2,0.9,1.6,1.6C334.2,91.1,334.3,91.4,334.4,91.7z"/>
			<path fill="#719EC6" d="M330,95.7c-0.1,1-0.6,1.8-1.4,2.1c-0.3,0.1-0.6,0.1-0.9-0.1c-1.1-0.9-2.2-1.8-3.2-2.6
				c-0.3-0.2-0.4-0.5-0.4-0.9c-0.1-1.2,0.7-1.9,2-1.8c1.6,0.1,2.8,0.9,3.6,2.3C329.8,95,329.9,95.3,330,95.7z"/>
			<path fill="#719EC6" d="M393.6,130.9c0,0.8-0.6,1.3-1.2,1c-0.2-0.1-0.3-0.2-0.4-0.3c-0.5-1.5-1.4-2.7-2.1-4.1
				c-0.2-0.4-0.4-0.8-0.5-1.2c-0.2-0.6,0.1-1.3,0.7-1.6c1.3-0.8,2.1,0,2.5,1.1c0.1,0.3,0.2,0.6,0.2,1c0,1.1,0.3,2.1,0.6,3.1
				C393.5,130.2,393.5,130.5,393.6,130.9z"/>
			<path fill="#719EC6" d="M284.6,73.3c0,0.6-0.2,1-0.6,1.3c-1,0.8-2,1.6-3,2.4c-0.3,0.2-0.7,0.4-1.1,0.5c-1,0.2-1.6-0.6-1.2-1.5
				c0.1-0.3,0.3-0.6,0.5-0.9c0.7-0.8,1.5-1.6,2.2-2.4c0.4-0.4,0.9-0.6,1.5-0.7C284,71.8,284.6,72.4,284.6,73.3z"/>
			<path fill="#719EC6" d="M244,132.9c0.1,0.2,0.1,0.4,0.1,0.5c0,1.3,0.3,2.6,0.9,3.8c0.3,0.7,0.1,1.3-0.3,1.9
				c-0.2,0.3-0.5,0.3-0.7,0c-0.3-0.4-0.7-0.9-0.9-1.4c-0.7-1.6-0.5-3,0.4-4.4C243.7,133.2,243.8,133.1,244,132.9z"/>
			<path fill="#719EC6" d="M225,121.2c0,1.1-0.4,2-0.7,3c-0.1,0.3-0.2,0.6-0.6,0.6c-0.4,0-0.5-0.3-0.6-0.6c-0.5-1.2-0.5-2.4-0.2-3.6
				c0.1-0.4,0.4-0.6,0.8-0.6c0.4,0,0.9,0,1.1,0.4C224.9,120.6,224.9,120.9,225,121.2z"/>
			<path fill="#719EC6" d="M248.4,139.8c0.7,0,1.3,0.6,0.9,1.3c-0.2,0.5-0.6,0.9-0.9,1.4c-0.1,0.2-0.4,0.1-0.5,0
				c-0.6-0.4-0.9-1.3-0.6-2.1C247.5,140.1,247.9,139.8,248.4,139.8z"/>
		</g>
	</g>
</g>
</svg>
