<?xml version="1.0" encoding="utf-8"?>
<!-- Generator: Adobe Illustrator 18.1.1, SVG Export Plug-In . SVG Version: 6.00 Build 0)  -->
<svg version="1.1" id="Calque_1" xmlns="http://www.w3.org/2000/svg" xmlns:xlink="http://www.w3.org/1999/xlink" x="0px" y="0px"
	 width="300px" height="140.7px" viewBox="0 0 300 140.7" enable-background="new 0 0 300 140.7" xml:space="preserve">
<g>
	<polygon fill-rule="evenodd" clip-rule="evenodd" fill="#FFFFFF" points="54,63.4 41.9,52.3 32.5,67.5 32.5,71.7 19.7,64.4 
		15,79.4 21.3,104.1 32.5,114.3 44,117.4 58.5,108.6 71.3,113.4 84.7,105.3 99.9,111.2 114.9,108.6 126.1,120.3 139.9,122 
		155,117.4 159.5,112 175.1,115.8 199.5,122 202.3,115.8 211.7,120.3 220.7,115.7 228.9,120.3 237.4,114.3 247.6,118.7 257.4,118.7 
		263,111.2 274.2,114.3 285,112.1 285,104.1 279.7,95.3 268.7,90.7 265.3,78 254.3,70.4 256.5,53.9 251.5,37.2 238,30.8 223.6,37.2 
		208.9,30.8 197.9,30.8 195,26.7 165.2,17.7 159.5,22.2 161.6,32.7 150,35.8 138.1,32.7 129,31.3 117.1,37.2 107.7,35.8 96.8,41.2 
		84.7,36.4 71.3,38.2 70.7,56.5 	"/>
	<g>
		<g>
			<g>
				<path fill="#153E5B" d="M189.1,31.5c0.5,0.8,0.6,1.6,0.3,2.5c-0.2,0.9-0.7,1.5-1.5,2c-0.8,0.5-1.6,0.6-2.5,0.3l-2.7-0.7
					c-1.8-0.5-4.2-1.1-7.2-2c-3.1-0.9-5-1.5-5.6-1.8l-0.8-0.3c-0.8-0.4-1.4-1-1.8-1.8c-0.3-0.8-0.4-1.7,0-2.5
					c0.3-0.8,0.9-1.4,1.8-1.8c0.8-0.4,1.7-0.4,2.5,0l0.8,0.3c0.5,0.2,2.1,0.7,5,1.6c3,0.9,5.3,1.5,7,2l2.6,0.7
					C188,30.2,188.6,30.7,189.1,31.5z"/>
			</g>
		</g>
		<g>
			<g>
				<g>
					<path fill="#153E5B" d="M94.4,47.3c0.2,0.9,0.1,1.7-0.4,2.4c-0.5,0.7-1.1,1.2-2,1.4c-0.9,0.2-1.7,0.1-2.5-0.4l-2-1.3
						c-0.9-0.6-1.5-0.9-1.9-1c-0.3,0-0.7,0-1.1,0.2c-0.5,0.1-0.8,0.3-1.1,0.5c-0.2,0.2-0.5,0.6-0.9,1.1c-0.4,0.6-0.6,1-0.6,1.2
						c-0.1,0.3-0.1,0.5-0.2,0.6c0,2.1,0.1,4,0.1,5.6c0,2.3,0,4.1,0,5.2c-0.1,1.2-0.1,2.1-0.2,2.9c-0.1,0.6-0.1,1-0.1,1.2
						c0,0.4,0,0.8-0.1,1.2l-0.1,0.5c-0.1,0.9-0.5,1.6-1.2,2.2c-0.7,0.6-1.5,0.8-2.4,0.7c-0.9-0.1-1.6-0.5-2.2-1.2
						c-0.6-0.7-0.8-1.5-0.7-2.4l0.1-0.5c0-0.2,0.1-0.5,0.1-0.7c0-0.4,0.1-0.9,0.2-1.8c0-0.6,0.1-1.5,0.1-2.5c0.1-1,0.1-2.6,0-4.8
						c0-1.6-0.1-3.3-0.1-5.3c0-0.3,0-0.6,0-0.9c0-0.7-0.1-1.4-0.1-2.2l-0.1-4.9c0-0.9,0.3-1.7,0.9-2.3c0.6-0.7,1.4-1,2.3-1
						c1.3,0,2.2,0.5,2.9,1.6c0.4-0.2,0.9-0.4,1.3-0.5c1.4-0.4,2.7-0.6,4-0.4c1.2,0.2,2.7,0.8,4.5,1.9l2,1.3
						C93.7,45.7,94.2,46.4,94.4,47.3z"/>
					<path fill="#153E5B" d="M120.3,42.5c0.6-0.7,1.4-1,2.3-1c0.9,0,1.7,0.3,2.3,0.9c0.7,0.6,1,1.4,1,2.3l0.1,4
						c0,2.7,0.1,5.2,0.1,7.5c0,2.4-0.1,4.9-0.4,7.7c-0.2,2.6-0.4,4.1-0.4,4.6v0.8c0,0.9-0.3,1.7-1,2.3c-0.6,0.6-1.4,1-2.3,1
						c-0.9,0-1.7-0.3-2.3-1c-0.6-0.6-1-1.4-1-2.3v-0.8c0-0.3,0-0.7,0.1-1.1c-0.9,0.7-1.9,1.3-3,1.8c-1.4,0.6-2.9,1-4.7,1.1
						c-1.7,0.1-3.5,0-5.4-0.4c-2-0.5-3.8-1.3-5.3-2.4c-1.4-1.1-2.5-2.2-3.3-3.5c-0.9-1.3-1.5-3.2-1.8-5.7c-0.4-2.7,0.3-5.4,1.9-8.1
						c1.4-2.3,2.9-4.3,4.6-5.9c1-0.9,1.9-1.6,2.8-2.2c0.9-0.5,1.9-0.8,3-0.7h0.8c0.5-0.2,1-0.3,1.5-0.3l0.9,0.1
						c0.9,0.1,1.7,0.2,2.4,0.4c0.6,0.2,1.2,0.5,2,0.8c0.8,0.4,1.5,0.7,2,1c0.5,0.3,1.1,0.7,1.7,1.3c0.1,0.1,0.3,0.2,0.4,0.4v-0.2
						C119.4,44,119.7,43.2,120.3,42.5z M110.2,47.7c-0.4,0.1-0.8,0.2-1.3,0.2h-1.1c-0.4,0.2-0.9,0.6-1.5,1.1
						c-1.2,1.1-2.3,2.6-3.4,4.4c-0.8,1.5-1.2,2.8-1,4c0.2,1.5,0.4,2.5,0.8,3c0.4,0.6,1,1.2,1.8,1.8c0.7,0.5,1.7,0.9,2.8,1.2
						c1.2,0.3,2.4,0.4,3.4,0.3c1-0.1,1.9-0.3,2.6-0.6c0.7-0.3,1.3-0.7,1.8-1.1c0.5-0.5,1-1.2,1.4-1.9c0.4-0.7,0.6-1.4,0.7-2
						c0.1-0.7,0.2-1.4,0.2-2.1c0-0.7-0.1-1.4-0.3-2.1c-0.1-0.6-0.4-1.2-0.7-1.9c-0.4-0.8-0.7-1.3-0.9-1.6c-0.1-0.2-0.4-0.4-0.6-0.6
						c-0.5-0.4-0.8-0.7-1.1-0.8c-0.2-0.1-0.6-0.3-1.1-0.5c-0.6-0.3-1-0.4-1.4-0.6c-0.2,0-0.5-0.1-0.8-0.1H110.2z"/>
					<path fill="#153E5B" d="M127.7,39.4c0.6-0.7,1.3-1.1,2.2-1.1c0.9-0.1,1.7,0.2,2.4,0.8c0.7,0.6,1.1,1.3,1.2,2.2l0.2,2.9
						c0.1-0.1,0.2-0.2,0.4-0.3c0.9-0.9,2.1-1.6,3.6-2.2c1.4-0.5,2.6-0.7,3.7-0.6c0.9,0.1,1.6,0.2,2.2,0.3c0.9,0.2,1.8,0.8,2.8,1.7
						c0.7,0.6,1.3,1.3,1.9,2.1c0.9-1.3,2-2.2,3.3-2.9c1.6-0.8,3.3-1.1,5.1-1c1.6,0.2,3.1,0.6,4.3,1.4c1.1,0.7,2.1,1.5,2.8,2.3
						c0.8,0.9,1.4,2,1.9,3.2c0.5,1.1,0.9,2.5,1.1,4.2c0.2,1.5,0.4,2.9,0.5,4.3c0.1,1.3,0.1,2.6,0.1,3.9c0,1.3,0,2.5-0.1,3.6
						c-0.1,1.1-0.1,2-0.2,2.7c-0.1,0.6-0.1,1.1-0.2,1.5l-0.1,0.6c-0.1,0.9-0.5,1.6-1.2,2.2c-0.7,0.6-1.5,0.8-2.4,0.7
						c-0.9-0.1-1.6-0.5-2.2-1.2c-0.6-0.7-0.8-1.5-0.7-2.4l0.1-0.6c0.1-0.4,0.1-0.9,0.2-1.6c0.1-0.6,0.1-1.3,0.2-2.3
						c0.1-1,0.1-2.1,0.1-3.2c0-1.2,0-2.3-0.1-3.5c-0.1-1.1-0.2-2.3-0.4-3.6c-0.2-1.2-0.4-2.1-0.7-2.7c-0.2-0.6-0.5-1-0.8-1.4
						c-0.3-0.4-0.7-0.7-1.3-1c-0.4-0.2-0.9-0.4-1.5-0.5c-0.5,0-1,0.1-1.5,0.3c-0.5,0.2-0.9,0.7-1.4,1.4c-0.5,0.9-1,2.3-1.5,4.2
						c-0.4,1.4-0.6,2.9-0.9,4.4c0,0.3,0,0.5,0,0.8c0,0.7-0.1,1.5-0.1,2.3v5.1c0,0.2,0,0.4,0,0.6c0,0.3,0,0.5-0.1,0.8
						c0,0.9-0.4,1.6-1.1,2.3c-0.7,0.6-1.5,0.9-2.4,0.9c-0.9-0.1-1.6-0.4-2.2-1.1c-0.6-0.7-0.9-1.5-0.8-2.4v-0.1l-0.2-1.1
						c-0.2-1.3-0.2-3.4,0.1-6.4c0.1-0.7,0.2-1.5,0.3-2.2c0-0.4,0-0.7,0-1.1c0-0.7,0.1-1.4,0.1-2.1c0-0.7-0.1-1.4-0.2-2.1
						c-0.1-0.6-0.3-1.2-0.4-1.8c-0.1-0.5-0.4-0.9-0.6-1.3c-0.3-0.5-0.7-0.9-1.1-1.2c-0.1-0.1-0.3-0.2-0.4-0.3c-0.1,0-0.3,0-0.6-0.1
						c-0.2,0-0.7,0.1-1.2,0.3c-0.5,0.2-0.9,0.4-1.1,0.5c-0.3,0.3-0.6,0.7-0.8,1.2c-0.4,0.7-0.7,1.6-1.1,2.8c-0.4,1.2-0.7,2.2-0.8,3
						c-0.1,0.9-0.3,2.4-0.4,4.7c-0.1,2.2-0.1,3.8,0.2,4.7l0.4,1.8c0.2,0.7,0.1,1.4-0.2,2.1c-0.3,0.7-0.8,1.2-1.4,1.5
						c-0.5,0.5-1.2,0.8-1.9,0.9c-0.9,0.1-1.7-0.1-2.4-0.7c-0.7-0.6-1.1-1.3-1.3-2.1l-0.1-0.5c-0.1-0.5-0.1-1-0.1-1.6
						c0-0.4-0.1-1.3-0.2-2.8c-0.1-1.6-0.3-4-0.5-7.2c-0.2-3.2-0.4-6.4-0.7-9.6l-0.4-4.7C126.9,40.8,127.1,40.1,127.7,39.4z"/>
					<path fill="#153E5B" d="M190.5,58c-0.4,0-1.5,0.1-3.1,0.3c-2,0.2-4.2,0.2-6.6,0.1c-2.4-0.1-4-0.3-4.8-0.4l-1.1-0.2
						c0.2,1,0.4,1.8,0.6,2.3c0.2,0.6,0.4,1.1,0.6,1.5c0.1,0.3,0.5,0.7,1,1.2c0.6,0.6,1.2,1.2,2,1.6c0.7,0.5,1.4,0.8,2.1,1
						c0.8,0.2,1.5,0.3,2,0.4c0.6,0,1.2,0,1.8-0.1c0.7-0.1,1.2-0.2,1.5-0.3c0.4-0.1,0.7-0.3,1-0.4c0.4-0.2,0.7-0.4,1.2-0.6l0.7-0.3
						c0.8-0.4,1.6-0.4,2.5-0.1c0.9,0.3,1.5,0.9,1.9,1.6c0.4,0.8,0.4,1.6,0.1,2.5c-0.3,0.9-0.9,1.5-1.7,1.8l-0.6,0.3
						c-0.4,0.2-0.8,0.4-1.2,0.6c-0.5,0.2-1,0.4-1.6,0.6c-0.6,0.2-1.5,0.4-2.5,0.6c-1.1,0.2-2.2,0.3-3.2,0.2
						c-1.1-0.1-2.2-0.3-3.5-0.6c-1.3-0.4-2.6-1-3.9-1.8c-1.2-0.8-2.3-1.7-3.2-2.7c-1-1-1.6-2-2.1-2.8c-0.3-0.7-0.6-1.4-0.9-2.2
						c-0.3-0.8-0.6-1.9-0.9-3.3c-0.4-1.6-0.5-3.2-0.3-4.7c0.1-1.5,0.4-2.9,0.9-4c0.4-1.1,0.9-2.2,1.6-3.5c0.7-1.3,1.6-2.5,2.6-3.5
						c1-1,2.6-1.9,4.6-2.7c2.1-0.8,3.7-1.2,4.8-1.3c1.1-0.1,2.4,0.2,3.9,0.7c1.5,0.5,2.8,1.3,3.8,2.2c1,1,1.8,2.2,2.4,3.8
						c0.5,1.3,0.9,2.5,1.2,3.7c0.2,1.2,0.4,2.4,0.3,3.7c0,0,0,0.1,0,0.1c0,0.4,0,0.7-0.1,1c-0.1,0.3-0.2,0.8-0.4,1.4
						c-0.2,0.6-0.6,1.1-1.1,1.5C192.1,57.7,191.4,58,190.5,58z M175.6,51.3c0.1,0,0.1,0.1,0.2,0.1l1.1,0.2c0.6,0.1,2,0.2,4.2,0.3
						c2.1,0.1,4,0.1,5.6-0.1c0.3,0,0.6-0.1,0.9-0.1c0-0.2-0.1-0.5-0.1-0.7c-0.2-0.7-0.5-1.6-0.9-2.5c-0.3-0.7-0.6-1.2-0.9-1.5
						c-0.3-0.3-0.8-0.5-1.4-0.7c-0.7-0.2-1.2-0.4-1.6-0.4c-0.4,0.1-1.3,0.4-2.5,0.9c-1.3,0.5-2.1,1-2.6,1.4c-0.5,0.5-1,1.1-1.4,1.9
						C176,50.5,175.8,50.9,175.6,51.3z"/>
					<path fill="#153E5B" d="M196.8,37.1c0.7-0.5,1.6-0.7,2.4-0.5c0.9,0.2,1.6,0.6,2.1,1.4c0.5,0.7,0.7,1.6,0.5,2.4l-0.2,1.4
						c0,0.1-0.1,0.3-0.1,0.6c0.5-0.4,1.2-0.8,1.9-1.2c1.7-0.9,3.3-1.3,4.8-1.2c1.3,0.1,2.4,0.2,3.2,0.5c1,0.4,1.9,1,2.9,1.8
						c0.8,0.7,1.6,1.6,2.3,2.7c0.7,1.1,1.4,2.5,1.9,4.1c0.6,1.6,0.9,3,1,4.3c0.1,1.1,0.2,1.9,0.2,2.5c0,0.6,0,1.5-0.1,2.7
						c0,1.2-0.1,2.2-0.1,3c-0.1,0.8-0.1,1.5-0.2,2c0,0.5-0.1,1.2-0.2,2.1c0,0.9-0.1,1.6-0.1,1.9c0,0.3,0,0.6,0,0.8v0.4
						c0,0.9-0.3,1.6-1,2.3c-0.6,0.6-1.4,1-2.3,1c-0.9,0-1.7-0.3-2.3-1c-0.7-0.6-1-1.4-1-2.3v-0.4c0-0.2,0-0.6,0.1-1
						c0-0.4,0-1.1,0.1-2.1c0-1,0.1-1.7,0.2-2.3c0-0.5,0.1-1.1,0.1-1.8c0.1-0.7,0.1-1.7,0.1-2.8c0-1.1,0.1-1.9,0.1-2.3
						c0-0.4-0.1-1-0.2-1.9c-0.1-0.7-0.3-1.7-0.7-2.8c-0.4-1.1-0.8-2-1.2-2.6c-0.4-0.6-0.8-1.1-1.3-1.5c-0.2-0.2-0.4-0.4-0.6-0.5
						c-0.3-0.1-0.7-0.1-1.4-0.2c-0.4,0-0.9,0.2-1.4,0.5c-0.7,0.4-1.1,0.7-1.4,1.1c-0.4,0.6-0.8,1.2-1.1,2c-0.3,0.7-0.6,1.5-0.7,2.2
						c-0.2,1-0.3,1.9-0.4,2.7c-0.1,0.7-0.2,1.8-0.3,3.1c-0.1,1.3-0.1,2.9,0,5c0.1,1.3,0.1,2.2,0.2,2.8l0.1,0.1
						c0.4,0.6,0.5,1.3,0.4,2c-0.1,0.7-0.4,1.3-0.8,1.8c-0.1,0.7-0.5,1.4-1.1,1.9c-0.6,0.5-1.3,0.7-2.1,0.7c-0.9,0-1.7-0.3-2.3-1
						c-0.7-0.6-1-1.4-1-2.3v-4.4c0-0.8,0-1.9-0.1-3.5c0-1.6-0.1-2.9-0.1-4.1c0-1.1-0.1-2.2-0.2-3.5c-0.1-1.3-0.2-3.5-0.4-6.4
						c-0.2-3.2-0.2-5.4,0.1-6.6l0.2-1.3C195.6,38.3,196.1,37.6,196.8,37.1z"/>
					<path fill="#153E5B" d="M243.2,58c-0.4,0-1.5,0.1-3.1,0.3c-2,0.2-4.2,0.2-6.6,0.1c-2.4-0.1-4-0.3-4.8-0.4l-1.1-0.2
						c0.2,1,0.4,1.8,0.6,2.3c0.2,0.6,0.4,1.1,0.6,1.5c0.1,0.3,0.5,0.7,1,1.2c0.6,0.6,1.2,1.2,2,1.6c0.7,0.5,1.4,0.8,2.1,1
						c0.8,0.2,1.5,0.3,2,0.4c0.6,0,1.2,0,1.8-0.1c0.7-0.1,1.2-0.2,1.5-0.3c0.4-0.1,0.7-0.3,1-0.4c0.4-0.2,0.7-0.4,1.2-0.6l0.7-0.3
						c0.8-0.4,1.6-0.4,2.5-0.1c0.9,0.3,1.5,0.9,1.9,1.6c0.4,0.8,0.4,1.6,0.1,2.5c-0.3,0.9-0.9,1.5-1.7,1.8l-0.6,0.3
						c-0.4,0.2-0.8,0.4-1.2,0.6c-0.5,0.2-1,0.4-1.6,0.6c-0.6,0.2-1.5,0.4-2.5,0.6c-1.1,0.2-2.2,0.3-3.2,0.2
						c-1.1-0.1-2.2-0.3-3.5-0.6c-1.3-0.4-2.6-1-3.9-1.8c-1.2-0.8-2.3-1.7-3.2-2.7c-1-1-1.6-2-2.1-2.8c-0.3-0.7-0.6-1.4-0.9-2.2
						c-0.3-0.8-0.6-1.9-0.9-3.3c-0.4-1.6-0.5-3.2-0.3-4.7c0.1-1.5,0.4-2.9,0.8-4c0.4-1.1,0.9-2.2,1.6-3.5c0.7-1.3,1.6-2.5,2.6-3.5
						c1-1,2.6-1.9,4.6-2.7c2.1-0.8,3.7-1.2,4.8-1.3c1.1-0.1,2.4,0.2,3.9,0.7c1.5,0.5,2.8,1.3,3.8,2.2c1,1,1.8,2.2,2.4,3.8
						c0.5,1.3,0.9,2.5,1.2,3.7c0.2,1.2,0.4,2.4,0.3,3.7c0,0,0,0.1,0,0.1c0,0.4,0,0.7-0.1,1c-0.1,0.3-0.2,0.8-0.4,1.4
						c-0.2,0.6-0.6,1.1-1.1,1.5C244.7,57.7,244,58,243.2,58z M228.2,51.3c0.1,0,0.1,0.1,0.2,0.1l1.1,0.2c0.6,0.1,2,0.2,4.2,0.3
						c2.1,0.1,4,0.1,5.6-0.1c0.3,0,0.6-0.1,0.9-0.1c0-0.2-0.1-0.5-0.1-0.7c-0.2-0.7-0.5-1.6-0.8-2.5c-0.3-0.7-0.6-1.2-0.9-1.5
						c-0.3-0.3-0.8-0.5-1.4-0.7c-0.7-0.2-1.2-0.4-1.6-0.4c-0.4,0.1-1.3,0.4-2.5,0.9c-1.3,0.5-2.1,1-2.6,1.4c-0.5,0.5-1,1.1-1.4,1.9
						C228.7,50.5,228.4,50.9,228.2,51.3z"/>
				</g>
			</g>
			<g>
				<g>
					<path fill="#153E5B" d="M69.7,73.1c0.8,0.1,1.8,0.2,3,0.3l1.9,0.2c0.9,0.1,1.6,0.5,2.2,1.2c0.6,0.7,0.8,1.5,0.7,2.4
						c-0.1,0.9-0.5,1.6-1.2,2.2c-0.7,0.6-1.5,0.8-2.4,0.7L72,79.9c-1-0.1-1.8-0.3-2.4-0.3c-0.1,3.1-0.1,5.8-0.2,7.9
						c-0.1,2.8-0.2,4.8-0.2,6.1c0,1.1,0.1,2.1,0.2,3c0.1,0.6,0.2,1,0.3,1.3l0.1,0.1c0.2,0.1,0.5,0.2,1,0.4c0.3,0.1,0.6,0.1,0.9,0.1
						c0.4-0.1,1-0.3,1.7-0.8l1.5-1c0.7-0.5,1.6-0.6,2.5-0.4c0.9,0.2,1.6,0.6,2.1,1.4c0.5,0.8,0.6,1.6,0.4,2.5
						c-0.2,0.9-0.7,1.6-1.4,2.1l-1.5,1c-1.4,0.9-2.7,1.5-3.9,1.8c-1.4,0.3-2.8,0.2-4.3-0.3c-1.2-0.4-2.2-0.9-2.9-1.4
						c-0.8-0.6-1.5-1.4-1.9-2.2c-0.4-0.7-0.7-1.9-0.9-3.3c-0.2-1.3-0.3-2.6-0.3-4c0-1.3,0.1-3.3,0.2-6.2C62.9,84.5,63,81.1,63,77
						c0.1-4.2,0.2-7.2,0.3-9.1l0.1-2.7c0-0.9,0.4-1.6,1.1-2.3c0.7-0.6,1.5-0.9,2.3-0.8c0.9,0.1,1.6,0.4,2.3,1.1
						c0.6,0.7,0.9,1.5,0.9,2.3l-0.1,2.7C69.8,69.3,69.7,70.9,69.7,73.1z"/>
					<path fill="#153E5B" d="M105.6,74.1c0.6-0.7,1.4-1,2.3-1c0.9,0,1.7,0.3,2.3,0.9c0.7,0.6,1,1.4,1,2.3l0.1,4
						c0,2.7,0.1,5.2,0.1,7.5c0,2.4-0.1,4.9-0.4,7.7c-0.3,2.6-0.4,4.1-0.4,4.6v0.9c0,0.9-0.3,1.6-1,2.3c-0.6,0.6-1.4,1-2.3,1
						c-0.9,0-1.7-0.3-2.3-1c-0.6-0.6-1-1.4-1-2.3V100c0-0.3,0-0.7,0.1-1.1c-0.9,0.7-1.9,1.4-3,1.8c-1.4,0.6-2.9,1-4.7,1.1
						c-1.7,0.1-3.5,0-5.4-0.4c-2-0.5-3.8-1.3-5.3-2.4c-1.4-1.1-2.5-2.2-3.3-3.5c-0.9-1.3-1.5-3.2-1.8-5.7c-0.4-2.7,0.3-5.4,1.9-8.1
						c1.4-2.3,2.9-4.3,4.6-5.9c1-0.9,1.9-1.6,2.8-2.2c0.9-0.5,1.9-0.8,3-0.7h0.8c0.5-0.2,1-0.3,1.5-0.3l0.9,0.1
						c0.9,0.1,1.7,0.2,2.4,0.4c0.6,0.2,1.2,0.5,2,0.8c0.8,0.4,1.5,0.7,2,1c0.5,0.3,1.1,0.7,1.7,1.3c0.1,0.1,0.3,0.2,0.4,0.4v-0.2
						C104.7,75.5,105,74.8,105.6,74.1z M95.5,79.3c-0.4,0.1-0.8,0.2-1.3,0.2h-1.1c-0.4,0.2-0.9,0.6-1.5,1.1
						c-1.2,1.1-2.3,2.6-3.4,4.4c-0.9,1.5-1.2,2.8-1,4c0.2,1.5,0.4,2.5,0.8,3c0.4,0.6,1,1.2,1.8,1.8c0.7,0.5,1.7,0.9,2.8,1.2
						c1.2,0.3,2.4,0.4,3.4,0.3c1-0.1,1.9-0.3,2.6-0.6c0.7-0.3,1.3-0.7,1.8-1.1c0.5-0.5,1-1.2,1.4-1.9c0.4-0.7,0.6-1.4,0.7-2
						c0.1-0.7,0.2-1.4,0.2-2.1c0-0.7-0.1-1.4-0.3-2.1c-0.1-0.6-0.4-1.2-0.7-1.9c-0.4-0.8-0.7-1.3-0.9-1.7c-0.1-0.2-0.4-0.4-0.6-0.6
						c-0.5-0.4-0.8-0.7-1.1-0.8c-0.2-0.1-0.6-0.3-1.1-0.5c-0.6-0.2-1-0.4-1.4-0.6c-0.2,0-0.5-0.1-0.9-0.1H95.5z"/>
				</g>
			</g>
			<g>
				<g>
					<path fill="#153E5B" d="M146.3,86.5c-0.3,0.8-0.9,1.5-1.7,1.8c-0.8,0.4-1.6,0.4-2.5,0c-0.9-0.3-1.5-0.9-1.8-1.7l-0.3-0.7
						c-0.2-0.4-0.5-0.9-0.9-1.6c0,0-0.1-0.1-0.3-0.3c-0.2-0.2-0.4-0.4-0.8-0.8c-0.4-0.4-0.8-0.7-1.3-1c-1.4-1-2.6-1.7-3.5-1.9
						c-0.8-0.2-2-0.1-3.7,0.3c-1.7,0.5-2.9,1-3.7,1.8c-0.7,0.7-1.2,2-1.7,4c-0.5,2.3-0.6,4.4-0.4,6.2c0.2,1.9,0.8,4,1.7,6.1
						c0.9,2.1,1.8,3.6,2.7,4.7c0.9,1,2.1,1.8,3.6,2.5c1.4,0.6,2.4,0.9,3.1,0.8c0.9-0.1,1.7-0.3,2.2-0.5c0.5-0.2,1-0.6,1.4-1
						c0.6-0.6,1-1.1,1.4-1.6c0.4-0.5,0.7-1,0.8-1.3c0,0,0-0.1,0.1-0.2c0-0.3-0.1-0.6-0.2-0.9c-0.2-1.2-0.4-2.3-0.5-3.4
						c0-0.4-0.1-0.7-0.2-1c-0.7,0.1-1.4,0.2-2.1,0.3c-1.2,0.3-2,0.4-2.4,0.4l-0.5,0.1c-0.9,0.1-1.7-0.1-2.4-0.7
						c-0.7-0.5-1.2-1.3-1.3-2.2c-0.1-0.9,0.1-1.7,0.6-2.4c0.5-0.7,1.3-1.1,2.2-1.2l0.5-0.1c0.3,0,1-0.2,2.1-0.4
						c1.3-0.2,2.6-0.3,3.8-0.4c0.4,0,0.9,0,1.3,0c0.4,0,1,0.1,1.6,0.3c0.6,0.3,1.2,0.7,1.6,1.3c0.6,0.7,1,1.6,1.2,2.6
						c0.1,0.5,0.2,1.3,0.4,2.4c0.1,1,0.3,2,0.5,3c0,0.2,0.1,0.4,0.2,0.8c0.1,0.3,0.1,0.6,0.2,0.7c0,0.2,0,0.4,0,0.7
						c0,0.3-0.1,0.7-0.2,1c-0.1,0.5-0.3,1.1-0.6,1.8c-0.3,0.6-0.7,1.4-1.3,2.2c-0.6,0.8-1.3,1.6-2.2,2.5c-1,1-2.1,1.8-3.4,2.4
						c-1.2,0.5-2.6,0.9-4.2,1c-1.8,0.2-4-0.2-6.4-1.3c-2.4-1-4.3-2.4-5.8-4.1c-1.5-1.6-2.7-3.8-3.9-6.6c-1.1-2.7-1.8-5.2-2.1-7.8
						c-0.3-2.6-0.1-5.4,0.5-8.4c0.7-3.3,1.9-5.7,3.6-7.3c1.6-1.5,3.8-2.6,6.5-3.3c2.8-0.7,5.2-0.9,7.1-0.3c1.7,0.5,3.6,1.5,5.6,3
						c2.1,1.5,3.4,2.9,4.1,4.1c0.5,0.9,0.9,1.7,1.2,2.3l0.3,0.7C146.6,84.8,146.6,85.6,146.3,86.5z"/>
					<path fill="#153E5B" d="M167.7,88.2c0.2,0.9,0.1,1.7-0.4,2.4c-0.5,0.7-1.1,1.2-2,1.4c-0.9,0.2-1.7,0.1-2.5-0.4l-2-1.3
						c-0.9-0.6-1.5-0.9-1.9-1c-0.3,0-0.7,0-1.1,0.2c-0.5,0.1-0.8,0.3-1.1,0.5c-0.2,0.2-0.5,0.6-0.9,1.1c-0.4,0.6-0.6,1-0.6,1.2
						c-0.1,0.3-0.1,0.5-0.2,0.6c0,2.1,0.1,4,0.1,5.6c0,2.3,0,4.1,0,5.2c-0.1,1.2-0.1,2.1-0.2,2.9c-0.1,0.6-0.1,1-0.1,1.2
						c0,0.4,0,0.8-0.1,1.2l-0.1,0.5c-0.1,0.9-0.5,1.6-1.2,2.2c-0.7,0.6-1.5,0.8-2.4,0.7c-0.9-0.1-1.6-0.5-2.2-1.2
						c-0.6-0.7-0.8-1.5-0.7-2.4l0.1-0.5c0-0.2,0.1-0.5,0.1-0.7c0-0.4,0.1-0.9,0.2-1.8c0-0.6,0.1-1.5,0.1-2.5c0.1-1,0.1-2.6,0-4.8
						c0-1.6-0.1-3.3-0.1-5.3c0-0.3,0-0.6,0-0.9c0-0.7-0.1-1.4-0.1-2.2l-0.1-4.9c0-0.9,0.3-1.7,0.9-2.3c0.6-0.7,1.4-1,2.3-1
						c1.3,0,2.2,0.5,2.9,1.6c0.4-0.2,0.9-0.4,1.3-0.5c1.4-0.4,2.7-0.5,4-0.4c1.2,0.2,2.7,0.8,4.5,1.9l2,1.3
						C167.1,86.6,167.5,87.3,167.7,88.2z"/>
					<path fill="#153E5B" d="M193.7,83.5c0.6-0.7,1.4-1,2.3-1c0.9,0,1.7,0.3,2.3,0.9c0.7,0.6,1,1.4,1,2.3l0.1,4
						c0,2.7,0.1,5.2,0.1,7.6c0,2.4-0.1,4.9-0.4,7.7c-0.3,2.6-0.4,4.1-0.4,4.6v0.9c0,0.9-0.3,1.6-1,2.3c-0.6,0.6-1.4,1-2.3,1
						c-0.9,0-1.7-0.3-2.3-1c-0.6-0.6-1-1.4-1-2.3v-0.9c0-0.3,0-0.7,0.1-1.1c-0.9,0.7-1.9,1.3-3,1.8c-1.4,0.6-2.9,1-4.7,1.1
						c-1.7,0.1-3.5,0-5.4-0.4c-2-0.5-3.8-1.3-5.3-2.4c-1.4-1.1-2.5-2.2-3.3-3.5c-0.9-1.3-1.5-3.2-1.8-5.7c-0.4-2.7,0.3-5.4,1.9-8.1
						c1.4-2.3,2.9-4.3,4.6-5.9c1-0.9,1.9-1.6,2.8-2.2c0.9-0.5,1.9-0.8,3-0.7h0.8c0.5-0.2,1-0.3,1.5-0.3l0.9,0.1
						c0.9,0.1,1.7,0.2,2.4,0.4c0.6,0.2,1.2,0.5,2,0.8c0.8,0.4,1.5,0.7,2,1c0.5,0.3,1.1,0.7,1.7,1.3c0.1,0.1,0.3,0.2,0.4,0.4v-0.2
						C192.7,84.9,193,84.1,193.7,83.5z M183.6,88.7c-0.4,0.1-0.8,0.2-1.3,0.2h-1.1c-0.4,0.2-0.9,0.5-1.5,1.1
						c-1.2,1.1-2.3,2.6-3.4,4.4c-0.9,1.5-1.2,2.8-1,4c0.2,1.5,0.4,2.5,0.8,3c0.4,0.6,1,1.2,1.8,1.8c0.7,0.5,1.7,0.9,2.8,1.2
						c1.2,0.3,2.4,0.4,3.4,0.3c1-0.1,1.9-0.3,2.6-0.6c0.7-0.3,1.3-0.7,1.8-1.1c0.5-0.5,1-1.2,1.4-1.9c0.4-0.7,0.6-1.4,0.7-2
						c0.1-0.7,0.2-1.4,0.2-2.1c0-0.7-0.1-1.4-0.3-2.1c-0.1-0.6-0.4-1.2-0.7-1.9c-0.4-0.8-0.7-1.3-0.9-1.6c-0.1-0.2-0.4-0.4-0.6-0.6
						c-0.5-0.4-0.8-0.7-1.1-0.8c-0.2-0.1-0.6-0.3-1.1-0.5c-0.6-0.2-1-0.4-1.4-0.6c-0.2,0-0.5-0.1-0.9-0.1H183.6z"/>
					<path fill="#153E5B" d="M202,85.8c0.7-0.6,1.5-0.8,2.4-0.8c0.9,0.1,1.6,0.5,2.2,1.1c0.6,0.7,0.8,1.5,0.8,2.4l-0.2,1.4
						c-0.1,0.9-0.1,2.1-0.1,3.7c0,1.7,0,3.6,0,5.6c0,2.1-0.1,3.5-0.1,4.3c0,0.7-0.1,1.4-0.1,1.9c0,0.5-0.1,1-0.1,1.3l-0.1,0.4
						c-0.1,0.9-0.5,1.6-1.2,2.2c-0.7,0.6-1.5,0.8-2.4,0.7c-0.9-0.1-1.6-0.5-2.2-1.2c-0.6-0.7-0.8-1.5-0.7-2.4l0.1-0.4
						c0-0.2,0.1-0.6,0.1-1.1c0-0.5,0.1-1,0.1-1.8c0-0.7,0.1-2,0.1-4c0-2,0-3.9,0-5.5c0-1.8,0-3.2,0.1-4.3l0.1-1.4
						C200.9,87.1,201.3,86.4,202,85.8z M201.4,76.8c0-0.9,0.3-1.7,1-2.3c0.6-0.6,1.4-1,2.3-1c0.9,0,1.7,0.3,2.3,1l0.2,0.2
						c0.6,0.6,1,1.4,1,2.3c0,0.9-0.3,1.7-1,2.3c-0.6,0.6-1.4,1-2.3,1s-1.7-0.3-2.3-1l-0.2-0.2C201.7,78.5,201.4,77.7,201.4,76.8z"/>
					<path fill="#153E5B" d="M210.7,78c0.7-0.5,1.6-0.7,2.4-0.5c0.9,0.2,1.6,0.6,2.1,1.4c0.5,0.7,0.7,1.6,0.5,2.4l-0.2,1.4
						c0,0.1-0.1,0.3-0.1,0.6c0.5-0.4,1.2-0.8,1.9-1.2c1.7-0.9,3.3-1.3,4.8-1.2c1.3,0.1,2.4,0.2,3.2,0.5c1,0.4,2,1,2.9,1.8
						c0.8,0.7,1.6,1.6,2.3,2.7c0.7,1.1,1.4,2.5,1.9,4.1c0.6,1.6,0.9,3,1,4.3c0.1,1.1,0.2,1.9,0.2,2.5c0,0.6,0,1.5-0.1,2.7
						c0,1.2-0.1,2.2-0.1,3c-0.1,0.8-0.1,1.5-0.2,2c0,0.5-0.1,1.2-0.2,2.1c0,0.9-0.1,1.6-0.1,1.9c0,0.3,0,0.6,0,0.8v0.4
						c0,0.9-0.3,1.6-1,2.3c-0.6,0.6-1.4,1-2.3,1c-0.9,0-1.7-0.3-2.3-1c-0.7-0.6-1-1.4-1-2.3v-0.4c0-0.2,0-0.6,0.1-1
						c0-0.4,0-1.1,0.1-2.1c0-1,0.1-1.7,0.2-2.3c0-0.5,0.1-1.1,0.1-1.8c0.1-0.7,0.1-1.7,0.1-2.8c0-1.1,0.1-1.9,0.1-2.3
						c0-0.4-0.1-1-0.2-1.9c-0.1-0.7-0.3-1.7-0.7-2.8c-0.4-1.1-0.8-2-1.2-2.6c-0.4-0.6-0.8-1.1-1.3-1.5c-0.3-0.2-0.4-0.4-0.6-0.5
						c-0.3-0.1-0.7-0.1-1.4-0.2c-0.4,0-0.9,0.2-1.4,0.5c-0.7,0.4-1.1,0.7-1.4,1.1c-0.4,0.6-0.8,1.2-1.1,2c-0.3,0.7-0.5,1.5-0.7,2.2
						c-0.2,1-0.3,1.9-0.4,2.7c-0.1,0.7-0.2,1.8-0.3,3.1c-0.1,1.3-0.1,2.9,0,5c0.1,1.3,0.1,2.2,0.2,2.8l0.1,0.1
						c0.4,0.6,0.5,1.3,0.4,2c-0.1,0.7-0.4,1.3-0.8,1.8c-0.1,0.7-0.5,1.4-1.1,1.9c-0.6,0.5-1.3,0.7-2.1,0.7c-0.9,0-1.7-0.3-2.3-1
						c-0.7-0.6-1-1.4-1-2.3v-4.4c0-0.8,0-1.9-0.1-3.5c0-1.6-0.1-2.9-0.1-4.1c0-1.1-0.1-2.2-0.2-3.5c-0.1-1.3-0.2-3.5-0.4-6.4
						c-0.2-3.2-0.2-5.4,0.1-6.6l0.2-1.3C209.5,79.2,209.9,78.5,210.7,78z"/>
					<path fill="#153E5B" d="M257,99c-0.4,0-1.5,0.1-3.1,0.3c-2,0.2-4.2,0.2-6.6,0.1c-2.4-0.1-4-0.3-4.8-0.4l-1.1-0.2
						c0.2,1,0.4,1.8,0.6,2.3c0.2,0.6,0.4,1.1,0.6,1.5c0.1,0.3,0.5,0.7,1,1.2c0.6,0.6,1.2,1.2,2,1.6c0.7,0.5,1.4,0.8,2.1,1
						c0.8,0.2,1.5,0.3,2,0.4c0.6,0,1.2,0,1.8-0.1c0.7-0.1,1.2-0.2,1.5-0.3c0.4-0.1,0.7-0.3,1-0.4c0.4-0.2,0.7-0.4,1.2-0.6l0.7-0.3
						c0.8-0.4,1.6-0.4,2.5-0.1c0.9,0.3,1.5,0.9,1.9,1.6c0.4,0.8,0.4,1.6,0.1,2.5c-0.3,0.9-0.9,1.5-1.7,1.8l-0.6,0.3
						c-0.4,0.2-0.8,0.4-1.2,0.6c-0.5,0.2-1,0.4-1.6,0.6c-0.6,0.2-1.5,0.4-2.5,0.6c-1.1,0.2-2.2,0.3-3.2,0.2
						c-1.1-0.1-2.2-0.3-3.5-0.6c-1.3-0.4-2.6-1-3.9-1.8c-1.2-0.8-2.3-1.7-3.2-2.7c-1-1-1.6-1.9-2.1-2.8c-0.3-0.7-0.6-1.4-0.9-2.2
						c-0.3-0.8-0.6-1.9-0.9-3.4c-0.4-1.6-0.5-3.2-0.3-4.7c0.1-1.5,0.4-2.9,0.8-4c0.4-1.1,0.9-2.2,1.6-3.5c0.7-1.3,1.6-2.5,2.6-3.5
						c1-1,2.6-1.9,4.6-2.7c2.1-0.8,3.6-1.2,4.8-1.3c1.1-0.1,2.4,0.2,3.9,0.7c1.5,0.5,2.8,1.3,3.8,2.2c1,1,1.8,2.2,2.4,3.8
						c0.5,1.3,0.9,2.5,1.2,3.7c0.2,1.2,0.4,2.4,0.3,3.7c0,0,0,0.1,0,0.1c0,0.4,0,0.7-0.1,1c-0.1,0.3-0.2,0.8-0.4,1.4
						c-0.2,0.6-0.6,1.1-1.1,1.5C258.6,98.7,257.9,98.9,257,99z M242.1,92.3c0.1,0,0.1,0.1,0.2,0.1l1.1,0.2c0.6,0.1,2,0.2,4.2,0.3
						c2.1,0.1,4,0.1,5.6-0.1c0.3,0,0.6-0.1,0.9-0.1c0-0.2-0.1-0.5-0.1-0.7c-0.2-0.7-0.5-1.6-0.9-2.5c-0.3-0.7-0.6-1.2-0.9-1.5
						c-0.3-0.3-0.8-0.5-1.4-0.7c-0.7-0.2-1.2-0.4-1.6-0.4c-0.4,0.1-1.3,0.4-2.5,0.8c-1.3,0.5-2.1,1-2.6,1.4c-0.5,0.5-1,1.1-1.4,1.9
						C242.5,91.4,242.3,91.8,242.1,92.3z"/>
				</g>
			</g>
			<path fill="#94D2DF" stroke="#94D2DF" stroke-miterlimit="10" d="M47.7,108.5c0,0-25.7,4.8-6.2-45.1
				C41.4,63.4,64.8,100.9,47.7,108.5z"/>
			<path fill="#ACCB55" d="M41.3,105.5c0,0-18.8,12.4-20-33.7C21.3,71.8,52.3,93.7,41.3,105.5z"/>
			<path fill="#94D2DF" stroke="#94D2DF" stroke-miterlimit="10" d="M268.9,106c-0.3-1.4-0.1-2.8,0.7-4c0.8-1.2,1.9-2,3.3-2.3
				c1.4-0.3,2.8-0.1,4,0.7l0.3,0.2c1.2,0.8,2,1.9,2.4,3.3c0.3,1.4,0.1,2.8-0.7,4c-0.8,1.2-1.9,2-3.3,2.4c-1.4,0.3-2.8,0.1-4-0.7
				l-0.3-0.2C270,108.6,269.2,107.4,268.9,106z"/>
		</g>
	</g>
</g>
<g>
</g>
<g>
</g>
<g>
</g>
<g>
</g>
<g>
</g>
<g>
</g>
<g>
</g>
<g>
</g>
<g>
</g>
<g>
</g>
<g>
</g>
<g>
</g>
<g>
</g>
<g>
</g>
<g>
</g>
</svg>
