<?xml version="1.0" encoding="utf-8"?>
<!-- Generator: Adobe Illustrator 18.1.1, SVG Export Plug-In . SVG Version: 6.00 Build 0)  -->
<svg version="1.1" id="Calque_1" xmlns="http://www.w3.org/2000/svg" xmlns:xlink="http://www.w3.org/1999/xlink" x="0px" y="0px"
	 width="131.705px" height="133.981px" viewBox="0 0 131.705 133.981" style="enable-background:new 0 0 131.705 133.981;"
	 xml:space="preserve">
<g id="_x36_ZFHRA.tif">
	<g>
		<path d="M70.042,0c0.112,0.045,0.223,0.126,0.336,0.129c1.514,0.035,3.017,0.21,4.518,0.385c0.688,0.08,1.372,0.193,2.057,0.296
			c0.076,0.011,0.148,0.053,0.238,0.087c-0.095,0.249-0.298,0.233-0.467,0.233c-0.495,0.001-0.99-0.01-1.483-0.034
			c-0.86-0.043-1.72-0.097-2.58-0.151c-0.408-0.025-0.816-0.08-1.224-0.085c-0.423-0.005-0.848,0.014-1.268,0.057
			c-1.237,0.124-2.474,0.252-3.708,0.403C65.802,1.4,65.14,1.491,64.498,1.652c-0.474,0.119-0.92,0.353-1.374,0.545
			c-2.366,0.998-4.738,1.984-7.093,3.006c-0.831,0.36-1.686,0.638-2.538,0.933c-1,0.346-1.875,0.918-2.705,1.557
			c-0.615,0.474-1.205,0.981-1.807,1.473c-0.273,0.223-0.566,0.378-0.934,0.258c-0.373-0.122-0.632-0.378-0.785-0.726
			c-0.143-0.324,0.019-0.61,0.198-0.868c0.103-0.149,0.24-0.279,0.376-0.401c1.085-0.977,2.226-1.884,3.568-2.483
			c0.589-0.263,1.216-0.453,1.84-0.622c1.107-0.3,2.172-0.71,3.225-1.155c1.35-0.571,2.697-1.151,4.035-1.75
			c0.527-0.236,1.034-0.519,1.536-0.805c0.541-0.309,1.11-0.479,1.734-0.484C63.882,0.128,63.991,0.045,64.099,0
			C66.08,0,68.061,0,70.042,0z"/>
		<path d="M0,68.599c0.173-0.031,0.194-0.177,0.246-0.309c0.27-0.689,0.642-1.316,1.159-1.85c0.178-0.184,0.371-0.33,0.653-0.345
			c0.434-0.023,0.752,0.146,0.914,0.537c0.145,0.348,0.28,0.711,0.343,1.081c0.108,0.631-0.089,1.211-0.49,1.696
			c-0.295,0.356-0.632,0.685-0.988,0.979c-0.526,0.435-1.136,0.293-1.497-0.301c-0.1-0.164-0.225-0.312-0.339-0.468
			C0,69.278,0,68.939,0,68.599z"/>
		<path d="M94.318,71.181c-0.032,0.649-0.062,1.298-0.096,1.947c-0.044,0.84,0.037,1.67,0.242,2.482
			c0.26,1.027,0.577,2.039,0.826,3.068c0.266,1.098,0.487,2.21,0.555,3.341c0.059,0.972,0.121,1.948,0.101,2.92
			c-0.025,1.243-0.132,2.485-0.399,3.704c-0.16,0.73-0.336,1.456-0.525,2.179c-0.071,0.271-0.193,0.529-0.304,0.789
			c-0.381,0.896-0.757,1.794-1.156,2.682c-0.143,0.32-0.335,0.62-0.522,0.918c-0.101,0.161-0.251,0.276-0.464,0.222
			c-0.211-0.054-0.268-0.224-0.309-0.413c-0.145-0.673-0.037-1.319,0.186-1.956c0.615-1.75,0.867-3.563,0.942-5.407
			c0.035-0.861,0.085-1.723,0.077-2.584c-0.013-1.443-0.113-2.884-0.437-4.294c-0.18-0.783-0.449-1.545-0.678-2.317
			c-0.218-0.734-0.336-1.485-0.42-2.245c-0.153-1.394-0.197-2.792-0.156-4.192c0.027-0.917,0.102-1.833,0.178-2.748
			c0.084-1.004,0.073-2.006-0.032-3.004c-0.08-0.76-0.284-1.497-0.524-2.224c-0.407-1.236-0.715-2.497-0.957-3.776
			c-0.369-1.946-0.594-3.911-0.815-5.878c-0.145-1.291-0.368-2.574-0.558-3.861c-0.165-1.119-0.356-2.235-0.486-3.357
			c-0.045-0.383,0.012-0.794,0.105-1.172c0.149-0.608,0.728-0.889,1.326-0.702c0.426,0.133,0.737,0.389,0.94,0.796
			c0.304,0.609,0.368,1.274,0.482,1.926c0.159,0.904,0.308,1.811,0.436,2.72c0.216,1.539,0.462,3.074,0.563,4.628
			c0.097,1.496,0.26,2.986,0.767,4.414c0.232,0.656,0.53,1.277,0.904,1.863c0.038,0.06,0.076,0.12,0.124,0.172
			c0.17,0.187,0.496,0.298,0.65,0.192c0.2-0.137,0.28-0.353,0.238-0.593c-0.107-0.612-0.217-1.224-0.337-1.834
			c-0.183-0.929-0.377-1.855-0.564-2.783c-0.145-0.72-0.294-1.439-0.422-2.162c-0.059-0.332-0.085-0.672-0.102-1.01
			c-0.027-0.548,0.242-0.98,0.602-1.355c0.312-0.325,0.705-0.312,0.992,0.044c0.155,0.193,0.285,0.43,0.349,0.668
			c0.256,0.94,0.515,1.881,0.71,2.834c0.186,0.913,0.299,1.841,0.436,2.763c0.157,1.062,0.306,2.126,0.457,3.189
			c0.046,0.322,0.104,0.642,0.132,0.965c0.068,0.786,0.322,1.518,0.619,2.238c0.482,1.17,0.711,2.372,0.595,3.645
			c-0.072,0.787-0.095,1.581-0.081,2.371c0.025,1.371,0.112,2.74,0.365,4.091c0.307,1.639,0.647,3.272,0.946,4.913
			c0.307,1.685,0.302,3.372-0.012,5.061c-0.294,1.584-0.546,3.174-0.623,4.79c-0.024,0.498-0.183,0.999-0.343,1.478
			c-0.565,1.687-1.151,3.367-1.74,5.046c-0.528,1.505-1.07,3.005-1.608,4.506c-0.048,0.132-0.108,0.262-0.175,0.386
			c-0.224,0.413-0.586,0.462-0.937,0.136c-0.27-0.25-0.43-0.559-0.487-0.919c-0.106-0.678-0.098-1.356,0.089-2.017
			c0.239-0.843,0.497-1.68,0.768-2.513c0.556-1.707,1.028-3.435,1.388-5.194c0.199-0.969,0.434-1.932,0.595-2.908
			c0.221-1.337,0.403-2.681,0.571-4.026c0.082-0.658,0.12-1.323,0.135-1.986c0.023-0.994-0.095-1.973-0.414-2.923
			c-0.274-0.816-0.559-1.629-0.789-2.458c-0.246-0.887-0.346-1.803-0.379-2.723c-0.037-1.019,0.056-2.032,0.138-3.047
			c0.081-1.004,0.055-2.009-0.191-2.993c-0.071-0.285-0.182-0.565-0.318-0.825c-0.081-0.155-0.231-0.287-0.377-0.39
			c-0.164-0.115-0.351-0.067-0.413,0.127c-0.123,0.387-0.257,0.785-0.284,1.186c-0.078,1.127-0.105,2.258-0.152,3.388
			C94.281,71.179,94.3,71.18,94.318,71.181z"/>
		<path d="M116.444,72.198c0.028,0.727,0.009,1.446-0.359,2.104c-0.11,0.197-0.218,0.399-0.356,0.575
			c-0.321,0.411-0.748,0.337-0.934-0.149c-0.286-0.746-0.405-1.526-0.487-2.315c-0.215-2.067-0.388-4.139-0.665-6.197
			c-0.161-1.2-0.459-2.385-0.748-3.563c-0.594-2.417-1.453-4.752-2.269-7.1c-0.171-0.493-0.315-0.998-0.52-1.478
			c-0.131-0.306-0.335-0.586-0.535-0.857c-0.116-0.157-0.284-0.297-0.51-0.223c-0.196,0.065-0.277,0.238-0.305,0.426
			c-0.029,0.194-0.05,0.393-0.043,0.588c0.041,1.225,0.297,2.409,0.701,3.562c0.326,0.932,0.645,1.868,1.004,2.787
			c0.251,0.643,0.58,1.255,0.846,1.893c0.428,1.025,0.659,2.105,0.766,3.204c0.198,2.039,0.363,4.082,0.528,6.125
			c0.117,1.45,0.238,2.901,0.309,4.354c0.063,1.286,0.046,2.574-0.333,3.827c-0.144,0.476-0.32,0.936-0.627,1.335
			c-0.379,0.494-0.73,0.474-1.05-0.046c-0.268-0.435-0.364-0.92-0.404-1.413c-0.057-0.704-0.105-1.411-0.109-2.117
			c-0.007-1.187,0.057-2.376,0.03-3.562c-0.026-1.157-0.1-2.315-0.206-3.467c-0.096-1.041-0.248-2.078-0.404-3.112
			c-0.265-1.76-0.462-3.537-0.999-5.241c-0.399-1.264-0.863-2.51-1.334-3.75c-0.499-1.313-0.868-2.655-1.082-4.043
			c-0.189-1.221-0.248-2.447-0.219-3.678c0.013-0.551,0.025-1.095-0.039-1.647c-0.116-1.01-0.401-1.962-0.847-2.869
			c-0.585-1.191-1.151-2.392-1.775-3.563c-0.609-1.143-1.437-2.121-2.392-3.004c-0.547-0.506-1.03-1.086-1.503-1.665
			c-1.116-1.369-2.176-2.786-3.32-4.131c-1.366-1.607-2.877-3.078-4.494-4.434c-1.312-1.101-2.556-2.274-3.745-3.504
			c-0.772-0.799-1.326-1.726-1.496-2.843c-0.138-0.906-0.513-1.698-1.09-2.4c-0.37-0.451-0.448-0.963-0.315-1.516
			c0.096-0.401,0.34-0.587,0.749-0.616c0.605-0.042,1.092,0.192,1.543,0.576c0.775,0.66,1.312,1.462,1.61,2.438
			c0.198,0.648,0.428,1.287,0.666,1.922c0.426,1.139,1.142,2.046,2.23,2.617c0.723,0.379,1.343,0.889,1.925,1.446
			c1.297,1.24,2.55,2.528,3.873,3.74c1.395,1.279,2.543,2.763,3.735,4.216c1.085,1.321,2.206,2.614,3.351,3.883
			c1.007,1.116,1.81,2.345,2.36,3.743c0.595,1.511,1.191,3.022,1.796,4.529c0.441,1.1,1.073,2.08,1.893,2.94
			c0.488,0.511,0.77,1.149,1.021,1.794c0.818,2.105,1.591,4.229,2.444,6.32c0.701,1.719,1.058,3.507,1.316,5.332
			c0.349,2.465,0.521,4.947,0.76,7.423C116.412,71.661,116.425,71.93,116.444,72.198z"/>
		<path d="M78.745,108.131c0.547-0.096,1.044-0.184,1.541-0.272c0.084-0.015,0.167-0.038,0.251-0.043
			c0.328-0.02,0.51,0.13,0.539,0.457c0.044,0.484-0.095,0.928-0.361,1.324c-0.252,0.375-0.509,0.752-0.808,1.089
			c-1.215,1.37-2.223,2.883-3.19,4.433c-0.612,0.981-1.328,1.9-2.038,2.815c-0.962,1.24-1.947,2.463-2.95,3.67
			c-1.498,1.803-3.222,3.368-5.092,4.779c-1.868,1.41-3.909,2.534-5.944,3.672c-1.048,0.586-2.09,1.182-3.141,1.762
			c-1.426,0.788-2.962,1.093-4.578,0.976c-0.388-0.028-0.78-0.138-1.149-0.268c-0.391-0.139-0.425-0.459-0.075-0.689
			c0.279-0.184,0.592-0.332,0.907-0.445c2.091-0.749,4.139-1.6,6.036-2.76c1.373-0.839,2.731-1.714,4.024-2.67
			c1.908-1.412,3.762-2.898,5.62-4.377c1.315-1.047,2.398-2.31,3.33-3.709c0.58-0.87,1.194-1.717,1.779-2.584
			c0.268-0.396,0.515-0.808,0.746-1.227c0.146-0.264,0.097-0.546-0.022-0.819c-0.087-0.201-0.222-0.274-0.438-0.225
			c-0.387,0.087-0.703,0.286-0.953,0.59c-0.943,1.147-1.889,2.291-2.824,3.445c-1.056,1.304-2.27,2.442-3.6,3.459
			c-1.022,0.781-2.066,1.532-3.009,2.413c-0.66,0.617-1.336,1.222-2.05,1.774c-1.097,0.848-2.301,1.533-3.529,2.178
			c-1.577,0.828-3.206,1.54-4.86,2.19c-1.327,0.522-2.662,1.033-4.022,1.458c-1.359,0.425-2.736,0.356-4.067-0.193
			c-0.191-0.079-0.375-0.201-0.527-0.342c-0.185-0.171-0.167-0.353,0.04-0.5c0.135-0.096,0.296-0.169,0.456-0.212
			c1.255-0.335,2.526-0.616,3.767-0.997c2.491-0.764,4.862-1.815,7.119-3.124c2.031-1.177,4.016-2.422,5.924-3.789
			c2.106-1.509,4.126-3.123,6.013-4.899c0.978-0.92,1.942-1.856,2.872-2.824c1.007-1.05,1.949-2.154,2.798-3.346
			c1.016-1.428,2.143-2.776,3.178-4.191c1.285-1.756,2.558-3.523,3.774-5.327c0.925-1.373,1.617-2.88,2.228-4.419
			c0.865-2.179,1.62-4.398,2.315-6.637c0.259-0.835,0.441-1.694,0.689-2.532c0.099-0.334,0.256-0.659,0.435-0.959
			c0.205-0.342,0.64-0.343,0.883-0.02c0.198,0.264,0.305,0.573,0.319,0.905c0.057,1.42-0.052,2.813-0.447,4.194
			c-0.486,1.699-1.024,3.379-1.712,5.003c-0.677,1.598-1.432,3.163-2.166,4.737c-0.603,1.294-1.235,2.573-2.003,3.779
			c-0.22,0.345-0.442,0.697-0.714,1c-0.557,0.622-0.871,1.383-1.275,2.093C78.766,107.963,78.769,108.009,78.745,108.131z"/>
		<path d="M85.597,4.448c-0.259-0.367-0.519-0.732-0.776-1.1c-0.113-0.162-0.235-0.321-0.323-0.497
			c-0.232-0.462,0.027-0.841,0.545-0.773c0.319,0.042,0.643,0.12,0.94,0.243c1.578,0.653,3.154,1.309,4.719,1.993
			c2.25,0.984,4.488,1.995,6.732,2.99c0.434,0.192,0.775,0.471,0.915,0.939c0.047,0.159,0.07,0.334,0.061,0.499
			c-0.016,0.299-0.23,0.515-0.529,0.485c-0.274-0.027-0.545-0.127-0.808-0.22c-0.212-0.075-0.406-0.198-0.616-0.282
			c-0.335-0.135-0.565-0.003-0.585,0.355c-0.009,0.16,0.035,0.343,0.111,0.484c0.349,0.645,0.444,1.335,0.413,2.052
			c-0.034,0.817-0.38,1.055-1.166,0.806c-0.421-0.134-0.803-0.337-1.151-0.615c-1.227-0.978-2.454-1.957-3.694-2.918
			c-1.165-0.903-2.492-1.486-3.893-1.917c-1.596-0.491-3.231-0.82-4.864-1.158c-1.535-0.317-3.068-0.659-4.617-0.892
			c-1.325-0.2-2.67-0.274-4.008-0.382c-1.004-0.081-2.011-0.047-2.999,0.153c-0.773,0.156-1.535,0.37-2.299,0.57
			c-0.314,0.082-0.616,0.21-0.93,0.287c-0.499,0.122-0.785,0.513-1.198,0.872c0.157,0.022,0.245,0.046,0.332,0.044
			c1.554-0.036,3.108-0.09,4.663-0.106c0.733-0.007,1.465,0.065,2.183,0.251c0.297,0.077,0.615,0.112,0.922,0.107
			c1.262-0.021,2.516,0.059,3.758,0.276c1.016,0.178,2.026,0.387,3.04,0.576c0.68,0.127,1.363,0.24,2.044,0.365
			c1.85,0.338,3.693,0.711,5.43,1.458c0.461,0.198,0.881,0.502,1.295,0.793c0.357,0.251,0.562,0.625,0.686,1.045
			c0.217,0.734-0.185,1.345-0.945,1.429c-0.723,0.081-1.385-0.042-2.031-0.418c-1.012-0.588-2.018-1.194-3.113-1.628
			c-1.341-0.533-2.729-0.792-4.174-0.821c-1.383-0.028-2.766-0.124-4.148-0.191c-0.776-0.038-1.553-0.079-2.329-0.121
			c-0.933-0.05-1.855-0.173-2.775-0.338c-1.185-0.212-2.385-0.323-3.59-0.239c-1.367,0.095-2.735,0.194-4.094,0.359
			c-1.543,0.188-3.068,0.491-4.576,0.883c-1.837,0.478-3.586,1.197-5.344,1.891c-0.105,0.041-0.208,0.087-0.314,0.125
			c-0.823,0.293-1.573-0.153-1.721-1.026c-0.095-0.561,0.022-1.008,0.561-1.334c1.088-0.657,2.142-1.37,3.222-2.039
			c1.135-0.703,2.365-1.191,3.636-1.593c1.552-0.491,3.034-1.145,4.449-1.956c1.182-0.677,2.45-1.152,3.777-1.473
			c1.353-0.327,2.725-0.474,4.112-0.559c1.842-0.112,3.67,0.02,5.498,0.216c1.365,0.147,2.722,0.345,4.054,0.676
			c0.808,0.201,1.599,0.47,2.403,0.692c0.789,0.218,1.583,0.417,2.376,0.621c0.227,0.059,0.456,0.108,0.684,0.162
			C85.563,4.517,85.58,4.483,85.597,4.448z"/>
		<path d="M59.057,90.55c-0.136,0.064-0.221,0.096-0.299,0.141c-1.116,0.635-2.218,1.298-3.353,1.898
			c-0.607,0.321-1.27,0.535-1.908,0.797c-0.026,0.011-0.054,0.018-0.081,0.025c-0.726,0.174-1.087-0.185-0.952-0.92
			c0.136-0.739,0.514-1.317,1.131-1.723c0.73-0.481,1.484-0.927,2.225-1.392c1.364-0.856,2.726-1.713,4.087-2.572
			c1.338-0.844,2.254-2.036,2.866-3.478c1.142-2.691,2.276-5.385,3.424-8.074c0.416-0.975,0.816-1.955,1.04-2.995
			c0.217-1.009,0.41-2.024,0.252-3.065c-0.173-1.144-0.932-1.972-2.02-2.27c-1.488-0.407-3.53,0.195-4.501,1.579
			c-0.616,0.879-1.185,1.793-1.6,2.79c-0.705,1.695-1.379,3.403-2.115,5.084c-0.492,1.124-1.028,2.232-1.618,3.307
			c-0.502,0.914-1.303,1.55-2.256,1.979c-0.178,0.08-0.372,0.135-0.565,0.173c-0.689,0.139-1.168-0.227-1.211-0.932
			c-0.035-0.581,0.143-1.12,0.411-1.624c0.814-1.535,1.629-3.069,2.464-4.592c1.052-1.92,2.112-3.836,3.189-5.741
			c0.535-0.947,1.093-1.882,1.811-2.709c0.681-0.783,1.403-1.508,2.362-1.961c0.829-0.392,1.697-0.627,2.607-0.679
			c1.098-0.063,2.171,0.056,3.191,0.514c1.335,0.599,2.253,1.57,2.736,2.958c0.291,0.837,0.445,1.701,0.448,2.577
			c0.002,0.631-0.107,1.265-0.197,1.893c-0.247,1.731-0.972,3.294-1.727,4.847c-0.821,1.691-1.506,3.436-2.103,5.219
			c-0.498,1.488-0.905,2.999-1.288,4.521c-0.45,1.79-1.284,3.4-2.417,4.858c-0.95,1.223-2.135,2.221-3.179,3.353
			c-1.083,1.173-2.123,2.385-3.183,3.58c-0.544,0.613-1.08,1.234-1.635,1.837c-0.536,0.582-1.101,1.138-1.638,1.719
			c-0.602,0.65-1.358,0.685-2.154,0.571c-0.201-0.029-0.326-0.189-0.342-0.385c-0.075-0.917,0.021-1.79,0.763-2.451
			c0.669-0.596,1.236-1.282,1.769-1.996c0.738-0.988,1.551-1.908,2.445-2.758c0.656-0.623,1.314-1.243,1.961-1.875
			c0.503-0.491,0.868-1.076,1.115-1.733C59.041,90.774,59.038,90.691,59.057,90.55z"/>
		<path d="M107.577,88.534c-0.366,0.28-0.439,0.706-0.548,1.112c-0.427,1.596-0.85,3.193-1.275,4.789
			c-0.131,0.491-0.26,0.983-0.399,1.472c-0.189,0.662-0.54,1.243-0.94,1.793c-0.225,0.308-0.531,0.502-0.937,0.495
			c-0.414-0.008-0.579-0.164-0.526-0.577c0.054-0.42,0.123-0.842,0.229-1.251c0.445-1.709,0.906-3.415,1.362-5.121
			c0.397-1.487,0.794-2.975,1.195-4.461c0.214-0.791,0.418-1.585,0.662-2.367c0.257-0.823,0.223-1.642,0.072-2.473
			c-0.354-1.946-0.725-3.89-1.041-5.842c-0.252-1.551-0.318-3.121-0.281-4.693c0.013-0.55,0.073-1.1,0.077-1.65
			c0.005-0.635,0.009-1.273-0.051-1.904c-0.124-1.313-0.45-2.585-0.83-3.847c-0.57-1.895-1.088-3.805-1.405-5.762
			c-0.201-1.241-0.425-2.48-0.581-3.727c-0.118-0.938-0.196-1.887-0.2-2.831c-0.009-1.812-0.518-3.451-1.534-4.941
			c-0.781-1.146-1.581-2.277-2.584-3.246c-0.173-0.167-0.366-0.314-0.531-0.488c-0.373-0.392-0.692-0.828-0.881-1.337
			c-0.672-1.809-1.812-3.288-3.253-4.534c-0.993-0.86-2.045-1.652-3.07-2.476c-1.366-1.098-2.723-2.209-4.101-3.291
			c-0.595-0.467-0.701-1.066-0.582-1.745c0.087-0.498,0.593-0.908,1.124-0.944c0.61-0.042,1.167,0.091,1.684,0.445
			c0.933,0.64,1.878,1.263,2.691,2.057c0.323,0.315,0.621,0.657,0.911,1.003c0.632,0.753,1.391,1.366,2.15,1.978
			c1.446,1.166,2.658,2.529,3.578,4.149c0.824,1.451,1.907,2.681,3.129,3.82c1.621,1.512,2.911,3.274,3.487,5.469
			c0.234,0.892,0.34,1.803,0.37,2.725c0.026,0.79,0.08,1.579,0.115,2.369c0.017,0.395,0.009,0.792,0.028,1.187
			c0.086,1.764,0.472,3.471,1.011,5.145c0.255,0.792,0.594,1.557,0.862,2.346c0.433,1.274,0.735,2.58,0.913,3.916
			c0.187,1.402,0.295,2.81,0.342,4.223c0.037,1.115,0.102,2.23,0.156,3.345c0.054,1.129,0.098,2.258,0.169,3.386
			c0.074,1.17,0.128,2.343,0.277,3.504c0.122,0.95,0.343,1.891,0.57,2.823c0.248,1.014,0.561,2.013,0.833,3.022
			c0.103,0.382,0.21,0.77,0.24,1.161c0.029,0.375-0.03,0.758-0.07,1.136c-0.031,0.295-0.091,0.587-0.138,0.88
			c-0.056,0.356-0.177,0.685-0.419,0.958c-0.35,0.394-0.874,0.325-1.119-0.144c-0.026-0.05-0.04-0.106-0.061-0.158
			C108.252,88.911,108.125,88.782,107.577,88.534z"/>
		<path d="M90.534,84.22c-0.047,0.818-0.084,1.637-0.143,2.455c-0.078,1.085-0.161,2.169-0.266,3.251
			c-0.121,1.249-0.12,2.517-0.457,3.737c-0.218,0.788-0.47,1.568-0.729,2.345c-0.576,1.729-1.108,3.465-1.42,5.27
			c-0.187,1.08-0.536,2.134-0.836,3.193c-0.4,1.412-0.84,2.813-1.232,4.227c-0.536,1.933-1.029,3.877-1.565,5.81
			c-0.37,1.334-0.741,2.67-1.181,3.982c-0.977,2.914-2.363,5.619-4.262,8.048c-0.803,1.027-1.719,1.946-2.659,2.848
			c-1.019,0.979-1.987,2.013-2.966,3.032c-0.521,0.542-1.137,0.935-1.84,1.175c-0.612,0.209-1.23,0.432-1.897,0.379
			c-0.137-0.011-0.281-0.038-0.404-0.095c-0.429-0.198-0.476-0.413-0.174-0.785c0.115-0.142,0.254-0.266,0.385-0.395
			c1.088-1.072,2.192-2.128,3.262-3.217c1.854-1.887,3.659-3.819,5.205-5.975c1.064-1.484,2.049-3.015,2.813-4.679
			c0.308-0.671,0.517-1.374,0.663-2.097c0.033-0.166,0.04-0.314-0.147-0.39c-0.166-0.068-0.27,0.029-0.353,0.154
			c-0.459,0.696-0.926,1.387-1.371,2.092c-0.972,1.543-1.91,3.107-3.037,4.547c-0.96,1.226-1.981,2.398-3.051,3.529
			c-1.42,1.502-2.933,2.906-4.515,4.232c-0.779,0.653-1.607,1.25-2.441,1.832c-0.911,0.635-1.959,0.931-3.047,1.083
			c-0.516,0.072-1.035,0.138-1.554,0.159c-0.511,0.021-1.014-0.092-1.487-0.282c-0.449-0.18-0.478-0.479-0.065-0.726
			c0.459-0.275,0.948-0.5,1.425-0.744c1.936-0.987,3.7-2.228,5.384-3.594c0.889-0.721,1.809-1.403,2.712-2.108
			c1.512-1.181,2.883-2.512,4.02-4.055c1.434-1.946,2.781-3.955,4.212-5.904c0.995-1.355,2.06-2.66,3.108-3.976
			c0.905-1.136,1.662-2.355,2.179-3.715c0.268-0.704,0.444-1.439,0.457-2.191c0.023-1.372,0.409-2.644,0.95-3.884
			c0.819-1.875,1.65-3.745,2.446-5.63c0.588-1.393,1.029-2.84,1.401-4.305c0.25-0.985,0.502-1.972,0.695-2.97
			c0.141-0.733,0.214-1.482,0.268-2.228c0.089-1.23,0.022-2.459-0.147-3.681c-0.058-0.42-0.141-0.837-0.186-1.258
			c-0.049-0.452-0.057-0.907,0.188-1.32c0.065-0.109,0.13-0.222,0.216-0.314c0.191-0.204,0.399-0.2,0.624,0.031
			c0.484,0.495,0.742,1.097,0.768,1.788c0.016,0.438,0.003,0.877,0.003,1.315C90.502,84.219,90.518,84.219,90.534,84.22z"/>
		<path d="M79.74,27.577c-0.557,0.035-1.078-0.154-1.579-0.383c-1.201-0.548-2.446-0.928-3.75-1.143
			c-1.803-0.298-3.6-0.247-5.405-0.016c-1.292,0.165-2.575,0.383-3.828,0.728c-1.292,0.355-2.572,0.762-3.834,1.21
			c-1.275,0.453-2.532,0.963-3.78,1.487c-1.616,0.679-3.056,1.632-4.342,2.83c-2.503,2.334-5.134,4.519-7.843,6.611
			c-1.365,1.054-2.73,2.107-4.085,3.174c-1.472,1.159-2.769,2.499-3.958,3.943c-1.903,2.31-3.45,4.861-4.979,7.421
			c-1.195,2.001-2.297,4.055-3.312,6.153c-1.069,2.211-2.05,4.461-2.918,6.76c-0.649,1.718-1.238,3.455-1.791,5.205
			c-0.173,0.548-0.434,1.074-0.706,1.582c-0.343,0.641-1.247,1.027-1.967,0.894c-0.535-0.098-0.837-0.633-0.635-1.172
			c0.233-0.621,0.49-1.232,0.742-1.846c1.15-2.809,2.311-5.614,3.45-8.428c0.646-1.596,1.244-3.212,1.885-4.811
			c1.195-2.983,2.623-5.848,4.399-8.531c0.993-1.499,2.097-2.911,3.298-4.25c1.623-1.81,3.498-3.331,5.422-4.798
			c2.281-1.74,4.589-3.446,6.844-5.219c1.098-0.863,2.084-1.868,3.156-2.765c1.322-1.106,2.664-2.188,4.029-3.24
			c0.894-0.689,1.824-1.334,2.772-1.946c1.072-0.692,2.257-1.164,3.46-1.573c1.148-0.39,2.302-0.772,3.475-1.073
			c1.175-0.301,2.373-0.522,3.57-0.731c1.436-0.251,2.887-0.344,4.346-0.359c1.728-0.018,3.447,0.043,5.144,0.382
			c0.998,0.199,1.987,0.453,2.88,0.967c0.341,0.196,0.657,0.441,0.961,0.692c0.365,0.302,0.467,0.693,0.289,1.144
			c-0.021,0.053-0.038,0.107-0.057,0.16C80.808,27.437,80.611,27.575,79.74,27.577z"/>
		<path d="M84.321,83.042c-0.024,1.944-0.245,3.86-0.76,5.742c-0.4,1.461-0.939,2.872-1.5,4.274
			c-0.813,2.032-1.635,4.062-2.509,6.068c-0.965,2.214-2.276,4.228-3.737,6.145c-1.347,1.767-2.779,3.463-4.304,5.078
			c-1.292,1.368-2.667,2.652-4.127,3.842c-0.88,0.717-1.666,1.53-2.441,2.354c-1.062,1.129-2.263,2.088-3.555,2.939
			c-1.687,1.111-3.373,2.225-5.051,3.349c-1.369,0.917-2.836,1.627-4.374,2.212c-0.975,0.371-1.932,0.796-2.876,1.241
			c-0.999,0.471-2.004,0.915-3.081,1.174c-0.746,0.179-1.509,0.228-2.274,0.225c-0.627-0.002-1.233,0.094-1.843,0.24
			c-0.695,0.166-1.404,0.129-2.102-0.031c-0.096-0.022-0.191-0.057-0.278-0.103c-0.527-0.279-0.588-0.896-0.098-1.24
			c0.226-0.158,0.499-0.276,0.767-0.34c0.354-0.085,0.725-0.11,1.09-0.142c1.298-0.112,2.585-0.303,3.848-0.623
			c0.998-0.253,1.99-0.537,2.969-0.856c1.46-0.475,2.811-1.177,4.048-2.091c2.513-1.856,5.02-3.719,7.539-5.567
			c1.311-0.962,2.632-1.91,3.844-2.999c0.715-0.642,1.432-1.281,2.137-1.933c0.644-0.595,1.284-1.194,1.906-1.811
			c0.431-0.427,0.857-0.865,1.237-1.337c1.89-2.346,3.771-4.699,5.642-7.061c1.589-2.006,2.875-4.19,3.793-6.586
			c0.707-1.846,1.453-3.677,2.132-5.533c0.353-0.966,0.602-1.971,0.892-2.96c0.19-0.65,0.392-1.299,0.545-1.958
			c0.121-0.521,0.218-1.055,0.249-1.588c0.047-0.816,0.029-1.637,0.037-2.455c0.002-0.212-0.011-0.425,0.004-0.637
			c0.033-0.464,0.339-0.74,0.88-0.814c0.401-0.055,0.684,0.126,0.856,0.534c0.38,0.903,0.496,1.851,0.492,2.82
			C84.321,82.759,84.321,82.9,84.321,83.042z"/>
		<path d="M56.608,1.082c-0.202,0.077-0.378,0.163-0.565,0.212c-0.848,0.22-1.701,0.42-2.547,0.644
			c-1.475,0.391-2.831,1.038-4.087,1.904c-1.142,0.788-2.235,1.636-3.27,2.559c-1.354,1.208-2.557,2.555-3.675,3.983
			c-0.74,0.946-1.522,1.86-2.297,2.777c-0.903,1.069-1.845,2.106-2.722,3.196c-0.673,0.836-1.277,1.727-1.899,2.603
			c-1.466,2.062-2.923,4.131-4.389,6.192c-0.557,0.783-1.158,1.535-1.689,2.334c-0.453,0.681-0.821,1.418-1.25,2.116
			c-1.399,2.275-2.814,4.54-4.212,6.815c-2.101,3.419-4.189,6.847-6.289,10.266c-0.636,1.035-1.309,2.048-1.941,3.085
			c-0.987,1.619-1.807,3.326-2.542,5.07c-0.991,2.355-1.943,4.726-2.913,7.09C9.881,63,9.442,64.071,8.996,65.139
			c-0.109,0.26-0.235,0.514-0.368,0.763c-0.173,0.323-0.439,0.527-0.821,0.487c-0.383-0.04-0.647-0.255-0.783-0.621
			c-0.209-0.564-0.114-1.145-0.102-1.721c0.019-0.946,0.417-1.779,0.787-2.619c0.848-1.925,1.691-3.852,2.553-5.77
			c0.804-1.79,1.618-3.576,2.449-5.353c0.492-1.053,1.139-2.018,1.829-2.951c1.305-1.762,2.543-3.571,3.658-5.457
			c2.236-3.783,4.438-7.585,6.633-11.391c0.623-1.081,1.379-2.067,2.067-3.101c1.23-1.846,2.437-3.709,3.588-5.605
			c1.406-2.317,3.024-4.472,4.776-6.532c1.722-2.025,3.439-4.054,5.179-6.063c0.721-0.833,1.478-1.638,2.251-2.422
			c0.903-0.915,1.835-1.801,2.768-2.685c0.692-0.656,1.537-1.047,2.445-1.301c1.183-0.331,2.366-0.66,3.557-0.959
			c0.78-0.196,1.572-0.348,2.364-0.497c0.805-0.151,1.616-0.275,2.425-0.409C56.368,0.91,56.501,0.842,56.608,1.082z"/>
		<path d="M126.809,88.05c-0.05-0.831-0.079-1.665-0.157-2.494c-0.072-0.772-0.362-1.481-0.772-2.135
			c-0.697-1.112-1.194-2.311-1.511-3.576c-0.467-1.864-0.879-3.741-1.329-5.609c-0.129-0.534-0.279-1.067-0.473-1.58
			c-0.101-0.269-0.301-0.508-0.487-0.734c-0.168-0.204-0.412-0.256-0.656-0.144c-0.234,0.108-0.299,0.329-0.285,0.57
			c0.063,1.103,0.209,2.191,0.525,3.254c0.173,0.581,0.315,1.173,0.442,1.766c0.248,1.162,0.128,2.301-0.23,3.429
			c-0.375,1.181-0.405,2.396-0.214,3.61c0.172,1.088,0.368,2.174,0.606,3.25c0.349,1.571,0.478,3.158,0.42,4.76
			c-0.033,0.917-0.126,1.833-0.21,2.747c-0.125,1.351-0.264,2.701-0.402,4.051c-0.142,1.392-0.29,2.783-0.433,4.175
			c-0.074,0.717-0.134,1.436-0.217,2.151c-0.104,0.898-0.357,1.747-0.936,2.462c-0.221,0.273-0.472,0.528-0.745,0.749
			c-0.455,0.369-0.745,0.262-0.848-0.321c-0.08-0.458-0.076-0.93-0.145-1.39c-0.084-0.559,0.051-1.098,0.125-1.638
			c0.16-1.176,0.388-2.342,0.555-3.517c0.125-0.881,0.221-1.767,0.29-2.654c0.078-1.014,0.103-2.031,0.167-3.046
			c0.067-1.071,0.164-2.141,0.229-3.212c0.094-1.551,0.209-3.101,0.186-4.659c-0.018-1.184-0.249-2.312-0.857-3.326
			c-0.644-1.075-0.708-2.215-0.529-3.4c0.215-1.416,0.313-2.835,0.256-4.268c-0.058-1.462-0.27-2.897-0.61-4.317
			c-0.122-0.508-0.231-1.02-0.331-1.533c-0.236-1.22-0.249-2.445-0.045-3.67c0.036-0.217,0.132-0.433,0.24-0.629
			c0.292-0.531,0.818-0.638,1.4-0.517c0.344,0.072,0.663,0.21,0.963,0.416c0.966,0.664,1.969,1.275,2.921,1.957
			c1.209,0.867,1.914,2.073,2.291,3.509c0.224,0.856,0.299,1.725,0.419,2.592c0.228,1.656,0.572,3.287,1.087,4.877
			c0.344,1.061,0.745,2.103,1.094,3.162c0.28,0.849,0.424,1.729,0.471,2.623c0.048,0.917,0.078,1.835,0.142,2.75
			c0.048,0.691,0.125,1.38,0.207,2.067c0.145,1.221-0.217,2.287-0.954,3.245c-0.026,0.034-0.055,0.065-0.084,0.096
			c-0.342,0.354-0.694,0.306-0.912-0.131c-0.274-0.549-0.451-1.129-0.492-1.743c-0.089-1.339-0.168-2.678-0.252-4.017
			C126.755,88.053,126.782,88.051,126.809,88.05z"/>
		<path d="M40.895,31.755c0.539-0.044,0.823,0.258,0.709,0.818c-0.064,0.315-0.196,0.616-0.303,0.922
			c-0.051,0.146-0.116,0.288-0.176,0.431c-0.083,0.201-0.083,0.393,0.093,0.542c0.182,0.153,0.396,0.244,0.624,0.111
			c0.243-0.142,0.488-0.29,0.702-0.47c0.737-0.618,1.462-1.248,2.189-1.878c3.047-2.641,6.185-5.164,9.561-7.377
			c1.713-1.123,3.456-2.195,5.326-3.046c1.408-0.641,2.869-1.104,4.393-1.372c1.086-0.192,2.165-0.424,3.255-0.586
			c0.977-0.145,1.964-0.23,2.948-0.321c1.467-0.135,2.94-0.14,4.406-0.045c1.069,0.069,2.135,0.222,3.192,0.402
			c0.706,0.12,1.4,0.328,2.085,0.544c0.496,0.156,0.834,0.494,0.952,1.041c0.163,0.755-0.263,1.255-1.015,1.11
			c-0.623-0.121-1.239-0.284-1.852-0.449c-0.79-0.213-1.568-0.476-2.364-0.665c-0.533-0.127-1.086-0.214-1.633-0.23
			c-1.286-0.038-2.576-0.05-3.852,0.156c-0.599,0.097-1.186,0.261-1.783,0.368c-0.556,0.099-1.116,0.182-1.678,0.238
			c-1.299,0.131-2.566,0.421-3.821,0.761c-0.706,0.191-1.385,0.499-2.099,0.641c-1.733,0.346-3.14,1.301-4.54,2.288
			c-0.576,0.406-1.155,0.812-1.758,1.176c-1.591,0.96-3.08,2.059-4.453,3.306c-1.046,0.95-2.049,1.948-3.063,2.933
			c-2.112,2.052-4.343,3.962-6.756,5.653c-0.949,0.665-1.921,1.296-2.856,1.98c-1.971,1.441-3.604,3.213-4.994,5.215
			c-1.274,1.835-2.503,3.699-3.634,5.627c-1.05,1.792-2.03,3.62-2.919,5.498c-0.853,1.802-1.631,3.634-2.279,5.519
			c-0.895,2.606-1.99,5.133-3.037,7.679c-0.122,0.296-0.303,0.575-0.498,0.831c-0.179,0.235-0.312,0.226-0.533,0.022
			c-0.307-0.282-0.477-0.61-0.409-1.054c0.098-0.636,0.349-1.218,0.555-1.818c0.553-1.607,1.34-3.109,2.037-4.652
			c0.791-1.752,1.467-3.55,2.053-5.381c0.708-2.213,1.658-4.323,2.708-6.39c0.441-0.869,0.916-1.72,1.352-2.591
			c0.227-0.454,0.392-0.938,0.608-1.398c0.552-1.176,1.333-2.2,2.199-3.155c0.968-1.068,1.96-2.114,2.953-3.159
			c0.448-0.471,0.947-0.894,1.384-1.374c1.144-1.257,2.008-2.697,2.617-4.278c0.484-1.257,1.196-2.366,2.021-3.414
			C39.863,32.019,40.378,31.758,40.895,31.755z"/>
		<path d="M127.598,57.053c0.024-0.762,0.047-1.525,0.074-2.287c0.012-0.353,0.028-0.705,0.051-1.057
			c0.074-1.131-0.223-2.172-0.69-3.194c-1.279-2.8-2.533-5.612-3.784-8.426c-0.478-1.076-1.017-2.107-1.782-3.017
			c-0.613-0.728-1.043-1.58-1.473-2.423c-1.244-2.438-2.727-4.725-4.393-6.89c-1.439-1.871-2.942-3.693-4.405-5.547
			c-0.682-0.864-1.541-1.531-2.371-2.233c-1.025-0.867-2.058-1.727-3.06-2.62c-1.522-1.357-2.911-2.844-4.206-4.42
			c-0.488-0.594-0.893-1.237-1.234-1.921c-0.112-0.224-0.199-0.472-0.237-0.719c-0.092-0.608,0.32-1.084,0.933-1.112
			c0.326-0.014,0.647,0.002,0.956,0.138c0.283,0.125,0.517,0.3,0.659,0.571c0.525,0.999,1.245,1.857,2.008,2.67
			c0.812,0.865,1.678,1.68,2.53,2.506c0.191,0.186,0.42,0.335,0.637,0.492c0.124,0.09,0.286,0.222,0.414,0.091
			c0.086-0.087,0.11-0.288,0.084-0.423c-0.131-0.662-0.43-1.253-0.839-1.787c-0.427-0.556-0.982-0.971-1.549-1.372
			c-0.67-0.475-1.334-0.96-1.811-1.647c-0.152-0.22-0.293-0.45-0.418-0.686c-0.056-0.107-0.085-0.241-0.084-0.362
			c0.001-0.198,0.122-0.293,0.308-0.23c0.17,0.058,0.334,0.153,0.479,0.261c1.07,0.788,2.135,1.582,3.2,2.376
			c0.725,0.541,1.436,1.101,2.173,1.625c0.652,0.464,1.054,1.078,1.289,1.834c0.294,0.943,0.6,1.884,0.942,2.811
			c0.581,1.573,1.401,3.024,2.381,4.38c1.385,1.915,2.911,3.717,4.477,5.486c2.119,2.395,3.951,4.985,5.324,7.879
			c0.847,1.785,1.616,3.606,2.447,5.398c0.636,1.37,1.308,2.724,1.977,4.078c0.523,1.061,0.828,2.189,1.071,3.338
			c0.246,1.161,0.493,2.322,0.762,3.478c0.18,0.773,0.345,1.551,0.351,2.342c0.006,0.76-0.053,1.525-0.148,2.28
			c-0.041,0.322-0.206,0.648-0.383,0.93c-0.284,0.453-0.853,0.608-1.349,0.393c-0.802-0.348-1.35-0.966-1.324-1.927
			c0.01-0.353,0.002-0.707,0.002-1.061C127.592,57.053,127.595,57.053,127.598,57.053z"/>
		<path d="M70.471,27.407c0.435,0.051,0.857,0.093,1.276,0.15c0.7,0.096,1.404,0.176,2.098,0.31
			c0.657,0.127,1.248,0.388,1.495,1.096c0.164,0.469,0.129,0.919-0.128,1.344c-0.173,0.286-0.44,0.389-0.765,0.33
			c-0.32-0.058-0.638-0.123-0.956-0.191c-1.337-0.285-2.687-0.374-4.049-0.282c-1.13,0.076-2.252,0.23-3.346,0.521
			c-0.995,0.265-1.98,0.571-2.959,0.894c-1.318,0.435-2.55,1.06-3.744,1.766c-1.579,0.934-2.955,2.13-4.356,3.297
			c-1.926,1.604-3.977,3.037-6.114,4.342c-1.778,1.086-3.474,2.278-5.022,3.674c-1.727,1.558-3.29,3.269-4.655,5.152
			c-0.846,1.166-1.637,2.372-2.45,3.562c-0.641,0.939-1.073,1.987-1.533,3.017c-1.087,2.435-2.166,4.874-3.234,7.318
			c-0.995,2.278-1.968,4.566-2.956,6.847c-0.208,0.48-0.434,0.949-0.823,1.322c-0.266,0.254-0.587,0.393-0.927,0.489
			c-0.322,0.091-0.581-0.036-0.733-0.345c-0.287-0.582-0.254-1.189-0.044-1.775c0.944-2.632,1.931-5.248,3.069-7.806
			c1.412-3.176,2.982-6.274,4.549-9.374c0.875-1.732,1.805-3.429,3.025-4.945c0.593-0.737,1.22-1.45,1.869-2.139
			c1.958-2.08,4.2-3.818,6.569-5.4c0.528-0.353,1.081-0.668,1.625-0.997c1.142-0.69,2.167-1.536,3.181-2.395
			c1.532-1.297,3.055-2.604,4.586-3.902c1.727-1.464,3.66-2.587,5.736-3.48c1.415-0.609,2.848-1.17,4.333-1.576
			c1.392-0.38,2.809-0.642,4.255-0.721C69.724,27.489,70.104,27.441,70.471,27.407z"/>
		<path d="M69.709,32.071c0.971-0.027,1.857,0.036,2.729,0.235c1.136,0.26,2.206,0.695,3.234,1.239
			c0.628,0.332,0.957,0.986,0.796,1.578c-0.143,0.525-0.562,0.777-1.072,0.594c-0.49-0.176-0.971-0.385-1.438-0.617
			c-1.163-0.579-2.394-0.871-3.685-0.821c-0.702,0.028-1.412,0.121-2.095,0.281c-1.112,0.261-2.22,0.556-3.303,0.918
			c-2.106,0.704-4.043,1.745-5.789,3.123c-2.719,2.146-5.439,4.291-8.14,6.459c-1.687,1.354-3.367,2.719-4.998,4.139
			c-0.936,0.814-1.769,1.748-2.648,2.627c-1.966,1.966-3.262,4.394-4.637,6.763c-1.269,2.187-2.391,4.454-3.372,6.785
			c-0.536,1.275-0.987,2.585-1.514,3.864c-0.57,1.383-1.179,2.749-1.784,4.117c-0.096,0.216-0.242,0.417-0.395,0.599
			c-0.418,0.498-1.16,0.586-1.685,0.223c-0.162-0.112-0.267-0.252-0.272-0.452c-0.015-0.524,0.017-1.039,0.189-1.545
			c0.384-1.131,1.007-2.146,1.51-3.219c0.76-1.624,1.533-3.243,2.253-4.885c1.258-2.871,2.482-5.757,3.88-8.563
			c1.255-2.519,2.83-4.822,4.731-6.903c1.91-2.091,4.074-3.87,6.464-5.383c2.236-1.416,4.375-2.965,6.358-4.722
			c0.719-0.637,1.445-1.267,2.158-1.91c1.391-1.254,2.974-2.194,4.708-2.884c1.715-0.682,3.493-1.122,5.325-1.342
			C68.073,32.267,68.929,32.164,69.709,32.071z"/>
		<path d="M67.397,47.632c1.11-0.016,2.08,0.175,3.043,0.408c0.316,0.076,0.63,0.159,0.945,0.238
			c0.561,0.141,0.812,0.462,0.78,1.041c-0.036,0.662-0.251,1.25-0.939,1.465c-0.321,0.1-0.7,0.082-1.04,0.033
			c-0.643-0.092-1.274-0.261-1.914-0.37c-1.113-0.189-2.167-0.022-3.133,0.588c-0.291,0.184-0.54,0.412-0.678,0.738
			c-0.175,0.415-0.081,0.642,0.356,0.748c0.34,0.082,0.693,0.128,1.042,0.156c0.69,0.056,1.382,0.075,2.071,0.136
			c0.435,0.038,0.867,0.118,1.297,0.193c0.137,0.024,0.274,0.078,0.398,0.143c0.299,0.159,0.459,0.402,0.436,0.757
			c-0.046,0.712-0.49,1.247-1.247,1.492c-0.634,0.205-1.28,0.237-1.927,0.1c-1.247-0.264-2.499-0.291-3.751-0.076
			c-1.61,0.277-3.083,0.887-4.408,1.858c-1.339,0.982-2.396,2.231-3.407,3.526c-1.624,2.08-2.96,4.342-4.181,6.675
			c-1.408,2.689-2.81,5.382-4.198,8.081c-0.543,1.056-0.965,2.167-1.34,3.293c-0.326,0.977-0.613,1.968-0.989,2.925
			c-0.182,0.463-0.492,0.889-0.808,1.281c-0.443,0.55-1.112,0.541-1.571,0.011c-0.407-0.47-0.624-1.031-0.49-1.646
			c0.128-0.59,0.323-1.168,0.532-1.736c0.6-1.63,1.22-3.252,1.834-4.876c0.419-1.108,0.816-2.226,1.27-3.32
			c0.775-1.87,1.747-3.641,2.837-5.346c0.635-0.994,1.118-2.058,1.556-3.147c0.642-1.594,1.59-2.989,2.752-4.245
			c0.614-0.664,1.225-1.332,1.854-1.982c1.009-1.043,2.149-1.919,3.421-2.62c1.615-0.889,2.947-2.084,3.964-3.627
			c0.668-1.014,1.532-1.812,2.649-2.31C65.396,47.78,66.431,47.585,67.397,47.632z"/>
		<path d="M73.428,46.749c-0.386-0.098-0.761-0.169-1.119-0.288c-0.642-0.213-1.266-0.485-1.914-0.68
			c-1.861-0.558-3.725-0.646-5.573,0.066c-1.016,0.392-1.916,0.978-2.68,1.749c-2.014,2.032-4.204,3.865-6.387,5.708
			c-2.133,1.801-4.125,3.742-5.842,5.953c-1.306,1.68-2.428,3.473-3.363,5.383c-0.894,1.826-1.795,3.648-2.662,5.487
			c-0.65,1.378-1.228,2.79-1.878,4.168c-0.542,1.149-1.129,2.277-1.724,3.4c-0.141,0.267-0.369,0.502-0.596,0.709
			c-0.602,0.55-1.413,0.418-1.847-0.276c-0.278-0.445-0.347-0.939-0.227-1.43c0.148-0.601,0.335-1.198,0.56-1.775
			c0.497-1.276,1.009-2.548,1.551-3.806c1.81-4.206,4.019-8.19,6.711-11.897c0.864-1.189,1.801-2.325,2.696-3.491
			c0.602-0.785,1.197-1.576,1.781-2.375c1.023-1.4,2.283-2.538,3.754-3.45c1.925-1.192,3.77-2.498,5.552-3.893
			c0.445-0.348,0.849-0.747,1.276-1.118c1.351-1.174,2.906-1.928,4.654-2.313c1.808-0.399,3.618-0.422,5.432-0.098
			c0.637,0.114,1.267,0.293,1.884,0.494c0.844,0.275,1.349,0.897,1.602,1.733c0.057,0.189,0.107,0.382,0.146,0.576
			c0.114,0.571-0.085,0.973-0.639,1.176C74.212,46.595,73.818,46.654,73.428,46.749z"/>
		<path d="M44.744,123.853c-0.099,0-0.198,0.002-0.297,0c-0.436-0.01-0.633-0.134-0.761-0.479c-0.148-0.398-0.076-0.725,0.262-0.981
			c0.405-0.307,0.822-0.601,1.248-0.877c1.506-0.976,2.985-1.99,4.455-3.02c1.503-1.053,3.064-2.026,4.624-2.995
			c2.554-1.586,4.918-3.419,7.174-5.399c0.382-0.336,0.778-0.657,1.152-1.001c0.725-0.667,1.308-1.442,1.752-2.323
			c0.734-1.454,1.762-2.692,2.865-3.873c0.396-0.423,0.793-0.846,1.216-1.243c0.69-0.648,1.405-1.269,2.102-1.909
			c1.027-0.943,1.88-2.029,2.616-3.211c0.886-1.424,1.53-2.957,2.088-4.532c0.486-1.372,0.934-2.756,1.239-4.18
			c0.373-1.739,0.568-3.49,0.233-5.261c-0.042-0.222-0.076-0.45-0.157-0.66c-0.223-0.579-0.243-1.189-0.288-1.792
			c-0.037-0.498,0.137-0.92,0.611-1.164c0.125-0.065,0.254-0.13,0.389-0.167c0.746-0.205,1.13-0.053,1.525,0.481
			c0.493,0.667,0.73,1.426,0.827,2.239c0.091,0.758,0.193,1.514,0.274,2.272c0.022,0.207-0.011,0.421-0.025,0.632
			c-0.092,1.4-0.349,2.771-0.681,4.133c-0.508,2.08-1.222,4.085-2.123,6.026c-0.608,1.308-1.294,2.575-2.065,3.793
			c-0.453,0.716-0.935,1.415-1.406,2.12c-0.553,0.828-1.199,1.575-1.96,2.217c-1.504,1.27-2.752,2.753-3.79,4.424
			c-0.652,1.048-1.463,1.974-2.318,2.862c-1.851,1.922-3.91,3.593-6.101,5.107c-2.476,1.711-4.939,3.442-7.441,5.114
			c-1.455,0.972-2.975,1.848-4.467,2.764c-0.289,0.177-0.581,0.349-0.878,0.511C46.046,123.803,45.397,123.842,44.744,123.853z"/>
		<path d="M72.795,40.071c-0.337-0.039-0.675-0.069-1.01-0.119c-1.936-0.287-3.861-0.274-5.763,0.238
			c-1.433,0.386-2.754,1.021-3.932,1.924c-2.03,1.557-4.062,3.112-6.062,4.707c-2,1.595-3.979,3.218-5.937,4.864
			c-1.992,1.674-3.69,3.62-5.15,5.774c-1.136,1.677-2.143,3.429-2.969,5.275c-1.119,2.504-2.443,4.902-3.682,7.345
			c-0.721,1.423-1.404,2.865-2.084,4.308c-0.337,0.715-0.842,1.23-1.583,1.502c-0.503,0.185-1.124-0.232-1.178-0.769
			c-0.043-0.436,0.067-0.852,0.225-1.241c0.999-2.458,1.978-4.924,3.034-7.358c1.469-3.387,3.174-6.653,5.216-9.735
			c1.237-1.867,2.597-3.641,4.208-5.201c0.79-0.765,1.635-1.479,2.496-2.164c3.318-2.642,6.648-5.269,9.982-7.891
			c1.3-1.022,2.626-2.01,4.045-2.864c1.284-0.772,2.673-1.263,4.132-1.583c1.164-0.255,2.344-0.369,3.527-0.46
			c0.196-0.015,0.397-0.006,0.592,0.02c0.729,0.096,1.456,0.202,2.184,0.306c0.504,0.072,0.907,0.307,1.171,0.75
			c0.108,0.182,0.239,0.365,0.284,0.565c0.047,0.209,0.064,0.465-0.016,0.654c-0.161,0.38-0.448,0.683-0.793,0.92
			C73.449,40.032,73.126,40.057,72.795,40.071z"/>
		<path d="M42.143,4.943c0.011,0.263-0.187,0.382-0.327,0.525c-0.841,0.859-1.713,1.689-2.528,2.571
			c-0.969,1.048-1.913,2.12-2.828,3.214c-2.115,2.531-4.079,5.175-5.844,7.963c-0.854,1.349-1.654,2.732-2.49,4.092
			c-1.025,1.666-2.181,3.234-3.541,4.647c-0.301,0.312-0.49,0.679-0.584,1.108c-0.333,1.512-1.039,2.841-2.1,3.959
			c-0.889,0.937-1.55,2.004-2.097,3.164c-0.921,1.953-2.077,3.757-3.501,5.388c-0.905,1.037-1.649,2.19-2.331,3.382
			c-1.465,2.565-2.928,5.13-4.375,7.705c-0.617,1.097-1.138,2.241-1.554,3.432c-0.339,0.972-0.667,1.95-1.034,2.911
			c-0.118,0.309-0.314,0.604-0.534,0.853c-0.309,0.35-0.727,0.415-1.168,0.26c-0.436-0.153-0.641-0.499-0.702-0.929
			c-0.101-0.701,0-1.388,0.269-2.038c0.647-1.565,1.274-3.141,1.987-4.675c0.743-1.6,1.558-3.168,2.378-4.73
			c0.931-1.772,2.131-3.367,3.361-4.937c1.216-1.552,2.286-3.194,3.176-4.954c0.689-1.361,1.398-2.712,2.093-4.07
			c0.307-0.6,0.703-1.133,1.213-1.567c1.023-0.87,1.739-1.96,2.341-3.14c0.102-0.201,0.204-0.408,0.345-0.582
			c0.506-0.625,0.855-1.336,1.095-2.092c0.265-0.838,0.704-1.573,1.231-2.258c0.638-0.829,1.308-1.633,1.961-2.451
			c0.858-1.075,1.604-2.217,2.188-3.469c0.212-0.455,0.555-0.848,0.84-1.269c0.562-0.831,1.128-1.658,1.684-2.492
			c0.474-0.712,1.076-1.31,1.664-1.921c1.091-1.132,2.103-2.328,2.98-3.635c0.751-1.119,1.714-1.968,2.986-2.473
			c1.035-0.411,2.041-0.898,3.065-1.337C41.667,5.01,41.876,4.855,42.143,4.943z"/>
		<path d="M122.694,64.605c-0.609,0.001-0.948-0.257-1.104-0.843c-0.25-0.942-0.508-1.882-0.74-2.829
			c-0.097-0.397-0.15-0.806-0.195-1.213c-0.159-1.434-0.561-2.794-1.191-4.09c-1.285-2.642-2.573-5.282-3.849-7.928
			c-0.767-1.59-1.505-3.195-2.275-4.783c-0.904-1.865-2.019-3.596-3.35-5.189c-1.044-1.25-1.94-2.607-2.818-3.977
			c-0.994-1.551-2.122-2.999-3.36-4.364c-1.755-1.935-3.732-3.618-5.801-5.202c-0.937-0.718-1.762-1.553-2.403-2.552
			c-0.243-0.379-0.467-0.776-0.65-1.187c-0.607-1.37-1.414-2.606-2.42-3.714c-0.104-0.115-0.205-0.234-0.298-0.358
			c-0.218-0.291-0.301-0.615-0.152-0.956c0.156-0.359,0.499-0.451,0.841-0.473c0.538-0.034,1.051,0.093,1.456,0.465
			c0.278,0.256,0.56,0.535,0.748,0.857c1.005,1.718,2.334,3.15,3.806,4.468c0.61,0.546,1.197,1.12,1.766,1.71
			c1.026,1.063,2.168,1.986,3.364,2.845c1.781,1.28,3.229,2.865,4.399,4.714c1.413,2.233,2.852,4.45,4.251,6.692
			c0.508,0.813,0.945,1.672,1.394,2.52c1.112,2.096,2.247,4.182,3.303,6.306c0.494,0.994,0.858,2.058,1.223,3.11
			c0.51,1.471,1.045,2.927,1.828,4.279c0.493,0.85,0.776,1.785,1.117,2.696c0.528,1.415,1.042,2.835,1.557,4.255
			c0.346,0.955,0.691,1.911,1.017,2.874c0.075,0.222,0.113,0.474,0.096,0.707c-0.047,0.649-0.556,1.085-1.307,1.158
			C122.864,64.612,122.779,64.605,122.694,64.605z"/>
		<path d="M127.573,61.125c-0.037,0.747-0.13,1.226-0.519,1.595c-0.317,0.3-0.727,0.366-1.037,0.112
			c-0.153-0.125-0.259-0.331-0.336-0.521c-0.163-0.405-0.292-0.825-0.437-1.238c-0.373-1.067-0.775-2.124-1.113-3.201
			c-0.638-2.037-1.497-3.989-2.249-5.983c-0.738-1.955-1.527-3.89-2.283-5.838c-0.63-1.624-1.376-3.189-2.268-4.687
			c-1.604-2.696-3.145-5.431-4.809-8.089c-1.161-1.855-2.465-3.621-3.742-5.401c-0.677-0.944-1.51-1.752-2.413-2.492
			c-0.578-0.474-1.08-1.042-1.659-1.514c-1.107-0.901-2.242-1.766-3.371-2.64c-0.402-0.311-0.821-0.601-1.228-0.907
			c-0.834-0.629-1.378-1.485-1.854-2.392c-0.151-0.287-0.29-0.581-0.422-0.878c-0.171-0.387-0.091-0.708,0.23-0.989
			c0.679-0.595,1.606-0.566,2.302,0.089c0.309,0.29,0.573,0.629,0.887,0.911c1.031,0.924,2.068,1.842,3.118,2.745
			c0.9,0.774,1.839,1.503,2.727,2.291c0.643,0.571,1.265,1.174,1.837,1.816c1.42,1.593,2.817,3.207,4.202,4.831
			c0.69,0.808,1.227,1.725,1.749,2.65c0.89,1.574,1.774,3.152,2.691,4.71c1.549,2.634,2.931,5.351,4.171,8.143
			c0.895,2.014,1.684,4.07,2.428,6.143c0.458,1.276,0.929,2.547,1.367,3.83c0.319,0.935,0.577,1.891,0.893,2.828
			c0.198,0.588,0.51,1.142,0.667,1.739C127.326,59.629,127.451,60.497,127.573,61.125z"/>
		<path d="M75.076,84.338c-0.072,0.602-0.111,1.125-0.201,1.639c-0.178,1.015-0.371,2.028-0.584,3.037
			c-0.306,1.454-0.799,2.85-1.355,4.227c-0.956,2.369-2.526,4.258-4.48,5.864c-1.19,0.978-2.348,1.994-3.533,2.979
			c-1.032,0.858-1.807,1.892-2.312,3.139c-0.372,0.919-0.818,1.808-1.527,2.522c-0.346,0.349-0.744,0.647-1.12,0.967
			c-0.656,0.558-1.317,1.11-1.97,1.671c-2.212,1.904-4.609,3.552-7.073,5.106c-1.278,0.806-2.565,1.598-3.859,2.377
			c-0.397,0.239-0.82,0.447-1.254,0.609c-0.254,0.095-0.556,0.117-0.829,0.091c-0.567-0.054-0.855-0.478-0.779-1.048
			c0.147-1.104,0.743-1.905,1.67-2.477c3.251-2.008,6.335-4.249,9.314-6.638c0.948-0.76,1.898-1.519,2.832-2.296
			c0.336-0.279,0.641-0.598,0.934-0.923c0.167-0.186,0.318-0.405,0.413-0.635c0.579-1.396,1.47-2.573,2.52-3.637
			c1.401-1.418,2.832-2.807,4.224-4.234c1.055-1.082,2.142-2.135,3.05-3.353c1.203-1.613,2.125-3.368,2.679-5.303
			c0.361-1.262,0.654-2.543,0.992-3.812c0.145-0.545,0.315-1.085,0.498-1.619c0.131-0.383,0.415-0.553,0.778-0.521
			c0.392,0.035,0.591,0.216,0.673,0.637C74.888,83.276,74.987,83.846,75.076,84.338z"/>
		<path d="M103.151,67.397c-0.035,0.79-0.104,1.581-0.096,2.371c0.01,1.045,0.021,2.096,0.141,3.131
			c0.177,1.529,0.471,3.044,0.674,4.571c0.138,1.036,0.248,2.079,0.295,3.122c0.06,1.34,0.083,2.684,0.049,4.025
			c-0.023,0.915-0.163,1.827-0.263,2.739c-0.146,1.325-0.453,2.618-0.861,3.884c-0.367,1.141-0.786,2.266-1.168,3.403
			c-0.486,1.446-0.933,2.903-1.263,4.395c-0.136,0.616-0.229,1.245-0.554,1.814c-0.474,0.829-1.191,1.341-2.053,1.68
			c-0.141,0.055-0.305,0.073-0.458,0.069c-0.432-0.011-0.674-0.255-0.707-0.688c-0.006-0.084-0.009-0.171,0.003-0.254
			c0.23-1.541,0.538-3.058,1.263-4.462c0.839-1.625,1.447-3.341,1.901-5.11c0.277-1.08,0.563-2.162,0.76-3.259
			c0.227-1.264,0.377-2.543,0.528-3.819c0.091-0.771,0.133-1.548,0.171-2.324c0.067-1.35-0.077-2.684-0.406-3.994
			c-0.196-0.78-0.438-1.548-0.637-2.327c-0.235-0.92-0.37-1.863-0.384-2.808c-0.033-2.205-0.008-4.411-0.011-6.617
			c-0.002-1.541-0.301-3.032-0.775-4.492c-0.322-0.994-0.677-1.979-0.95-2.986c-0.311-1.148-0.489-2.328-0.486-3.519
			c0.002-1.024,0.227-2.021,0.547-2.992c0.16-0.487,0.42-0.657,0.864-0.656c0.395,0.001,0.655,0.202,0.766,0.553
			c0.183,0.578,0.366,1.161,0.476,1.755c0.246,1.333,0.432,2.677,0.672,4.011c0.248,1.379,0.648,2.718,1.198,4.007
			c0.427,1,0.688,2.031,0.7,3.12c0.006,0.551,0.001,1.102,0.001,1.654C103.109,67.396,103.13,67.397,103.151,67.397z"/>
		<path d="M89.471,16.736c0.458,0.019,0.867,0.178,1.263,0.366c0.917,0.435,1.579,1.13,2.021,2.036
			c0.222,0.456,0.433,0.919,0.628,1.387c0.45,1.083,1.102,2.034,1.876,2.907c0.942,1.063,2.059,1.934,3.166,2.81
			c1.221,0.967,2.412,1.965,3.458,3.121c1.322,1.462,2.455,3.062,3.457,4.76c0.509,0.863,1.026,1.727,1.609,2.54
			c0.383,0.534,0.847,1.032,1.353,1.453c1.54,1.281,2.707,2.834,3.576,4.627c0.843,1.74,1.729,3.461,2.526,5.222
			c1.297,2.867,2.54,5.759,3.8,8.643c0.345,0.789,0.662,1.589,1.01,2.376c0.372,0.84,0.288,1.655-0.11,2.452
			c-0.175,0.351-0.401,0.663-0.873,0.602c-0.58-0.075-0.881-0.322-1.025-0.792c-0.417-1.365-0.939-2.694-1.56-3.979
			c-0.842-1.742-1.742-3.454-2.581-5.197c-0.422-0.877-0.77-1.79-1.139-2.691c-0.815-1.989-1.765-3.911-2.822-5.781
			c-1.254-2.218-2.655-4.34-4.197-6.367c-1.233-1.62-2.513-3.204-3.947-4.655c-1.382-1.398-2.76-2.8-4.153-4.187
			c-1.403-1.397-2.825-2.773-4.232-4.165c-0.952-0.942-1.645-2.034-1.96-3.357c-0.235-0.988-0.755-1.818-1.536-2.479
			c-0.215-0.182-0.425-0.374-0.617-0.581c-0.35-0.378-0.263-0.75,0.223-0.913C88.936,16.808,89.208,16.786,89.471,16.736z"/>
		<path d="M15.285,54.95c0.068-1.098,0.307-2.138,0.791-3.115c0.847-1.712,1.815-3.357,2.849-4.961
			c1.631-2.53,3.315-5.027,4.936-7.563c1.446-2.262,2.857-4.547,4.246-6.844c1.083-1.79,2.086-3.632,3.417-5.257
			c0.635-0.776,1.308-1.524,2.011-2.239c0.858-0.872,1.588-1.84,2.279-2.841c0.442-0.639,0.871-1.287,1.302-1.935
			c0.093-0.14,0.193-0.286,0.242-0.443c0.348-1.11,0.949-2.085,1.642-2.998c0.854-1.126,1.74-2.229,2.646-3.314
			c0.561-0.672,1.189-1.287,1.779-1.935c0.273-0.3,0.597-0.357,0.964-0.247c0.363,0.109,0.502,0.328,0.363,0.677
			c-0.166,0.417-0.335,0.855-0.606,1.205c-1.37,1.77-2.586,3.64-3.737,5.555c-0.924,1.539-1.851,3.075-2.764,4.62
			c-0.149,0.252-0.262,0.532-0.346,0.813c-0.24,0.802-0.661,1.5-1.209,2.119c-2.213,2.501-4.033,5.269-5.636,8.191
			c-1.165,2.124-2.553,4.102-4.013,6.031c-1.212,1.601-2.514,3.135-3.579,4.842c-0.65,1.042-1.275,2.102-1.858,3.183
			c-1.026,1.902-2.012,3.826-3.014,5.741c-0.21,0.401-0.404,0.81-0.63,1.201c-0.282,0.485-0.648,0.857-1.28,0.813
			c-0.322-0.022-0.541-0.174-0.628-0.476C15.376,55.505,15.339,55.225,15.285,54.95z"/>
		<path d="M43.976,21.303c0.296-0.113,0.54-0.204,0.782-0.299c0.289-0.114,0.572-0.244,0.865-0.345
			c0.656-0.227,1.068,0.043,1.068,0.748c0.001,0.762-0.213,1.47-0.854,1.947c-0.474,0.353-0.968,0.696-1.496,0.955
			c-2.11,1.034-3.812,2.516-5.068,4.502c-0.778,1.23-1.548,2.465-2.309,3.705c-1.201,1.957-2.545,3.804-4.121,5.48
			c-1.145,1.217-2.135,2.562-3.117,3.912c-0.898,1.234-1.767,2.488-2.552,3.799c-1.14,1.902-2.351,3.764-3.438,5.695
			c-1.142,2.029-2.171,4.122-3.256,6.184c-0.117,0.223-0.254,0.445-0.42,0.633c-0.285,0.322-0.644,0.272-0.876-0.096
			c-0.229-0.364-0.327-0.754-0.186-1.173c0.17-0.508,0.31-1.033,0.541-1.513c1.374-2.85,2.785-5.681,4.393-8.409
			c1.106-1.877,2.313-3.688,3.626-5.426c0.912-1.207,1.869-2.382,2.732-3.623c0.676-0.972,1.254-2.014,1.845-3.043
			c0.965-1.678,1.885-3.381,2.862-5.051c0.844-1.443,1.854-2.771,2.956-4.029c0.71-0.81,1.372-1.657,1.862-2.621
			c0.229-0.451,0.386-0.937,0.612-1.39c0.264-0.53,0.539-1.058,0.858-1.556c1.129-1.763,2.344-3.466,3.681-5.078
			c0.296-0.357,0.639-0.68,0.992-0.981c0.376-0.321,0.82-0.16,0.941,0.319c0.122,0.482,0.09,0.974-0.142,1.405
			c-0.354,0.658-0.727,1.313-1.167,1.915c-0.701,0.96-1.18,2.021-1.592,3.122C43.973,21.061,43.987,21.148,43.976,21.303z"/>
		<path d="M84.715,53.87c-0.035-0.248-0.058-0.47-0.099-0.688c-0.231-1.236-0.48-2.469-0.697-3.707
			c-0.145-0.828-0.037-1.641,0.33-2.399c0.335-0.69,1.014-0.845,1.624-0.379c0.883,0.674,1.414,1.557,1.546,2.675
			c0.113,0.957,0.147,1.912,0.122,2.877c-0.037,1.461,0.129,2.911,0.439,4.338c0.478,2.195,0.997,4.38,1.486,6.573
			c0.222,0.993,0.446,1.987,0.61,2.99c0.18,1.104,0.217,2.221,0.121,3.339c-0.069,0.802-0.133,1.605-0.203,2.407
			c-0.074,0.849-0.252,1.678-0.528,2.482c-0.085,0.248-0.226,0.49-0.391,0.695c-0.254,0.315-0.59,0.363-0.95,0.169
			c-0.16-0.086-0.319-0.19-0.445-0.319c-0.571-0.586-1.023-1.252-1.178-2.07c-0.062-0.328-0.072-0.678-0.034-1.009
			c0.205-1.805,0.237-3.605-0.012-5.409c-0.171-1.233-0.366-2.46-0.678-3.666c-0.252-0.974-0.621-1.904-1.043-2.816
			c-0.806-1.74-1.866-3.324-2.956-4.892c-0.485-0.698-0.905-1.43-1.216-2.225c-0.344-0.878-0.837-1.668-1.507-2.336
			c-0.404-0.403-0.611-0.849-0.418-1.414c0.201-0.589,0.666-0.865,1.24-0.961c1.158-0.193,1.896,0.291,2.316,1.322
			c0.48,1.176,0.925,2.366,1.394,3.547c0.099,0.248,0.226,0.486,0.354,0.721c0.163,0.299,0.169,0.297,0.493,0.234
			C84.507,53.935,84.573,53.911,84.715,53.87z"/>
		<path d="M73.219,74.989c-0.092,0.354-0.168,0.713-0.28,1.06c-0.324,1.009-0.688,2.006-0.986,3.022
			c-0.238,0.812-0.438,1.639-0.594,2.47c-0.251,1.332-0.425,2.68-0.683,4.011c-0.43,2.221-1.313,4.258-2.612,6.111
			c-0.96,1.369-2.07,2.614-3.19,3.852c-1.489,1.645-2.969,3.299-4.463,4.939c-1.304,1.431-2.609,2.862-3.94,4.268
			c-0.79,0.834-1.72,1.506-2.668,2.153c-0.548,0.374-1.089,0.761-1.603,1.178c-0.988,0.801-1.948,1.637-2.934,2.439
			c-0.225,0.183-0.499,0.322-0.772,0.424c-0.619,0.232-1.057-0.048-1.148-0.702c-0.096-0.687,0.049-1.323,0.44-1.892
			c0.322-0.469,0.705-0.888,1.171-1.218c2.675-1.894,5.108-4.067,7.385-6.418c1.662-1.716,3.314-3.441,4.949-5.183
			c1.015-1.081,2.025-2.172,2.974-3.311c1.376-1.651,2.451-3.489,3.156-5.53c0.348-1.005,0.558-2.04,0.707-3.093
			c0.197-1.398,0.354-2.812,0.959-4.112c0.327-0.703,0.696-1.387,1.065-2.069c0.456-0.845,0.931-1.68,1.397-2.519
			c0.103-0.185,0.195-0.378,0.312-0.553c0.085-0.127,0.187-0.253,0.31-0.341c0.328-0.234,0.705-0.114,0.86,0.258
			c0.038,0.091,0.08,0.184,0.097,0.28c0.027,0.153,0.034,0.309,0.05,0.463C73.19,74.982,73.205,74.985,73.219,74.989z"/>
		<path d="M108.186,117.72c-0.286,0.78-0.583,1.557-0.856,2.341c-0.299,0.858-0.776,1.568-1.593,2.007
			c-0.197,0.106-0.41,0.195-0.627,0.247c-0.326,0.078-0.434-0.015-0.391-0.34c0.054-0.405,0.161-0.804,0.217-1.209
			c0.158-1.133,0.289-2.271,0.457-3.403c0.102-0.684,0.244-1.362,0.384-2.04c0.341-1.646,0.698-3.288,1.033-4.935
			c0.084-0.414,0.126-0.84,0.154-1.262c0.053-0.785,0.272-1.528,0.54-2.26c0.456-1.245,0.898-2.496,1.376-3.733
			c0.607-1.571,1.401-3.051,2.256-4.501c0.548-0.93,0.994-1.911,1.144-2.99c0.113-0.81,0.185-1.628,0.235-2.446
			c0.075-1.226,0.091-2.456,0.177-3.681c0.083-1.176,0.36-2.317,0.827-3.403c0.304-0.708,0.473-1.45,0.609-2.201
			c0.166-0.917,0.309-1.839,0.465-2.758c0.107-0.627,0.383-1.181,0.771-1.678c0.46-0.587,1.243-0.494,1.531,0.202
			c0.12,0.291,0.183,0.634,0.167,0.947c-0.075,1.458-0.308,2.893-0.725,4.295c-0.371,1.246-0.765,2.485-0.997,3.769
			c-0.179,0.99-0.26,1.989-0.308,2.991c-0.059,1.257-0.161,2.508-0.355,3.753c-0.202,1.301-0.473,2.585-0.858,3.844
			c-0.34,1.114-0.804,2.172-1.479,3.127c-0.923,1.305-1.536,2.761-2.063,4.256c-0.315,0.892-0.63,1.786-0.896,2.693
			c-0.339,1.156-0.411,2.342-0.163,3.524c0.165,0.786,0.42,1.552,0.617,2.331c0.229,0.905,0.435,1.815,0.418,2.758
			c-0.007,0.417-0.139,0.78-0.49,1.031c-0.377,0.27-0.735,0.205-0.971-0.195c-0.128-0.217-0.207-0.463-0.312-0.695
			c-0.061-0.136-0.129-0.269-0.193-0.404C108.252,117.708,108.219,117.714,108.186,117.72z"/>
		<path d="M37.53,85.034c0.008,0.86-0.232,1.647-0.448,2.437c-0.204,0.747-0.254,1.498-0.174,2.267
			c0.071,0.689,0.761,0.902,1.206,0.485c0.246-0.23,0.502-0.456,0.709-0.719c0.567-0.718,1.341-0.907,2.19-0.859
			c0.175,0.01,0.398,0.184,0.498,0.345c0.4,0.646,0.506,1.324,0.015,1.979c-0.55,0.736-1.132,1.448-1.679,2.186
			c-1.263,1.703-2.521,3.411-3.768,5.126c-1.205,1.658-2.392,3.33-3.592,4.992c-0.468,0.649-1.064,1.173-1.696,1.653
			c-0.186,0.142-0.42,0.236-0.647,0.306c-0.419,0.128-0.73-0.01-0.905-0.408c-0.327-0.742-0.306-1.459,0.241-2.103
			c0.311-0.366,0.637-0.72,0.955-1.08c1.319-1.49,2.412-3.136,3.332-4.896c0.234-0.448,0.405-0.932,0.573-1.411
			c0.068-0.193,0.067-0.418,0.062-0.627c-0.006-0.245-0.148-0.424-0.369-0.529c-0.234-0.111-0.432,0.008-0.568,0.167
			c-0.237,0.277-0.445,0.581-0.65,0.885c-1.124,1.663-2.231,3.337-3.373,4.988c-0.261,0.378-0.609,0.709-0.96,1.01
			c-0.548,0.471-1.206,0.422-1.718-0.077c-0.376-0.366-0.467-0.819-0.222-1.317c0.155-0.315,0.343-0.618,0.547-0.905
			c1.556-2.19,3.128-4.368,4.677-6.562c0.947-1.341,1.791-2.743,2.402-4.276c0.345-0.866,0.454-1.777,0.54-2.693
			c0.062-0.657,0.336-1.223,0.724-1.735c0.256-0.338,0.603-0.55,1.049-0.553c0.423-0.003,0.67,0.148,0.812,0.544
			C37.457,84.107,37.592,84.57,37.53,85.034z"/>
		<path d="M65.275,58.197c0.726,0.102,1.469,0.189,2.206,0.318c0.407,0.071,0.722,0.298,0.878,0.715
			c0.22,0.586,0.001,1.19-0.595,1.387c-0.897,0.296-1.807,0.558-2.724,0.785c-0.987,0.244-1.995,0.399-2.98,0.65
			c-1.122,0.286-2.11,0.866-2.837,1.763c-2.075,2.563-4.004,5.232-5.446,8.216c-0.645,1.334-1.234,2.695-1.86,4.038
			c-0.447,0.959-0.917,1.908-1.371,2.864c-0.428,0.902-0.736,1.837-0.702,2.853c0.008,0.239,0.037,0.48,0.084,0.714
			c0.243,1.202-0.019,2.243-0.948,3.083c-0.377,0.341-0.74,0.699-1.13,1.024c-0.393,0.328-0.85,0.316-1.195,0.01
			c-0.207-0.183-0.305-0.423-0.272-0.684c0.064-0.517,0.156-1.031,0.247-1.545c0.141-0.792,0.308-1.579,0.431-2.373
			c0.168-1.077,0.374-2.145,0.706-3.182c0.831-2.602,1.93-5.094,3.171-7.524c0.882-1.726,1.919-3.358,3.026-4.95
			c0.718-1.031,1.371-2.108,2.032-3.177c1.079-1.744,2.59-2.963,4.475-3.738c1.047-0.43,2.114-0.8,3.227-1.018
			C64.211,58.326,64.731,58.275,65.275,58.197z"/>
		<path d="M32.486,9.797c-0.074,0.329-0.277,0.524-0.528,0.66c-1.529,0.826-2.546,2.126-3.346,3.62
			c-0.606,1.132-1.159,2.294-1.785,3.415c-1.143,2.045-2.556,3.897-4.123,5.635c-0.95,1.054-1.638,2.268-2.057,3.622
			c-0.363,1.172-0.948,2.193-1.832,3.054c-0.712,0.693-1.284,1.506-1.807,2.348c-0.812,1.309-1.659,2.599-2.399,3.948
			c-1.138,2.074-2.443,4.038-3.766,5.992c-0.487,0.72-0.822,1.512-1.209,2.28c-0.444,0.883-0.876,1.772-1.309,2.661
			c-0.864,1.778-1.727,3.557-2.585,5.338c-0.17,0.352-0.381,0.659-0.736,0.847c-0.561,0.297-1.042,0.04-1.077-0.589
			c-0.053-0.941,0.256-1.782,0.753-2.561c1.209-1.897,2.285-3.869,3.327-5.859c0.957-1.826,1.888-3.667,2.818-5.507
			c0.592-1.172,1.122-2.376,1.754-3.526c1.074-1.956,2.197-3.886,3.321-5.813c0.291-0.498,0.665-0.947,0.998-1.421
			c0.178-0.254,0.387-0.496,0.518-0.773c0.539-1.144,1.252-2.181,1.945-3.229c1.887-2.854,3.792-5.696,5.673-8.554
			c0.452-0.687,1.042-1.223,1.663-1.738c1.656-1.374,3.396-2.632,5.252-3.722C32.093,9.84,32.234,9.67,32.486,9.797z"/>
		<path d="M42.397,105.265c0.437,0.229,0.829,0.186,1.246-0.062c0.752-0.447,1.524-0.86,2.299-1.266
			c0.208-0.109,0.452-0.167,0.686-0.209c0.445-0.081,0.743,0.174,0.749,0.628c0.015,1.178-0.388,2.127-1.482,2.698
			c-0.162,0.085-0.311,0.195-0.466,0.292c-1.118,0.701-2.098,1.579-3.085,2.445c-0.69,0.605-1.338,1.259-2.035,1.856
			c-0.705,0.603-1.527,1.003-2.415,1.281c-0.895,0.28-1.661,0.768-2.239,1.525c-0.094,0.123-0.195,0.243-0.299,0.358
			c-0.559,0.619-1.692,0.589-2.08-0.389c-0.327-0.825-0.236-1.609,0.278-2.332c0.528-0.744,1.164-1.377,1.939-1.872
			c0.953-0.607,1.618-1.48,2.182-2.442c1.036-1.766,2.054-3.542,3.125-5.287c0.658-1.073,1.477-2.032,2.329-2.962
			c1.398-1.527,3.003-2.825,4.564-4.172c0.212-0.183,0.456-0.336,0.703-0.471c0.32-0.174,0.536-0.066,0.633,0.291
			c0.108,0.401,0.134,0.791,0.002,1.207c-0.253,0.794-0.488,1.592-0.9,2.325c-0.396,0.705-0.924,1.286-1.622,1.695
			c-0.892,0.523-1.618,1.23-2.27,2.016c-0.551,0.663-1.069,1.353-1.604,2.029C42.441,104.691,42.346,104.958,42.397,105.265z"/>
		<path d="M69.904,10.5c1,0.061,2.001,0.112,3.001,0.185c0.655,0.048,1.29,0.221,1.865,0.527c1.486,0.789,3.082,1.017,4.725,0.92
			c1.428-0.084,2.788,0.127,4.097,0.688c0.787,0.337,1.285,1.028,1.218,1.804c-0.039,0.448-0.345,0.766-0.794,0.762
			c-0.221-0.002-0.447-0.044-0.661-0.103c-0.83-0.228-1.654-0.48-2.486-0.702c-0.736-0.196-1.474-0.387-2.22-0.538
			c-0.762-0.154-1.533-0.203-2.317-0.153c-0.604,0.039-1.217,0.011-1.82-0.048c-0.857-0.084-1.706-0.237-2.562-0.337
			c-0.743-0.088-1.489-0.175-2.236-0.207c-1.228-0.053-2.458-0.055-3.687-0.09c-1.39-0.039-2.72,0.281-4.044,0.647
			c-2.132,0.589-4.124,1.53-6.134,2.425c-1.457,0.649-2.917,1.291-4.377,1.931c-0.193,0.085-0.393,0.171-0.599,0.206
			c-0.233,0.04-0.483,0.066-0.713,0.024c-0.588-0.108-0.85-0.621-0.576-1.151c0.145-0.282,0.341-0.562,0.58-0.767
			c1.323-1.141,2.811-2.027,4.378-2.791c1.285-0.627,2.619-1.123,3.987-1.522c0.758-0.221,1.533-0.39,2.308-0.54
			c1.151-0.222,2.307-0.417,3.464-0.602C66.156,10.77,68.01,10.447,69.904,10.5z"/>
		<path d="M80.935,18.806c-0.152-0.031-0.373-0.075-0.593-0.122c-1.009-0.215-2.01-0.48-3.028-0.634
			c-1.242-0.188-2.499-0.28-3.748-0.418c-1.084-0.12-2.134,0.167-3.2,0.258c-0.873,0.074-1.743,0.183-2.615,0.26
			c-1.746,0.154-3.497,0.261-5.207,0.687c-1.816,0.452-3.565,1.091-5.212,1.978c-1.218,0.656-2.399,1.378-3.6,2.065
			c-0.514,0.294-1.034,0.578-1.558,0.854c-0.135,0.071-0.29,0.115-0.441,0.144c-0.787,0.154-1.469-0.452-1.399-1.253
			c0.072-0.818,0.415-1.459,1.134-1.928c1.869-1.217,3.856-2.183,5.964-2.9c1.763-0.599,3.532-1.179,5.301-1.762
			c0.736-0.243,1.466-0.52,2.22-0.692c0.713-0.163,1.45-0.227,2.18-0.301c1.146-0.117,2.283,0.026,3.423,0.141
			c0.73,0.073,1.469,0.041,2.203,0.082c1.834,0.1,3.67,0.182,5.499,0.337c1.039,0.088,2.069,0.285,3.075,0.594
			c1.145,0.351,1.185,1.312,0.821,2.096c-0.148,0.318-0.459,0.401-0.764,0.474C81.267,18.796,81.136,18.79,80.935,18.806z"/>
		<path d="M65.536,70.454c0.022,0.748-0.188,1.452-0.404,2.154c-0.856,2.788-2.032,5.448-3.288,8.072
			c-0.475,0.991-1.004,1.962-1.583,2.897c-0.956,1.542-2.321,2.634-3.951,3.42c-1.233,0.595-2.452,1.221-3.598,1.976
			c-0.271,0.179-0.531,0.38-0.821,0.523c-0.595,0.294-1.301,0.165-1.723-0.278c-0.566-0.595-0.578-1.413,0.027-2.009
			c0.593-0.584,1.209-1.152,1.862-1.666c0.732-0.576,1.514-1.088,2.279-1.621c1.681-1.17,3.018-2.641,3.897-4.499
			c0.827-1.748,1.611-3.518,2.431-5.27c0.575-1.227,1.172-2.444,1.776-3.657c0.131-0.263,0.321-0.499,0.502-0.733
			c0.293-0.377,0.671-0.641,1.123-0.801c0.557-0.197,1.095,0.031,1.319,0.579c0.058,0.143,0.1,0.296,0.124,0.448
			C65.535,70.142,65.529,70.299,65.536,70.454z"/>
		<path d="M91.472,100.638c-0.072,0.377-0.135,0.855-0.256,1.317c-0.255,0.969-0.555,1.927-0.808,2.896
			c-0.214,0.819-0.42,1.642-0.576,2.474c-0.229,1.221-0.39,2.456-0.618,3.677c-0.226,1.211-0.63,2.375-1.093,3.512
			c-0.725,1.777-1.504,3.532-2.226,5.31c-0.536,1.319-1.028,2.657-1.519,3.994c-0.184,0.503-0.295,1.031-0.463,1.541
			c-0.273,0.83-0.794,1.526-1.274,2.239c-0.82,1.219-1.68,2.411-2.497,3.632c-0.692,1.035-1.711,1.372-2.873,1.435
			c-0.177,0.009-0.368-0.037-0.536-0.101c-0.377-0.143-0.485-0.432-0.277-0.777c0.129-0.214,0.302-0.41,0.485-0.582
			c0.371-0.348,0.777-0.659,1.142-1.013c0.94-0.91,1.728-1.939,2.379-3.075c0.825-1.438,1.44-2.972,2.063-4.502
			c0.708-1.739,1.366-3.499,1.904-5.298c0.376-1.258,0.694-2.534,1.04-3.801c0.357-1.308,0.716-2.616,1.072-3.924
			c0.338-1.239,0.657-2.484,1.014-3.717c0.334-1.151,0.708-2.291,1.065-3.436c0.097-0.31,0.182-0.624,0.299-0.927
			c0.268-0.692,0.685-1.297,1.148-1.872c0.19-0.235,0.426-0.378,0.741-0.298c0.337,0.085,0.529,0.32,0.602,0.646
			C91.448,100.167,91.446,100.354,91.472,100.638z"/>
		<path d="M82.145,31.104c0.533,0.087,1.086,0.281,1.583,0.623c1.337,0.922,2.684,1.829,4.008,2.769
			c1.37,0.973,2.723,1.972,4.074,2.971c1.26,0.931,2.134,2.158,2.743,3.594c0.374,0.882,0.717,1.779,1.232,2.598
			c0.441,0.701,0.997,1.292,1.613,1.841c0.334,0.297,0.638,0.64,0.901,1.002c0.207,0.284,0.321,0.638,0.218,1.003
			c-0.151,0.537-0.662,0.766-1.174,0.53c-0.178-0.082-0.34-0.2-0.5-0.315c-0.497-0.355-0.715-0.337-1.196,0.064
			c-0.226,0.188-0.463,0.381-0.726,0.503c-0.597,0.276-1.098,0.097-1.356-0.512c-0.298-0.7-0.587-1.411-0.79-2.142
			c-0.461-1.666-1.246-3.139-2.409-4.418c-0.869-0.956-1.871-1.762-2.869-2.57c-1.153-0.933-2.324-1.845-3.494-2.756
			c-0.726-0.565-1.499-1.051-2.346-1.425c-0.49-0.216-0.947-0.503-1.268-0.962c-0.266-0.38-0.316-0.76-0.133-1.196
			C80.598,31.491,81.19,31.165,82.145,31.104z"/>
		<path d="M99.905,123.282c0.078-0.326,0.131-0.661,0.24-0.976c0.594-1.722,1.158-3.454,1.525-5.24
			c0.292-1.424,0.514-2.863,0.828-4.282c0.231-1.046,0.514-2.085,0.858-3.099c0.531-1.566,1.021-3.141,1.396-4.752
			c0.383-1.651,0.743-3.308,1.159-4.951c0.329-1.301,0.733-2.582,1.282-3.811c0.232-0.519,0.503-1.013,0.932-1.401
			c0.094-0.085,0.185-0.179,0.292-0.244c0.201-0.122,0.403-0.295,0.661-0.15c0.211,0.119,0.392,0.61,0.315,0.862
			c-0.278,0.903-0.58,1.8-0.842,2.707c-0.262,0.908-0.51,1.822-0.725,2.743c-0.382,1.636-0.742,3.278-1.098,4.921
			c-0.35,1.616-0.676,3.236-1.028,4.852c-0.351,1.614-0.707,3.228-1.222,4.801c-0.297,0.906-0.401,1.848-0.523,2.785
			c-0.158,1.208-0.425,2.392-0.748,3.564c-0.124,0.449-0.245,0.9-0.405,1.337c-0.325,0.889-0.934,1.466-1.898,1.611
			c-0.57,0.085-0.784-0.065-0.886-0.628c-0.037-0.208-0.05-0.42-0.073-0.63C99.931,123.293,99.918,123.288,99.905,123.282z"/>
		<path d="M102.8,103.914c-0.094,0.889-0.219,1.857-0.575,2.8c-0.359,0.948-0.611,1.939-0.866,2.923
			c-0.339,1.312-0.671,2.627-0.94,3.954c-0.229,1.133-0.406,2.281-0.535,3.431c-0.334,2.987-1.201,5.793-2.707,8.401
			c-0.373,0.646-0.662,1.341-1.033,1.989c-0.244,0.425-0.56,0.811-0.856,1.204c-0.083,0.11-0.203,0.198-0.32,0.276
			c-0.367,0.246-0.744,0.319-1.151,0.073c-0.404-0.245-0.52-0.621-0.49-1.052c0.038-0.528,0.223-1.016,0.464-1.486
			c0.694-1.357,1.389-2.713,2.069-4.078c0.38-0.763,0.611-1.582,0.759-2.416c0.306-1.724,0.566-3.456,0.867-5.181
			c0.219-1.252,0.458-2.501,0.719-3.745c0.283-1.344,0.767-2.627,1.263-3.903c0.287-0.737,0.585-1.469,0.889-2.199
			c0.302-0.725,0.801-1.292,1.452-1.724c0.224-0.149,0.476-0.315,0.745-0.17c0.277,0.149,0.245,0.452,0.243,0.722
			C102.799,103.763,102.8,103.791,102.8,103.914z"/>
		<path d="M30.903,109.059c0.005-0.838,0.27-1.472,0.732-2.043c1.946-2.406,3.895-4.811,5.821-7.234
			c1.803-2.268,3.599-4.542,5.594-6.649c0.243-0.256,0.471-0.528,0.731-0.765c0.667-0.61,1.458-1.011,2.303-1.313
			c0.066-0.024,0.136-0.037,0.205-0.052c0.564-0.123,0.859,0.097,0.844,0.67c-0.022,0.857-0.29,1.6-1.02,2.133
			c-1.32,0.965-2.453,2.127-3.499,3.378c-1.226,1.468-2.268,3.067-3.328,4.654c-1.052,1.574-2.116,3.14-3.215,4.682
			c-0.639,0.897-1.348,1.745-2.041,2.602c-0.465,0.576-1.097,0.936-1.771,1.198c-0.672,0.261-1.125-0.022-1.276-0.735
			C30.938,109.38,30.919,109.168,30.903,109.059z"/>
		<path d="M83.509,131.603c-0.3-0.071-0.609-0.115-0.897-0.22c-0.323-0.117-0.478-0.37-0.4-0.706
			c0.075-0.324,0.198-0.652,0.372-0.934c0.355-0.577,0.759-1.124,1.142-1.684c1.257-1.842,2.253-3.821,3.014-5.913
			c0.738-2.03,1.46-4.066,2.146-6.114c0.551-1.646,1.077-3.302,1.538-4.975c0.304-1.1,0.477-2.237,0.702-3.359
			c0.131-0.654,0.383-1.246,0.902-1.685c0.143-0.121,0.338-0.212,0.522-0.243c0.42-0.071,0.725,0.07,0.829,0.632
			c0.135,0.729,0.113,1.457-0.093,2.18c-0.193,0.679-0.326,1.375-0.536,2.049c-0.188,0.605-0.452,1.187-0.668,1.784
			c-0.444,1.227-0.694,2.503-0.949,3.778c-0.211,1.053-0.394,2.115-0.677,3.149c-0.306,1.117-0.757,2.189-1.341,3.196
			c-0.775,1.336-1.415,2.729-1.899,4.199c-0.344,1.045-0.757,2.069-1.31,3.027c-0.298,0.515-0.634,1-1.094,1.392
			C84.433,131.481,84.007,131.614,83.509,131.603z"/>
		<path d="M114.894,107.479c-0.045-1.484-0.09-2.967-0.134-4.451c-0.028-0.93,0.15-1.828,0.411-2.714
			c0.488-1.657,0.85-3.341,1.092-5.052c0.185-1.303,0.278-2.613,0.35-3.927c0.052-0.943,0.148-1.891,0.434-2.801
			c0.092-0.294,0.223-0.579,0.363-0.855c0.155-0.306,0.396-0.523,0.767-0.51c0.39,0.014,0.657,0.223,0.828,0.568
			c0.25,0.506,0.363,1.042,0.312,1.603c-0.16,1.759-0.31,3.519-0.502,5.274c-0.089,0.813-0.278,1.615-0.405,2.425
			c-0.247,1.577-0.519,3.152-0.712,4.736c-0.243,1.993-0.285,4.002-0.363,6.007c-0.033,0.838-0.004,1.666,0.062,2.497
			c0.037,0.468,0.007,0.933-0.155,1.381c-0.195,0.541-0.614,0.805-1.184,0.753c-0.527-0.048-0.833-0.361-0.955-0.921
			c-0.188-0.863-0.197-1.739-0.23-2.613c-0.018-0.466-0.003-0.934-0.003-1.401C114.879,107.48,114.886,107.479,114.894,107.479z"/>
		<path d="M81.218,73.227c-0.059-0.56,0.048-1.098,0.219-1.626c0.259-0.8,0.359-1.633,0.412-2.462
			c0.075-1.172-0.017-2.342-0.201-3.506c-0.208-1.316-0.53-2.604-0.925-3.871c-0.213-0.683-0.536-1.335-0.84-1.986
			c-0.215-0.46-0.498-0.887-0.721-1.343c-0.167-0.34-0.393-0.625-0.683-0.853c-0.621-0.487-1.103-1.092-1.538-1.741
			c-0.181-0.27-0.353-0.546-0.532-0.817c-0.494-0.75-0.16-1.769,0.319-2.219c0.304-0.285,0.745-0.329,1.139-0.076
			c0.281,0.181,0.543,0.406,0.775,0.649c1.081,1.132,1.897,2.46,2.734,3.77c0.411,0.643,0.791,1.305,1.191,1.955
			c0.563,0.916,0.869,1.928,1.098,2.964c0.274,1.244,0.46,2.504,0.515,3.777c0.028,0.662,0.006,1.331-0.062,1.99
			c-0.092,0.885-0.277,1.76-0.374,2.645c-0.107,0.981-0.267,1.961-0.156,2.957c0.028,0.25,0.02,0.512-0.023,0.76
			c-0.103,0.585-0.642,0.901-1.21,0.735c-0.041-0.012-0.079-0.031-0.119-0.045c-0.88-0.301-1.016-0.488-1.015-1.402
			C81.218,73.397,81.218,73.312,81.218,73.227z"/>
		<path d="M97.267,108.278c-0.057,0.293-0.109,0.629-0.189,0.958c-0.307,1.262-0.628,2.521-0.933,3.784
			c-0.252,1.043-0.502,2.088-0.73,3.137c-0.2,0.925-0.383,1.854-0.547,2.786c-0.364,2.063-1.064,4.007-2.006,5.872
			c-0.638,1.264-1.368,2.471-2.156,3.646c-0.361,0.539-0.698,1.094-1.061,1.632c-0.1,0.149-0.246,0.272-0.386,0.389
			c-0.614,0.513-1.193,0.245-1.543-0.36c-0.11-0.19-0.13-0.386-0.074-0.611c0.136-0.545,0.404-1.024,0.703-1.487
			c0.875-1.355,1.678-2.749,2.34-4.222c0.631-1.405,1.186-2.839,1.596-4.325c0.247-0.899,0.495-1.799,0.697-2.709
			c0.221-0.992,0.39-1.996,0.581-2.995c0.186-0.971,0.355-1.946,0.56-2.913c0.17-0.801,0.378-1.594,0.574-2.389
			c0.127-0.515,0.318-1,0.722-1.366c0.145-0.131,0.309-0.252,0.483-0.338c0.41-0.2,0.79-0.086,1.026,0.298
			C97.143,107.423,97.242,107.819,97.267,108.278z"/>
		<path d="M20.449,19.063c-0.181,0.299-0.352,0.604-0.545,0.894c-0.594,0.895-1.22,1.769-1.785,2.681
			c-0.348,0.562-0.645,1.162-0.895,1.774c-0.303,0.744-0.729,1.4-1.222,2.023c-0.684,0.865-1.383,1.718-2.053,2.594
			c-1.484,1.941-2.626,4.08-3.646,6.294c-0.644,1.397-1.358,2.761-2.043,4.14C7.5,40.998,6.87,42.583,6.376,44.223
			c-0.13,0.431-0.294,0.854-0.469,1.269c-0.157,0.372-0.455,0.606-0.845,0.712c-0.394,0.108-0.666-0.019-0.818-0.396
			c-0.171-0.423-0.111-0.863-0.061-1.298c0.175-1.519,0.704-2.934,1.276-4.336c1.171-2.872,2.643-5.587,4.307-8.2
			c1.833-2.879,3.858-5.615,6.09-8.195c1.008-1.164,2.059-2.29,3.097-3.428c0.362-0.397,0.738-0.78,1.112-1.165
			c0.081-0.084,0.182-0.149,0.274-0.223C20.376,18.996,20.412,19.029,20.449,19.063z"/>
		<path d="M33.251,81.646c-0.037,0.209-0.082,0.501-0.141,0.792c-0.358,1.772-0.688,3.55-1.089,5.312
			c-0.329,1.447-0.988,2.757-1.859,3.961c-1.317,1.82-2.626,3.646-3.938,5.469c-0.198,0.275-0.394,0.552-0.591,0.828
			c-0.058,0.08-0.113,0.164-0.18,0.236c-0.476,0.508-1.073,0.429-1.369-0.199c-0.249-0.53-0.327-1.11-0.103-1.65
			c0.851-2.048,1.727-4.078,3.184-5.806c1.177-1.395,1.975-3.023,2.556-4.749c0.455-1.35,0.868-2.713,1.31-4.067
			c0.078-0.24,0.192-0.472,0.317-0.692c0.159-0.279,0.4-0.478,0.72-0.551C32.782,80.368,33.256,80.786,33.251,81.646z"/>
		<path d="M79.935,68.072c-0.054,1.271-0.172,2.436-0.433,3.582c-0.159,0.701-0.315,1.405-0.515,2.095
			c-0.3,1.037-1.596,1.318-2.392,0.707c-0.259-0.199-0.435-0.467-0.395-0.802c0.055-0.461,0.12-0.925,0.236-1.373
			c0.329-1.274,0.617-2.556,0.71-3.87c0.085-1.201,0.011-2.397-0.206-3.585c-0.163-0.891-0.378-1.765-0.698-2.614
			c-0.34-0.901-0.823-1.695-1.566-2.328c-0.494-0.421-0.961-0.875-1.426-1.328c-0.433-0.422-0.541-1.346-0.241-1.861
			c0.221-0.379,1.017-0.607,1.416-0.066c0.452,0.613,0.927,1.213,1.434,1.781c0.696,0.779,1.407,1.549,2.158,2.274
			c0.655,0.632,1.048,1.381,1.293,2.241c0.308,1.08,0.47,2.177,0.509,3.298C79.842,66.873,79.899,67.52,79.935,68.072z"/>
		<path d="M18.696,82.449c-0.056,1.141-0.342,2.063-0.728,2.968c-0.77,1.805-1.87,3.382-3.225,4.788
			c-1.598,1.658-3.2,3.313-4.807,4.963c-0.661,0.678-1.458,1.155-2.338,1.492c-0.537,0.206-0.944,0.06-1.273-0.437
			c-0.319-0.482-0.302-0.89,0.106-1.302c0.527-0.532,1.071-1.047,1.62-1.556c1.14-1.057,2.226-2.167,3.303-3.288
			c0.409-0.426,0.892-0.78,1.33-1.181c1.128-1.034,1.884-2.315,2.442-3.723c0.228-0.576,0.41-1.173,0.666-1.737
			c0.22-0.486,0.503-0.946,0.779-1.405c0.26-0.433,0.681-0.67,1.143-0.831c0.36-0.126,0.691,0.032,0.807,0.405
			C18.619,81.926,18.659,82.265,18.696,82.449z"/>
		<path d="M128.258,40.173c-0.002,0.261-0.063,0.498-0.302,0.621c-0.232,0.119-0.479,0.07-0.679-0.089
			c-0.186-0.148-0.381-0.304-0.514-0.496c-0.611-0.883-1.247-1.753-1.785-2.68c-0.487-0.839-0.864-1.743-1.278-2.624
			c-0.921-1.959-1.915-3.867-3.294-5.562c-1.32-1.623-2.576-3.298-3.844-4.962c-0.943-1.238-1.806-2.53-2.484-3.936
			c-0.123-0.254-0.233-0.514-0.346-0.772c-0.062-0.143-0.073-0.305,0.088-0.362c0.09-0.032,0.256,0.019,0.328,0.092
			c0.525,0.534,1.041,1.078,1.547,1.629c1.444,1.573,2.841,3.185,4.173,4.854c2.066,2.589,3.987,5.277,5.543,8.209
			c0.774,1.459,1.523,2.933,2.266,4.408c0.196,0.389,0.338,0.807,0.49,1.217C128.222,39.861,128.23,40.021,128.258,40.173z"/>
		<path d="M21.129,92.665c-0.002-0.66,0.283-1.298,0.584-1.917c1.472-3.019,2.942-6.04,4.464-9.035
			c0.445-0.876,1.049-1.674,1.605-2.491c0.174-0.256,0.451-0.43,0.771-0.481c0.294-0.046,0.453,0.084,0.415,0.377
			c-0.071,0.545-0.12,1.104-0.287,1.623c-0.595,1.855-1.244,3.693-1.856,5.543c-0.752,2.275-1.757,4.431-3.005,6.474
			c-0.206,0.337-0.386,0.695-0.626,1.006c-0.205,0.265-0.465,0.493-0.726,0.707c-0.382,0.313-0.801,0.219-1.005-0.232
			C21.248,93.76,21.114,93.254,21.129,92.665z"/>
		<path d="M4.047,88.473c-0.633-0.016-0.942-0.41-0.815-1.037c0.19-0.939,0.729-1.658,1.473-2.208
			c1.154-0.853,2.086-1.897,2.89-3.075c0.334-0.489,0.725-0.939,1.097-1.401c0.676-0.838,1.13-1.784,1.409-2.822
			c0.244-0.905,0.81-1.609,1.474-2.237c0.254-0.24,0.576-0.304,0.905-0.143c0.339,0.166,0.498,0.479,0.461,0.88
			c-0.01,0.112-0.034,0.225-0.068,0.332c-0.508,1.601-0.916,3.234-1.582,4.784c-0.57,1.326-1.356,2.509-2.304,3.587
			c-0.683,0.776-1.438,1.478-2.239,2.132c-0.644,0.526-1.347,0.932-2.157,1.132C4.414,88.442,4.229,88.449,4.047,88.473z"/>
		<path d="M123.021,101.347c0.146-1.353,0.311-2.784,0.45-4.218c0.101-1.04,0.184-2.082,0.247-3.125
			c0.075-1.254,0.122-2.511,0.175-3.766c0.036-0.841-0.113-1.663-0.293-2.477c-0.252-1.134-0.457-2.27-0.415-3.438
			c0.015-0.424,0.164-0.595,0.575-0.638c0.261-0.027,0.476,0.056,0.597,0.305c0.271,0.56,0.52,1.133,0.621,1.748
			c0.329,2.009,0.53,4.033,0.694,6.061c0.13,1.604,0.295,3.206,0.402,4.812c0.029,0.442-0.062,0.902-0.157,1.341
			c-0.358,1.657-1.028,3.192-1.882,4.65c-0.13,0.223-0.284,0.441-0.593,0.388c-0.219-0.037-0.386-0.303-0.413-0.629
			c-0.008-0.098-0.007-0.198-0.007-0.297C123.02,101.852,123.021,101.64,123.021,101.347z"/>
		<path d="M5.387,92.217c-0.112-0.012-0.227-0.012-0.336-0.037c-0.297-0.068-0.46-0.267-0.449-0.577
			c0.016-0.467,0.198-0.878,0.48-1.244c0.597-0.777,1.263-1.493,2.065-2.059c1.575-1.11,2.994-2.409,4.458-3.652
			c0.774-0.657,1.214-1.553,1.424-2.546c0.17-0.801,0.309-1.608,0.473-2.411c0.045-0.219,0.112-0.439,0.203-0.643
			c0.155-0.351,0.455-0.548,0.823-0.589c0.164-0.018,0.369,0.049,0.506,0.146c0.325,0.228,0.462,0.761,0.354,1.149
			c-0.363,1.305-0.712,2.615-1.083,3.918c-0.302,1.061-0.639,2.11-1.274,3.032c-0.398,0.578-0.888,1.064-1.492,1.421
			c-1.743,1.032-3.4,2.181-4.895,3.554C6.296,91.998,5.888,92.224,5.387,92.217z"/>
		<path d="M9.796,73.633c-0.035,0.646-0.233,1.234-0.52,1.789c-0.673,1.304-1.373,2.594-2.042,3.9
			c-0.344,0.672-0.88,1.172-1.409,1.679c-0.601,0.576-1.227,1.127-1.842,1.688c-0.353,0.322-0.771,0.521-1.235,0.615
			c-0.456,0.092-0.795-0.124-1.066-0.459c-0.251-0.311-0.223-0.656-0.053-0.995c0.4-0.801,0.899-1.529,1.547-2.155
			c1.606-1.551,2.758-3.423,3.756-5.397c0.229-0.452,0.399-0.934,0.587-1.406c0.241-0.608,0.583-0.843,1.227-0.827
			c0.464,0.012,0.743,0.206,0.871,0.658C9.702,73.02,9.738,73.33,9.796,73.633z"/>
		<path d="M19.423,98.042c-0.009,0.438-0.2,0.747-0.542,0.978c-0.713,0.482-1.411,0.99-2.143,1.44
			c-1.183,0.727-2.169,1.663-3.059,2.715c-0.309,0.366-0.633,0.724-0.982,1.052c-0.669,0.629-1.388,0.549-1.899-0.211
			c-0.187-0.278-0.321-0.595-0.45-0.907c-0.118-0.286-0.048-0.555,0.173-0.778c0.04-0.04,0.08-0.08,0.125-0.115
			c1.213-0.935,2.238-2.07,3.325-3.139c0.594-0.584,1.185-1.173,1.791-1.745c0.328-0.309,0.678-0.597,1.031-0.878
			c0.873-0.695,1.996-0.39,2.382,0.653C19.288,97.409,19.343,97.73,19.423,98.042z"/>
		<path d="M41.889,113.243c0.071,0,0.142-0.005,0.212,0.001c0.303,0.023,0.418,0.143,0.446,0.453
			c0.064,0.701-0.139,1.308-0.624,1.821c-0.528,0.56-0.941,1.187-1.216,1.917c-0.312,0.829-0.356,1.679-0.315,2.544
			c0.015,0.323,0.05,0.649,0.114,0.966c0.073,0.362,0.023,0.7-0.091,1.04c-0.072,0.212-0.206,0.337-0.436,0.325
			c-0.139-0.008-0.289-0.01-0.413-0.063c-0.31-0.133-0.616-0.281-0.909-0.448c-0.386-0.219-0.451-0.428-0.283-0.848
			c0.1-0.248,0.221-0.488,0.331-0.733c0.064-0.141,0.143-0.279,0.183-0.427c0.072-0.268-0.005-0.508-0.219-0.686
			c-0.206-0.172-0.423-0.253-0.699-0.107c-0.323,0.171-0.671,0.296-1.002,0.451c-0.633,0.297-1.628-0.179-1.655-1.163
			c-0.007-0.244,0.067-0.472,0.263-0.646c1.095-0.977,2.172-1.976,3.289-2.928c0.654-0.557,1.373-1.043,2.197-1.33
			c0.262-0.091,0.544-0.125,0.817-0.184C41.883,113.213,41.886,113.228,41.889,113.243z"/>
		<path d="M9.787,68.442c0.033-0.568,0.161-1.218,0.378-1.849c0.628-1.829,1.261-3.657,1.898-5.483
			c0.268-0.767,0.708-1.41,1.397-1.865c0.278-0.184,0.574-0.293,0.916-0.273c0.55,0.031,0.929,0.42,0.88,0.975
			c-0.027,0.306-0.105,0.615-0.209,0.905c-0.433,1.209-0.889,2.41-1.33,3.616c-0.45,1.232-0.885,2.47-1.341,3.699
			c-0.187,0.503-0.404,0.995-0.626,1.484c-0.261,0.575-0.669,0.688-1.199,0.354C10.014,69.666,9.778,69.215,9.787,68.442z"/>
		<path d="M19.429,87.356c0.063-0.417,0.18-0.792,0.377-1.142c0.535-0.951,0.949-1.956,1.306-2.984
			c0.58-1.674,1.349-3.258,2.238-4.787c0.192-0.33,0.382-0.661,0.572-0.991c0.183-0.318,0.449-0.502,0.824-0.504
			c0.225-0.001,0.454-0.018,0.675,0.014c0.442,0.062,0.648,0.291,0.574,0.729c-0.091,0.54-0.246,1.072-0.397,1.6
			c-0.356,1.245-0.974,2.37-1.606,3.492c-0.915,1.624-1.791,3.271-2.71,4.893c-0.227,0.401-0.532,0.764-0.842,1.108
			c-0.284,0.316-0.63,0.244-0.745-0.15C19.573,88.216,19.515,87.782,19.429,87.356z"/>
		<path d="M126.812,67.523c0.411-0.03,0.698,0.17,0.931,0.485c0.307,0.416,0.472,0.901,0.626,1.381
			c0.4,1.249,0.806,2.498,1.141,3.765c0.306,1.158,0.537,2.338,0.775,3.513c0.207,1.017,0.206,2.044,0.048,3.07
			c-0.073,0.475-0.266,0.734-0.587,0.791c-0.332,0.059-0.648-0.13-0.818-0.597c-0.303-0.834-0.582-1.679-0.827-2.532
			c-0.222-0.772-0.406-1.556-0.569-2.343c-0.166-0.801-0.29-1.611-0.423-2.418c-0.17-1.037-0.429-2.042-0.963-2.961
			c-0.148-0.255-0.266-0.529-0.377-0.803c-0.281-0.69,0.048-1.24,0.788-1.335C126.642,67.528,126.727,67.528,126.812,67.523z"/>
		<path d="M18.75,62.262c-0.097,0.528-0.207,1.054-0.289,1.584c-0.223,1.444-0.796,2.76-1.425,4.063
			c-0.405,0.838-0.719,1.719-1.117,2.56c-0.337,0.714-0.712,1.413-1.116,2.091c-0.3,0.504-0.728,0.53-1.171,0.157
			c-0.454-0.383-0.58-0.87-0.419-1.415c0.642-2.167,1.308-4.329,2.236-6.392c0.439-0.976,0.993-1.902,1.52-2.837
			c0.113-0.2,0.32-0.355,0.506-0.504c0.245-0.197,0.543-0.289,0.831-0.131C18.61,61.608,18.761,61.896,18.75,62.262z"/>
		<path d="M26.82,108.046c0.004,0.388-0.089,0.655-0.297,0.862c-0.229,0.228-0.458,0.468-0.725,0.644
			c-1.71,1.124-3.43,2.233-5.148,3.343c-0.129,0.084-0.278,0.137-0.412,0.215c-0.716,0.423-1.557-0.081-1.853-0.741
			c-0.242-0.54-0.214-0.865,0.244-1.249c0.93-0.78,1.86-1.565,2.849-2.265c1.081-0.765,2.229-1.437,3.348-2.148
			c0.095-0.06,0.197-0.11,0.298-0.161c0.358-0.179,0.696-0.133,0.976,0.143C26.501,107.087,26.731,107.581,26.82,108.046z"/>
		<path d="M28.664,113.038c-0.021,0.622-0.211,1.127-0.653,1.577c-0.623,0.634-1.206,1.306-1.9,1.867
			c-0.511,0.413-1.071,0.729-1.708,0.904c-0.314,0.086-0.611,0.09-0.897-0.088c-0.803-0.499-1.51-1.095-1.929-1.966
			c-0.267-0.555-0.172-0.861,0.368-1.159c1.518-0.838,3.042-1.667,4.568-2.491c0.235-0.127,0.49-0.222,0.744-0.306
			c0.51-0.169,0.986,0.042,1.161,0.553C28.54,112.286,28.585,112.668,28.664,113.038z"/>
		<path d="M17.149,93.349c-0.02,0.324-0.143,0.557-0.345,0.748c-0.471,0.446-0.931,0.906-1.422,1.331
			c-1.59,1.376-3.189,2.741-4.791,4.104c-0.357,0.304-0.76,0.537-1.23,0.632c-0.332,0.067-0.616-0.017-0.845-0.266
			c-0.222-0.243-0.194-0.513-0.067-0.789c0.297-0.65,0.718-1.221,1.222-1.715c1.36-1.335,2.747-2.642,4.116-3.968
			c0.447-0.433,0.877-0.887,1.452-1.151c0.329-0.151,0.664-0.342,1.042-0.123C16.763,92.429,17.036,92.852,17.149,93.349z"/>
		<path d="M0.354,76.031c0.063-0.501,0.279-1.053,0.633-1.535c0.676-0.922,1.385-1.819,2.069-2.735
			c0.607-0.814,1.214-1.627,1.598-2.582c0.175-0.435,0.533-0.517,0.923-0.226c0.567,0.423,0.756,1.018,0.766,1.705
			c0.016,1.063-0.547,1.881-1.134,2.674c-0.789,1.065-1.622,2.098-2.447,3.136c-0.174,0.219-0.38,0.421-0.601,0.594
			c-0.34,0.266-0.722,0.379-1.144,0.169C0.607,77.024,0.35,76.601,0.354,76.031z"/>
		<path d="M16.603,110.509c-0.718,0.005-1.249-0.351-1.477-1.006c-0.105-0.302-0.162-0.632-0.177-0.952
			c-0.025-0.511,0.305-0.927,0.863-1.13c1.424-0.519,2.776-1.183,4.066-1.975c0.265-0.163,0.516-0.347,0.784-0.505
			c0.242-0.143,0.489-0.283,0.749-0.387c0.348-0.14,0.677-0.061,0.928,0.216c0.234,0.258,0.305,0.548,0.154,0.899
			c-0.195,0.452-0.462,0.845-0.824,1.169c-1.042,0.934-2.087,1.864-3.142,2.783c-0.442,0.385-0.981,0.611-1.522,0.821
			C16.864,110.496,16.7,110.494,16.603,110.509z"/>
		<path d="M16.487,105.643c-0.18-0.026-0.368-0.029-0.54-0.083c-0.559-0.175-0.775-0.597-0.603-1.155
			c0.199-0.645,0.55-1.201,0.995-1.704c0.476-0.537,1.063-0.926,1.684-1.265c0.902-0.494,1.81-0.979,2.725-1.45
			c0.646-0.332,1.152-0.103,1.378,0.594c0.262,0.807,0.033,1.36-0.666,1.856c-0.873,0.62-1.715,1.285-2.564,1.939
			c-0.291,0.224-0.564,0.469-0.845,0.706C17.6,105.461,17.078,105.638,16.487,105.643z"/>
		<path d="M73.522,68.088c-0.067-0.575-0.116-1.152-0.204-1.723c-0.142-0.92-0.482-1.766-1.01-2.537
			c-0.19-0.278-0.387-0.567-0.496-0.88c-0.099-0.284-0.129-0.611-0.106-0.913c0.042-0.547,0.534-0.797,1.023-0.533
			c0.758,0.409,1.38,0.94,1.779,1.748c0.438,0.886,0.702,1.814,0.911,2.767c0.082,0.372,0.112,0.758,0.215,1.123
			c0.274,0.966-0.056,1.842-0.377,2.718c-0.106,0.29-0.338,0.374-0.659,0.293c-0.665-0.168-1.096-0.727-1.095-1.423
			c0-0.212,0-0.424,0-0.636C73.509,68.091,73.515,68.09,73.522,68.088z"/>
		<path d="M31.226,117.863c-0.054,0.501-0.252,0.908-0.616,1.203c-0.624,0.506-1.279,0.975-1.916,1.466
			c-0.371,0.285-0.762,0.257-1.161,0.093c-0.652-0.268-1.198-0.686-1.658-1.217c-0.092-0.106-0.171-0.225-0.238-0.348
			c-0.248-0.455-0.204-0.7,0.243-0.944c0.816-0.446,1.649-0.859,2.478-1.281c0.377-0.192,0.754-0.386,1.141-0.555
			c0.669-0.293,1.116-0.128,1.406,0.542C31.049,117.152,31.121,117.514,31.226,117.863z"/>
		<path d="M36.974,124.537c0,0.099,0.008,0.199-0.001,0.297c-0.047,0.527-0.401,0.825-0.926,0.726
			c-0.344-0.065-0.682-0.185-1.006-0.321c-1.633-0.685-3.202-1.488-4.615-2.568c-0.199-0.152-0.384-0.337-0.535-0.538
			c-0.18-0.239-0.149-0.351,0.109-0.516c0.703-0.45,1.439-0.838,2.217-1.141c0.155-0.06,0.329-0.086,0.496-0.096
			c0.371-0.022,0.649,0.166,0.796,0.514c0.12,0.284,0.136,0.582,0.058,0.874c-0.091,0.34-0.208,0.673-0.322,1.006
			c-0.158,0.464,0.119,0.886,0.608,0.849c0.302-0.023,0.597-0.152,0.892-0.241c0.337-0.101,0.666-0.237,1.009-0.31
			c0.526-0.112,0.914,0.129,1.087,0.635c0.05,0.147,0.096,0.298,0.121,0.45c0.02,0.124,0.004,0.254,0.004,0.381
			C36.97,124.537,36.972,124.537,36.974,124.537z"/>
		<path d="M113.096,108.391c-0.065,0.623-0.134,1.169-0.176,1.718c-0.066,0.855,0.069,1.69,0.322,2.504
			c0.108,0.349,0.281,0.679,0.389,1.028c0.12,0.39,0.226,0.788,0.287,1.19c0.068,0.458-0.198,0.789-0.681,0.933
			c-0.432,0.129-0.795-0.005-1.005-0.401c-0.406-0.767-0.642-1.592-0.837-2.435c-0.307-1.329-0.135-2.643,0.075-3.957
			c0.06-0.375,0.151-0.746,0.25-1.113c0.091-0.334,0.275-0.621,0.553-0.833c0.312-0.238,0.587-0.152,0.66,0.223
			C113.011,107.648,113.05,108.057,113.096,108.391z"/>
		<path d="M86.154,40.253c-0.026,0.518-0.299,0.873-0.651,1.173c-0.24,0.204-0.46,0.181-0.772-0.045
			c-0.457-0.331-0.908-0.671-1.36-1.009c-0.734-0.549-1.473-1.093-2.198-1.655c-0.255-0.197-0.487-0.429-0.707-0.666
			c-0.17-0.183-0.261-0.417-0.145-0.664c0.123-0.262,0.343-0.403,0.637-0.421c0.376-0.023,0.732,0.067,1.068,0.218
			c0.887,0.399,1.77,0.806,2.647,1.225c0.551,0.263,0.949,0.707,1.263,1.217C86.049,39.811,86.083,40.043,86.154,40.253z"/>
		<path d="M82.797,43.287c-0.054,0.736-0.458,1.379-1.069,1.65c-0.242,0.107-0.47,0.103-0.675-0.062
			c-0.835-0.671-1.667-1.346-2.498-2.023c-0.211-0.172-0.291-0.411-0.303-0.674c-0.043-0.96,0.556-1.482,1.513-1.399
			c1.226,0.107,2.118,0.708,2.742,1.734C82.647,42.745,82.702,43.028,82.797,43.287z"/>
		<path d="M131.705,70.366c-0.002,0.612-0.425,0.977-0.95,0.783c-0.118-0.043-0.258-0.154-0.296-0.265
			c-0.392-1.131-1.068-2.113-1.618-3.161c-0.156-0.297-0.284-0.616-0.368-0.94c-0.13-0.498,0.097-0.965,0.538-1.224
			c0.986-0.579,1.598-0.005,1.953,0.826c0.098,0.229,0.156,0.494,0.155,0.742c-0.004,0.833,0.259,1.612,0.431,2.41
			C131.607,69.812,131.653,70.09,131.705,70.366z"/>
		<path d="M47.897,26.12c0.004,0.423-0.135,0.741-0.425,0.977c-0.756,0.613-1.509,1.233-2.288,1.816
			c-0.239,0.179-0.55,0.297-0.846,0.355c-0.739,0.145-1.216-0.442-0.937-1.137c0.098-0.244,0.233-0.489,0.406-0.686
			c0.559-0.636,1.146-1.247,1.717-1.872c0.303-0.331,0.689-0.48,1.121-0.531C47.397,24.954,47.902,25.409,47.897,26.12z"/>
		<path d="M16.696,71.938c0.043,0.19,0.086,0.293,0.087,0.397c0.013,1.032,0.233,2.02,0.666,2.953
			c0.256,0.551,0.062,1.02-0.202,1.479c-0.126,0.22-0.357,0.216-0.56-0.033c-0.266-0.327-0.537-0.666-0.715-1.042
			c-0.565-1.193-0.377-2.334,0.345-3.406C16.396,72.169,16.528,72.089,16.696,71.938z"/>
		<path d="M2.015,62.94c-0.026,0.813-0.285,1.56-0.556,2.3c-0.073,0.2-0.174,0.462-0.442,0.455
			c-0.271-0.007-0.387-0.244-0.491-0.468c-0.42-0.905-0.414-1.829-0.121-2.764c0.096-0.306,0.334-0.449,0.633-0.484
			c0.317-0.037,0.658-0.023,0.834,0.278C1.981,62.447,1.97,62.71,2.015,62.94z"/>
		<path d="M20.072,77.246c0.559-0.027,0.985,0.495,0.73,1.02c-0.182,0.375-0.435,0.718-0.685,1.054
			c-0.103,0.138-0.288,0.099-0.422-0.004c-0.427-0.33-0.716-1.001-0.488-1.586C19.325,77.429,19.683,77.236,20.072,77.246z"/>
	</g>
</g>
<g>
</g>
<g>
</g>
<g>
</g>
<g>
</g>
<g>
</g>
<g>
</g>
<g>
</g>
<g>
</g>
<g>
</g>
<g>
</g>
<g>
</g>
<g>
</g>
<g>
</g>
<g>
</g>
<g>
</g>
</svg>
