<?xml version="1.0" encoding="utf-8"?>
<!-- Generator: Adobe Illustrator 18.1.1, SVG Export Plug-In . SVG Version: 6.00 Build 0)  -->
<svg version="1.1" id="Calque_1" xmlns="http://www.w3.org/2000/svg" xmlns:xlink="http://www.w3.org/1999/xlink" x="0px" y="0px"
	 width="28.7px" height="23.3px" viewBox="0 0 28.7 23.3" enable-background="new 0 0 28.7 23.3" xml:space="preserve">
<g>
	<g>
		<path fill="#F4F4F4" d="M28.7,2.8c-1.1,0.5-2.2,0.8-3.4,0.9c1.2-0.7,2.1-1.9,2.6-3.3c-1.1,0.7-2.4,1.2-3.7,1.4
			C23.1,0.7,21.5,0,19.9,0C16.6,0,14,2.6,14,5.9c0,0.5,0.1,0.9,0.2,1.3C9.2,7,4.9,4.6,2,1.1C1.5,1.9,1.2,3,1.2,4c0,2,1,3.8,2.6,4.9
			c-1,0-1.9-0.3-2.7-0.7v0.1c0,2.8,2,5.2,4.7,5.8c-0.5,0.1-1,0.2-1.6,0.2c-0.4,0-0.7,0-1.1-0.1c0.7,2.3,2.9,4,5.5,4.1
			c-2,1.6-4.6,2.5-7.3,2.5c-0.5,0-0.9,0-1.4-0.1c2.6,1.7,5.7,2.6,9,2.6c10.8,0,16.7-9,16.7-16.7l0-0.8C26.9,5,27.9,3.9,28.7,2.8z"/>
	</g>
</g>
<g>
</g>
<g>
</g>
<g>
</g>
<g>
</g>
<g>
</g>
<g>
</g>
<g>
</g>
<g>
</g>
<g>
</g>
<g>
</g>
<g>
</g>
<g>
</g>
<g>
</g>
<g>
</g>
<g>
</g>
</svg>
