<?xml version="1.0" standalone="no"?>
<!DOCTYPE svg PUBLIC "-//W3C//DTD SVG 1.1//EN" "http://www.w3.org/Graphics/SVG/1.1/DTD/svg11.dtd" >
<svg xmlns="http://www.w3.org/2000/svg">
<metadata></metadata>
<defs>
<font id="dk_hobgoblinregular" horiz-adv-x="1114" >
<font-face units-per-em="2048" ascent="1638" descent="-410" />
<missing-glyph horiz-adv-x="573" />
<glyph horiz-adv-x="0" />
<glyph horiz-adv-x="682" />
<glyph unicode=" "  horiz-adv-x="573" />
<glyph unicode="&#x09;" horiz-adv-x="573" />
<glyph unicode="&#xa0;" horiz-adv-x="573" />
<glyph unicode="!" horiz-adv-x="378" d="M61 1395q0 88 7 159q0 21 14 34t37 16h5q6 -1 16.5 -1.5t27 -1t44 0t60.5 2.5q41 0 45 -17l-43 -1112q0 -84 -38 -88q-54 0 -86 -4h-19q-27 0 -29 16q-41 668 -41 996zM72 76q0 39 13.5 75.5t35 61t49 36t54 6.5t50.5 -34t39 -80q15 -54 -28.5 -100.5t-102.5 -46.5 q-40 0 -75 21t-35 61z" />
<glyph unicode="&#x22;" horiz-adv-x="641" d="M61 1628q0 33 52.5 44.5t105 -2t51.5 -40.5l-20 -438q-3 -27 -5.5 -39.5t-10 -27t-22.5 -20t-40 -5.5q-22 0 -37 6.5t-22.5 14t-12 26t-5 29t-1.5 36.5v13q-2 92 -17.5 211t-15.5 192zM369 1632q0 33 52.5 44.5t105 -2t51.5 -40.5l-21 -438q-3 -27 -5.5 -39.5t-10 -27 t-22.5 -20t-40 -5.5q-22 0 -37 6.5t-22.5 14t-12 26t-5 29.5t-1.5 37v12q-2 91 -17 210.5t-15 192.5z" />
<glyph unicode="$" horiz-adv-x="1040" d="M61 184q0 28 59 106.5t99 121.5q1 0 5 1t5 1q23 0 48.5 -30t47.5 -67t61.5 -73t84.5 -45v120q0 37 1 112.5t1 113.5q0 27 -1 84t-1 84q-18 15 -93.5 72.5t-113.5 91.5q-87 56 -128.5 137.5t-35.5 167.5t54 166q44 75 133 123t186 57v94q0 5 1.5 27.5t3 40.5t5.5 26 q22 0 53.5 2t43.5 2q10 0 10 -69q0 -78 -2 -125q44 -6 84 -14.5t82.5 -22t68 -33.5t25.5 -43l-60 -254q-9 -26 -26 -26q-25 0 -54 8.5t-67 24.5t-57 22q0 -33 -1 -109.5t-1 -120.5q152 -114 219 -180q178 -178 178 -368q0 -179 -119.5 -309.5t-294.5 -170.5v-96 q-5 -61 -18 -61h-60q-3 0 -5.5 10t-2.5 14q-6 48 -6 101v18q-12 -2 -37 -2q-188 0 -315 158q-3 4 -15 19.5t-17.5 23t-13 20.5t-11 25t-3.5 24zM422 1128q0 -33 49 -79v151q-49 -14 -49 -72zM569 205q109 29 109 149q0 144 -103 262z" />
<glyph unicode="'" horiz-adv-x="331" d="M61 1628q0 33 52.5 44.5t105 -2t51.5 -40.5l-20 -438q-3 -27 -5.5 -39.5t-10 -27t-22.5 -20t-40 -5.5q-22 0 -37 6.5t-22.5 14t-12 26t-5 29t-1.5 36.5v13q-2 92 -17.5 211t-15.5 192z" />
<glyph unicode="(" horiz-adv-x="675" d="M65.5 820q5.5 117 33.5 231.5t67.5 213t95.5 178t119 124.5q34 25 92.5 46t99.5 21q12 0 22.5 -6.5t10.5 -17.5v-4q-6 -69 -6 -148q-313 -189 -313 -713v-112q3 -72 20.5 -136t41 -108t57.5 -82t61 -60t60 -40.5t45.5 -24t27.5 -10.5q10 -4 12.5 -19.5t0 -44t-2.5 -32.5 q0 -22 -20 -29h-35q-112 0 -201 43t-145 117.5t-93 172.5t-46.5 210.5t-4 229.5z" />
<glyph unicode=")" horiz-adv-x="675" d="M63.5 108.5q-2.5 28.5 0 44t12.5 19.5q15 5 27.5 10.5t45.5 24t60 40.5t61 60t57.5 82t41 108t20.5 136v112q0 524 -313 713q0 79 -6 148v4q0 11 10 17.5t22 6.5q41 0 100 -21t93 -46q63 -45 119 -124.5t95.5 -178t67.5 -213t33.5 -231.5t-4 -229.5t-46.5 -210.5 t-93 -172.5t-145 -117.5t-201 -43h-35q-20 7 -20 29q0 4 -2.5 32.5z" />
<glyph unicode="," horiz-adv-x="389" d="M61 170q0 25 14 60t34 49q3 3 10 5t12 5q7 4 14.5 10t11 8t11 4t18.5 2q72 0 107 -25t35 -93v-33q-1 -5 -10 -41.5t-17 -67.5t-12 -41q0 -1 -4 -11.5t-4 -12.5q-3 -4 -11 -38.5t-8 -39.5q-1 -3 -7.5 -24t-12.5 -40.5t-9 -25.5q-9 -33 -45 -33h-10q-3 1 -6.5 8.5t-3.5 9.5 q-8 95 -18 160q-5 24 -15 41l-65 105q-9 24 -9 59z" />
<glyph unicode="-" horiz-adv-x="1048" d="M61 616q0 41 48 41l847 -10q1 0 5 -1t6.5 -1.5t6.5 -2t6.5 -3.5t4.5 -5t2 -7v-174q0 -3 -2.5 -7t-5 -6.5l-5.5 -5.5l-3 -2h-47l-830 6q-6 4 -19.5 81t-13.5 97z" />
<glyph unicode="." horiz-adv-x="395" d="M61 88q0 59 50.5 99t109.5 40q42 0 77.5 -32.5t35.5 -73.5q0 -64 -48 -110t-110 -46q-23 0 -39 6q-25 21 -38.5 34.5t-25.5 36t-12 46.5z" />
<glyph unicode="/" horiz-adv-x="602" d="M61 158v10q72 399 258 1292q1 3 6 26.5t5 26.5q4 17 37 17q20 0 45 -2t56.5 -7.5t52 -18t20.5 -29.5q0 -11 -9 -11l-22 -116l-229 -1156q-10 -77 -39 -77q-14 0 -97 10h-18t-23 1t-20 4t-17 10.5t-6 19.5z" />
<glyph unicode="0" horiz-adv-x="1169" d="M66 582q-25 343 145 694q49 86 111 143.5t127.5 82.5t135.5 23t136 -30t127.5 -81t110.5 -125.5t85 -168.5t52 -205q1 -2 1.5 -10t1 -14.5t1.5 -7.5q7 -91 7 -186.5t-21 -198t-54 -193.5t-92 -174.5t-137 -140.5q-56 -41 -103.5 -57.5t-117.5 -16.5q-101 0 -185 40 t-141 105.5t-98 154t-62.5 179t-29.5 187.5zM377 444q3 -38 14.5 -74.5t32 -70.5t55.5 -55t80 -21q3 0 19.5 1t19.5 1q64 35 107 116.5t60.5 168t24 195t4.5 171.5t-6 123q-1 13 -2.5 56.5t-3.5 69t-11.5 63.5t-24.5 60t-44 38.5t-69 16.5q-96 0 -161 -107.5t-89.5 -302.5 t-5.5 -449z" />
<glyph unicode="1" horiz-adv-x="657" d="M61 1272q16 40 46 76t88.5 92t91.5 92q23 26 97.5 39.5t123.5 13.5q64 0 82 -69l6 -1508q0 -22 -31 -22q-40 0 -118.5 1t-118.5 1q-2 0 -11.5 -1t-14.5 0t-9 5l47 1222q0 21 -14 29z" />
<glyph unicode="2" horiz-adv-x="1024" d="M61 1266q6 73 56 136t126 101t166.5 60.5t180 14t163 -38t119.5 -96t46 -159.5q0 -85 -44 -194t-100 -187l-158 -219q-69 -97 -140 -239.5t-101 -251.5q1 -7 24 -7q89 0 263 30t264 30q30 0 30 -53q0 -7 3.5 -76.5t3.5 -77.5v-10q0 -17 -23 -31t-41 -16l-721 -84 q-1 0 -7 -1t-7 -1q-51 0 -64 20q-12 51 -12 145q0 55 8.5 109t29.5 111.5t37.5 98.5t53 105t54 93t59.5 98l131 215q41 66 61.5 101t45 99.5t24.5 114.5q0 67 -18.5 83t-86.5 16q-34 0 -70 -20.5t-64.5 -49t-53 -57.5t-42 -49t-24.5 -19q-8 0 -14 6l-14 8q-27 15 -45.5 27 t-44.5 32t-40 41t-14 42z" />
<glyph unicode="3" horiz-adv-x="1097" d="M61 182q0 5 1 20l1 15q0 12 3 34.5t4 22.5l12 15l12 1q13 0 31.5 1t38.5 2t40.5 1.5t33.5 0.5q109 11 185.5 27t124.5 35.5t77 48.5t42.5 58.5t22.5 74.5v34q0 56 -8 70q-18 36 -83 60t-114 24q-3 0 -31.5 -3t-31.5 -3h-8q-49 0 -58 39q-6 36 -6 84q-1 19 -7.5 59.5 t-6.5 61.5q0 11 31.5 30t70.5 39t47 27q50 47 68 82t18 96q0 55 -38 85t-95 30q-15 0 -31 -2t-35 -7t-30 -8t-34.5 -12t-29.5 -11.5t-32 -13.5l-27 -12h-39q-2 0 -4 2t-2 4l-6 9l-15 24t-18 28.5t-19 31.5t-17 32.5t-13 31t-6.5 28.5t2.5 24q9 24 46 49t91.5 46.5t122.5 34 t138.5 14t140.5 -17t128.5 -55t101.5 -104.5t60 -161q19 -106 -39.5 -200.5t-162.5 -150.5q84 -30 139 -60t100.5 -74t66.5 -105.5t21 -145.5q0 -90 -26 -182.5t-78 -154.5l-14 -17q-26 -33 -45 -53t-75.5 -54t-127.5 -53.5t-198 -35t-290 -15.5q-6 0 -43 1t-43 1 q-35 21 -35 172z" />
<glyph unicode="4" horiz-adv-x="1214" d="M61 420v6q4 24 9.5 66t11.5 76.5t14 64.5q74 531 78 573q26 207 31 310q1 5 8 50t17 75t26 30q89 0 199 -20q7 0 12 -9v-38l-102 -781l-11 -88l4 -6h23q28 5 81 5t120 -2.5t92 -2.5l16 193l12 14q11 1 50.5 1.5t68 4.5t45.5 14h15q23 0 26 -26l11 -150q1 -13 22 -16 t131 -7q13 -1 20.5 -1.5t20 -1t23.5 -0.5q18 0 18 -25q0 -31 -3.5 -97.5t-2.5 -107.5q-4 -16 -19.5 -26.5t-31.5 -12.5q-19 -4 -75 -7t-85 -13v-94q0 -42 3 -153t3 -152l-229 -46q-9 -2 -11 -2q-20 0 -24 17q-7 69 0 401l-565 -39h-39q-13 9 -13 23z" />
<glyph unicode="5" horiz-adv-x="1095" d="M61 1571q13 26 17 26l723 33h2q17 -3 25.5 -5t18 -10.5t9.5 -21.5q0 -1 -1 -8t-1 -8q0 -46 -10 -191q-7 -24 -29 -24q-43 0 -141.5 7t-172.5 4t-141 -23q1 -51 -2.5 -132.5t-3.5 -119.5v-17q0 -31 3 -105.5t8 -74.5q52 0 89.5 -1t95 -5t100.5 -11t96 -21.5t91.5 -34 t78 -49.5t63.5 -67.5t39.5 -89.5t15.5 -114q0 -244 -209 -436q-27 -19 -60.5 -30.5t-169.5 -31t-378 -39.5l-37 232l13 12l233 12q72 5 137 40t82 98q8 27 8 108q0 40 -1 58t-6.5 45.5t-17 41.5t-33.5 28.5t-56 23.5q-18 6 -37 6l-328 -12z" />
<glyph unicode="6" horiz-adv-x="1169" d="M61 481q0 227 64 416q141 419 410 649q9 -1 47 -34t85.5 -74.5t67.5 -55.5q8 -4 8 -20q0 -1 -1 -6t-1 -6q-25 -27 -80.5 -78t-82.5 -80q-174 -185 -218 -358q123 88 306 88q198 0 320 -120.5t122 -316.5q0 -322 -164 -458q-73 -61 -175 -97t-202 -36q-124 0 -222.5 47 t-159.5 128t-92.5 186t-31.5 226zM354.5 399q4.5 -53 30.5 -103t72 -83q77 -53 131 -53q98 0 164.5 81.5t66.5 180.5q0 68 -9 114.5t-32.5 84.5t-68 56.5t-111.5 18.5q-59 0 -108 -26.5t-79.5 -68.5t-45.5 -95.5t-10.5 -106.5z" />
<glyph unicode="7" horiz-adv-x="1087" d="M61 1305v34q0 31 4 70.5t19 84t39 44.5h14q147 -6 234 -11.5t133.5 -9.5t169 -14t289.5 -22q6 0 18.5 -1.5t22.5 -3.5l10 -1l12 -13q-4 -27 -6 -37q-3 -14 -13 -52.5t-17 -72.5t-9 -59l-289 -1235q-11 -37 -35 -37q-40 0 -97 11.5t-83 13.5q-12 1 -25 0.5t-23.5 -1 t-19.5 5.5t-14 19q16 201 92.5 559t153.5 621q2 4 2 6q0 14 -33 19l-352 39q-13 4 -60.5 7.5t-87 11.5t-49.5 24z" />
<glyph unicode="8" horiz-adv-x="1140" d="M64 463.5q8 88.5 64.5 177t158.5 154.5q-56 64 -84.5 118.5t-28.5 122.5q0 107 34.5 208t95 180t151.5 127t196 48q114 0 209 -48t135 -148q25 -62 34.5 -161t-7.5 -163q-47 -128 -131 -237q89 -39 137.5 -146.5t50.5 -224.5q0 -114 -52 -240t-136 -174 q-126 -73 -371 -73q-104 0 -194.5 41.5t-150.5 108t-89.5 154t-21.5 176zM354 428q0 -37 24 -67.5t62 -48.5t78.5 -27.5t77.5 -10.5q96 0 137 55t41 158q0 82 -58 128.5t-136 46.5q-102 0 -164 -63.5t-62 -170.5zM487 1096q0 -49 14 -89.5t44 -95.5q1 -3 3 -5t6 -3t7 -1h7 l3 1q58 0 101 39t62.5 93.5t19.5 113.5q0 69 -31.5 99t-97.5 30q-70 0 -104 -52t-34 -130z" />
<glyph unicode="9" horiz-adv-x="1169" d="M61 954q0 127 33 233.5t98.5 187.5t170 126t239.5 45q124 0 222.5 -47t159.5 -128.5t92.5 -186.5t31.5 -226q0 -226 -64 -415q-32 -95 -83.5 -184.5t-119 -165.5t-155 -122.5t-178.5 -47.5q-2 0 -6 0.5t-5.5 0.5t-5 1t-5.5 1.5t-6.5 2.5t-8.5 4t-9.5 5.5t-12.5 8 t-15 10.5q-8 4 -8 21q0 1 1 6t1 6q25 27 81 78t83 80q172 183 217 358q-123 -88 -305 -88q-198 0 -320.5 120t-122.5 316zM350 1018q0 -68 9 -114.5t32.5 -85t68 -57t111.5 -18.5q90 0 152.5 55.5t78 134.5t3 157.5t-72.5 134t-150 55.5q-98 0 -165 -81.5t-67 -180.5z" />
<glyph unicode=":" horiz-adv-x="395" d="M61 88q0 59 50.5 99t109.5 40q42 0 77.5 -32.5t35.5 -73.5q0 -64 -48 -110t-110 -46q-23 0 -39 6q-25 21 -38.5 34.5t-25.5 36t-12 46.5zM61 1010q0 59 50.5 99t109.5 40q42 0 77.5 -33t35.5 -74q0 -64 -48 -109.5t-110 -45.5q-23 0 -39 6q-25 21 -38.5 34.5t-25.5 36 t-12 46.5z" />
<glyph unicode=";" horiz-adv-x="395" d="M61 170q0 25 14 60t34 49q3 3 10 5t12 5q7 4 14.5 10t11 8t11 4t18.5 2q72 0 107 -25t35 -93v-33q-1 -5 -10 -41.5t-17 -67.5t-12 -41q0 -1 -4 -11.5t-4 -12.5q-3 -4 -11 -38.5t-8 -39.5q-1 -3 -7.5 -24t-12.5 -40.5t-9 -25.5q-9 -33 -45 -33h-10q-3 1 -6.5 8.5t-3.5 9.5 q-8 95 -18 160q-5 24 -15 41l-65 105q-9 24 -9 59zM61 1010q0 59 50.5 99t109.5 40q42 0 77.5 -33t35.5 -74q0 -64 -48 -109.5t-110 -45.5q-23 0 -39 6q-25 21 -38.5 34.5t-25.5 36t-12 46.5z" />
<glyph unicode="?" horiz-adv-x="909" d="M61 1391q0 58 48 110t117 84t140 51t123 19q182 0 302 -142q36 -41 46.5 -89.5t10.5 -118.5q0 -117 -68 -199q-14 -14 -56.5 -54t-65 -63.5t-51.5 -61.5t-44 -73q-28 -66 -33 -190q0 -22 -3 -68.5t-3 -71.5q-5 -100 -51 -100q-25 0 -80 5t-80 5q-5 0 -8 4t-4.5 8t-2.5 10 t-1 7q0 14 -6 74q0 81 2.5 132.5t15 123t37.5 127.5q53 113 100 147q134 96 147 207q10 80 -45 126q-56 48 -135 19q-87 -31 -155 -145q-8 -17 -31 -17h-8l-133 89l-23 20l-1 10q-1 10 -1 15zM252 121q0 36 24 86q16 37 38 51.5t67 26.5q3 0 8 1t8 1q55 0 94 -41t39 -105 q0 -55 -42 -98t-97 -43q-56 0 -97.5 34.5t-41.5 86.5z" />
<glyph unicode="@" horiz-adv-x="1546" d="M60.5 574.5q0.5 124.5 32 253.5t89.5 242t146.5 206.5t195.5 146.5q180 64 350 64q137 0 270 -56t220 -155q100 -156 117.5 -343t-45.5 -366q-55 -164 -143 -255.5t-242 -116.5q-17 -8 -101 -13q-44 0 -70 11t-65 40q-6 4 -18 13t-17 13t-12.5 11.5t-12 17t-7.5 21.5 q-5 -2 -21 -8t-21.5 -8t-19.5 -7t-20.5 -7t-18.5 -5.5t-20 -5t-19.5 -3.5t-21.5 -2.5t-21 -0.5q-72 0 -131 43t-59 115q0 78 51 142.5t126.5 99t154.5 34.5h22l6 6q4 9 5.5 21t1.5 20t-0.5 22.5t-0.5 20.5v25q0 23 -1.5 37t-6.5 31.5t-17 26.5t-32 9q-31 0 -61 -18.5 t-51.5 -37.5t-32.5 -19q-20 0 -46 75.5t-26 96.5v12q61 68 108.5 98t131.5 49q10 3 14 3l14 -3q138 -25 193 -113t55 -239q0 -50 -4 -151t-4 -152v-151q9 -17 57 -17q112 0 162.5 50t73.5 161q22 107 22 225q0 263 -153 416l-19 12q-157 86 -276 86q-137 -1 -249 -58.5 t-183 -152.5t-109.5 -213.5t-38.5 -246.5q0 -112 31.5 -206.5t91.5 -166t156 -112t217 -40.5q96 0 217 41q6 1 45.5 18t50.5 17q9 0 15 -7t6 -17l-2 -7l-1 -3q-1 -3 -2.5 -10t-3 -17.5t-2.5 -29t-2 -42.5q0 -39 -183 -70.5t-263 -31.5q-144 0 -256 52t-178.5 138.5 t-102.5 201.5t-35.5 239.5zM553 446q0 -23 10 -28q2 0 13.5 -1t13.5 -1q36 0 76.5 13t40.5 40q0 15 -6.5 38t-18.5 23q-36 0 -82.5 -25t-46.5 -59z" />
<glyph unicode="A" horiz-adv-x="1058" d="M64 525v50q0 133 7 261q8 152 41.5 302t87.5 262.5t150.5 182.5t224.5 70q54 0 95.5 -11t71 -29t56.5 -51.5t45.5 -66t43.5 -86.5q34 -74 56 -194t30 -275.5t10 -248t2 -230.5v-27q0 -33 6 -216t6 -214l-266 -24q-17 104 -29 303.5t-14 226.5h-26l-347 -45l-7 -6 q0 -1 1 -10t1.5 -20.5t0.5 -16.5q8 -134 37 -316q0 -22 19 -98v-23q0 -15 -39.5 -27t-93 -17t-89 -7t-45.5 -2q2 2 2 6q0 13 -8.5 107.5t-18 212.5t-11.5 277zM336 754l336 24l-2 31q-34 308 -41 360v2q-4 25 -7.5 40.5t-13 38.5t-22.5 37t-36.5 24t-53.5 10 q-49 0 -81.5 -48t-46 -124.5t-19 -150t-8 -148.5t-5.5 -96z" />
<glyph unicode="B" horiz-adv-x="1069" d="M63 1116v51q0 331 17 510q4 13 75 19t115 6q68 0 139.5 -23t133 -64t100.5 -105.5t39 -139.5q0 -102 -37 -181t-115 -157q0 -1 7 -8q107 -44 169.5 -77t118 -82.5t89 -113.5t61.5 -161q29 -103 31 -189q0 -10 1 -19q0 -74 -18 -128q-20 -62 -61.5 -109.5t-93.5 -77 t-119.5 -48.5t-134 -26t-142.5 -7l-155 10q-17 2 -57 0h-20q-30 0 -62 4q-42 4 -46 16q-19 62 -30 539q-7 309 -7 453q0 78 2 108zM322 1306.5q0 -28.5 3 -68.5t9 -73q1 0 4 -1t4 -1q26 0 46 21t30 51.5t15 58t5 47.5q0 56 -12 76.5t-61 46.5q-6 4 -10 7.5t-5 4.5t-3.5 2 t-8.5 1q-14 0 -14 -6v-21q0 -22 -1 -69.5t-1 -76zM344 821l25 -649q1 -9 82 -13.5t122 -4.5q82 0 130.5 57.5t48.5 140.5q0 101 -17 170q-32 124 -129 220t-223 96q-1 0 -13 -1t-14 -1t-7 -5t-5 -10z" />
<glyph unicode="C" d="M62 898q0 6 -1 12q-1 130 33 256q34 132 98 237t173.5 173.5t250.5 76.5q17 1 32 1q228 0 261 -218q0 -1 1 -6.5t1 -6.5l-176 -45q-9 0 -18.5 12.5t-17.5 28t-25 30.5t-39 19q-65 0 -120 -44t-83 -109q-18 -43 -36 -117t-30 -168t-16 -193q-1 -26 -1 -52q1 -71 9 -141 q12 -94 40 -169t84.5 -120.5t135.5 -45.5q34 0 61.5 12.5t44 30t31 47.5t21 52t15.5 57q0 40 5.5 98t18.5 58q33 0 100.5 2t100.5 2h18q7 -2 11 -7.5t5 -14.5q2 -8 2 -14v-7.5v-8.5q0 -10 -1 -12q0 -62 -7 -114t-25 -105t-47 -94t-77 -76.5t-111 -58.5q-111 -39 -182 -39 q-156 0 -252 67.5t-176 218.5q-54 100 -82 229.5t-30 265.5z" />
<glyph unicode="D" horiz-adv-x="991" d="M61 -10q0 9 2.5 35.5t2.5 29.5q66 1367 75 1532v2q15 26 31 31q6 0 35.5 1t34.5 1q108 0 201 -30.5t162 -83t125 -125.5t92.5 -155t61.5 -174t35.5 -180.5t10.5 -177.5v-34q0 -195 -48.5 -330.5t-147 -215.5t-233.5 -115.5t-321 -35.5q-57 0 -86 2q-33 8 -33 23zM303 199 q82 1 144.5 28.5t99 71t59.5 107.5q22 63 30 127q7 60 8 132v9q0 78 -5.5 140t-12.5 132q-1 4 -1 6q-8 72 -37 153.5t-74 111.5q-97 63 -160 67v-12q0 -10 -1 -30t-1 -30q-15 -474 -49 -956v-57z" />
<glyph unicode="E" horiz-adv-x="923" d="M63 1389v24q-1 41 -1 70q0 73 4 73q65 18 163 23.5t222.5 5.5t187.5 4q27 0 27 -20q0 -14 -1.5 -49t-1.5 -77t3 -97q0 -7 -5.5 -14t-15.5 -7q-3 0 -22 -1t-23 -1q-41 0 -126.5 11.5t-131.5 11.5h-29q-10 -5 -10 -27l4 -352q0 -3 -1 -30t0 -41t5 -33.5t13 -28.5l243 4 q1 -23 10 -82.5t9 -89.5q-4 -27 -19 -31q-17 1 -77.5 1t-79.5 -1q-46 0 -70 -4l-8 -6q-3 -24 -3 -67q-1 -32 1 -75q4 -100 13 -203.5t11 -105.5l4 -24l406 22q2 0 17 1t16 1h12q53 0 53 -199v-24q-2 0 -4.5 -1t-3.5 -1l-12 -2q-12 -2 -15 -2l-150.5 -14t-168 -15.5 t-149.5 -10.5t-160 -5h-12q-8 -1 -13 -1q-2 1 -4 1q-4 0 -13.5 1.5t-14.5 5t-7 9.5q-4 10 -72 1473z" />
<glyph unicode="F" horiz-adv-x="788" d="M62 1584v7v5q0 6 1 14t2.5 14t4 11.5t7.5 8.5t11 3h2q5 0 27 -11q392 13 577 33q27 1 31 -27q1 -9 1 -26q0 -33 -5 -97q-4 -59 -6 -96l-4 -14l-105 -6q-45 0 -134 5t-134 5h-31l-6 -10l18 -469l7 -29h51q33 0 100 6.5t98 6.5q14 0 27 -17q10 -71 10 -172l-2 -16l-14 -17 q-1 -2 -31 -5t-92.5 -5t-136.5 -2q-27 0 -29 -12v-35q0 -97 12.5 -290t12.5 -290v-18l-13 -10q-22 -2 -101.5 -15.5t-119.5 -13.5q-22 0 -22 23v10q0 464 -13 1542q-1 2 -1 9z" />
<glyph unicode="G" horiz-adv-x="1222" d="M63 684v41q0 109 14 210.5t43 201.5t79.5 182t118.5 145t164.5 98t213.5 35q158 0 258.5 -71.5t167.5 -225.5q12 -7 14.5 -25.5t-14.5 -19.5l-168 -65q-18 0 -51 30.5t-66 66.5t-81.5 66.5t-93.5 30.5q-80 0 -146.5 -41.5t-109 -109.5t-68.5 -143t-37 -154 q-12 -60 -17 -136q-2 -37 -2 -77.5t2 -82.5q5 -85 26.5 -165t55.5 -145t93.5 -104.5t136.5 -39.5q94 0 174 56t107 145q43 134 43 264v27q-94 13 -163 13q-20 0 -38 -1l-6 6v29q0 6 -1.5 32.5t-0.5 43.5t4 39t13 33.5t26 11.5q8 0 46.5 0.5t61 0t66.5 -3t97.5 -8.5 t119.5 -16q9 -3 16 -10v-80q0 -152 -49 -397q-16 -89 -59.5 -178.5t-106.5 -149.5q-76 -74 -182 -97.5t-244 -23.5q-111 0 -205 66q-52 37 -91.5 80.5t-66 84.5t-45 95.5t-28 97t-14.5 108t-6 110.5t-1 120z" />
<glyph unicode="H" horiz-adv-x="1095" d="M68 94l10 1479q5 35 22 41q27 4 37 6q16 2 78 10t100.5 11.5t75.5 3.5q21 0 21 -29q0 -129 -18.5 -392t-18.5 -393q0 -3 2 -10t2 -8h35q66 -1 162 -3q124 -4 178 -3h32q17 3 17 16q0 15 -1 96.5t-1 239t2 406.5q2 20 4.5 29t12 16.5t28.5 9.5h12q11 1 28.5 2t37 2t39 1.5 t32.5 0.5q30 0 37 -18v-21q0 -27 -5 -81t-5 -81q2 -173 2 -253q0 -66 -2 -66q-2 -2 -8.5 -181t-9.5 -575q0 -47 6 -142t6 -142q0 -2 0.5 -6t0.5 -6t-1.5 -4.5t-5.5 -4.5q-8 -5 -81 -15t-93 -10q-27 0 -29 21v35q0 86 -12.5 274.5t-14.5 237.5l-448 14q0 -31 -1 -96t-1 -98 v-9q1 -17 4.5 -63.5t5 -65.5t5.5 -58t7.5 -63.5t10 -57.5t14.5 -64q2 -9 2 -11q0 -36 -174 -36q-56 0 -129 4q-4 4 -6 27t-2.5 50.5t-1.5 32.5z" />
<glyph unicode="I" horiz-adv-x="696" d="M63 233v11q0 30 43 30q42 7 78 7l4 6v100q0 123 4 274.5t7.5 235t13.5 286.5t12 247h-139q-12 0 -17.5 16.5t-5.5 28.5v139q0 28 60 28q47 7 234.5 9.5t199.5 3.5h29q49 0 49 -27v-8q-7 -120 -12 -139q0 -10 -6 -26.5t-15 -16.5h-127l-6 -8q-1 0 -3.5 -27t-2.5 -41 l-21 -1065q2 -9 21.5 -11t42 -1.5t42 -8.5t21.5 -30v-53q0 -5 1.5 -22.5t0.5 -28.5t-3.5 -25t-12 -21.5t-25.5 -7.5q-63 0 -432 -10q-35 0 -35 155z" />
<glyph unicode="J" horiz-adv-x="1247" d="M61 1405q0 25 15 123q5 27 15 44.5t19 26.5t30 13t33.5 4t43.5 -1t47 -1l887 -49q14 -3 24.5 -13t10.5 -24l-21 -154q-2 -16 -15.5 -25t-27 -10.5t-34.5 -2t-27 -1.5q-8 -23 -8 -100q0 -44 1 -144t1 -150.5t-3 -142.5t-9.5 -149t-19 -140t-31.5 -145.5t-48 -134 t-67 -135.5q-46 -66 -141 -103.5t-200 -39.5h-11q-101 0 -201 35q-106 36 -170 108q-40 47 -59 93.5t-22 80.5t-3 105v78q0 2 5 52.5t7 59.5q0 13 23.5 18t41.5 5h218v-299q2 -106 74 -130q19 -7 39 -7q50 0 108 42q97 68 137 198q16 52 20 108q21 326 21 749v68 q0 17 -12 20q-8 1 -54 6t-74 8t-89.5 8t-118.5 7.5t-142.5 5.5t-177.5 4h-6q-12 0 -20.5 10t-8.5 21z" />
<glyph unicode="K" horiz-adv-x="987" d="M61 29q0 7 3.5 163t5.5 426v225q0 271 -2 724v49q7 22 25 35.5t45 16.5q26 4 48 4q4 0 9 1q19 0 43 -2q30 -2 41 -2q71 0 75 -2l4 -6q2 -12 2 -16q0 -25 -1 -50t-5.5 -81t-9 -115t-15.5 -194t-22 -275q1 -1 2 -2.5t2 -2.5t2 -1q19 14 35 51q35 51 122.5 172t148 210.5 t112.5 178.5q3 6 21 6q19 0 96.5 -66t77.5 -79q0 -15 -13.5 -36t-37.5 -49t-29 -34l-12 -16q-27 -38 -383 -488q-1 -1 -17 -33l-2 -6l459 -532l-137 -211l-11 -6q-5 0 -39 37t-150 153.5t-273 261.5q-1 -34 7 -223q4 -113 5 -194q0 -54 -2 -93l-12 -12q-22 -2 -89 -12 t-100 -10q-17 0 -21.5 4.5t-7.5 23.5v107z" />
<glyph unicode="L" horiz-adv-x="776" d="M61 1593q0 44 7 93q10 38 186 38q76 0 76 -45q0 -13 -1 -48.5t-4 -130t-7 -218.5t-11 -368t-16 -523q0 -10 20 -10q50 0 168 6q88 4 147 5q20 0 36 -1q6 6 20 6q16 0 20 -16q13 -143 13 -182q0 -5 -1 -18l-1 -13l-11 -10q-59 -18 -159.5 -34t-423.5 -58h-13 q-13 0 -18.5 9t-9.5 27v4q-6 79 -6 396q0 119 1 272q1 93 1 178q0 425 -13 641z" />
<glyph unicode="M" horiz-adv-x="1636" d="M61 6v164q0 171 12.5 513t12.5 513q0 53 -3 158.5t-3 158.5q0 29 16 31l148 12q31 0 59 -12q51 -48 70 -82l258 -469q2 -3 17.5 -26t28 -41t28.5 -39.5t29 -34t20 -12.5q73 117 134 238.5t94 204.5t59.5 151.5t46.5 101.5t40 33l265 -13q35 -5 37 -24l145 -1532 q-25 -17 -108.5 -26t-155.5 -9q-14 0 -19.5 3t-9.5 16q-38 503 -60 766t-28.5 314.5t-11.5 51.5q-10 -10 -21 -34.5t-23.5 -60.5t-13.5 -40l-229 -465q-4 -5 -7 -12.5t-7 -13t-11 -9.5l-217 -28h-8q-11 0 -22 7.5t-17 14.5t-16.5 21t-11.5 16q-7 10 -51.5 69t-81.5 108.5 t-78.5 111t-58.5 98.5v-82l52 -835q0 -50 -34 -52l-176 -12q-16 -6 -52 -6h-18l-12 12q-2 2 -4.5 33.5t-2.5 48.5z" />
<glyph unicode="N" horiz-adv-x="1222" d="M61 1546v80q4 13 13 19l258 -7q7 -5 15.5 -21t36.5 -77q167 -368 452 -946q24 148 24 831q0 31 -4 92.5t-4 90.5q0 3 1 18.5t1 18.5q3 9 10 16q44 8 135 8.5t136 9.5q18 -7 24 -30q0 -17 1 -116.5t1 -102.5q-3 0 -13 -171t-20 -492t-10 -632v-88q-4 -16 -18 -16h-21 q-39 -1 -99 -3q-78 -4 -112 -3h-20q-12 8 -17 19.5t-7.5 29.5t-4.5 26l-18 29q-99 173 -279 571q-26 57 -54 113t-44 85t-45.5 81t-36.5 65q-4 6 -4 0q0 -19 2 -69q2 -36 2 -59v-17l59 -885q0 -12 -6 -20q-177 -19 -252 -23h-12q-29 0 -29 70z" />
<glyph unicode="O" horiz-adv-x="1161" d="M61 743v64q0 65 7 133t23.5 142t41.5 141t64 128t86.5 105.5t113.5 71t142 26.5q81 0 154.5 -33t128.5 -89.5t101.5 -131t78.5 -156.5t54 -167.5t32 -163t10 -143.5v-15q0 -78 -17.5 -174t-50.5 -194.5t-90.5 -178t-128.5 -108.5q-111 -45 -209 -45q-65 0 -124 20 q-148 49 -248 180t-140 316q-6 43 -17.5 144t-11.5 128zM322 764q3 -14 12.5 -61.5t15.5 -76t19.5 -78t27 -81.5t35.5 -70.5t46 -61t58.5 -38.5t73.5 -16q43 0 77.5 34t55 83.5t34.5 110.5t19 110t5 86q0 58 -13 143t-37.5 177.5t-69 157t-99.5 64.5q-53 0 -94.5 -17.5 t-68.5 -44t-46 -70t-28.5 -81t-15 -92.5t-6.5 -90.5t-1 -87.5z" />
<glyph unicode="P" horiz-adv-x="923" d="M64 354v56q0 62 1 148q1 129 6.5 367t14.5 552q0 11 4.5 48.5t7.5 47.5q0 41 217 41q68 0 117.5 -2t110 -10.5t103.5 -22.5t86.5 -40.5t70 -62.5t43 -90t16.5 -122q0 -193 -61 -367q-56 -167 -399 -167q-21 0 -44 1l-6 -6q-1 0 -3.5 -66t-5 -175.5t-3.5 -209.5 q0 -34 6 -98.5t6 -97.5q0 -26 -18 -38.5t-45 -12.5q-29 -1 -97 3q-53 3 -88 3h-18l-6 6q-9 9 -12 147q0 9 -2 51.5t-2 116.5zM387 1335v-301q0 -2 2.5 -4t3.5 -2h33q87 0 119.5 38.5t32.5 129.5q0 101 -37 132.5t-142 31.5q-5 0 -7.5 -1t-3.5 -5q-2 -3 -2 -5v-3z" />
<glyph unicode="Q" horiz-adv-x="1425" d="M61 719q0 100 15.5 198t46.5 195.5t83 180t120 146.5t163 100t207 36q59 0 119 -12t127 -41t126.5 -74t114.5 -116.5t94.5 -161.5t63 -215.5t23.5 -272.5v-20q-1 -104 -34.5 -198.5t-79 -157.5t-102 -115.5t-95 -77.5t-66.5 -37q-14 -6 -17 -18.5t4.5 -32.5t16.5 -36.5 t23.5 -42t21.5 -38.5q6 -12 6 -17q0 -13 -16 -23.5t-45 -18t-57.5 -13.5t-67.5 -13.5t-61 -12.5q-30 7 -35 57l-12 158h-15q-182 0 -306 35t-207.5 117t-121 214t-37.5 328zM332 776q0 -69 1 -105.5t6.5 -100.5t17 -100t34.5 -82.5t56 -70.5t83.5 -41.5t116.5 -17.5 q97 0 199 41q74 28 122.5 70.5t72 101t32 117t8.5 141.5q0 114 -36 254t-101 217q-47 53 -94.5 76.5t-126.5 34.5q-1 0 -7.5 0.5t-15.5 1t-14 0.5q-170 0 -241 -84q-57 -67 -86 -234q-9 -51 -24 -173q-2 -12 -3 -19v-27z" />
<glyph unicode="R" horiz-adv-x="1062" d="M70 43v6q0 338 30 1528q0 3 10 13t13 12q23 8 199 11q105 2 170 2q43 0 69 -1q186 -5 303 -116.5t117 -287.5q0 -67 -31.5 -120t-84 -85t-115.5 -49t-132 -18q0 -1 -1 -7t-1 -7l359 -731q4 -7 10 -15.5t8.5 -13.5t5 -12t2.5 -15q0 -12 -7.5 -19t-15 -9t-22.5 -5l-174 -75 q-14 0 -28 14l-414 737l-6 -6q0 -2 -2 -14.5t-2 -14.5v-706q0 -15 -8 -21q-52 -12 -191 -12h-43q-18 8 -18 37zM358 1065q2 0 13 -2t14 -2q32 0 53 1t56 4t58 11.5t47 21.5t36 35.5t12 51.5v26q0 112 -52 148.5t-189 36.5h-15q-22 -8 -27.5 -71.5t-5.5 -209.5v-51z" />
<glyph unicode="S" horiz-adv-x="1040" d="M61 184q0 28 59 106.5t99 121.5q1 0 5 1t5 1q20 0 41.5 -22.5t42 -54t45.5 -63.5t62.5 -54.5t81.5 -22.5q81 0 128.5 39t47.5 118q0 65 -19.5 122.5t-49 98.5t-75 84.5t-86 73t-95 71.5t-89.5 73q-86 55 -128 137q-36 71 -37 146q0 11 1 22q6 86 54 166 q50 85 154.5 134.5t209.5 49.5q38 0 109.5 -11t146 -40t74.5 -68l-60 -254q-9 -26 -26 -26q-40 0 -126 35.5t-132 35.5q-37 0 -59.5 -19t-22.5 -57q0 -26 30.5 -60t80 -71.5t109 -81.5t118.5 -98.5t108.5 -114t80 -136t30.5 -156.5q0 -107 -46.5 -201t-122.5 -157.5 t-174 -100.5t-200 -37q-188 0 -315 158q-3 4 -15 19.5t-17.5 23t-13 20.5t-11 25t-3.5 24z" />
<glyph unicode="T" horiz-adv-x="888" d="M61 1544q3 4 19 15q17 6 73 9t101.5 6.5t48.5 12.5q-1 13 -7 44t-5.5 55t12.5 43l176 18q1 0 9 1t10 1q51 0 50 -101q0 -27 -3 -61v-4l6 -6q1 0 24.5 -1t30.5 -1q31 0 89 8t87 8q28 0 37 -26l8 -242v-12q0 -22 -12.5 -38t-34.5 -16h-196l-6 -8q-5 -11 -5 -81 q0 -171 31 -697l21 -344q0 -12 -8 -26t-19 -15h-25q-39 0 -111 -4t-110 -4q-2 0 -14 1t-14 1q-5 5 -8 25t-8.5 129.5t-12 296t-19.5 569.5q1 16 1 33q0 53 -7 124l-200 -12z" />
<glyph unicode="U" horiz-adv-x="1087" d="M61 1464l1 13l1 -4q12 47 76 47q35 0 102 13t105 13q10 0 17.5 -12.5t7.5 -22.5q0 -21 -2.5 -210.5t-2.5 -340t6.5 -333t22.5 -273.5q12 -39 58 -60.5t92 -21.5q26 0 47 8.5t35.5 19.5t26 33t17.5 37t11.5 45t7.5 44t6 45l66 966q0 17 24 28.5t61.5 16t62.5 6t48 1.5 q37 0 46 -25t18 -151l-2 -418q-10 -323 -64 -649q-33 -125 -132 -220.5t-220 -95.5q-16 0 -61 -1h-38.5h-26.5l-60 3t-64 8.5t-55.5 17.5t-57 29t-48.5 43q-97 107 -113 336q0 302 -6.5 648.5t-10.5 422.5q-2 -2 -2 -6z" />
<glyph unicode="V" horiz-adv-x="1214" d="M61 1554q0 22 140 40t178 18q37 0 55 -64l4 -20q26 -126 85 -424.5t93 -456.5q7 7 7 12l190 807q1 7 3 37t4.5 49.5t14.5 38.5t33 21q17 -6 85 -7.5t127 -9.5t73 -30l-2 -11l-416 -1398q-5 -14 -8 -19.5t-10 -10.5t-19 -7l-151 -15h-15q-19 0 -36 15l-7 12l-327 1102 l-49 145q-4 12 -18.5 51t-24 71t-9.5 54z" />
<glyph unicode="W" horiz-adv-x="1648" d="M61 1454l13 12q22 3 69 12.5t81.5 14t68.5 4.5q4 0 28.5 -1t28.5 -1q11 -3 19.5 -13t9.5 -22q16 -84 44.5 -332t51 -449.5t25.5 -201.5q2 0 2 10q22 61 40.5 128.5t39.5 156t32 131.5q2 15 23 23q86 12 169 12q58 0 114 -6q2 0 6 -4t4 -6l24 -54q58 -164 136 -424 q4 -8 6 -10l4 6q3 0 15 42t60 281t119 640l19 104q0 2 -1 10t-1 13t3 10.5t9 7.5h20q39 0 114 -20.5t114 -20.5q16 -10 16 -34q-10 -41 -25.5 -125.5t-25.5 -126.5q-118 -503 -248 -1174q-6 -24 -22 -31q-44 0 -135.5 -14t-135.5 -14l-12 12l-35 111q-8 26 -27 81 t-46.5 128.5t-53 126t-37.5 51.5l-147 -498q-3 -11 -14.5 -17.5t-22.5 -8t-28.5 -3t-22.5 -2.5q-8 0 -79.5 -5t-78.5 -5q-2 0 -15.5 -3t-15.5 -3q-15 0 -22 29l-270 1431q0 2 -1.5 9t-3 17.5t-2.5 14.5z" />
<glyph unicode="X" horiz-adv-x="1425" d="M61 1331q5 8 7 10q0 1 37 59t67 92t51 34q3 0 9 -3t6 -5l20 -17q41 -35 74 -66t118 -122.5t224 -249.5h12l293 455q4 14 29 14q16 0 38 -13t74 -46.5t113 -65.5v-12q0 -19 -6 -27q-70 -79 -220 -265.5t-163 -225.5l401 -461q5 -4 28 -26t27 -25q2 -3 12 -13.5t17.5 -19 t16 -19.5t13.5 -20.5t5 -16.5q0 -1 -1 -8t-1 -8q-12 -5 -90.5 -79.5t-112.5 -90.5q-13 0 -22 14l-211 254q-1 1 -30 39t-56.5 71t-62 73t-62 64t-41.5 24q-1 0 -4 -2.5l-6 -5t-5 -3.5q-100 -159 -195.5 -323.5t-131 -222.5t-49.5 -58h-13q-99 99 -196 136v12q0 8 41 62.5 t61 80.5q86 108 189.5 257t144.5 249q0 10 -14 27l-428 479q-7 7 -7 14z" />
<glyph unicode="Y" horiz-adv-x="1275" d="M63 1499q0 17 7 21q29 9 127.5 33.5t148.5 45.5q18 -6 33 -26q62 -194 209 -567q3 -6 14 -39q4 -2 8 0q6 6 6 8q39 46 316 584q7 14 31 14q47 0 149 -24.5t102 -53.5v-10l-473 -823v-723q0 -13 -17.5 -18t-31.5 -5q-20 0 -93 4q-49 3 -83 3q-17 0 -31 -1l-14 760 l-375 723q-3 8 -12.5 27t-15 35.5t-5.5 31.5z" />
<glyph unicode="Z" horiz-adv-x="1318" d="M63 1458q-1 6 -1 11q0 14 8 22l899 45q1 0 17 -0.5t24 -1.5t24.5 -3t26.5 -6t22 -9.5t18.5 -14.5t8.5 -20q1 -4 -14 -53.5t-21 -61.5l-442 -1077q0 -4 -2 -6q581 -20 600 -35l26 -225l-1028 -21q-11 2 -23.5 13.5t-15.5 23.5q-2 7 -2 11q0 18 34 90q38 80 170.5 388 t297.5 727l-500 -26h-12q-20 0 -28 16q-9 33 -45 107t-42 106z" />
<glyph unicode="_" horiz-adv-x="1318" d="M61 96q0 29 62 29l1096 -6q38 -8 38 -15v-120q0 -4 -4.5 -7t-10.5 -5l-5 -3h-61l-1072 4q-7 3 -25 56.5t-18 66.5z" />
<glyph unicode="a" horiz-adv-x="946" d="M61 283q0 86 47.5 163t122 130t163.5 86t175 38q4 43 6 68q0 56 -8 99t-27.5 82t-58 60t-94.5 21q-14 0 -26.5 -1t-21 -2.5t-15 -3t-10.5 -2.5l-3 -1q-7 0 -13.5 7.5t-8.5 14.5v24q1 32 -1 80q-2 66 -3 93q0 19 7 27t27 16q73 22 136 22q38 0 73 -8q92 -22 159 -87 t111 -172t65.5 -242t21.5 -297q0 -33 -10 -237t-13 -245q1 -12 -46.5 -18t-105 -10t-69.5 -8q-11 0 -18.5 17t-9 30.5t-1.5 19.5q-136 -84 -280 -92h-8q-82 0 -143.5 50.5t-90.5 124t-29 153.5zM291 319q0 -21 1 -35.5t3.5 -34.5t9 -33.5t16 -26t26 -19t38.5 -6.5 q59 0 113.5 31.5t66.5 76.5v23q0 6 -2 34.5t-6.5 83.5t-7.5 99q0 2 -6 2q-25 0 -83 -23t-113.5 -67t-55.5 -88v-17z" />
<glyph unicode="b" horiz-adv-x="1069" d="M61 47l56 1466q0 10 -0.5 34.5t-0.5 38t1.5 33.5t5.5 36q6 12 12 12q37 1 114 -3q60 -3 106 -3h26q10 -10 10 -27l-65 -604l-1 -14q-1 -14 -1 -17t1 -12t1 -10l6 -6q61 102 319 102q80 0 156 -35q81 -37 122.5 -88t61.5 -139q15 -71 16 -145v-9q1 -69 -13 -135 q-14 -70 -42 -135.5t-72.5 -120.5t-101 -95.5t-131.5 -63.5t-160 -23q-40 3 -83.5 21.5t-71.5 35.5t-31 17q-7 -27 -7 -66q0 -16 1 -33q-19 -24 -37 -24h-190zM326 475q0 -68 44.5 -92.5t121.5 -24.5q74 0 118 7.5t77.5 30t47 64.5t13.5 111q0 50 -7 89.5t-24.5 76 t-53.5 56.5t-88 20q-66 0 -111.5 -15.5t-72.5 -41t-41.5 -71t-19 -92.5t-4.5 -118z" />
<glyph unicode="c" horiz-adv-x="985" d="M61 524v11q0 102 37 201t101.5 175t151.5 130.5t187 68.5q35 5 71 5q67 0 136 -17q23 0 23 -45v-23q0 -10 -8 -158q-27 -7 -80 -14t-92.5 -13t-88 -24.5t-79.5 -46t-52.5 -81t-21.5 -126.5q0 -100 58 -155.5t159 -55.5q46 0 139.5 10.5t139.5 10.5q7 0 25 -34t33 -77 q15 -42 21 -82q1 -10 1 -18q0 -24 -13 -33q-27 -17 -75.5 -31t-112.5 -24q-51 -8 -107 -8h-28q-72 2 -144 14.5t-138.5 46t-118.5 83t-85.5 129.5t-38.5 181z" />
<glyph unicode="d" horiz-adv-x="1101" d="M61 477q0 124 36.5 222t99 162.5t151 107t187 60.5t213.5 18q18 0 20 8q2 41 2 97q0 62 -2 141q-6 152 -6 198v92q4 13 12 21q58 14 182 14q7 0 28 -1t28 -1q7 -6 12.5 -14.5t8 -14.5t4 -18.5t1.5 -17v-20v-18.5v-1396q0 -9 -5.5 -18t-14.5 -9l-105 -14h-18 q-10 0 -17.5 4.5t-12 13.5t-7 18t-3.5 22t-1.5 20.5t0 19.5t0.5 14t-2.5 4.5t-3.5 2.5l-14 -7q-78 -52 -152 -75t-166 -23q-101 0 -179.5 18.5t-142.5 61.5t-98.5 120.5t-34.5 186.5zM309 535q0 -34 2 -52q7 -63 79.5 -105t137.5 -42q118 0 201 90l6 8v9q0 50 -26 354 q-400 0 -400 -262z" />
<glyph unicode="e" horiz-adv-x="1007" d="M61 514q0 47 14 115t40 149.5t70 161t98.5 145t130 106t159.5 40.5q159 0 241 -71.5t114 -239.5q18 -95 18 -156v-29q0 -21 -0.5 -33.5t-4 -30.5t-10.5 -29t-20 -21t-32 -15h-13q-24 0 -242 -19q-159 -14 -227 -14q-25 0 -39 2q-30 0 -30 -73l-6 -195q0 -6 12 -24 q50 -62 164 -62q32 0 97 6t97 6q31 0 51.5 -13.5t29 -39.5t11 -49.5t2.5 -58.5q0 -8 -8.5 -19t-15.5 -14q-63 -36 -125 -46.5t-156 -10.5h-18q-79 0 -141 15t-104 38.5t-71.5 64t-46 80.5t-25.5 100.5t-11.5 110.5t-2.5 123zM387 768q4 -11 8 -12l250 16q29 0 37 19 q6 36 6 86q0 60 -20.5 88t-77.5 28q-67 0 -135 -79t-68 -146z" />
<glyph unicode="f" horiz-adv-x="757" d="M62 425q1 243 10 642q0 4 1 12.5t1 12.5q1 11 2 37t1.5 36.5t2.5 32t4 36t6 35.5t10 42l13 30q59 101 128.5 152t176.5 51h35q243 0 243 -80v-172q0 -6 -6 -11t-12 -7q-36 -9 -69 -9q-16 0 -31 2q-35 5 -74 5h-30q-56 -3 -91 -29q-34 -24 -43 -90q-18 -155 -18 -262v-8 q23 -6 49 -6q16 0 44 6t42 6q10 0 17 -10.5t7 -20.5v-166q0 -14 -29.5 -20t-71.5 -7.5t-46 -2.5q-6 -2 -6 -17q0 -26 2 -201q1 -101 1 -187q0 -65 -1 -122q-1 -133 -8 -221q-4 -11 -13.5 -21t-21.5 -10q-9 0 -68 -5q-36 -4 -65 -4q-18 0 -34 2q-39 3 -50 20v22q0 20 -4 142 q-4 108 -4 312v53z" />
<glyph unicode="g" horiz-adv-x="1060" d="M61 651v13q0 144 87 262t232 183t316 65q41 0 99 -7q47 -5 71.5 -9.5t55 -16t44 -29.5t23.5 -49.5t10 -77.5v-33l-90 -925q-4 -26 -8 -67.5t-7.5 -66t-10 -58.5t-17.5 -57t-28.5 -48.5t-44 -45.5t-62.5 -36q-56 -25 -92 -25l-397 -6q-31 9 -50 24t-28 37.5t-11.5 44.5 t-2.5 56v59q4 32 31.5 47t69.5 15t82.5 -5.5t85.5 -12.5t64 -7q86 0 120.5 40t47.5 130q1 7 3 35t10 104.5t22 190.5q-24 0 -76 -6t-73 -7h-19q-67 0 -103.5 1t-92 8.5t-101.5 21.5q-135 52 -160 258zM373 739q0 -38 26.5 -68t67.5 -46t81.5 -23.5t76.5 -7.5q2 0 12.5 1 t11.5 1l43 344q-62 0 -108 -4.5t-87.5 -17.5t-67.5 -35.5t-41 -58.5t-15 -85z" />
<glyph unicode="h" horiz-adv-x="958" d="M63 6v17q4 87 17.5 345.5t19 386t11.5 332t6 373.5q-6 30 -6 92v7q0 73 18 98q1 0 4.5 3t5.5 3q45 0 131 -10.5t123 -12.5v-47q-37 -320 -37 -798q200 87 385 87q18 0 35 -1q92 -15 121 -127l-12 -703q-2 -8 -10.5 -18t-16.5 -10h-16q-34 0 -86 -3q-64 -4 -94 -4h-37 q-13 9 -13 25q8 11 10 32.5t1 62.5q-1 40 -2 92v33q-1 43 1 107q2 88 11 187q0 16 -9 25.5t-28 13t-28.5 4t-30.5 0.5q-102 0 -156 -31q-5 -2 -8 -7.5t-4.5 -12.5t-1.5 -8q-3 -55 -18 -214.5t-15 -248.5v-47q-3 -23 -25 -29q-38 0 -112 -9t-111 -9h-16q-7 7 -7 24z" />
<glyph unicode="i" horiz-adv-x="483" d="M61 102v41q0 109 14 298.5t31 373.5t19 227q0 19 25 19q20 -1 68 1q29 1 54 1h32q36 -1 73 -6q14 -8 14 -31q0 -95 -11 -298q-12 -204 -16 -332q-1 -37 -1 -78q0 -100 8 -224q0 -45 -113 -45h-33q-149 0 -164 53zM111 1374q0 65 40 121.5t103 56.5q67 0 117.5 -51 t50.5 -119q0 -61 -44.5 -108t-107.5 -47q-70 0 -114.5 38t-44.5 109z" />
<glyph unicode="j" horiz-adv-x="526" d="M-145 -172q0 21 8 29q71 41 117 76t83 85q20 62 36 131.5t26.5 122t17.5 139t11 125.5t6 141.5t2 127.5q1 13 1 48.5t-1 94.5v133v45q2 0 4.5 2t3.5 2q14 7 32 11t32.5 6.5t42.5 3.5t45 1t58.5 -0.5t65.5 -0.5q19 -11 19 -33q0 -190 -1 -233q-18 -618 -151 -955 q-127 -321 -346 -321q-11 0 -31 41t-43.5 93.5t-37.5 68.5v16zM100 1436q0 67 48.5 129.5t111.5 62.5q56 0 106 -46t50 -101q0 -82 -51 -128t-136 -46q-38 0 -83.5 47.5t-45.5 81.5z" />
<glyph unicode="k" horiz-adv-x="892" d="M61 -63l7 1665q0 34 6 40l12 7l182 18q4 0 13.5 -0.5t17 -1t8.5 -0.5l10 -4q0 -1 1 -10t1 -13q0 -3 -1 -16.5t-1 -15.5q-22 -416 -22 -682v-29l6 -117l6 -8q10 23 42.5 75.5t84 131t58.5 90.5q57 103 102 107q15 -8 53 -27t65 -32t54 -23q12 -5 15 -12t3 -21 q0 -28 -15.5 -58t-44.5 -67.5t-36 -48.5q-8 -13 -48.5 -77t-45.5 -73q-17 -25 -66 -110q-12 -24 -12 -25q12 -16 55 -76.5t70 -89.5q120 -137 184 -237q6 -8 6 -23q0 -3 -37 -49.5t-81 -93.5t-58 -47q-13 0 -26 18l-262 320q-22 38 -43 38q0 -56 6 -168.5t6 -171.5 q0 -18 -1 -28.5t-4 -27t-12.5 -25t-23.5 -9.5q-9 -2 -40.5 -4.5t-67 -4.5t-42.5 -3h-65q-19 5 -19 19z" />
<glyph unicode="l" horiz-adv-x="438" d="M61 881q0 82 4 272q3 152 3 248v45q0 1 3 22t9 35.5t16 20.5h31q21 0 63 -3t64 -3q17 0 50 5t48 5q25 0 25 -60q0 -17 -1.5 -192t-5 -324t-18 -429.5t-39.5 -575.5q-2 -17 -14 -34t-29 -17h-168q-4 0 -10 8t-6 12q-2 5 -18 84q-7 103 -7 881z" />
<glyph unicode="m" horiz-adv-x="1411" d="M64 436q4 332 30 545q5 38 32.5 64.5t68 38t73.5 16t66 4.5q201 0 301 -219l12 24l8 9q75 95 160 140.5t211 45.5q77 0 145 -49q66 -47 92 -99.5t44 -140.5q43 -226 43 -612q0 -12 -1 -31.5t-2 -38.5t-2.5 -36t-2.5 -29l-1 -11q-39 0 -103.5 -11t-86.5 -11 q-17 0 -32.5 8.5t-16.5 24.5q0 6 -1 20t-1 21q0 31 2.5 83t4.5 98q2 48 3 106v32q0 40 -2 76q-2 50 -8 101.5t-19.5 91.5t-33.5 72.5t-51.5 49.5t-71.5 17q-36 0 -86 -35q-37 -26 -44 -116q-5 -70 -5 -263v-121q2 -161 2 -260q0 -10 -27 -10h-10q-5 0 -53.5 5t-53.5 5 q-12 1 -29 1t-23.5 0.5t-15 4.5t-11 12.5t-3.5 24.5l-2 33q0 10 -2 53.5t-3.5 64t-4 65.5t-6 80.5t-8 85t-11 103t-14.5 111.5q-4 28 -8.5 48.5t-12.5 32.5t-14 19t-18.5 9.5t-20 3t-25.5 -0.5t-28 -1q-30 0 -45.5 -34.5t-15.5 -66.5q-1 -63 -2.5 -272t-6.5 -393h-24 q-156 0 -215 10q-15 55 -15 283q0 54 1 118z" />
<glyph unicode="n" horiz-adv-x="1052" d="M61 1141v35q9 20 65 29q46 7 90 7h20q54 -2 59 -8q28 -26 36 -40t11 -46l6 -2q124 80 324 80h16q254 0 287 -319q7 -65 12 -158q4 -72 4 -179q-1 -32 -1 -68q-2 -154 -13 -302q-3 -20 -14.5 -25.5t-32.5 -5.5q-24 0 -70.5 6t-66.5 7q-19 1 -28.5 3t-19.5 11.5t-10 26.5 q0 21 9.5 145t9.5 268q0 74 -2.5 117t-12 84.5t-25.5 62t-47 37.5t-73 22t-105 5q-106 0 -116 -135q-27 -285 -27 -491q0 -59 2 -111q-29 -7 -77.5 -21.5t-84.5 -22.5t-69 -8q-8 0 -12.5 9.5t-4.5 15.5v20q0 68 -19.5 438.5t-19.5 512.5z" />
<glyph unicode="o" d="M61 551q0 141 79 276.5t204 190.5q104 46 208 54q21 2 42 2q81 0 152 -26q89 -32 158.5 -92t109 -156.5t39.5 -213.5q0 -138 -39 -246q-28 -79 -118 -150.5t-197.5 -111t-198.5 -39.5q-129 0 -248 80q-62 43 -100.5 87.5t-58 99t-26 109t-6.5 136.5zM332 543q0 -33 6 -68 q13 -92 70.5 -144t142.5 -52q42 0 94 30q156 91 156 312q0 129 -93 185q-50 30 -108 30q-35 0 -72 -11q-105 -31 -159 -127q-37 -68 -37 -155z" />
<glyph unicode="p" horiz-adv-x="1120" d="M61 -274q0 51 3.5 152.5t3.5 152.5q0 172 -1 516t-1 516q0 100 14 170q4 12 18 12q155 0 215 -6q7 -6 12.5 -14.5t8.5 -15.5t5 -19.5t2.5 -18.5t1.5 -19.5t1 -16.5q146 98 272 98q182 0 312.5 -134t130.5 -319q0 -113 -42 -197.5t-112 -129.5t-159 -63q-49 -9 -101 -9 q-41 0 -83 6q-96 14 -187 55q-2 -94 -10.5 -281.5t-8.5 -281.5q0 -23 3 -70.5t3 -72.5q0 -41 -28 -41l-248 -12q-21 0 -25 12v31zM399 834q0 -66 7 -136q16 -21 51 -33t65 -12q52 0 89.5 6t74.5 22.5t56.5 51.5t19.5 88v17q0 83 -37.5 127.5t-90.5 45.5h-6q-51 0 -101 -17 q-53 -19 -90.5 -59t-37.5 -81v-20z" />
<glyph unicode="q" horiz-adv-x="1077" d="M64 532q-1 8 -1 16q0 68 12 130q13 69 37.5 132.5t62.5 114t85 90t105 61.5t121 27q14 1 29 1q51 0 109 -14q73 -18 148 -58q7 27 7 66q0 15 -1 32q20 25 37 25h191l6 -12l-56 -1467q0 -10 0.5 -34t0.5 -37.5t-1.5 -33.5t-5.5 -36q-6 -12 -12 -12q-37 0 -114 3 q-60 3 -106 3h-26q-10 10 -10 27l66 604q0 37 -7 59q-61 -102 -319 -102q-121 0 -217 70.5t-123 191.5q-17 76 -18 153zM326 618q0 -50 7 -89.5t24.5 -75.5t53 -56t87.5 -20q95 0 151.5 45t85.5 151q13 40 13 142q0 68 -44.5 92t-121.5 24q-74 0 -118 -7.5t-77.5 -30 t-47 -64.5t-13.5 -111z" />
<glyph unicode="r" horiz-adv-x="897" d="M61 1055v53q19 39 115 39q37 4 62 4q32 -1 46 -7q24 -12 48 -85q75 64 150 101.5t165 47.5q22 2 41 2q24 0 42 -4q32 -6 52 -27.5t29 -51t16 -78.5q2 -4 2 -13q0 -30 -55 -55.5t-139.5 -55t-124.5 -55.5q-63 -40 -98 -104.5t-35 -138.5v-60q-1 -94 -1 -176q0 -247 9 -387 q0 -9 -5.5 -20.5t-14.5 -12.5l-199 -20h-4q-12 0 -17 16l-2 17z" />
<glyph unicode="s" horiz-adv-x="856" d="M61 139q0 88 74 226q47 0 131.5 -37.5t124.5 -42.5q3 0 9 -1t8 -1q38 0 59.5 24.5t21.5 63.5q0 52 -23 91t-59.5 62.5t-80.5 42.5t-88.5 37t-81 40.5t-59.5 59.5t-23 87q0 123 73.5 220.5t190.5 131.5q70 20 140 20q128 0 255 -67q22 -12 24 -65v-9q-1 -48 -19 -92 q-20 -48 -54 -49q-33 0 -99 13t-100 13q-32 0 -53.5 -16.5t-21.5 -48.5q0 -25 21 -47.5t55 -41t75 -39t82 -47.5t75 -61t55.5 -85.5t21.5 -114.5q-14 -92 -52.5 -167.5t-87.5 -119.5t-98 -67t-90 -23q-166 0 -385 73q-21 6 -21 37z" />
<glyph unicode="t" horiz-adv-x="950" d="M61 647v230l263 30q8 265 15.5 387t17.5 167t30 59q67 24 136 30q16 2 33 2q53 0 106 -16l-39 -618q2 0 10.5 -1.5t11.5 -1.5l223 15l21 -250q-302 -17 -302 -25q1 -1 1 -2l-47 -645q-57 -55 -238 -55q-22 0 -27 20v47l33 646z" />
<glyph unicode="u" horiz-adv-x="1024" d="M61 324q0 109 26 430t56 321q43 0 132 4t131 4q18 0 18 -34v-23l-4 -37q-53 -488 -53 -567q0 -123 49 -123q39 -10 71 -11t56.5 10t44.5 24t33.5 40.5t23.5 49.5t16 61.5t10 65.5t5 73.5t1.5 73t0.5 74.5v26q0 42 -4 124.5t-4 123.5q0 35 198 35h11h41q20 -7 28 -29v-727 q0 -37 7.5 -112t7.5 -113q0 -28 -21 -49t-54.5 -31.5t-65.5 -15t-62 -4.5q-11 0 -20.5 21t-15 53.5t-8 53t-3.5 38.5q-145 -162 -324 -162q-155 0 -241.5 88t-86.5 244z" />
<glyph unicode="v" horiz-adv-x="1007" d="M61 1190q0 15 4 21t17 12q22 -3 96.5 -3t97.5 3q2 0 24 2t24 2q1 0 6 1t6 1q31 0 37 -72l84 -649q0 -5 3.5 -24t6.5 -19q4 0 19 55t32.5 130t20.5 85l118 455q0 11 5.5 16.5t12 6.5t17.5 1h21q2 0 80 -12t100 -14q2 -1 10 -3t12 -3.5t11 -5t10.5 -7t6.5 -9.5t3 -13 q0 -23 -6.5 -46t-22 -59t-18.5 -43q-42 -107 -268 -788q-6 -13 -15.5 -41t-19.5 -50t-23 -36q-20 -19 -106 -27t-145 -8q-12 0 -21.5 13.5t-13 28.5t-7.5 34t-4 20z" />
<glyph unicode="w" horiz-adv-x="1347" d="M59 602q3 116 9 208.5t13 171t7 93.5q0 8 -2 10q4 0 8 9q120 12 131 12h29q55 0 96 -8q0 -1 3 -13t3 -14v-14q0 -23 -6 -242t-6 -244v-30q0 -73 21 -144q4 -12 24 -12q17 0 37.5 9.5t28.5 25.5q29 56 42 163t13 195q0 50 3 148t3 139q0 15 20 24t35 9l13 1q13 1 33 2 t41.5 2t42.5 2t34 1q17 0 24 -14.5t7 -30.5q0 -65 -3 -195t-3 -196q0 -173 6 -203q13 -106 42 -149q17 -26 38 -26q14 0 30 12q38 30 76 128q14 35 23.5 191.5t19.5 296.5t27 151q1 11 12.5 18t22.5 9q3 0 22 1t21 1q23 0 81 3t89 3q6 0 16 -21v-49q0 -48 -0.5 -89t-3 -112 t-8 -131.5t-14.5 -137.5t-23.5 -140t-33.5 -130t-46.5 -117.5t-60.5 -92t-77.5 -63t-96.5 -21.5q-233 0 -324 195q-33 -113 -107.5 -162t-197.5 -49q-71 0 -120.5 53.5t-72.5 144.5q-24 90 -34 196q-8 82 -8 170q0 26 1 52z" />
<glyph unicode="x" horiz-adv-x="1130" d="M61 909q0 27 78 85.5t117 58.5q2 0 10.5 -3t9.5 -3q60 -50 150.5 -168t142.5 -166h9q3 1 10.5 9t9.5 11q22 30 61 84q50 69 72.5 99t51 65t44 47t27.5 12q26 0 107 -50.5t81 -69.5q0 -21 -35.5 -64t-35.5 -51q-1 0 -33.5 -45.5t-88 -121.5t-99.5 -134l243 -271 q19 -21 47.5 -59t28.5 -47q0 -33 -71 -101t-111 -85q-6 0 -15 6t-15.5 12.5t-14.5 15.5l-8 9q-93 86 -224 235q-6 7 -19 20.5t-24 24t-12 10.5h-8l-271 -342q-29 0 -88 57t-59 93q0 10 3 18.5t6.5 13.5t13 16t16.5 20q168 245 227 313v14l-41 47q-24 29 -96.5 123.5 t-118.5 147.5q-9 11 -34 34t-34.5 39.5t-9.5 40.5z" />
<glyph unicode="y" horiz-adv-x="1048" d="M61 514q0 42 2.5 90.5t5 81.5t9.5 93.5t9.5 80.5t12.5 92.5t11 83.5l1 4q1 4 1 7q6 32 15 40q5 4 13 7h44.5h46t39.5 -0.5t39.5 -2t30.5 -3.5t26.5 -6t15.5 -9v-74q0 -53 -7 -160.5t-7 -162.5v-90q14 -26 42.5 -39t50 -15t58.5 -2q88 5 109 29q10 40 17 87.5t9.5 77.5 t5.5 91.5t5 83.5q7 106 12 111l12 14q29 1 95.5 6.5t103.5 5.5h74q24 -4 24 -30q0 -64 -3.5 -213.5t-19 -396t-40.5 -363.5l-6 -25q-3 -13 -8.5 -42.5t-7.5 -38.5t-7.5 -30.5t-10 -29.5t-12.5 -24.5t-18 -26.5t-24.5 -24t-32.5 -28l-25 -14q-59 -23 -213 -32 q-126 -7 -250 -7h-55q-28 5 -46 11t-37 22.5t-24 42.5q-14 96 -14 113q0 27 13 38.5t38 14.5q66 4 197.5 7t198.5 7q25 10 43 31.5t26 48t13 57.5t4.5 61t-0.5 58v86q-66 -43 -139 -61q-55 -14 -106 -14q-17 0 -33 2q-66 6 -126.5 30t-104.5 61.5t-70 86t-26 100.5z" />
<glyph unicode="z" horiz-adv-x="972" d="M61 877v157q0 20 41 41h2l615 19h35.5t31 -1t28 -3t22.5 -6t20 -9.5t15 -14t13 -20t8 -26.5t5.5 -34t1.5 -42q0 -124 -18 -147q-38 -45 -166.5 -172t-194.5 -199l-94 -103q-2 -6 -2 -8q0 -13 36.5 -19.5t63.5 -6.5q170 -1 252.5 -4t106 -8t26.5 -15q0 -3 1 -28t1 -29 q0 -87 -14 -138q-10 -16 -20 -16h-11q-92 8 -737 8q-31 12 -31 72q4 25 19 192q0 9 4 13q14 23 29.5 44.5t52 64t68.5 78.5t114.5 128.5t155.5 175.5q0 1 2.5 5.5t5.5 9.5t4 8q-2 4 -2 6q-71 0 -213 -7t-213 -7h-33q-31 13 -31 41z" />
<glyph unicode="|" horiz-adv-x="419" d="M61 1446q1 3 3 16.5t4.5 23.5t8 21.5t13.5 16.5h31q35 0 106.5 2t106.5 2q24 0 24 -60q-10 -473 -63 -1521q-2 -17 -14 -34t-29 -17h-156q-4 0 -10 8t-6 12z" />
<glyph unicode="&#xa1;" horiz-adv-x="378" d="M61 10l43 1112q0 84 39 88q54 0 86 4h19q26 0 28 -16q41 -668 41 -995q0 -99 -6 -160q0 -42 -51 -49h-6q-5 1 -16 1.5t-27 1t-44 0t-61 -2.5q-41 0 -45 16zM66 1456q-15 54 28.5 101t102.5 47q40 0 75 -21t35 -61q0 -47 -19 -89.5t-48.5 -65t-62 -27t-63.5 25t-48 90.5z " />
<glyph unicode="&#xa3;" horiz-adv-x="1216" d="M61 623q0 6 6 13t13 7l98 2q-3 24 -8 162v53q0 385 175 609q122 157 294 191q160 31 291 -55q119 -80 168 -233l-273 -110l-2 55q-5 106 -75 128q-64 20 -141 -40q-94 -74 -128 -209q-12 -49 -14 -102q-7 -243 -4 -441l125 4q15 0 21.5 -42.5t6.5 -75.5l-2 -25 q-6 -8 -13.5 -12.5t-17.5 -6t-17 -2t-19.5 0t-16.5 0.5l-65 2l8 -220q0 -17 12 -20q13 -1 66.5 -5t90 -6t120.5 -5.5t157 -3t201 1.5l6 2q10 0 19.5 -10t9.5 -21q2 -35 -12 -123q-7 -51 -30.5 -72.5t-60 -20.5t-87.5 1l-859 20q-34 10 -34 35l16 156q1 16 13.5 25.5t25 11.5 t33.5 2.5t26 1.5q8 21 4 86v14l-4 141l-36 1q-36 0 -37 -1q-18 1 -34 55.5t-16 80.5z" />
<glyph unicode="&#xaa;" horiz-adv-x="765" d="M61 1106q0 33 2 37q27 89 150.5 156t245.5 69q4 27 4 41q0 75 -31.5 119.5t-114.5 44.5h-28q-6 0 -19 -3l-12 -3q-11 0 -18 14q1 25 -0.5 67t-1.5 56q0 11 5.5 16.5t20.5 10.5q114 24 197.5 0.5t137.5 -94t80 -170t26 -226.5q0 -21 -17 -301q1 -7 -36 -11t-83 -6.5 t-55 -4.5q-8 0 -13 10.5t-6 18t-1 11.5q-106 -51 -220 -57h-8q-94 0 -149.5 63t-55.5 142zM242 1128q0 -16 0.5 -26t4.5 -25t11 -23.5t21.5 -15t35.5 -6.5q46 0 89 20t53 48v8q0 2 -3 40t-7.5 70.5t-8.5 32.5q-37 0 -116.5 -36t-79.5 -76v-11z" />
<glyph unicode="&#xab;" horiz-adv-x="1439" d="M61 565l652 494l14 4q4 0 7.5 -1.5t6 -3t6 -4.5t5 -5l4.5 -6t4 -5l110 -106q-499 -384 -505 -391v-2q12 -11 16 -15q32 -22 179 -119.5t200 -134.5q2 -1 10 -6t11.5 -7.5t9 -7t8 -9.5t2.5 -11q0 -12 -59 -83t-76 -70q-11 2 -22 8.5t-24 17t-18 13.5zM569 557l652 494 l14 4q5 0 8.5 -1.5t8 -5t6 -5t6.5 -7.5l4 -6l110 -106q-500 -384 -506 -392v-2q13 -10 17 -14q32 -22 179 -119.5t200 -134.5q2 -1 10 -6t11.5 -7.5t9 -7t8 -9.5t2.5 -11q0 -12 -59 -83t-76 -70q-11 2 -22 8t-24.5 16.5t-17.5 13.5z" />
<glyph unicode="&#xad;" horiz-adv-x="1048" d="M61 616q0 41 48 41l847 -10q1 0 5 -1t6.5 -1.5t6.5 -2t6.5 -3.5t4.5 -5t2 -7v-174q0 -3 -2.5 -7t-5 -6.5l-5.5 -5.5l-3 -2h-47l-830 6q-6 4 -19.5 81t-13.5 97z" />
<glyph unicode="&#xba;" horiz-adv-x="794" d="M61 1317q0 102 54 198.5t139 135.5q70 32 121 32q86 0 148.5 -16t111.5 -54t73.5 -106t24.5 -166q0 -103 -24 -176q-15 -41 -80 -106l-21 -17q-67 -46 -124.5 -69t-125.5 -23q-88 0 -168 58q-80 59 -104.5 125.5t-24.5 183.5zM250 1262q0 -64 41.5 -102t101.5 -38 q29 0 64 21q106 65 106 223q0 29 -2.5 49.5t-11 34.5t-15.5 22t-26 13.5t-31 7.5t-41 6l-35 2q-52 0 -88 -41.5t-49.5 -93t-13.5 -104.5z" />
<glyph unicode="&#xbb;" horiz-adv-x="1439" d="M61 924l111 106q1 1 4 5l4.5 6t5 5t6 4.5t6 3t7.5 1.5l14 -4l651 -494l-540 -451q-4 -3 -17.5 -13.5t-24.5 -16.5t-22 -8q-17 -1 -76 70t-59 83q0 6 2.5 11t8 9.5t9 7t11.5 7.5t10 6q53 37 200 134.5t179 119.5l16 14q1 2 -16 16q-29 24 -490 378zM569 932l111 106 q1 1 4 5l4.5 6t5 5t6 4.5t6 3t7.5 1.5l14 -4l651 -494l-540 -450q-5 -3 -18 -13.5t-24 -17t-22 -8.5q-17 -1 -76 70t-59 83q0 6 2.5 11t8 9.5t9 7t11.5 7.5t10 6q53 37 200 134.5t179 119.5l16 15q1 2 -14.5 14.5t-491.5 378.5z" />
<glyph unicode="&#xbf;" horiz-adv-x="909" d="M61 350q0 117 68 199q14 14 56.5 54t65 63.5t51.5 61.5t44 73q28 66 33 190q0 22 3 68t3 71q5 101 51 101q26 0 80 -5t80 -5q5 0 8 -4t4.5 -8t2.5 -10t1 -7q0 -14 6 -74q0 -81 -2.5 -132.5t-15 -123t-37.5 -127.5q-53 -113 -100 -147q-134 -96 -147 -207q-10 -80 45 -126 q56 -48 135 -19q87 31 155 145q8 16 31 16h8l133 -88l23 -20l1 -10q1 -10 1 -15q0 -58 -48 -110t-117 -84t-140 -51t-123 -19q-181 0 -301 141q-36 41 -47 90.5t-11 118.5zM379 1513q0 55 42 98.5t97 43.5q56 0 97.5 -34.5t41.5 -86.5q0 -36 -24 -86q-16 -37 -38 -51.5 t-67 -26.5q-3 0 -8 -1t-8 -1q-56 0 -94.5 40.5t-38.5 104.5z" />
<glyph unicode="&#xc0;" horiz-adv-x="1058" d="M87 87q-99 1116 201 1441q116 125 287 125q54 0 95.5 -11t71 -29t56.5 -51.5t45.5 -66t43.5 -86.5q34 -74 56 -194t30 -275.5t10 -248t2 -230.5v-27q0 -33 6 -216t6 -214l-266 -24q-17 104 -29 303.5t-14 226.5h-26l-347 -45l-6 -6q0 -1 0.5 -10t1 -20.5t0.5 -16.5 q8 -134 37 -316q0 -22 19 -98v-23q0 -15 -39.5 -27t-93 -17t-89 -7t-45.5 -2q2 0 -13 165zM335 811.5q-2 -42.5 1 -57.5l336 24l-2 31l-19 213q-20 140 -20 143q0 1 -1 3t-1 3q-4 25 -7.5 40.5t-13 38.5t-22.5 37t-36.5 24t-53.5 10q-27 0 -51.5 -25.5t-40 -64t-25 -72.5 t-14.5 -63q-2 -13 -7.5 -53.5t-7.5 -56t-7 -58t-5.5 -58.5t-2.5 -58.5zM373 1921q0 15 46 58.5t66 43.5q12 0 23 -8q97 -92 182 -200q12 -18 12 -33q0 -14 -41 -46t-57 -32q-12 0 -20 8q-23 22 -42.5 40t-32 29.5t-22.5 20.5l-15 13.5t-8.5 7.5t-5.5 5l-1 1l-82 84 q-2 6 -2 8z" />
<glyph unicode="&#xc1;" horiz-adv-x="1058" d="M87 87q-99 1116 201 1441q116 125 287 125q54 0 95.5 -11t71 -29t56.5 -51.5t45.5 -66t43.5 -86.5q34 -74 56 -194t30 -275.5t10 -248t2 -230.5v-27q0 -33 6 -216t6 -214l-266 -24q-17 104 -29 303.5t-14 226.5h-26l-347 -45l-6 -6q0 -1 0.5 -10t1 -20.5t0.5 -16.5 q8 -134 37 -316q0 -22 19 -98v-23q0 -15 -39.5 -27t-93 -17t-89 -7t-45.5 -2q2 0 -13 165zM274 1794q0 14 13 33q88 112 182 201q11 8 23 8q20 0 66 -44t46 -59l-2 -8l-82 -84l-2 -3q-3 -2 -11 -9t-20.5 -18.5t-37 -34t-56.5 -52.5q-8 -8 -20 -8q-16 0 -57.5 32t-41.5 46z M335 811.5q-2 -42.5 1 -57.5l336 24l-2 31l-19 213q-20 140 -20 143q0 1 -1 3t-1 3q-4 25 -7.5 40.5t-13 38.5t-22.5 37t-36.5 24t-53.5 10q-27 0 -51.5 -25.5t-40 -64t-25 -72.5t-14.5 -63q-2 -13 -7.5 -53.5t-7.5 -56t-7 -58t-5.5 -58.5t-2.5 -58.5z" />
<glyph unicode="&#xc2;" horiz-adv-x="1058" d="M87 87q-99 1116 201 1441q116 125 287 125q54 0 95.5 -11t71 -29t56.5 -51.5t45.5 -66t43.5 -86.5q34 -74 56 -194t30 -275.5t10 -248t2 -230.5v-27q0 -33 6 -216t6 -214l-266 -24q-17 104 -29 303.5t-14 226.5h-26l-347 -45l-6 -6q0 -1 0.5 -10t1 -20.5t0.5 -16.5 q8 -134 37 -316q0 -22 19 -98v-23q0 -15 -39.5 -27t-93 -17t-89 -7t-45.5 -2q2 0 -13 165zM190 1763l234 258q2 1 16.5 1.5t34.5 0.5t43.5 -0.5t43 -1.5t32.5 -1l14 -1l211 -231q0 -13 -22 -27.5t-59 -30.5l-38 -16q-12 -4 -16 -4l-166 184l-6 11l-150 -185q-24 -24 -47 -24 q-11 0 -66 30.5t-59 36.5zM335 811.5q-2 -42.5 1 -57.5l336 24l-2 31l-19 213q-20 140 -20 143q0 1 -1 3t-1 3q-4 25 -7.5 40.5t-13 38.5t-22.5 37t-36.5 24t-53.5 10q-27 0 -51.5 -25.5t-40 -64t-25 -72.5t-14.5 -63q-2 -13 -7.5 -53.5t-7.5 -56t-7 -58t-5.5 -58.5 t-2.5 -58.5z" />
<glyph unicode="&#xc3;" horiz-adv-x="1058" d="M87 87q-99 1116 201 1441q116 125 287 125q54 0 95.5 -11t71 -29t56.5 -51.5t45.5 -66t43.5 -86.5q34 -74 56 -194t30 -275.5t10 -248t2 -230.5v-27q0 -33 6 -216t6 -214l-266 -24q-17 104 -29 303.5t-14 226.5h-26l-347 -45l-6 -6q0 -1 0.5 -10t1 -20.5t0.5 -16.5 q8 -134 37 -316q0 -22 19 -98v-23q0 -15 -39.5 -27t-93 -17t-89 -7t-45.5 -2q2 0 -13 165zM229 1798q0 93 54.5 169.5t134.5 76.5q68 0 84 -31q7 -8 19.5 -29.5t31.5 -42t51 -40.5q12 0 19.5 1.5t13.5 7t9.5 11t7.5 19t6.5 24t7.5 34t10 42.5q20 16 92 16q27 0 33 -24 q13 -127 -36 -215t-151 -88q-42 0 -84 27t-71 69q-3 5 -10 18t-11 18.5t-13 11t-21 5.5q-10 0 -21 -10.5t-14 -22.5l-17 -76l-30 -16q-5 0 -19 -0.5t-21.5 -0.5t-19.5 2t-18.5 7t-11.5 14t-5 23zM335 811.5q-2 -42.5 1 -57.5l336 24l-2 31l-19 213q-20 140 -20 143q0 1 -1 3 t-1 3q-4 25 -7.5 40.5t-13 38.5t-22.5 37t-36.5 24t-53.5 10q-27 0 -51.5 -25.5t-40 -64t-25 -72.5t-14.5 -63q-2 -13 -7.5 -53.5t-7.5 -56t-7 -58t-5.5 -58.5t-2.5 -58.5z" />
<glyph unicode="&#xc4;" horiz-adv-x="1058" d="M87 87q-99 1116 201 1441q116 125 287 125q54 0 95.5 -11t71 -29t56.5 -51.5t45.5 -66t43.5 -86.5q34 -74 56 -194t30 -275.5t10 -248t2 -230.5v-27q0 -33 6 -216t6 -214l-266 -24q-17 104 -29 303.5t-14 226.5h-26l-347 -45l-6 -6q0 -1 0.5 -10t1 -20.5t0.5 -16.5 q8 -134 37 -316q0 -22 19 -98v-23q0 -15 -39.5 -27t-93 -17t-89 -7t-45.5 -2q2 0 -13 165zM250 1815q0 64 54 98q46 29 86 9q37 -21 38 -75q0 -48 -28.5 -86.5t-75.5 -38.5q-36 0 -55 28t-19 65zM335 811.5q-2 -42.5 1 -57.5l336 24l-2 31l-19 213q-20 140 -20 143q0 1 -1 3 t-1 3q-4 25 -7.5 40.5t-13 38.5t-22.5 37t-36.5 24t-53.5 10q-27 0 -51.5 -25.5t-40 -64t-25 -72.5t-14.5 -63q-2 -13 -7.5 -53.5t-7.5 -56t-7 -58t-5.5 -58.5t-2.5 -58.5zM653 1815q0 37 32.5 71.5t70.5 34.5q46 0 66 -21.5t20 -68.5q0 -45 -29.5 -71.5t-73.5 -26.5 q-25 10 -39.5 17.5t-30.5 25t-16 39.5z" />
<glyph unicode="&#xc5;" horiz-adv-x="1058" d="M87 87q-99 1116 201 1441q116 125 287 125q54 0 95.5 -11t71 -29t56.5 -51.5t45.5 -66t43.5 -86.5q34 -74 56 -194t30 -275.5t10 -248t2 -230.5v-27q0 -33 6 -216t6 -214l-266 -24q-17 104 -29 303.5t-14 226.5h-26l-347 -45l-6 -6q0 -1 0.5 -10t1 -20.5t0.5 -16.5 q8 -134 37 -316q0 -22 19 -98v-23q0 -15 -39.5 -27t-93 -17t-89 -7t-45.5 -2q2 0 -13 165zM270 1970q0 64 35 125q10 17 18.5 30.5t22.5 31t29 30.5t35.5 26.5t45 22t53.5 14t66 5.5t78 -6q56 -13 94.5 -70.5t38.5 -118.5q0 -89 -21.5 -155.5t-57 -102.5t-81 -54.5 t-94 -15.5t-94.5 19.5t-84 44.5q-40 31 -62 79.5t-22 94.5zM335 811.5q-2 -42.5 1 -57.5l336 24l-2 31l-19 213q-20 140 -20 143q0 1 -1 3t-1 3q-4 25 -7.5 40.5t-13 38.5t-22.5 37t-36.5 24t-53.5 10q-27 0 -51.5 -25.5t-40 -64t-25 -72.5t-14.5 -63q-2 -13 -7.5 -53.5 t-7.5 -56t-7 -58t-5.5 -58.5t-2.5 -58.5zM420 1972q0 -28 25 -40.5t57 -12.5q55 0 90 32t35 87q0 31 -31 54.5t-64 23.5q-52 0 -82 -44t-30 -100z" />
<glyph unicode="&#xc6;" horiz-adv-x="1521" d="M62.5 525q-1.5 159 6.5 310.5t41.5 302t87.5 263t150.5 182.5t224.5 70q54 0 101 -13q87 22 311.5 25.5t251.5 5.5q27 0 27 -20q0 -14 -1.5 -49t-1.5 -77.5t3 -97.5q0 -7 -5.5 -13.5t-15.5 -6.5q-3 0 -22 -1t-23 -1q-41 0 -126.5 11t-131.5 11h-29q-10 -5 -10 -26l4 -352 q0 -3 -0.5 -30.5t0 -41t4.5 -33.5t13 -29l243 5q1 -23 10 -82.5t9 -89.5q-4 -27 -19 -31q-17 1 -77.5 1t-79.5 -1q-46 0 -70 -4l-8 -6q-6 -42 -1.5 -142t13 -203.5t10.5 -105.5l4 -25q316 18 429 24l10 1h12q53 0 53 -199q-1 -19 -8 -24.5t-27 -5.5q-470 -41 -696 -47 q-17 104 -29 303.5t-14 226.5h-27l-346 -45l-6 -6q0 -1 0.5 -10t1 -20.5t0.5 -16.5q8 -134 37 -316q0 -22 19 -98v-23q0 -15 -39.5 -27t-93 -17t-89 -7t-45.5 -2q2 2 2 6q0 13 -8.5 107.5t-18 212.5t-11 277zM332.5 803q1.5 -12 1.5 -49l338 24l-4 31l-39 356q0 1 -1 3t-1 3 q-4 25 -7.5 40.5t-13 38.5t-22.5 37t-36.5 24t-53.5 10q-36 0 -66.5 -45.5t-45 -92t-20.5 -87.5q-1 -10 -6 -46t-6.5 -47.5t-6 -49t-5 -50t-4 -50.5t-2 -50z" />
<glyph unicode="&#xc7;" horiz-adv-x="1083" d="M45 883q5 129 42.5 257t101 232.5t163.5 180t223 100.5h11q129 0 202 -48.5t91 -168.5q0 -1 1 -6.5t1 -6.5l-176 -45q-9 0 -18.5 12.5t-18 28t-25.5 30.5t-39 19q-65 0 -120 -44t-83 -109q-18 -43 -36 -117t-30 -168t-16.5 -193t8.5 -193.5t41 -169t84.5 -120 t135.5 -45.5q34 0 61.5 13t44 30t30.5 47t20.5 52t15.5 57q0 40 5.5 98t18.5 58q33 0 100.5 2t100.5 2h19q7 -2 10.5 -7.5t5 -14t1.5 -15t-0.5 -16t-0.5 -11.5q0 -62 -6.5 -114t-24.5 -105t-47.5 -94t-77 -76.5t-110.5 -58.5q-55 -21 -97 -29v-6l-61 -98q-1 -1 -4 -5t-6 -7 t-4 -3l-88 -127q-8 -12 -21 -12q-30 0 -108 51l-11 8l113 197q-109 20 -183.5 86.5t-140.5 191.5q-54 99 -78.5 225t-19.5 255z" />
<glyph unicode="&#xc8;" horiz-adv-x="923" d="M63 1389v24q-2 143 3 143q65 18 163 23.5t222.5 5.5t187.5 4q27 0 27 -20q0 -14 -1.5 -49t-1.5 -77t3 -97q0 -7 -5.5 -14t-15.5 -7q-3 0 -22 -1t-23 -1q-41 0 -126.5 11.5t-131.5 11.5h-29q-10 -5 -10 -27l4 -352q0 -3 -1 -30t0 -41t5 -33.5t13 -28.5l243 4 q1 -23 10 -82.5t9 -89.5q-4 -27 -19 -31q-17 1 -77.5 1t-79.5 -1q-46 0 -70 -4l-8 -6q-6 -42 -1.5 -142t13 -203.5t10.5 -105.5l4 -24l406 22q2 0 17 1t16 1h12q53 0 53 -199v-24q-2 0 -4.5 -1t-3.5 -1l-12 -2q-12 -2 -15 -2l-150.5 -14t-168 -15.5t-149.5 -10.5t-160 -5 h-12q-12 -1 -16.5 -0.5t-14 2t-14.5 5t-7 9.5q-4 10 -72 1473zM248 1937q0 15 46 59t66 44q12 0 23 -8q94 -89 182 -201q13 -20 13 -33q0 -14 -41.5 -46t-57.5 -32q-11 0 -20 9q-23 22 -42.5 40t-32 29.5t-22 20t-15 13.5t-9 7.5t-4.5 4.5l-2 1l-82 84q-2 6 -2 8z" />
<glyph unicode="&#xc9;" horiz-adv-x="923" d="M63 1389v24q-2 143 3 143q65 18 163 23.5t222.5 5.5t187.5 4q27 0 27 -20q0 -14 -1.5 -49t-1.5 -77t3 -97q0 -7 -5.5 -14t-15.5 -7q-3 0 -22 -1t-23 -1q-41 0 -126.5 11.5t-131.5 11.5h-29q-10 -5 -10 -27l4 -352q0 -3 -1 -30t0 -41t5 -33.5t13 -28.5l243 4 q1 -23 10 -82.5t9 -89.5q-4 -27 -19 -31q-17 1 -77.5 1t-79.5 -1q-46 0 -70 -4l-8 -6q-6 -42 -1.5 -142t13 -203.5t10.5 -105.5l4 -24l406 22q2 0 17 1t16 1h12q53 0 53 -199v-24q-2 0 -4.5 -1t-3.5 -1l-12 -2q-12 -2 -15 -2l-150.5 -14t-168 -15.5t-149.5 -10.5t-160 -5 h-12q-12 -1 -16.5 -0.5t-14 2t-14.5 5t-7 9.5q-4 10 -72 1473zM158 1778q0 14 12 32q88 112 182 201q11 8 23 8q20 0 66 -43.5t46 -58.5l-2 -8l-82 -84l-3 -3q-2 -2 -10 -9t-20.5 -18.5t-37 -34t-56.5 -52.5q-8 -8 -20 -8q-16 0 -57 32t-41 46z" />
<glyph unicode="&#xca;" horiz-adv-x="923" d="M61 1759l234 258q2 1 16.5 1.5t34.5 0.5t43.5 -0.5t43 -1.5t33.5 -1l13 -1l211 -231q0 -13 -22 -27.5t-60 -30.5l-37 -16q-12 -4 -16 -4l-166 184l-6 11l-150 -185q-24 -24 -47 -24q-11 0 -66 30.5t-59 36.5zM63 1389v24q-2 143 3 143q65 18 163 23.5t222.5 5.5t187.5 4 q27 0 27 -20q0 -14 -1.5 -49t-1.5 -77t3 -97q0 -7 -5.5 -14t-15.5 -7q-3 0 -22 -1t-23 -1q-41 0 -126.5 11.5t-131.5 11.5h-29q-10 -5 -10 -27l4 -352q0 -3 -1 -30t0 -41t5 -33.5t13 -28.5l243 4q1 -23 10 -82.5t9 -89.5q-4 -27 -19 -31q-17 1 -77.5 1t-79.5 -1 q-46 0 -70 -4l-8 -6q-6 -42 -1.5 -142t13 -203.5t10.5 -105.5l4 -24l406 22q2 0 17 1t16 1h12q53 0 53 -199v-24q-2 0 -4.5 -1t-3.5 -1l-12 -2q-12 -2 -15 -2l-150.5 -14t-168 -15.5t-149.5 -10.5t-160 -5h-12q-12 -1 -16.5 -0.5t-14 2t-14.5 5t-7 9.5q-4 10 -72 1473z" />
<glyph unicode="&#xcb;" horiz-adv-x="923" d="M63 1389v24q-2 143 3 143q65 18 163 23.5t222.5 5.5t187.5 4q27 0 27 -20q0 -14 -1.5 -49t-1.5 -77t3 -97q0 -7 -5.5 -14t-15.5 -7q-3 0 -22 -1t-23 -1q-41 0 -126.5 11.5t-131.5 11.5h-29q-10 -5 -10 -27l4 -352q0 -3 -1 -30t0 -41t5 -33.5t13 -28.5l243 4 q1 -23 10 -82.5t9 -89.5q-4 -27 -19 -31q-17 1 -77.5 1t-79.5 -1q-46 0 -70 -4l-8 -6q-6 -42 -1.5 -142t13 -203.5t10.5 -105.5l4 -24l406 22q2 0 17 1t16 1h12q53 0 53 -199v-24q-2 0 -4.5 -1t-3.5 -1l-12 -2q-12 -2 -15 -2l-150.5 -14t-168 -15.5t-149.5 -10.5t-160 -5 h-12q-12 -1 -16.5 -0.5t-14 2t-14.5 5t-7 9.5q-4 10 -72 1473zM117 1819q0 64 54 98q46 29 86 9q37 -21 38 -75q0 -48 -29 -86.5t-76 -38.5q-36 0 -54.5 27.5t-18.5 65.5zM520 1819q0 37 32.5 71.5t70.5 34.5q46 0 66 -21.5t20 -68.5q0 -45 -29.5 -71.5t-73.5 -26.5 q-25 10 -39.5 17.5t-30.5 25t-16 39.5z" />
<glyph unicode="&#xcc;" horiz-adv-x="696" d="M63 233v11q0 30 43 30q42 7 78 7l4 6v100q0 123 4 274.5t7.5 235t13.5 286.5t12 247h-139q-12 0 -17.5 16.5t-5.5 28.5v139q0 28 60 28q47 7 234.5 9.5t199.5 3.5h29q49 0 49 -27v-8q-7 -120 -12 -139q0 -10 -6 -26.5t-15 -16.5h-127l-6 -8q-1 0 -3.5 -27t-2.5 -41 l-21 -1065q2 -9 21.5 -11t42 -1.5t42 -8.5t21.5 -30v-53q0 -5 1.5 -22.5t0.5 -28.5t-3.5 -25t-12 -21.5t-25.5 -7.5q-63 0 -432 -10q-35 0 -35 155zM182 2032q0 15 46 58.5t67 43.5q11 0 22 -8q98 -93 183 -201q12 -18 12 -33q0 -14 -41 -45.5t-57 -31.5q-13 0 -21 8 q-23 22 -42.5 40t-32 29.5t-22 20t-15 13.5t-9 7.5t-4.5 4.5l-2 1l-82 84q-2 7 -2 9z" />
<glyph unicode="&#xcd;" horiz-adv-x="696" d="M63 233v11q0 30 43 30q42 7 78 7l4 6v100q0 123 4 274.5t7.5 235t13.5 286.5t12 247h-139q-12 0 -17.5 16.5t-5.5 28.5v139q0 28 60 28q47 7 234.5 9.5t199.5 3.5h29q49 0 49 -27v-8q-7 -120 -12 -139q0 -10 -6 -26.5t-15 -16.5h-127l-6 -8q-1 0 -3.5 -27t-2.5 -41 l-21 -1065q2 -9 21.5 -11t42 -1.5t42 -8.5t21.5 -30v-53q0 -5 1.5 -22.5t0.5 -28.5t-3.5 -25t-12 -21.5t-25.5 -7.5q-63 0 -432 -10q-35 0 -35 155zM182 1892q0 14 13 33q88 112 182 201q11 8 22 8q21 0 67 -43.5t46 -58.5l-2 -9l-82 -84l-2 -3q-3 -2 -11 -8.5t-20.5 -18 t-37 -34t-56.5 -52.5q-8 -8 -20 -8q-16 0 -57.5 31.5t-41.5 45.5z" />
<glyph unicode="&#xce;" horiz-adv-x="696" d="M35 1878l233 258q2 1 16.5 1.5t34.5 0.5t43.5 -0.5t43 -1.5t33.5 -2h14l211 -231q0 -13 -22 -27.5t-60 -30.5l-37 -16q-12 -4 -17 -4l-166 184l-6 10l-149 -184q-25 -25 -47 -25q-11 0 -66 31t-59 37zM63 233v11q0 30 43 30q42 7 78 7l4 6v100q0 123 4 274.5t7.5 235 t13.5 286.5t12 247h-139q-12 0 -17.5 16.5t-5.5 28.5v139q0 28 60 28q47 7 234.5 9.5t199.5 3.5h29q49 0 49 -27v-8q-7 -120 -12 -139q0 -10 -6 -26.5t-15 -16.5h-127l-6 -8q-1 0 -3.5 -27t-2.5 -41l-21 -1065q2 -9 21.5 -11t42 -1.5t42 -8.5t21.5 -30v-53q0 -5 1.5 -22.5 t0.5 -28.5t-3.5 -25t-12 -21.5t-25.5 -7.5q-63 0 -432 -10q-35 0 -35 155z" />
<glyph unicode="&#xcf;" horiz-adv-x="696" d="M53 1892q0 64 54 98q46 29 86 9q38 -18 38 -74q0 -48 -28.5 -86.5t-75.5 -38.5q-36 0 -55 27.5t-19 64.5zM63 233v11q0 30 43 30q42 7 78 7l4 6v100q0 123 4 274.5t7.5 235t13.5 286.5t12 247h-139q-12 0 -17.5 16.5t-5.5 28.5v139q0 28 60 28q47 7 234.5 9.5t199.5 3.5 h29q49 0 49 -27v-8q-7 -120 -12 -139q0 -10 -6 -26.5t-15 -16.5h-127l-6 -8q-1 0 -3.5 -27t-2.5 -41l-21 -1065q2 -9 21.5 -11t42 -1.5t42 -8.5t21.5 -30v-53q0 -5 1.5 -22.5t0.5 -28.5t-3.5 -25t-12 -21.5t-25.5 -7.5q-63 0 -432 -10q-35 0 -35 155zM457 1892q0 37 32 72 t70 35q46 0 66 -21.5t20 -68.5q0 -45 -29 -72t-73 -27q-25 10 -39.5 17.5t-30.5 25t-16 39.5z" />
<glyph unicode="&#xd0;" horiz-adv-x="1142" d="M63.5 842q-0.5 16 1 38.5t1.5 26.5q0 5 1 30.5t1 29.5q4 10 42 15t84.5 7.5t57.5 5.5l-6 586q0 16 20 16q116 0 277 -48.5t248 -112.5q144 -110 217 -297t73 -473q0 -145 -50 -268t-141 -211t-224 -137.5t-293 -49.5h-49q-17 11 -13 35l-67 747q-24 0 -68.5 -9t-66.5 -9 q-17 0 -27.5 11t-14 31t-4 36zM500 1282q0 -120 8 -213q3 -10 24 -10h144q6 0 18 -25q6 -54 6 -127q0 -14 -2.5 -43t-3.5 -30l-6 -13h-160q-2 0 -4.5 -4t-3.5 -8l-2 -4q6 -522 17 -522q168 0 232 112.5t64 360.5q0 55 -2.5 100t-10.5 101t-22 100t-39.5 87.5t-59.5 72.5 t-84 47t-113 18z" />
<glyph unicode="&#xd1;" horiz-adv-x="1222" d="M61 1546v80q4 13 13 19l258 -7q7 -5 15.5 -21t36.5 -77q167 -368 452 -946q24 148 24 831q0 31 -4 92.5t-4 90.5q0 3 1 18.5t1 18.5q3 9 10 16q44 8 135 8.5t136 9.5q18 -7 24 -30q0 -17 1 -116.5t1 -102.5q-3 0 -13 -171t-20 -492t-10 -632v-88q-4 -16 -18 -16 q-43 1 -120.5 -2.5t-111.5 -3.5h-20q-12 8 -17 19.5t-7.5 29.5t-4.5 26l-18 29q-99 173 -279 571q-26 57 -54 113t-44 85t-45.5 81t-36.5 65q-4 6 -4 0q0 -19 2.5 -69t1.5 -76l59 -885q0 -12 -6 -20q-177 -19 -252 -23h-12q-29 0 -29 70zM283 1790q0 93 54 169.5t134 76.5 q68 0 84 -31q7 -8 19.5 -30t31.5 -42.5t51 -40.5q12 0 19.5 1.5t13.5 7t9.5 11t7.5 19t6.5 24.5t7.5 34.5t10 42.5q20 16 92 16q27 0 33 -25q13 -128 -35.5 -215.5t-150.5 -87.5q-42 0 -84.5 27.5t-71.5 69.5q-3 5 -10 18t-11 18.5t-13 11t-21 5.5q-10 0 -21 -10.5 t-14 -22.5l-16 -76l-31 -16q-5 0 -19 -0.5t-21.5 -0.5t-19.5 2t-18 7t-11 14t-5 23z" />
<glyph unicode="&#xd2;" horiz-adv-x="1161" d="M61 743v64q0 65 7 133t23.5 142t41.5 141t64 128t86.5 105.5t113.5 71t142 26.5q81 0 154.5 -33t128.5 -89.5t101.5 -131t78.5 -156.5t54 -167.5t32 -163t10 -143.5v-15q0 -78 -17.5 -174t-50.5 -194.5t-90.5 -178t-128.5 -108.5q-185 -74 -333 -25t-248 180t-140 316 q-6 43 -17.5 144t-11.5 128zM322 764q3 -14 12.5 -61.5t15.5 -76t19.5 -78t27 -81.5t35.5 -70.5t46 -61t58.5 -38.5t73.5 -16q43 0 77.5 34t55 83.5t34.5 110.5t19 110t5 86q0 58 -13 143t-37.5 177.5t-69 157t-99.5 64.5q-53 0 -94.5 -17.5t-68.5 -44t-46 -70t-28.5 -81 t-15 -92.5t-6.5 -90.5t-1 -87.5zM403 1868q0 15 46 58.5t67 43.5q12 0 23 -8q94 -89 182 -201q12 -18 12 -32t-41 -46t-57 -32q-13 0 -21 8q-23 22 -42.5 40t-32 29.5t-22.5 20.5l-15 13.5t-8.5 7.5t-5.5 4l-1 2l-81 84q-3 6 -3 8z" />
<glyph unicode="&#xd3;" horiz-adv-x="1161" d="M61 743v64q0 65 7 133t23.5 142t41.5 141t64 128t86.5 105.5t113.5 71t142 26.5q81 0 154.5 -33t128.5 -89.5t101.5 -131t78.5 -156.5t54 -167.5t32 -163t10 -143.5v-15q0 -78 -17.5 -174t-50.5 -194.5t-90.5 -178t-128.5 -108.5q-185 -74 -333 -25t-248 180t-140 316 q-6 43 -17.5 144t-11.5 128zM256 1704q0 15 12 33q82 104 183 200q12 9 22 9q20 0 66.5 -44t46.5 -59l-2 -8l-82 -84l-2 -3q-3 -2 -11 -9t-20.5 -18.5t-37 -34t-56.5 -52.5q-8 -8 -21 -8q-16 0 -57 32t-41 46zM322 764q3 -14 12.5 -61.5t15.5 -76t19.5 -78t27 -81.5 t35.5 -70.5t46 -61t58.5 -38.5t73.5 -16q43 0 77.5 34t55 83.5t34.5 110.5t19 110t5 86q0 58 -13 143t-37.5 177.5t-69 157t-99.5 64.5q-53 0 -94.5 -17.5t-68.5 -44t-46 -70t-28.5 -81t-15 -92.5t-6.5 -90.5t-1 -87.5z" />
<glyph unicode="&#xd4;" horiz-adv-x="1161" d="M61 743v64q0 65 7 133t23.5 142t41.5 141t64 128t86.5 105.5t113.5 71t142 26.5q81 0 154.5 -33t128.5 -89.5t101.5 -131t78.5 -156.5t54 -167.5t32 -163t10 -143.5v-15q0 -78 -17.5 -174t-50.5 -194.5t-90.5 -178t-128.5 -108.5q-185 -74 -333 -25t-248 180t-140 316 q-6 43 -17.5 144t-11.5 128zM197 1702l233 258q2 1 16.5 1.5t34.5 0.5t43.5 -0.5t43 -1.5t32.5 -2h14l211 -232q0 -13 -22 -27.5t-58.5 -29.5t-37.5 -16q-12 -4 -17 -4l-166 184l-6 10l-149 -184q-25 -25 -47 -25q-11 0 -66 31t-59 37zM322 764q3 -14 12.5 -61.5t15.5 -76 t19.5 -78t27 -81.5t35.5 -70.5t46 -61t58.5 -38.5t73.5 -16q43 0 77.5 34t55 83.5t34.5 110.5t19 110t5 86q0 58 -13 143t-37.5 177.5t-69 157t-99.5 64.5q-53 0 -94.5 -17.5t-68.5 -44t-46 -70t-28.5 -81t-15 -92.5t-6.5 -90.5t-1 -87.5z" />
<glyph unicode="&#xd5;" horiz-adv-x="1161" d="M61 743v64q0 65 7 133t23.5 142t41.5 141t64 128t86.5 105.5t113.5 71t142 26.5q81 0 154.5 -33t128.5 -89.5t101.5 -131t78.5 -156.5t54 -167.5t32 -163t10 -143.5v-15q0 -78 -17.5 -174t-50.5 -194.5t-90.5 -178t-128.5 -108.5q-185 -74 -333 -25t-248 180t-140 316 q-6 43 -17.5 144t-11.5 128zM186 1679q0 93 54.5 169.5t134.5 76.5q68 0 84 -31q7 -8 19.5 -29.5t31.5 -42t51 -40.5q12 0 19.5 1.5t13.5 7t9.5 11t7.5 19t6.5 24t7.5 34t10 42.5q20 16 92 16q27 0 33 -24q13 -127 -36 -215t-151 -88q-42 0 -84 27t-71 69q-3 4 -10.5 18 t-11.5 19t-13 10.5t-21 5.5q-10 0 -20.5 -10.5t-13.5 -22.5l-17 -75l-30 -17q-5 0 -19 -0.5t-21.5 -0.5t-19.5 2t-18.5 7t-11.5 14t-5 23zM322 764q3 -14 12.5 -61.5t15.5 -76t19.5 -78t27 -81.5t35.5 -70.5t46 -61t58.5 -38.5t73.5 -16q43 0 77.5 34t55 83.5t34.5 110.5 t19 110t5 86q0 58 -13 143t-37.5 177.5t-69 157t-99.5 64.5q-53 0 -94.5 -17.5t-68.5 -44t-46 -70t-28.5 -81t-15 -92.5t-6.5 -90.5t-1 -87.5z" />
<glyph unicode="&#xd6;" horiz-adv-x="1161" d="M61 743v64q0 65 7 133t23.5 142t41.5 141t64 128t86.5 105.5t113.5 71t142 26.5q81 0 154.5 -33t128.5 -89.5t101.5 -131t78.5 -156.5t54 -167.5t32 -163t10 -143.5v-15q0 -78 -17.5 -174t-50.5 -194.5t-90.5 -178t-128.5 -108.5q-185 -74 -333 -25t-248 180t-140 316 q-6 43 -17.5 144t-11.5 128zM211 1704q0 64 54 98q46 29 86 9q37 -20 38 -74q0 -48 -28.5 -86.5t-75.5 -38.5q-36 0 -55 27.5t-19 64.5zM322 764q3 -14 12.5 -61.5t15.5 -76t19.5 -78t27 -81.5t35.5 -70.5t46 -61t58.5 -38.5t73.5 -16q43 0 77.5 34t55 83.5t34.5 110.5 t19 110t5 86q0 58 -13 143t-37.5 177.5t-69 157t-99.5 64.5q-53 0 -94.5 -17.5t-68.5 -44t-46 -70t-28.5 -81t-15 -92.5t-6.5 -90.5t-1 -87.5zM614 1704q0 37 32.5 71.5t70.5 34.5q46 0 66 -21.5t20 -68.5q0 -45 -29.5 -71.5t-73.5 -26.5q-25 10 -39.5 17.5t-30.5 25 t-16 39.5z" />
<glyph unicode="&#xd8;" horiz-adv-x="1161" d="M61 743v64q0 65 7 133t23.5 142t41.5 141t64 128t86.5 105.5t113.5 71t142 26.5q81 0 154 -32.5t128 -88t102 -129.5t78.5 -155.5t54 -167.5t32.5 -164.5t10 -146.5v-15q0 -78 -17.5 -174t-50.5 -194.5t-90.5 -178t-128.5 -108.5q-68 -28 -187 -33.5t-167 17.5 q-136 49 -233 179.5t-134 307.5q-6 43 -17.5 144t-11.5 128zM322 764q2 -9 12 -63t16 -80.5t20.5 -78.5t28.5 -84.5t36.5 -69.5t49.5 -60l93 919q-41 0 -75 -11t-58.5 -28.5t-44 -45.5t-32 -55t-22 -65.5t-14 -68.5t-7 -72.5t-3 -70t-0.5 -66.5zM604 281h6q43 0 77.5 34 t55 83.5t34.5 110.5t19 110t5 86q0 90 -28.5 231t-78.5 227z" />
<glyph unicode="&#xd9;" horiz-adv-x="1087" d="M61 1464l1 12q0 -1 1 -6q13 50 76 50q35 0 102 13t105 13q10 0 17.5 -12.5t7.5 -22.5q0 -21 -2.5 -210.5t-2.5 -340t6.5 -333t22.5 -273.5q12 -39 58 -60.5t92 -21.5q26 0 47 8.5t35.5 19.5t26 33t17.5 37t11.5 45t7.5 44t6 45l66 966q0 17 24 28.5t61.5 16t62.5 6 t48 1.5q37 0 46 -25t18 -151l-2 -418q-10 -323 -64 -649q-33 -125 -132 -220.5t-220 -95.5q-16 0 -61 -1t-65.5 0t-60 3t-63.5 8.5t-55.5 17.5t-57 29t-48.5 43q-97 107 -113 336q0 302 -6.5 648.5t-10.5 422.5q-2 -2 -2 -6zM391 1806q0 15 46.5 59t66.5 44q11 0 22 -8 q98 -93 183 -201q12 -18 12 -33q0 -14 -41 -46t-57 -32q-13 0 -21 8q-23 22 -42.5 40t-32 29.5t-22.5 20.5l-15 13.5t-8.5 7.5t-5.5 4l-1 2l-82 84q-2 6 -2 8z" />
<glyph unicode="&#xda;" horiz-adv-x="1087" d="M61 1464l1 13l1 -4q12 47 76 47q35 0 102 13t105 13q10 0 17.5 -12.5t7.5 -22.5q0 -21 -2.5 -210.5t-2.5 -340t6.5 -333t22.5 -273.5q12 -39 58 -60.5t92 -21.5q26 0 47 8.5t35.5 19.5t26 33t17.5 37t11.5 45t7.5 44t6 45l66 966q0 17 24 28.5t61.5 16t62.5 6t48 1.5 q37 0 46 -25t18 -151l-2 -418q-10 -323 -64 -649q-33 -125 -132 -220.5t-220 -95.5q-16 0 -61 -1t-65.5 0t-60 3t-63.5 8.5t-55.5 17.5t-57 29t-48.5 43q-97 107 -113 336q0 302 -6.5 648.5t-10.5 422.5q-2 -2 -2 -6zM350 1716q0 15 12 33q85 108 183 201q11 8 22 8 q20 0 66.5 -44t46.5 -59l-2 -8l-82 -84l-2 -3q-3 -2 -11 -8.5t-20.5 -18t-37 -34t-56.5 -52.5q-9 -9 -20 -9q-16 0 -57.5 32t-41.5 46z" />
<glyph unicode="&#xdb;" horiz-adv-x="1087" d="M61 1464l1 12q0 -1 1 -6q13 50 76 50q35 0 102 13t105 13q10 0 17.5 -12.5t7.5 -22.5q0 -21 -2.5 -210.5t-2.5 -340t6.5 -333t22.5 -273.5q12 -39 58 -60.5t92 -21.5q26 0 47 8.5t35.5 19.5t26 33t17.5 37t11.5 45t7.5 44t6 45l66 966q0 17 24 28.5t61.5 16t62.5 6 t48 1.5q37 0 46 -25t18 -151l-2 -418q-10 -323 -64 -649q-33 -125 -132 -220.5t-220 -95.5q-16 0 -61 -1t-65.5 0t-60 3t-63.5 8.5t-55.5 17.5t-57 29t-48.5 43q-97 107 -113 336q0 302 -6.5 648.5t-10.5 422.5q-2 -2 -2 -6zM229 1706l234 258q2 1 16.5 1.5t34.5 0.5 t43.5 -0.5t43 -1.5t33.5 -2h13l211 -231q0 -13 -22 -27.5t-60 -30.5l-37 -16q-12 -4 -16 -4l-166 184l-6 10l-150 -184q-25 -25 -47 -25q-11 0 -66 31t-59 37z" />
<glyph unicode="&#xdc;" horiz-adv-x="1087" d="M61 1464l1 13l1 -4q12 47 76 47q35 0 102 13t105 13q10 0 17.5 -12.5t7.5 -22.5q0 -21 -2.5 -210.5t-2.5 -340t6.5 -333t22.5 -273.5q12 -39 58 -60.5t92 -21.5q26 0 47 8.5t35.5 19.5t26 33t17.5 37t11.5 45t7.5 44t6 45l66 966q0 17 24 28.5t61.5 16t62.5 6t48 1.5 q37 0 46 -25t18 -151l-2 -418q-10 -323 -64 -649q-33 -125 -132 -220.5t-220 -95.5q-16 0 -61 -1t-65.5 0t-60 3t-63.5 8.5t-55.5 17.5t-57 29t-48.5 43q-97 107 -113 336q0 302 -6.5 648.5t-10.5 422.5q-2 -2 -2 -6zM260 1724q0 64 54 98q46 29 86 9q37 -20 38 -74 q0 -48 -28.5 -86.5t-75.5 -38.5q-36 0 -55 27.5t-19 64.5zM664 1724q0 38 32 72.5t70 34.5q46 0 66 -21.5t20 -68.5q0 -45 -29 -72t-73 -27q-25 10 -39.5 17.5t-30.5 25t-16 39.5z" />
<glyph unicode="&#xdd;" horiz-adv-x="1275" d="M63 1499q0 17 7 21q29 9 127.5 33.5t148.5 45.5q18 -6 33 -26q62 -194 209 -567q3 -6 14 -39q4 -2 8 0q6 6 6 8q39 46 316 584q7 14 31 14q47 0 149 -24.5t102 -53.5v-10l-473 -823v-723q0 -13 -17.5 -18t-31.5 -5q-20 0 -93 4t-114 2l-14 760l-375 723q-3 8 -12.5 27 t-15 35.5t-5.5 31.5zM436 1720q0 13 13 33q88 112 182 201q11 8 22 8q21 0 67 -43.5t46 -58.5l-2 -9l-82 -84l-2 -3q-3 -2 -11 -8.5t-20.5 -18t-37 -34t-56.5 -52.5q-9 -9 -20 -9q-16 0 -57.5 32t-41.5 46z" />
<glyph unicode="&#xde;" horiz-adv-x="987" d="M61 4v191q0 13 3.5 136t3.5 136l18 1147q29 40 66.5 56t70.5 10.5t61.5 -20.5t45.5 -34t18 -33l-26 -356q4 -6 12 -6q22 0 65 3t66 3h67q44 0 67.5 -0.5t58.5 -3.5t55 -9t46 -17.5t44 -28.5t37.5 -42.5t36.5 -58.5q80 -173 25.5 -301.5t-195 -203t-314.5 -74.5 q-19 0 -55 4h-23v-41q0 -79 21 -336q0 -2 12 -86q0 -17 -18 -31q-63 -9 -209 -16q-2 0 -17 -3t-16 -3q-9 0 -18 5t-9 13zM330 989l6 -280h35q73 0 124 10.5t81 28.5t46.5 49.5t21.5 65t5 83.5q0 72 -47 76q-44 6 -221 6q-4 -1 -13 -2.5l-12 -2t-9 -2.5t-7.5 -4l-4.5 -6 t-4 -9.5t-1 -12.5z" />
<glyph unicode="&#xdf;" horiz-adv-x="1206" d="M66 242q0 107 4 560.5t4 586.5q0 137 24 200q29 78 96 132t147 77t169 23q81 0 127 -25q39 -22 68.5 -79.5t31.5 -100.5v-17q0 -47 -29.5 -136t-29.5 -136v-16q2 -25 20.5 -51t49.5 -54.5t40 -40.5q16 -15 52 -47t54.5 -49.5t50.5 -48.5t50.5 -52.5t43.5 -52.5t40 -58 t30 -60t23 -67.5t11 -70.5q2 -16 2 -47q0 -102 -30.5 -189t-93 -157t-169 -109.5t-246.5 -39.5q-20 0 -35 18v21q-2 6 -2 22q0 34 4 60t9 44.5t17.5 33.5t22 24t30 18t34 14t41 14t45.5 15q14 5 25 15.5t17.5 26.5t10.5 29.5t5 36t1.5 34.5t0 35.5t-0.5 29.5v13 q-5 63 -22.5 113.5t-40 84t-60.5 66.5t-70 54t-82 54.5t-85 59.5q-59 43 -65 129v16q0 30 9 89t9 89v17q0 2 -2 14t-2 14q0 3 -2 4.5t-5.5 2t-7 0.5t-6.5 -0.5t-4 -0.5q-94 0 -88 -194q1 -36 6 -185.5t9.5 -253t12.5 -239.5t21.5 -231t30.5 -140l27 -94q-1 -2 -4 -9 t-5 -10.5t-6 -7t-10 -4.5q-22 -3 -121 -23t-149 -20q-36 0 -51 172v7v8q0 4 -0.5 13.5t-1 17t-0.5 8.5z" />
<glyph unicode="&#xe0;" horiz-adv-x="946" d="M61 283q0 51 2 57q23 95 106 179t191.5 132t208.5 49q4 43 6 68q0 56 -8 99t-27.5 82t-58 60t-94.5 21h-37q-5 0 -14.5 -2.5t-16.5 -5t-8 -2.5q-7 0 -13.5 7.5t-8.5 14.5q1 38 -1.5 104.5t-2.5 92.5q0 19 7 27t27 16q117 36 209 14t159 -87t111 -172t65.5 -242t21.5 -297 q0 -33 -10 -237t-13 -245q1 -12 -46.5 -18t-105 -10t-69.5 -8q-11 0 -18.5 17t-9 30.5t-1.5 19.5q-136 -84 -280 -92h-8q-82 0 -143.5 50.5t-90.5 124t-29 153.5zM291 319q0 -21 1 -35.5t3.5 -34.5t9 -33.5t16 -26t26 -19t38.5 -6.5q59 0 113.5 31.5t66.5 76.5v23 q0 6 -2 34.5t-6.5 83.5t-7.5 99q0 2 -6 2q-25 0 -83 -23t-113.5 -67t-55.5 -88v-17zM340 1589q0 15 46.5 59t66.5 44q10 0 22 -9q97 -92 182 -200q13 -20 13 -33q0 -14 -41.5 -46t-57.5 -32q-12 0 -20 8q-23 22 -42.5 40t-32 29.5t-22.5 20.5l-15 13.5t-8.5 7.5t-4.5 5l-2 1 l-82 84q-2 6 -2 8z" />
<glyph unicode="&#xe1;" horiz-adv-x="946" d="M61 283q0 51 2 57q23 95 106 179t191.5 132t208.5 49q4 43 6 68q0 56 -8 99t-27.5 82t-58 60t-94.5 21h-37q-5 0 -14.5 -2.5t-16.5 -5t-8 -2.5q-7 0 -13.5 7.5t-8.5 14.5q1 38 -1.5 104.5t-2.5 92.5q0 19 7 27t27 16q117 36 209 14t159 -87t111 -172t65.5 -242t21.5 -297 q0 -33 -10 -237t-13 -245q1 -12 -46.5 -18t-105 -10t-69.5 -8q-11 0 -18.5 17t-9 30.5t-1.5 19.5q-136 -84 -280 -92h-8q-82 0 -143.5 50.5t-90.5 124t-29 153.5zM291 319q0 -21 1 -35.5t3.5 -34.5t9 -33.5t16 -26t26 -19t38.5 -6.5q59 0 113.5 31.5t66.5 76.5v23 q0 6 -2 34.5t-6.5 83.5t-7.5 99q0 2 -6 2q-25 0 -83 -23t-113.5 -67t-55.5 -88v-17zM291 1466q0 15 12 33q88 112 182 201q11 8 23 8q21 0 67 -43.5t46 -58.5l-3 -9l-81 -84l-3 -3q-2 -2 -10 -8.5t-20.5 -18t-37 -34t-56.5 -52.5q-8 -8 -21 -8q-16 0 -57 31.5t-41 45.5z" />
<glyph unicode="&#xe2;" horiz-adv-x="946" d="M61 283q0 51 2 57q23 95 106 179t191.5 132t208.5 49q4 43 6 68q0 56 -8 99t-27.5 82t-58 60t-94.5 21h-37q-5 0 -14.5 -2.5t-16.5 -5t-8 -2.5q-7 0 -13.5 7.5t-8.5 14.5q1 38 -1.5 104.5t-2.5 92.5q0 19 7 27t27 16q117 36 209 14t159 -87t111 -172t65.5 -242t21.5 -297 q0 -33 -10 -237t-13 -245q1 -12 -46.5 -18t-105 -10t-69.5 -8q-11 0 -18.5 17t-9 30.5t-1.5 19.5q-136 -84 -280 -92h-8q-82 0 -143.5 50.5t-90.5 124t-29 153.5zM158 1382l233 258q2 1 16.5 1.5t34.5 0.5t43.5 -0.5t43 -1.5t33.5 -2h13l211 -231q0 -13 -22 -27.5t-59 -30.5 l-37 -16q-12 -4 -17 -4l-166 184l-6 11l-149 -185q-24 -24 -47 -24q-11 0 -66 30.5t-59 36.5zM291 319q0 -21 1 -35.5t3.5 -34.5t9 -33.5t16 -26t26 -19t38.5 -6.5q59 0 113.5 31.5t66.5 76.5v23q0 6 -2 34.5t-6.5 83.5t-7.5 99q0 2 -6 2q-25 0 -83 -23t-113.5 -67 t-55.5 -88v-17z" />
<glyph unicode="&#xe3;" horiz-adv-x="946" d="M61 283q0 51 2 57q23 95 106 179t191.5 132t208.5 49q4 43 6 68q0 56 -8 99t-27.5 82t-58 60t-94.5 21h-37q-5 0 -14.5 -2.5t-16.5 -5t-8 -2.5q-7 0 -13.5 7.5t-8.5 14.5q1 38 -1.5 104.5t-2.5 92.5q0 19 7 27t27 16q117 36 209 14t159 -87t111 -172t65.5 -242t21.5 -297 q0 -33 -10 -237t-13 -245q1 -12 -46.5 -18t-105 -10t-69.5 -8q-11 0 -18.5 17t-9 30.5t-1.5 19.5q-136 -84 -280 -92h-8q-82 0 -143.5 50.5t-90.5 124t-29 153.5zM190 1454q0 93 54.5 169.5t134.5 76.5q68 0 84 -31q7 -8 19.5 -30t31.5 -42.5t51 -40.5q12 0 19.5 1.5t13.5 7 t9.5 11t7.5 19t6.5 24.5t7.5 34.5t10 42.5q20 16 92 16q27 0 33 -24q13 -128 -35.5 -216t-150.5 -88q-42 0 -84.5 27.5t-71.5 69.5q-3 5 -10 18t-11 18.5t-13 11t-21 5.5q-10 0 -21 -10.5t-14 -22.5l-17 -76l-30 -16q-5 0 -19 -0.5t-21.5 -0.5t-19.5 2t-18.5 7t-11.5 14 t-5 23zM291 319q0 -21 1 -35.5t3.5 -34.5t9 -33.5t16 -26t26 -19t38.5 -6.5q59 0 113.5 31.5t66.5 76.5v23q0 6 -2 34.5t-6.5 83.5t-7.5 99q0 2 -6 2q-25 0 -83 -23t-113.5 -67t-55.5 -88v-17z" />
<glyph unicode="&#xe4;" horiz-adv-x="946" d="M61 283q0 51 2 57q23 95 106 179t191.5 132t208.5 49q4 43 6 68q0 56 -8 99t-27.5 82t-58 60t-94.5 21h-37q-5 0 -14.5 -2.5t-16.5 -5t-8 -2.5q-7 0 -13.5 7.5t-8.5 14.5q1 38 -1.5 104.5t-2.5 92.5q0 19 7 27t27 16q117 36 209 14t159 -87t111 -172t65.5 -242t21.5 -297 q0 -33 -10 -237t-13 -245q1 -12 -46.5 -18t-105 -10t-69.5 -8q-11 0 -18.5 17t-9 30.5t-1.5 19.5q-136 -84 -280 -92h-8q-82 0 -143.5 50.5t-90.5 124t-29 153.5zM227 1487q0 64 54 98q47 30 88 9q37 -19 37 -74q0 -48 -29 -86.5t-76 -38.5q-36 0 -55 27.5t-19 64.5z M291 319q0 -21 1 -35.5t3.5 -34.5t9 -33.5t16 -26t26 -19t38.5 -6.5q59 0 113.5 31.5t66.5 76.5v23q0 6 -2 34.5t-6.5 83.5t-7.5 99q0 2 -6 2q-25 0 -83 -23t-113.5 -67t-55.5 -88v-17zM631 1487q0 37 32 71.5t70 34.5q46 0 66 -21.5t20 -68.5q0 -45 -29 -71.5t-73 -26.5 q-25 10 -39.5 17.5t-30.5 25t-16 39.5z" />
<glyph unicode="&#xe5;" horiz-adv-x="946" d="M61 283q0 51 2 57q23 95 106 179t191.5 132t208.5 49q4 43 6 68q0 56 -8 99t-27.5 82t-58 60t-94.5 21h-37q-5 0 -14.5 -2.5t-16.5 -5t-8 -2.5q-7 0 -13.5 7.5t-8.5 14.5q1 38 -1.5 104.5t-2.5 92.5q0 19 7 27t27 16q117 36 209 14t159 -87t111 -172t65.5 -242t21.5 -297 q0 -33 -10 -237t-13 -245q1 -12 -46.5 -18t-105 -10t-69.5 -8q-11 0 -18.5 17t-9 30.5t-1.5 19.5q-136 -84 -280 -92h-8q-82 0 -143.5 50.5t-90.5 124t-29 153.5zM219 1610q0 64 35 125q10 17 18.5 30.5t22.5 31t29 30t35.5 26.5t45 22t53.5 14t66 5.5t78 -6.5 q56 -13 94.5 -70t38.5 -118q0 -89 -21.5 -155.5t-57 -102.5t-81 -54.5t-94 -15.5t-94.5 19.5t-84 44.5q-40 31 -62 79.5t-22 94.5zM291 319q0 -21 1 -35.5t3.5 -34.5t9 -33.5t16 -26t26 -19t38.5 -6.5q59 0 113.5 31.5t66.5 76.5v23q0 6 -2 34.5t-6.5 83.5t-7.5 99q0 2 -6 2 q-25 0 -83 -23t-113.5 -67t-55.5 -88v-17zM369 1612q0 -28 25 -40.5t57 -12.5q55 0 89.5 31.5t34.5 86.5q0 31 -30.5 54.5t-63.5 23.5q-52 0 -82 -43.5t-30 -99.5z" />
<glyph unicode="&#xe6;" horiz-adv-x="1564" d="M61 283q0 51 2 57q23 95 106 179t191.5 132t208.5 49q4 43 6 68q0 56 -8 99t-27.5 82t-58 60t-94.5 21h-37q-5 0 -14.5 -2.5t-16.5 -5t-8 -2.5q-7 0 -13.5 7.5t-8.5 14.5q1 38 -1.5 104.5t-2.5 92.5q0 19 7 27t27 16q177 52 300.5 -22.5t189.5 -251.5q140 186 321 186 q159 0 241 -71.5t114 -239.5q18 -95 18 -156v-29q0 -21 -0.5 -33.5t-4 -30.5t-10.5 -29t-20 -21t-32 -15h-13q-23 0 -241 -18.5t-267 -11.5q-30 0 -30 -74l-6 -195q0 -6 12 -24q50 -62 164 -62q31 0 97 6.5t97 6.5t51.5 -13.5t29 -40t11 -50t2.5 -58.5q0 -8 -8.5 -18.5 t-15.5 -14.5q-63 -36 -125 -46.5t-156 -10.5h-18q-148 0 -238 49q-14 9 -35.5 24t-32 21.5t-26 15.5t-24 11t-19 2.5t-18.5 -5t-15 -16.5q-136 -84 -280 -92h-8q-82 0 -143.5 50.5t-90.5 124t-29 153.5zM291 319q0 -21 1 -35.5t3.5 -34.5t9 -33.5t16 -26t26 -19t38.5 -6.5 q59 0 113.5 31.5t66.5 76.5v23q0 6 -2 34.5t-6.5 83.5t-7.5 99q0 2 -6 2q-25 0 -83 -23t-113.5 -67t-55.5 -88v-17zM944 731q4 -11 8 -12h31l219 16q29 0 37 19q6 36 6 86q0 60 -20.5 88t-77.5 28q-67 0 -135 -79t-68 -146z" />
<glyph unicode="&#xe7;" horiz-adv-x="985" d="M61 524v11q0 102 37 201t101.5 175t151.5 130.5t187 68.5t207 -12q23 0 23 -45v-23q0 -10 -8 -158q-27 -7 -80 -14t-92.5 -13t-88 -24.5t-79.5 -46t-52.5 -81t-21.5 -126.5q0 -100 58 -155.5t159 -55.5q46 0 139.5 10.5t139.5 10.5q7 0 25 -34t33 -77t21 -82.5t-12 -50.5 q-37 -24 -113.5 -42t-166.5 -21l-58 -93l-14 -14l-88 -127q-8 -12 -20 -12q-30 0 -108 51l-11 8l114 201q-77 16 -140.5 46.5t-118 81.5t-87.5 130.5t-37 181.5z" />
<glyph unicode="&#xe8;" horiz-adv-x="1007" d="M61 514q0 47 14 115t40 149.5t70 161t98.5 145t130 106t159.5 40.5q159 0 241 -71.5t114 -239.5q18 -95 18 -156v-29q0 -21 -0.5 -33.5t-4 -30.5t-10.5 -29t-20 -21t-32 -15h-13q-24 0 -241.5 -19t-266.5 -12q-30 0 -30 -73l-6 -195q0 -6 12 -24q50 -62 164 -62 q32 0 97 6t97 6q31 0 51.5 -13.5t29 -39.5t11 -49.5t2.5 -58.5q0 -8 -8.5 -19t-15.5 -14q-63 -36 -125 -46.5t-156 -10.5h-18q-79 0 -141 15t-104 38.5t-71.5 64t-46 80.5t-25.5 100.5t-11.5 110.5t-2.5 123zM387 768q4 -11 8 -12h31l219 16q29 0 37 19q6 36 6 86 q0 60 -20.5 88t-77.5 28q-67 0 -135 -79t-68 -146zM420 1524q0 15 46 58.5t66 43.5q12 0 23 -8q94 -89 182 -201q13 -20 13 -33q0 -14 -41.5 -45.5t-57.5 -31.5q-12 0 -20 8q-23 22 -42.5 40t-32 29.5t-22.5 20.5l-15 13.5t-8.5 7.5t-4.5 4l-2 2l-82 84q-2 6 -2 8z" />
<glyph unicode="&#xe9;" horiz-adv-x="1007" d="M61 514q0 47 14 115t40 149.5t70 161t98.5 145t130 106t159.5 40.5q159 0 241 -71.5t114 -239.5q18 -95 18 -156v-29q0 -21 -0.5 -33.5t-4 -30.5t-10.5 -29t-20 -21t-32 -15h-13q-24 0 -241.5 -19t-266.5 -12q-30 0 -30 -73l-6 -195q0 -6 12 -24q50 -62 164 -62 q32 0 97 6t97 6q31 0 51.5 -13.5t29 -39.5t11 -49.5t2.5 -58.5q0 -8 -8.5 -19t-15.5 -14q-63 -36 -125 -46.5t-156 -10.5h-18q-79 0 -141 15t-104 38.5t-71.5 64t-46 80.5t-25.5 100.5t-11.5 110.5t-2.5 123zM338 1397q0 15 12 33q85 108 182 200q11 8 23 8q21 0 67 -43.5 t46 -58.5l-2 -8l-82 -84l-2 -2q-3 -3 -11 -10t-20.5 -18.5t-37 -34t-56.5 -52.5q-8 -8 -21 -8q-16 0 -57 32t-41 46zM387 768q4 -11 8 -12h31l219 16q29 0 37 19q6 36 6 86q0 60 -20.5 88t-77.5 28q-67 0 -135 -79t-68 -146z" />
<glyph unicode="&#xea;" horiz-adv-x="1007" d="M61 514q0 47 14 115t40 149.5t70 161t98.5 145t130 106t159.5 40.5q159 0 241 -71.5t114 -239.5q18 -95 18 -156v-29q0 -21 -0.5 -33.5t-4 -30.5t-10.5 -29t-20 -21t-32 -15h-13q-24 0 -241.5 -19t-266.5 -12q-30 0 -30 -73l-6 -195q0 -6 12 -24q50 -62 164 -62 q32 0 97 6t97 6q31 0 51.5 -13.5t29 -39.5t11 -49.5t2.5 -58.5q0 -8 -8.5 -19t-15.5 -14q-63 -36 -125 -46.5t-156 -10.5h-18q-79 0 -141 15t-104 38.5t-71.5 64t-46 80.5t-25.5 100.5t-11.5 110.5t-2.5 123zM266 1366l234 258q2 1 16.5 1.5t34.5 0.5t43.5 -0.5t43 -1.5 t32.5 -2h14l211 -231q0 -13 -22 -27.5t-59 -30.5l-38 -16q-12 -4 -16 -4l-166 184l-6 10l-150 -184q-25 -25 -47 -25q-11 0 -66 31t-59 37zM387 768q4 -11 8 -12h31l219 16q29 0 37 19q6 36 6 86q0 60 -20.5 88t-77.5 28q-67 0 -135 -79t-68 -146z" />
<glyph unicode="&#xeb;" horiz-adv-x="1007" d="M61 514q0 47 14 115t40 149.5t70 161t98.5 145t130 106t159.5 40.5q159 0 241 -71.5t114 -239.5q18 -95 18 -156v-29q0 -21 -0.5 -33.5t-4 -30.5t-10.5 -29t-20 -21t-32 -15h-13q-24 0 -241.5 -19t-266.5 -12q-30 0 -30 -73l-6 -195q0 -6 12 -24q50 -62 164 -62 q32 0 97 6t97 6q31 0 51.5 -13.5t29 -39.5t11 -49.5t2.5 -58.5q0 -8 -8.5 -19t-15.5 -14q-63 -36 -125 -46.5t-156 -10.5h-18q-79 0 -141 15t-104 38.5t-71.5 64t-46 80.5t-25.5 100.5t-11.5 110.5t-2.5 123zM348 1397q0 64 54 98q46 29 86 9q38 -18 38 -74 q0 -48 -28.5 -86.5t-75.5 -38.5q-36 0 -55 27.5t-19 64.5zM387 768q4 -11 8 -12h31l219 16q29 0 37 19q6 36 6 86q0 60 -20.5 88t-77.5 28q-67 0 -135 -79t-68 -146zM752 1397q0 37 32 71.5t70 34.5q46 0 66 -21.5t20 -68.5q0 -45 -29 -71.5t-73 -26.5q-25 10 -39.5 17.5 t-30.5 25t-16 39.5z" />
<glyph unicode="&#xec;" horiz-adv-x="483" d="M61 102v41q0 109 14 298.5t31 373.5t19 227q0 19 25 19q20 0 68.5 1.5t85 0.5t73.5 -6q14 -8 14 -31q0 -95 -11 -298.5t-15.5 -331.5t6.5 -302q0 -45 -113 -45h-33q-149 0 -164 53zM76 1536q0 15 46 58.5t66 43.5q12 0 23 -8q97 -92 182 -200q13 -20 13 -33 q0 -14 -41.5 -46t-57.5 -32q-12 0 -20 8q-23 22 -42.5 40t-32 29.5t-22.5 20.5l-15 13.5t-8.5 7.5t-4.5 4l-2 2l-82 84q-2 6 -2 8z" />
<glyph unicode="&#xed;" horiz-adv-x="483" d="M61 102v41q0 109 14 298.5t31 373.5t19 227q0 19 25 19q20 0 68.5 1.5t85 0.5t73.5 -6q14 -8 14 -31q0 -95 -11 -298.5t-15.5 -331.5t6.5 -302q0 -45 -113 -45h-33q-149 0 -164 53zM76 1397q0 15 12 33q85 108 182 200q11 8 23 8q21 0 67 -43.5t46 -58.5l-3 -8l-81 -84 l-2 -2q-3 -3 -11 -10t-20.5 -18.5t-37 -34t-56.5 -52.5q-8 -8 -21 -8q-16 0 -57 32t-41 46z" />
<glyph unicode="&#xee;" horiz-adv-x="483" d="M-72 1382l234 258q2 1 16.5 1.5t34.5 0.5t43.5 -0.5t43 -1.5t32.5 -2h14l211 -231q0 -13 -22 -27.5t-59 -30.5l-38 -16q-12 -4 -16 -4l-166 184l-6 11l-150 -185q-24 -24 -47 -24q-11 0 -66 30.5t-59 36.5zM61 102v41q0 109 14 298.5t31 373.5t19 227q0 19 25 19 q20 0 68.5 1.5t85 0.5t73.5 -6q14 -8 14 -31q0 -95 -11 -298.5t-15.5 -331.5t6.5 -302q0 -45 -113 -45h-33q-149 0 -164 53z" />
<glyph unicode="&#xef;" horiz-adv-x="483" d="M18 1397q0 64 54 98q47 30 88 9q37 -19 37 -74q0 -48 -29 -86.5t-76 -38.5q-36 0 -55 27.5t-19 64.5zM61 102v41q0 109 14 298.5t31 373.5t19 227q0 19 25 19q20 0 68.5 1.5t85 0.5t73.5 -6q14 -8 14 -31q0 -95 -11 -298.5t-15.5 -331.5t6.5 -302q0 -45 -113 -45h-33 q-149 0 -164 53zM422 1397q0 37 32 71.5t70 34.5q46 0 66 -21.5t20 -68.5q0 -45 -29 -71.5t-73 -26.5q-25 10 -39.5 17.5t-30.5 25t-16 39.5z" />
<glyph unicode="&#xf0;" horiz-adv-x="1105" d="M61 422q0 216 234 377q92 65 266 65q95 0 144 -33q6 0 6 11q0 65 -62 144t-125 116q-1 0 -3.5 1t-7 2.5l-7.5 2.5q0 -2 -6 -14l-27 -70q-4 -14 -29 -14q-2 0 -8.5 1t-7.5 1l-70 24q-2 1 -19.5 3.5t-31.5 6t-26.5 13t-12.5 22.5q30 55 39 86q0 25 -78 25h-8q-17 0 -48 -4 t-46 -4q-13 0 -22.5 8.5t-15 24.5t-9 32.5t-4.5 39t-1 37t0.5 33.5t0.5 23v60q7 10 20 17t23 10t28.5 6.5t24.5 5.5h100q28 0 82 -4t82 -4q13 0 22.5 19.5t15.5 42.5t21.5 42.5t39.5 19.5q3 0 12 -1t10 -1l117 -39q4 -2 11 -11t7 -13q0 -9 -6 -27l-45 -114v-9q0 -9 9 -17 t24 -16t18 -10q9 -7 36.5 -28t40 -31t34 -28t38 -34.5t31.5 -33.5q74 -88 142 -307q15 -49 21.5 -98.5t7.5 -80.5t1 -104q0 -171 -57 -328q-51 -137 -127.5 -208.5t-212.5 -98.5q-26 -8 -123 -20h-32q-155 0 -236 57q-94 67 -144.5 185t-50.5 241zM299 412q0 -99 40.5 -145 t137.5 -46q95 0 158.5 38t101.5 122q6 18 6 20q2 14 2 41q0 247 -278 197q-1 0 -8.5 -2.5t-17 -5.5t-13.5 -4q-129 -59 -129 -215z" />
<glyph unicode="&#xf1;" horiz-adv-x="1052" d="M61 1141v35q8 20 64.5 29t110 7t59.5 -8q28 -26 36 -40t11 -46l6 -2q124 80 324 80h16q254 0 287 -319q7 -65 12 -158t3.5 -247t-13.5 -302q-3 -20 -14.5 -25.5t-32.5 -5.5q-24 0 -70.5 6t-66.5 7q-19 1 -28.5 3t-19.5 11.5t-10 26.5q0 41 9.5 125t9.5 126v162 q0 74 -2.5 117t-12 84.5t-25.5 62t-47 37.5t-73 22t-105 5q-106 0 -116 -135q-35 -366 -25 -602q-29 -7 -77.5 -21.5t-84.5 -22.5t-69 -8q-8 0 -12.5 9.5t-4.5 15.5v20q0 68 -19.5 438.5t-19.5 512.5zM231 1380q0 93 54.5 169.5t134.5 76.5q68 0 84 -31q7 -8 19.5 -29.5 t31.5 -42t51 -40.5q12 0 19.5 1.5t13.5 7t9.5 11t7.5 19t6.5 24t7.5 34t10 42.5q20 16 92 16q27 0 33 -24q13 -127 -36 -215t-151 -88q-42 0 -84 27t-71 69q-3 5 -10 18t-11 18.5t-13 11t-21 5.5q-10 0 -21 -10.5t-14 -22.5l-17 -75l-30 -17q-5 0 -19 -0.5t-21.5 -0.5 t-19.5 2t-18.5 7t-11.5 14t-5 23z" />
<glyph unicode="&#xf2;" d="M61 551q0 141 79 276.5t204 190.5q95 43 178 43q100 0 178 -13.5t146 -46.5t112.5 -86.5t69.5 -136t25 -192.5q0 -136 -37 -246q-9 -25 -33.5 -56.5t-39.5 -46t-46 -44.5l-31 -25q-98 -65 -181.5 -97t-184.5 -32q-129 0 -248 80q-62 43 -100.5 87.5t-58 99t-26 109 t-6.5 136.5zM338 475q0 -90 62 -143t151 -53q42 0 94 30q156 91 156 312q0 30 -2 53.5t-9 41.5t-12.5 30t-20.5 21.5t-25 15t-33.5 10t-38 6.5t-46.5 6l-36 4h-15q-58 0 -103.5 -33t-71 -85.5t-38 -107.5t-12.5 -108zM399 1384q0 15 46.5 59t66.5 44q12 0 23 -8 q94 -89 182 -201q12 -18 12 -33q0 -14 -41 -46t-57 -32q-12 0 -21 9q-23 22 -42.5 40t-32 29.5t-22 20t-15 13.5t-9 7.5t-5.5 3.5l-1 2l-82 84q-2 6 -2 8z" />
<glyph unicode="&#xf3;" d="M61 551q0 141 79 276.5t204 190.5q95 43 178 43q100 0 178 -13.5t146 -46.5t112.5 -86.5t69.5 -136t25 -192.5q0 -136 -37 -246q-9 -25 -33.5 -56.5t-39.5 -46t-46 -44.5l-31 -25q-98 -65 -181.5 -97t-184.5 -32q-129 0 -248 80q-62 43 -100.5 87.5t-58 99t-26 109 t-6.5 136.5zM338 475q0 -90 62 -143t151 -53q42 0 94 30q156 91 156 312q0 30 -2 53.5t-9 41.5t-12.5 30t-20.5 21.5t-25 15t-33.5 10t-38 6.5t-46.5 6l-36 4h-15q-58 0 -103.5 -33t-71 -85.5t-38 -107.5t-12.5 -108zM371 1237q0 15 12 33q85 108 182 200q12 9 23 9 q20 0 66 -44t46 -59l-2 -8l-82 -84l-2 -2q-3 -3 -11 -10t-20.5 -18.5t-37 -34t-56.5 -52.5q-8 -8 -20 -8q-16 0 -57 32t-41 46z" />
<glyph unicode="&#xf4;" d="M61 551q0 141 79 276.5t204 190.5q95 43 178 43q100 0 178 -13.5t146 -46.5t112.5 -86.5t69.5 -136t25 -192.5q0 -136 -37 -246q-9 -25 -33.5 -56.5t-39.5 -46t-46 -44.5l-31 -25q-98 -65 -181.5 -97t-184.5 -32q-129 0 -248 80q-62 43 -100.5 87.5t-58 99t-26 109 t-6.5 136.5zM238 1243l233 258q2 1 16.5 1.5t34.5 0.5t43.5 -0.5t43 -1.5t33.5 -1l13 -1l211 -231q0 -13 -22 -27.5t-59 -30.5l-37 -16q-12 -4 -17 -4l-166 184l-6 10l-149 -184q-24 -24 -48 -24q-11 0 -65.5 30.5t-58.5 36.5zM338 475q0 -90 62 -143t151 -53q42 0 94 30 q156 91 156 312q0 30 -2 53.5t-9 41.5t-12.5 30t-20.5 21.5t-25 15t-33.5 10t-38 6.5t-46.5 6l-36 4h-15q-58 0 -103.5 -33t-71 -85.5t-38 -107.5t-12.5 -108z" />
<glyph unicode="&#xf5;" d="M61 551q0 141 79 276.5t204 190.5q95 43 178 43q100 0 178 -13.5t146 -46.5t112.5 -86.5t69.5 -136t25 -192.5q0 -136 -37 -246q-9 -25 -33.5 -56.5t-39.5 -46t-46 -44.5l-31 -25q-98 -65 -181.5 -97t-184.5 -32q-129 0 -248 80q-62 43 -100.5 87.5t-58 99t-26 109 t-6.5 136.5zM254 1253q0 93 54 169.5t134 76.5q68 0 84 -31q7 -8 20 -30t32 -42t51 -40q12 0 19.5 1.5t13.5 7t9.5 11t7.5 18.5t6 24.5t7 34.5t10 42q20 16 93 16q26 0 32 -24q13 -128 -35.5 -215.5t-150.5 -87.5q-43 0 -85 27t-71 69q-3 5 -10 18t-11 18.5t-13 11t-21 5.5 q-10 0 -21 -10.5t-14 -22.5l-16 -75l-31 -17q-5 0 -19 -0.5t-21.5 -0.5t-19.5 2t-18 7t-11 14t-5 23zM338 475q0 -90 62 -143t151 -53q42 0 94 30q156 91 156 312q0 30 -2 53.5t-9 41.5t-12.5 30t-20.5 21.5t-25 15t-33.5 10t-38 6.5t-46.5 6l-36 4h-15q-58 0 -103.5 -33 t-71 -85.5t-38 -107.5t-12.5 -108z" />
<glyph unicode="&#xf6;" d="M61 551q0 141 79 276.5t204 190.5q95 43 178 43q100 0 178 -13.5t146 -46.5t112.5 -86.5t69.5 -136t25 -192.5q0 -136 -37 -246q-9 -25 -33.5 -56.5t-39.5 -46t-46 -44.5l-31 -25q-98 -65 -181.5 -97t-184.5 -32q-129 0 -248 80q-62 43 -100.5 87.5t-58 99t-26 109 t-6.5 136.5zM332 1303q0 64 54 98q46 29 86 9q37 -21 38 -75q0 -48 -28.5 -86.5t-75.5 -38.5q-36 0 -55 28t-19 65zM338 475q0 -90 62 -143t151 -53q42 0 94 30q156 91 156 312q0 30 -2 53.5t-9 41.5t-12.5 30t-20.5 21.5t-25 15t-33.5 10t-38 6.5t-46.5 6l-36 4h-15 q-58 0 -103.5 -33t-71 -85.5t-38 -107.5t-12.5 -108zM735 1303q0 37 32.5 71.5t70.5 34.5q46 0 66 -21.5t20 -68.5q0 -45 -29.5 -71.5t-73.5 -26.5q-25 10 -39.5 17.5t-30.5 25t-16 39.5z" />
<glyph unicode="&#xf8;" d="M61 551q0 141 79 276.5t204 190.5q95 43 178 43q37 0 53 -2l11 88q6 12 6 47q2 14 16 14t31 -3t35 -14.5t18 -29.5q0 -8 -2 -12l-12 -98q90 -14 156.5 -45t117 -85t76 -138t25.5 -197q0 -136 -37 -246q-9 -25 -33.5 -56.5t-39.5 -46t-46 -44.5l-31 -25 q-156 -107 -295 -125l-4 -37q0 -19 -4.5 -44t-13.5 -25q-7 0 -47 10q-2 0 -11 0.5t-14.5 1.5t-10.5 8t-5 20l4 62q-108 8 -213 80q-62 43 -100.5 87.5t-58 99t-26 109t-6.5 136.5zM338 475q0 -74 43.5 -124t110.5 -66l57 524q-55 -4 -97.5 -38.5t-66 -86t-35.5 -105 t-12 -104.5zM596 285q26 10 49 24q156 91 156 312q0 54 -8 87t-28.5 52t-45 27t-68.5 14z" />
<glyph unicode="&#xf9;" horiz-adv-x="1024" d="M61 324q0 109 26 430t56 321q43 0 132 4t131 4q18 0 18 -34v-23l-4 -37q-53 -488 -53 -567q0 -123 49 -123q39 -10 71 -11t56.5 10t44.5 24t33.5 40.5t23.5 49.5t16 61.5t10 65.5t5 73.5t1.5 73t0.5 74.5v26q0 42 -4 124.5t-4 123.5q0 36 209 35h41q20 -7 28 -29v-727 q0 -37 7.5 -112t7.5 -113q0 -28 -21 -49t-54.5 -31.5t-65.5 -15t-62 -4.5q-11 0 -20.5 21t-15 53.5t-8 53t-3.5 38.5q-145 -162 -324 -162q-155 0 -241.5 88t-86.5 244zM379 1376q0 15 46.5 59t66.5 44q10 0 22 -9q97 -92 182 -200q13 -20 13 -33q0 -14 -41.5 -46t-57.5 -32 q-12 0 -20 8q-23 22 -42.5 40t-32 29.5t-22.5 20.5l-15 13.5t-8.5 7.5t-5.5 4l-1 2l-82 84q-2 6 -2 8z" />
<glyph unicode="&#xfa;" horiz-adv-x="1024" d="M61 324q0 109 26 430t56 321q43 0 132 4t131 4q18 0 18 -34v-23l-4 -37q-53 -488 -53 -567q0 -123 49 -123q39 -10 71 -11t56.5 10t44.5 24t33.5 40.5t23.5 49.5t16 61.5t10 65.5t5 73.5t1.5 73t0.5 74.5v26q0 42 -4 124.5t-4 123.5q0 36 209 35h41q20 -7 28 -29v-727 q0 -37 7.5 -112t7.5 -113q0 -28 -21 -49t-54.5 -31.5t-65.5 -15t-62 -4.5q-11 0 -20.5 21t-15 53.5t-8 53t-3.5 38.5q-145 -162 -324 -162q-155 0 -241.5 88t-86.5 244zM338 1290q0 15 12 33q88 112 182 201q11 8 23 8q21 0 67 -43.5t46 -58.5l-2 -9l-82 -84l-2 -3 q-3 -2 -11 -8.5t-20.5 -18t-37 -34t-56.5 -52.5q-9 -9 -21 -9q-16 0 -57 32t-41 46z" />
<glyph unicode="&#xfb;" horiz-adv-x="1024" d="M61 324q0 109 26 430t56 321q43 0 132 4t131 4q18 0 18 -34v-23l-4 -37q-53 -488 -53 -567q0 -123 49 -123q39 -10 71 -11t56.5 10t44.5 24t33.5 40.5t23.5 49.5t16 61.5t10 65.5t5 73.5t1.5 73t0.5 74.5v26q0 42 -4 124.5t-4 123.5q0 36 209 35h41q20 -7 28 -29v-727 q0 -37 7.5 -112t7.5 -113q0 -28 -21 -49t-54.5 -31.5t-65.5 -15t-62 -4.5q-11 0 -20.5 21t-15 53.5t-8 53t-3.5 38.5q-145 -162 -324 -162q-155 0 -241.5 88t-86.5 244zM229 1296l234 258q2 1 16.5 1.5t34.5 0.5t43.5 -0.5t43 -1.5t33.5 -2h13l211 -231q0 -13 -22 -27.5 t-60 -30.5l-37 -16q-12 -4 -16 -4l-166 184l-6 11l-150 -185q-24 -24 -47 -24q-11 0 -66 30.5t-59 36.5z" />
<glyph unicode="&#xfc;" horiz-adv-x="1024" d="M61 324q0 109 26 430t56 321q43 0 132 4t131 4q18 0 18 -34v-23l-4 -37q-53 -488 -53 -567q0 -123 49 -123q39 -10 71 -11t56.5 10t44.5 24t33.5 40.5t23.5 49.5t16 61.5t10 65.5t5 73.5t1.5 73t0.5 74.5v26q0 42 -4 124.5t-4 123.5q0 36 209 35h41q20 -7 28 -29v-727 q0 -37 7.5 -112t7.5 -113q0 -28 -21 -49t-54.5 -31.5t-65.5 -15t-62 -4.5q-11 0 -20.5 21t-15 53.5t-8 53t-3.5 38.5q-145 -162 -324 -162q-155 0 -241.5 88t-86.5 244zM324 1298q0 64 54 98q46 29 86 9q37 -20 38 -74q0 -48 -29 -86.5t-76 -38.5q-36 0 -54.5 27.5 t-18.5 64.5zM727 1298q0 38 32 72.5t70 34.5q46 0 66 -21.5t20 -68.5q0 -45 -29 -71.5t-73 -26.5q-25 10 -39.5 17t-30.5 24.5t-16 39.5z" />
<glyph unicode="&#xfd;" horiz-adv-x="1048" d="M61 514q0 42 2.5 90.5t5 81.5t9.5 93.5t9.5 80.5t12.5 92.5t11 83.5q0 1 1 3t1 3q0 2 1 7.5t1.5 7t1 6t1.5 6.5t2 5.5t2.5 5t3 4.5t4 4.5t5.5 3t6 2.5h74h18h25.5t27.5 -0.5t30.5 -2t26.5 -3.5t24 -6t16 -9v-74q0 -53 -7 -160.5t-7 -162.5v-90q14 -26 42.5 -39t50 -15 t58.5 -2h60q31 8 49 29q10 40 17 87.5t9.5 77.5t5.5 91.5t5 83.5q7 106 12 111l12 14q29 1 95.5 6.5t103.5 5.5h74q24 -4 24 -30q0 -9 -6.5 -23.5t-7.5 -19.5q-10 -104 -10 -336v-308q-2 -105 -39 -286l-6 -25q-3 -13 -8.5 -42.5t-7.5 -38.5t-7.5 -30.5t-10 -29.5 t-12.5 -24.5t-18 -26.5t-24.5 -24t-32.5 -28l-25 -14q-30 -8 -128 -23t-128 -16q-1 0 -26.5 -0.5t-57.5 -1t-47 -0.5q-9 0 -65 1t-66 1q-28 5 -45.5 11t-36 22.5t-22.5 42.5q-17 87 -17 113q0 27 13 38.5t38 14.5q66 4 197.5 7t198.5 7q25 10 43 31.5t26 48t13 57.5t4.5 61 t-0.5 58v86q-91 -84 -258 -84h-43l-129 13q-93 51 -117 73q-46 41 -55 125q-3 32 -3 78zM326 1278q0 15 12 33q85 108 182 200q12 9 23 9q20 0 66 -44t46 -59l-2 -8l-82 -84l-3 -3q-2 -2 -10 -9t-20.5 -18.5t-37 -34t-56.5 -52.5q-8 -8 -20 -8q-16 0 -57 32t-41 46z" />
<glyph unicode="&#xfe;" horiz-adv-x="997" d="M61 1624q0 5 0.5 16.5t1 20.5t0.5 10l7 12l45 21h178l88 -6l6 -8q2 -13 2 -17q0 -23 -4 -68t-4 -69q0 -33 3.5 -107t2.5 -120q1 -6 14 -6q22 0 63.5 7t61.5 7q61 0 136 -21q5 -2 27 -8.5t31.5 -9t29 -9.5t31.5 -12.5t27 -13.5t26 -16q50 -39 76 -152t26 -198 q0 -165 -84 -275t-242 -133q-41 -5 -124 -9t-124 -9v-76q0 -66 6.5 -196.5t6.5 -194.5q0 -18 -7.5 -40t-23.5 -22h-250l-6 6q2 40 2 178.5t-2 178.5q0 48 -6 84v1048q0 37 -10.5 104t-10.5 103zM387 743q0 -17 4 -26.5t16 -13.5t19 -4.5t29 -0.5q38 0 73 7q91 22 118.5 55 t33.5 129v102q-34 58 -67.5 71t-116.5 13q-5 0 -32 -1t-32 -1q-12 -2 -24 -18z" />
<glyph unicode="&#xff;" horiz-adv-x="1048" d="M61 514q0 42 2.5 90.5t5 81.5t9.5 93.5t9.5 80.5t12.5 92.5t11 83.5q0 1 1 3t1 3q0 2 1 7.5t1.5 7t1 6t1.5 6.5t2 5.5t2.5 5t3 4.5t4 4.5t5.5 3t6 2.5h74h18h25.5t27.5 -0.5t30.5 -2t26.5 -3.5t24 -6t16 -9v-74q0 -53 -7 -160.5t-7 -162.5v-90q14 -26 42.5 -39t50 -15 t58.5 -2h60q31 8 49 29q10 40 17 87.5t9.5 77.5t5.5 91.5t5 83.5q7 106 12 111l12 14q29 1 95.5 6.5t103.5 5.5h74q24 -4 24 -30q0 -9 -6.5 -23.5t-7.5 -19.5q-10 -104 -10 -336v-308q-2 -105 -39 -286l-6 -25q-3 -13 -8.5 -42.5t-7.5 -38.5t-7.5 -30.5t-10 -29.5 t-12.5 -24.5t-18 -26.5t-24.5 -24t-32.5 -28l-25 -14q-30 -8 -128 -23t-128 -16q-1 0 -26.5 -0.5t-57.5 -1t-47 -0.5q-9 0 -65 1t-66 1q-28 5 -45.5 11t-36 22.5t-22.5 42.5q-17 87 -17 113q0 27 13 38.5t38 14.5q66 4 197.5 7t198.5 7q25 10 43 31.5t26 48t13 57.5t4.5 61 t-0.5 58v86q-91 -84 -258 -84h-43l-129 13q-93 51 -117 73q-46 41 -55 125q-3 32 -3 78zM315 1278q0 64 54 98q47 30 88 9q37 -19 37 -74q0 -48 -29 -86.5t-76 -38.5q-36 0 -55 27.5t-19 64.5zM719 1278q0 37 32 71.5t70 34.5q46 0 66 -21.5t20 -68.5q0 -45 -29 -71.5 t-73 -26.5q-25 10 -39.5 17.5t-30.5 25t-16 39.5z" />
<glyph unicode="&#x152;" horiz-adv-x="1429" d="M61 743v64q0 65 7 133t23.5 142t41.5 141t64 128t86.5 105.5t113.5 71t142 26.5q20 0 28 -2q3 21 4 21l574 33q26 0 26 -21q0 -14 -1.5 -49t-1.5 -77t3 -97q0 -7 -5 -14t-15 -7q-3 0 -22 -1t-23 -1q-41 0 -126.5 11.5t-131.5 11.5h-29q-10 -5 -10 -27l4 -352 q0 -5 -1 -30.5t-0.5 -40t4.5 -34t13 -28.5l244 4q1 -23 10 -82.5t9 -89.5q-4 -27 -19 -31q-17 1 -78 1t-80 -1q-45 0 -69 -4l-8 -6q-6 -42 -1.5 -142t13 -203.5t10.5 -105.5l4 -24l406 22q2 0 17 1t16 1h12q53 0 53 -198v-25q-2 0 -4.5 -1t-3.5 -1l-12 -2q-12 -2 -15 -2 l-150.5 -14t-168 -15.5t-149.5 -10.5t-160 -5h-12q-12 -1 -16.5 -0.5t-14 2t-14.5 5t-7 9.5q-1 1 -4 27q-6 0 -17.5 -1t-17.5 -1q-127 0 -234 68.5t-177 183.5t-101 262q-6 43 -17.5 144t-11.5 128zM317 906q-7 -142 18.5 -284t101 -241.5t173.5 -99.5h11l-46 966h-2 q-112 0 -180.5 -99.5t-75.5 -241.5z" />
<glyph unicode="&#x153;" horiz-adv-x="1523" d="M61 551q0 141 79 276.5t204 190.5q68 31 178 43q113 10 271 -23q132 156 297 156q159 0 240.5 -71.5t113.5 -239.5q18 -95 18 -156v-29q0 -21 -0.5 -33.5t-4 -30.5t-10.5 -29t-20 -21t-32 -15h-13q-23 0 -241 -18.5t-267 -11.5q-30 0 -30 -74l-6 -195q0 -6 12 -24 q50 -62 164 -62q32 0 97 6.5t97 6.5q31 0 51.5 -13.5t29.5 -40t11.5 -50t2.5 -58.5q0 -8 -9 -18.5t-16 -14.5q-63 -36 -125 -46.5t-156 -10.5h-18q-225 0 -317 116q-67 -22 -162 -22q-129 0 -248 80q-62 43 -100.5 87.5t-58 99t-26 109t-6.5 136.5zM338 475q0 -90 62 -143 t151 -53q25 0 35 4q-8 59 -8 194q0 57 19.5 144.5t55.5 177.5l-75 10h-15q-58 0 -103.5 -33t-71 -85.5t-38 -107.5t-12.5 -108zM903 731q4 -11 8 -12h31l219 16q29 0 37 19q6 36 6 86q0 60 -20.5 88t-77.5 28q-67 0 -135 -79t-68 -146z" />
<glyph unicode="&#x178;" horiz-adv-x="1275" d="M63 1499q0 17 7 21q29 9 127.5 33.5t148.5 45.5q18 -6 33 -26q62 -194 209 -567q3 -6 14 -39q4 -2 8 0q6 6 6 8q39 46 316 584q7 14 31 14q47 0 149 -24.5t102 -53.5v-10l-473 -823v-723q0 -13 -17.5 -18t-31.5 -5q-20 0 -93 4t-114 2l-14 760l-375 723q-3 8 -12.5 27 t-15 35.5t-5.5 31.5zM354 1778q0 64 54 98q46 29 86 9q38 -19 38 -75q0 -48 -28.5 -86t-75.5 -38q-36 0 -55 27.5t-19 64.5zM758 1778q0 37 32 71.5t70 34.5q46 0 66 -21.5t20 -68.5q0 -45 -29 -71.5t-73 -26.5q-25 10 -39.5 17.5t-30.5 25t-16 39.5z" />
<glyph unicode="&#x2000;" horiz-adv-x="1127" />
<glyph unicode="&#x2001;" horiz-adv-x="2255" />
<glyph unicode="&#x2002;" horiz-adv-x="1127" />
<glyph unicode="&#x2003;" horiz-adv-x="2255" />
<glyph unicode="&#x2004;" horiz-adv-x="751" />
<glyph unicode="&#x2005;" horiz-adv-x="563" />
<glyph unicode="&#x2006;" horiz-adv-x="375" />
<glyph unicode="&#x2007;" horiz-adv-x="375" />
<glyph unicode="&#x2008;" horiz-adv-x="281" />
<glyph unicode="&#x2009;" horiz-adv-x="451" />
<glyph unicode="&#x200a;" horiz-adv-x="125" />
<glyph unicode="&#x2010;" horiz-adv-x="1048" d="M61 616q0 41 48 41l847 -10q1 0 5 -1t6.5 -1.5t6.5 -2t6.5 -3.5t4.5 -5t2 -7v-174q0 -3 -2.5 -7t-5 -6.5l-5.5 -5.5l-3 -2h-47l-830 6q-6 4 -19.5 81t-13.5 97z" />
<glyph unicode="&#x2011;" horiz-adv-x="1048" d="M61 616q0 41 48 41l847 -10q1 0 5 -1t6.5 -1.5t6.5 -2t6.5 -3.5t4.5 -5t2 -7v-174q0 -3 -2.5 -7t-5 -6.5l-5.5 -5.5l-3 -2h-47l-830 6q-6 4 -19.5 81t-13.5 97z" />
<glyph unicode="&#x2012;" horiz-adv-x="1048" d="M61 616q0 41 48 41l847 -10q1 0 5 -1t6.5 -1.5t6.5 -2t6.5 -3.5t4.5 -5t2 -7v-174q0 -3 -2.5 -7t-5 -6.5l-5.5 -5.5l-3 -2h-47l-830 6q-6 4 -19.5 81t-13.5 97z" />
<glyph unicode="&#x2013;" horiz-adv-x="1146" d="M61 616q0 41 53 41l937 -10q1 0 5.5 -1t7 -1.5t7 -2t7.5 -3.5t5 -5t2 -7v-174q0 -3 -3 -7t-5.5 -6.5l-5.5 -5.5l-4 -2h-52l-918 6q-6 4 -21 81t-15 97z" />
<glyph unicode="&#x2014;" horiz-adv-x="2170" d="M61 616q0 41 106 41l1873 -10q3 0 11.5 -1t14 -1.5t14.5 -2t14.5 -3.5t10 -5t4.5 -7v-174q0 -3 -5.5 -7t-11 -6.5t-12.5 -5.5l-6 -2h-104l-1836 6q-13 4 -43 81t-30 97z" />
<glyph unicode="&#x2018;" horiz-adv-x="331" d="M63 1147l21 438q3 27 5.5 39.5t10 27t22.5 20t40 5.5q22 0 37 -6.5t22.5 -14t12 -26t5 -29t1.5 -36.5v-13q2 -91 17 -210.5t15 -192.5q0 -33 -52.5 -44.5t-105 2t-51.5 40.5z" />
<glyph unicode="&#x2019;" horiz-adv-x="331" d="M61 1628q0 33 52.5 44.5t105 -2t51.5 -40.5l-20 -438q-3 -27 -5.5 -39.5t-10 -27t-22.5 -20t-40 -5.5q-22 0 -37 6.5t-22.5 14t-12 26t-5 29t-1.5 36.5v13q-2 92 -17.5 211t-15.5 192z" />
<glyph unicode="&#x201a;" horiz-adv-x="333" d="M61 350q0 33 52.5 44.5t105 -2t51.5 -40.5l-20 -438q-3 -27 -5.5 -39.5t-10 -27t-22.5 -20t-40 -5.5q-22 0 -37 6.5t-22.5 14t-12 26t-5 29t-1.5 36.5v13q-2 92 -17.5 211t-15.5 192z" />
<glyph unicode="&#x201c;" horiz-adv-x="641" d="M63 1147l21 438q3 27 5.5 39.5t10 27t22.5 20t40 5.5q22 0 37 -6.5t22.5 -14t12 -26t5 -29t1.5 -36.5v-13q2 -91 17 -210.5t15 -192.5q0 -33 -52.5 -44.5t-105 2t-51.5 40.5zM371 1151l20 438q3 27 5.5 39.5t10 27t22.5 20t40 5.5q22 0 37 -6.5t22.5 -14t12 -26t5 -29 t1.5 -36.5v-13q2 -92 17.5 -211t15.5 -192q0 -33 -52.5 -44.5t-105 2t-51.5 40.5z" />
<glyph unicode="&#x201d;" horiz-adv-x="641" d="M61 1628q0 33 52.5 44.5t105 -2t51.5 -40.5l-20 -438q-3 -27 -5.5 -39.5t-10 -27t-22.5 -20t-40 -5.5q-22 0 -37 6.5t-22.5 14t-12 26t-5 29t-1.5 36.5v13q-2 92 -17.5 211t-15.5 192zM369 1632q0 33 52.5 44.5t105 -2t51.5 -40.5l-21 -438q-3 -27 -5.5 -39.5t-10 -27 t-22.5 -20t-40 -5.5q-22 0 -37 6.5t-22.5 14t-12 26t-5 29.5t-1.5 37v12q-2 91 -17 210.5t-15 192.5z" />
<glyph unicode="&#x201e;" horiz-adv-x="641" d="M61 399q0 33 52.5 44.5t105 -2t51.5 -40.5l-20 -438q-3 -27 -5.5 -39.5t-10 -27t-22.5 -20t-40 -5.5q-22 0 -37 6.5t-22.5 14t-12 26t-5 29.5t-1.5 37v12q-2 92 -17.5 211t-15.5 192zM369 403q0 33 52.5 44.5t105 -1.5t51.5 -40l-21 -439q-3 -27 -5.5 -39.5t-10 -27 t-22.5 -20t-40 -5.5q-22 0 -37 6.5t-22.5 14t-12 26t-5 29.5t-1.5 37v12q-2 91 -17 210.5t-15 192.5z" />
<glyph unicode="&#x202f;" horiz-adv-x="451" />
<glyph unicode="&#x2039;" horiz-adv-x="931" d="M61 565l652 494l12 4h2q4 0 7.5 -1.5t6 -3t6 -4.5t5 -5l4.5 -6t4 -5l110 -106l-505 -389q-3 0 -3 -2l3 -2q12 -11 16 -15q32 -22 179 -119.5t200 -134.5q2 -1 10 -6t11.5 -7.5t9 -7t8 -9.5t2.5 -11q0 -12 -59 -83t-76 -70q-11 2 -22 8.5t-24 17t-18 13.5z" />
<glyph unicode="&#x203a;" horiz-adv-x="931" d="M61 932l111 106q1 1 4 5l4.5 6t5 5t6 4.5t6 3t7.5 1.5h2l12 -4l651 -494l-540 -450q-5 -3 -18 -13.5t-24 -17t-22 -8.5q-17 -1 -76 70t-59 83q0 6 2.5 11t8 9.5t9 7t11.5 7.5t10 6q53 37 200 134.5t179 119.5l16 15l2 2l-2 2z" />
<glyph unicode="&#x205f;" horiz-adv-x="563" />
<glyph unicode="&#x20ac;" horiz-adv-x="1148" d="M63 795l3 24q15 21 45 21q0 54 6 106h-25q-18 0 -24.5 45.5t-4.5 73.5l3 25q19 24 79 20q26 101 69.5 188.5t104.5 160.5t143.5 123.5t178.5 70.5h10q129 0 202 -48.5t91 -168.5q0 -1 1 -6.5t1 -6.5l-176 -45q-9 0 -18.5 12.5t-17.5 28t-25 30.5t-39 19q-65 0 -120 -44 t-83 -109q-31 -79 -55 -211q180 0 270 -4q23 -1 40 -54.5t17 -82.5q0 -6 -6.5 -12.5t-15.5 -6.5h-326q-6 -56 -6 -110q112 0 197 -5q20 -1 33.5 -53.5t13.5 -83.5q0 -6 -6 -12t-13 -6h-221q15 -164 78.5 -264.5t185.5 -100.5q34 0 61.5 13t44 30t30.5 47t20.5 52t15.5 57 q0 38 6 97t19 59q33 0 100.5 2t100.5 2h18q7 -2 10.5 -7.5t5 -14t1.5 -15t-0.5 -16t-0.5 -11.5q0 -62 -6.5 -114t-24.5 -105t-47.5 -94t-77 -76.5t-110.5 -58.5q-111 -39 -182 -39q-156 0 -252 67.5t-176 218.5q-67 125 -88 273h-33q-15 0 -21 46t-4 73z" />
<glyph unicode="&#x25fc;" horiz-adv-x="1054" d="M0 0v1055h1055v-1055h-1055z" />
</font>
</defs>
</svg>
