<?xml version="1.0" encoding="utf-8"?>
<!-- Generator: Adobe Illustrator 18.1.1, SVG Export Plug-In . SVG Version: 6.00 Build 0)  -->
<svg version="1.1" id="Calque_1" xmlns="http://www.w3.org/2000/svg" xmlns:xlink="http://www.w3.org/1999/xlink" x="0px" y="0px"
	 width="62px" height="62.1px" viewBox="0 0 62 62.1" enable-background="new 0 0 62 62.1" xml:space="preserve">
<pattern  x="-19" y="-18.9" width="1162" height="1600" patternUnits="userSpaceOnUse" id="Nouvelle_nuance_de_motif_8" viewBox="1 -1601 1162 1600" overflow="visible">
	<g>
		<polygon fill="none" points="1,-1 1163,-1 1163,-1601 1,-1601 		"/>
		<image overflow="visible" width="1162" height="1600" xlink:href="2D8429BB65F01BCB.jpg"  transform="matrix(1 0 0 1 1 -1601)">
		</image>
	</g>
</pattern>
<g>
	<g>
		<g>
			<pattern  id="SVGID_1_" xlink:href="#Nouvelle_nuance_de_motif_8" patternTransform="matrix(1 0 0 1 436 148.8392)">
			</pattern>
			<polygon fill="url(#SVGID_1_)" points="39.3,0.1 22.7,0.1 31,31.1 			"/>
			<radialGradient id="SVGID_2_" cx="31" cy="31.1476" r="31" gradientUnits="userSpaceOnUse">
				<stop  offset="0" style="stop-color:#FFFFFF;stop-opacity:0"/>
				<stop  offset="0.1906" style="stop-color:#DACFC4;stop-opacity:0.1906"/>
				<stop  offset="0.3977" style="stop-color:#B6A18C;stop-opacity:0.3977"/>
				<stop  offset="0.5896" style="stop-color:#9A7C5F;stop-opacity:0.5896"/>
				<stop  offset="0.7601" style="stop-color:#86623F;stop-opacity:0.7601"/>
				<stop  offset="0.9026" style="stop-color:#79522B;stop-opacity:0.9026"/>
				<stop  offset="1" style="stop-color:#754C24"/>
			</radialGradient>
			<polygon opacity="0.75" fill="url(#SVGID_2_)" points="39.3,0.1 22.7,0.1 31,31.1 			"/>
		</g>
		<g>
			
				<pattern  id="SVGID_3_" xlink:href="#Nouvelle_nuance_de_motif_8" patternTransform="matrix(0.866 -0.5 0.5 0.866 3546.6501 -5466.6289)">
			</pattern>
			<polygon fill="url(#SVGID_3_)" points="22.7,0 8.3,8.3 31,31 			"/>
			
				<radialGradient id="SVGID_4_" cx="58.7446" cy="-210.2358" r="31" gradientTransform="matrix(0.866 -0.5 0.5 0.866 85.2436 242.4287)" gradientUnits="userSpaceOnUse">
				<stop  offset="0" style="stop-color:#FFFFFF;stop-opacity:0"/>
				<stop  offset="0.1906" style="stop-color:#DACFC4;stop-opacity:0.1906"/>
				<stop  offset="0.3977" style="stop-color:#B6A18C;stop-opacity:0.3977"/>
				<stop  offset="0.5896" style="stop-color:#9A7C5F;stop-opacity:0.5896"/>
				<stop  offset="0.7601" style="stop-color:#86623F;stop-opacity:0.7601"/>
				<stop  offset="0.9026" style="stop-color:#79522B;stop-opacity:0.9026"/>
				<stop  offset="1" style="stop-color:#754C24"/>
			</radialGradient>
			<polygon opacity="0.75" fill="url(#SVGID_4_)" points="22.7,0 8.3,8.3 31,31 			"/>
		</g>
		<g>
			
				<pattern  id="SVGID_5_" xlink:href="#Nouvelle_nuance_de_motif_8" patternTransform="matrix(0.5 -0.866 0.866 0.5 3331.5317 -10815.0967)">
			</pattern>
			<polygon fill="url(#SVGID_5_)" points="8.3,8.3 0,22.7 31,31 			"/>
			
				<radialGradient id="SVGID_6_" cx="203.3835" cy="-405.2685" r="31" gradientTransform="matrix(0.5 -0.866 0.866 0.5 280.2811 409.7564)" gradientUnits="userSpaceOnUse">
				<stop  offset="0" style="stop-color:#FFFFFF;stop-opacity:0"/>
				<stop  offset="0.1906" style="stop-color:#DACFC4;stop-opacity:0.1906"/>
				<stop  offset="0.3977" style="stop-color:#B6A18C;stop-opacity:0.3977"/>
				<stop  offset="0.5896" style="stop-color:#9A7C5F;stop-opacity:0.5896"/>
				<stop  offset="0.7601" style="stop-color:#86623F;stop-opacity:0.7601"/>
				<stop  offset="0.9026" style="stop-color:#79522B;stop-opacity:0.9026"/>
				<stop  offset="1" style="stop-color:#754C24"/>
			</radialGradient>
			<polygon opacity="0.75" fill="url(#SVGID_6_)" points="8.3,8.3 0,22.7 31,31 			"/>
		</g>
		<g>
			
				<pattern  id="SVGID_7_" xlink:href="#Nouvelle_nuance_de_motif_8" patternTransform="matrix(4.489700e-11 -1 1 4.489700e-11 -253 -15962.1611)">
			</pattern>
			<polygon fill="url(#SVGID_7_)" points="0,22.7 0,39.3 31,31 			"/>
			
				<radialGradient id="SVGID_8_" cx="426.1608" cy="-501.8524" r="31" gradientTransform="matrix(4.489700e-11 -1 1 4.489700e-11 532.8524 457.1476)" gradientUnits="userSpaceOnUse">
				<stop  offset="0" style="stop-color:#FFFFFF;stop-opacity:0"/>
				<stop  offset="0.1906" style="stop-color:#DACFC4;stop-opacity:0.1906"/>
				<stop  offset="0.3977" style="stop-color:#B6A18C;stop-opacity:0.3977"/>
				<stop  offset="0.5896" style="stop-color:#9A7C5F;stop-opacity:0.5896"/>
				<stop  offset="0.7601" style="stop-color:#86623F;stop-opacity:0.7601"/>
				<stop  offset="0.9026" style="stop-color:#79522B;stop-opacity:0.9026"/>
				<stop  offset="1" style="stop-color:#754C24"/>
			</radialGradient>
			<polygon opacity="0.75" fill="url(#SVGID_8_)" points="0,22.7 0,39.3 31,31 			"/>
		</g>
		<g>
			
				<pattern  id="SVGID_9_" xlink:href="#Nouvelle_nuance_de_motif_8" patternTransform="matrix(-0.5 -0.866 0.866 -0.5 -4535.9058 -18392.0254)">
			</pattern>
			<polygon fill="url(#SVGID_9_)" points="0,39.3 8.3,53.7 31,31 			"/>
			
				<radialGradient id="SVGID_10_" cx="667.3835" cy="-474.1078" r="31" gradientTransform="matrix(-0.5 -0.866 0.866 -0.5 775.2811 371.9041)" gradientUnits="userSpaceOnUse">
				<stop  offset="0" style="stop-color:#FFFFFF;stop-opacity:0"/>
				<stop  offset="0.1906" style="stop-color:#DACFC4;stop-opacity:0.1906"/>
				<stop  offset="0.3977" style="stop-color:#B6A18C;stop-opacity:0.3977"/>
				<stop  offset="0.5896" style="stop-color:#9A7C5F;stop-opacity:0.5896"/>
				<stop  offset="0.7601" style="stop-color:#86623F;stop-opacity:0.7601"/>
				<stop  offset="0.9026" style="stop-color:#79522B;stop-opacity:0.9026"/>
				<stop  offset="1" style="stop-color:#754C24"/>
			</radialGradient>
			<polygon opacity="0.75" fill="url(#SVGID_10_)" points="0,39.3 8.3,53.7 31,31 			"/>
		</g>
		<g>
			
				<pattern  id="SVGID_11_" xlink:href="#Nouvelle_nuance_de_motif_8" patternTransform="matrix(-0.866 -0.5 0.5 -0.866 -9048.5439 -17518.1777)">
			</pattern>
			<polygon fill="url(#SVGID_11_)" points="8.3,53.7 22.7,62 31,31 			"/>
			
				<radialGradient id="SVGID_12_" cx="862.4162" cy="-329.4689" r="31" gradientTransform="matrix(-0.866 -0.5 0.5 -0.866 942.6088 176.8665)" gradientUnits="userSpaceOnUse">
				<stop  offset="0" style="stop-color:#FFFFFF;stop-opacity:0"/>
				<stop  offset="0.1906" style="stop-color:#DACFC4;stop-opacity:0.1906"/>
				<stop  offset="0.3977" style="stop-color:#B6A18C;stop-opacity:0.3977"/>
				<stop  offset="0.5896" style="stop-color:#9A7C5F;stop-opacity:0.5896"/>
				<stop  offset="0.7601" style="stop-color:#86623F;stop-opacity:0.7601"/>
				<stop  offset="0.9026" style="stop-color:#79522B;stop-opacity:0.9026"/>
				<stop  offset="1" style="stop-color:#754C24"/>
			</radialGradient>
			<polygon opacity="0.75" fill="url(#SVGID_12_)" points="8.3,53.7 22.7,62 31,31 			"/>
		</g>
		<g>
			<pattern  id="SVGID_13_" xlink:href="#Nouvelle_nuance_de_motif_8" patternTransform="matrix(-1 0 0 -1 -13602 -15729.1611)">
			</pattern>
			<polygon fill="url(#SVGID_13_)" points="22.7,62.1 39.3,62.1 31,31.1 			"/>
			
				<radialGradient id="SVGID_14_" cx="959" cy="-106.8524" r="31" gradientTransform="matrix(-1 0 0 -1 990 -75.7047)" gradientUnits="userSpaceOnUse">
				<stop  offset="0" style="stop-color:#FFFFFF;stop-opacity:0"/>
				<stop  offset="0.1906" style="stop-color:#DACFC4;stop-opacity:0.1906"/>
				<stop  offset="0.3977" style="stop-color:#B6A18C;stop-opacity:0.3977"/>
				<stop  offset="0.5896" style="stop-color:#9A7C5F;stop-opacity:0.5896"/>
				<stop  offset="0.7601" style="stop-color:#86623F;stop-opacity:0.7601"/>
				<stop  offset="0.9026" style="stop-color:#79522B;stop-opacity:0.9026"/>
				<stop  offset="1" style="stop-color:#754C24"/>
			</radialGradient>
			<polygon opacity="0.75" fill="url(#SVGID_14_)" points="22.7,62.1 39.3,62.1 31,31.1 			"/>
		</g>
		<g>
			
				<pattern  id="SVGID_15_" xlink:href="#Nouvelle_nuance_de_motif_8" patternTransform="matrix(-0.866 0.5 -0.5 -0.866 -16549.6152 -12198.3799)">
			</pattern>
			<polygon fill="url(#SVGID_15_)" points="39.3,62 53.7,53.7 31,31 			"/>
			
				<radialGradient id="SVGID_16_" cx="931.2554" cy="134.5311" r="31" gradientTransform="matrix(-0.866 0.5 -0.5 -0.866 904.7564 -318.1335)" gradientUnits="userSpaceOnUse">
				<stop  offset="0" style="stop-color:#FFFFFF;stop-opacity:0"/>
				<stop  offset="0.1906" style="stop-color:#DACFC4;stop-opacity:0.1906"/>
				<stop  offset="0.3977" style="stop-color:#B6A18C;stop-opacity:0.3977"/>
				<stop  offset="0.5896" style="stop-color:#9A7C5F;stop-opacity:0.5896"/>
				<stop  offset="0.7601" style="stop-color:#86623F;stop-opacity:0.7601"/>
				<stop  offset="0.9026" style="stop-color:#79522B;stop-opacity:0.9026"/>
				<stop  offset="1" style="stop-color:#754C24"/>
			</radialGradient>
			<polygon opacity="0.75" fill="url(#SVGID_16_)" points="39.3,62 53.7,53.7 31,31 			"/>
		</g>
		<g>
			
				<pattern  id="SVGID_17_" xlink:href="#Nouvelle_nuance_de_motif_8" patternTransform="matrix(-0.5 0.866 -0.866 -0.5 -17438.2188 -6596.8325)">
			</pattern>
			<polygon fill="url(#SVGID_17_)" points="53.7,53.7 62,39.3 31,31 			"/>
			
				<radialGradient id="SVGID_18_" cx="786.6165" cy="329.5638" r="31" gradientTransform="matrix(-0.5 0.866 -0.866 -0.5 709.7189 -485.4611)" gradientUnits="userSpaceOnUse">
				<stop  offset="0" style="stop-color:#FFFFFF;stop-opacity:0"/>
				<stop  offset="0.1906" style="stop-color:#DACFC4;stop-opacity:0.1906"/>
				<stop  offset="0.3977" style="stop-color:#B6A18C;stop-opacity:0.3977"/>
				<stop  offset="0.5896" style="stop-color:#9A7C5F;stop-opacity:0.5896"/>
				<stop  offset="0.7601" style="stop-color:#86623F;stop-opacity:0.7601"/>
				<stop  offset="0.9026" style="stop-color:#79522B;stop-opacity:0.9026"/>
				<stop  offset="1" style="stop-color:#754C24"/>
			</radialGradient>
			<polygon opacity="0.75" fill="url(#SVGID_18_)" points="53.7,53.7 62,39.3 31,31 			"/>
		</g>
		<g>
			
				<pattern  id="SVGID_19_" xlink:href="#Nouvelle_nuance_de_motif_8" patternTransform="matrix(-4.489700e-11 1 -1 -4.489700e-11 -16131 -1924.1608)">
			</pattern>
			<polygon fill="url(#SVGID_19_)" points="62,39.3 62,22.7 31,31 			"/>
			
				<radialGradient id="SVGID_20_" cx="563.8392" cy="426.1476" r="31" gradientTransform="matrix(-4.489700e-11 1 -1 -4.489700e-11 457.1476 -532.8524)" gradientUnits="userSpaceOnUse">
				<stop  offset="0" style="stop-color:#FFFFFF;stop-opacity:0"/>
				<stop  offset="0.1906" style="stop-color:#DACFC4;stop-opacity:0.1906"/>
				<stop  offset="0.3977" style="stop-color:#B6A18C;stop-opacity:0.3977"/>
				<stop  offset="0.5896" style="stop-color:#9A7C5F;stop-opacity:0.5896"/>
				<stop  offset="0.7601" style="stop-color:#86623F;stop-opacity:0.7601"/>
				<stop  offset="0.9026" style="stop-color:#79522B;stop-opacity:0.9026"/>
				<stop  offset="1" style="stop-color:#754C24"/>
			</radialGradient>
			<polygon opacity="0.75" fill="url(#SVGID_20_)" points="62,39.3 62,22.7 31,31 			"/>
		</g>
		<g>
			
				<pattern  id="SVGID_21_" xlink:href="#Nouvelle_nuance_de_motif_8" patternTransform="matrix(0.5 0.866 -0.866 0.5 -11267.6572 1704.2386)">
			</pattern>
			<polygon fill="url(#SVGID_21_)" points="62,22.7 53.7,8.3 31,31 			"/>
			
				<radialGradient id="SVGID_22_" cx="322.6165" cy="398.403" r="31" gradientTransform="matrix(0.5 0.866 -0.866 0.5 214.7189 -447.6088)" gradientUnits="userSpaceOnUse">
				<stop  offset="0" style="stop-color:#FFFFFF;stop-opacity:0"/>
				<stop  offset="0.1906" style="stop-color:#DACFC4;stop-opacity:0.1906"/>
				<stop  offset="0.3977" style="stop-color:#B6A18C;stop-opacity:0.3977"/>
				<stop  offset="0.5896" style="stop-color:#9A7C5F;stop-opacity:0.5896"/>
				<stop  offset="0.7601" style="stop-color:#86623F;stop-opacity:0.7601"/>
				<stop  offset="0.9026" style="stop-color:#79522B;stop-opacity:0.9026"/>
				<stop  offset="1" style="stop-color:#754C24"/>
			</radialGradient>
			<polygon opacity="0.75" fill="url(#SVGID_22_)" points="62,22.7 53.7,8.3 31,31 			"/>
		</g>
		<g>
			
				<pattern  id="SVGID_23_" xlink:href="#Nouvelle_nuance_de_motif_8" patternTransform="matrix(0.866 0.5 -0.5 0.866 -4830.2793 3251.5742)">
			</pattern>
			<polygon fill="url(#SVGID_23_)" points="53.7,8.3 39.3,0 31,31 			"/>
			
				<radialGradient id="SVGID_24_" cx="127.5838" cy="253.7642" r="31" gradientTransform="matrix(0.866 0.5 -0.5 0.866 47.3912 -252.5713)" gradientUnits="userSpaceOnUse">
				<stop  offset="0" style="stop-color:#FFFFFF;stop-opacity:0"/>
				<stop  offset="0.1906" style="stop-color:#DACFC4;stop-opacity:0.1906"/>
				<stop  offset="0.3977" style="stop-color:#B6A18C;stop-opacity:0.3977"/>
				<stop  offset="0.5896" style="stop-color:#9A7C5F;stop-opacity:0.5896"/>
				<stop  offset="0.7601" style="stop-color:#86623F;stop-opacity:0.7601"/>
				<stop  offset="0.9026" style="stop-color:#79522B;stop-opacity:0.9026"/>
				<stop  offset="1" style="stop-color:#754C24"/>
			</radialGradient>
			<polygon opacity="0.75" fill="url(#SVGID_24_)" points="53.7,8.3 39.3,0 31,31 			"/>
		</g>
	</g>
	<g>
		<g>
			<polygon fill="#FFD731" points="39.3,0.1 22.7,0.1 31,31.1 			"/>
			<polygon fill="#FFD731" points="39.3,0.1 22.7,0.1 31,31.1 			"/>
			<polygon fill="#FFD731" points="39.3,0.1 22.7,0.1 31,31.1 			"/>
		</g>
		<g>
			<polygon fill="#FFD731" points="22.7,0 8.3,8.3 31,31 			"/>
			<polygon fill="#FFD731" points="22.7,0 8.3,8.3 31,31 			"/>
			<polygon fill="#FFD731" points="22.7,0 8.3,8.3 31,31 			"/>
		</g>
		<g>
			<polygon fill="#FFD731" points="8.3,8.3 0,22.7 31,31 			"/>
			<polygon fill="#FFD731" points="8.3,8.3 0,22.7 31,31 			"/>
			<polygon fill="#FFD731" points="8.3,8.3 0,22.7 31,31 			"/>
		</g>
		<g>
			<polygon fill="#FFD731" points="0,22.7 0,39.3 31,31 			"/>
			<polygon fill="#FFD731" points="0,22.7 0,39.3 31,31 			"/>
			<polygon fill="#FFD731" points="0,22.7 0,39.3 31,31 			"/>
		</g>
		<g>
			<polygon fill="#FFD731" points="0,39.3 8.3,53.7 31,31 			"/>
			<polygon fill="#FFD731" points="0,39.3 8.3,53.7 31,31 			"/>
			<polygon fill="#FFD731" points="0,39.3 8.3,53.7 31,31 			"/>
		</g>
		<g>
			<polygon fill="#FFD731" points="8.3,53.7 22.7,62 31,31 			"/>
			<polygon fill="#FFD731" points="8.3,53.7 22.7,62 31,31 			"/>
			<polygon fill="#FFD731" points="8.3,53.7 22.7,62 31,31 			"/>
		</g>
		<g>
			<polygon fill="#FFD731" points="22.7,62.1 39.3,62.1 31,31.1 			"/>
			<polygon fill="#FFD731" points="22.7,62.1 39.3,62.1 31,31.1 			"/>
			<polygon fill="#FFD731" points="22.7,62.1 39.3,62.1 31,31.1 			"/>
		</g>
		<g>
			<polygon fill="#FFD731" points="39.3,62 53.7,53.7 31,31 			"/>
			<polygon fill="#FFD731" points="39.3,62 53.7,53.7 31,31 			"/>
			<polygon fill="#FFD731" points="39.3,62 53.7,53.7 31,31 			"/>
		</g>
		<g>
			<polygon fill="#FFD731" points="53.7,53.7 62,39.3 31,31 			"/>
			<polygon fill="#FFD731" points="53.7,53.7 62,39.3 31,31 			"/>
			<polygon fill="#FFD731" points="53.7,53.7 62,39.3 31,31 			"/>
		</g>
		<g>
			<polygon fill="#FFD731" points="62,39.3 62,22.7 31,31 			"/>
			<polygon fill="#FFD731" points="62,39.3 62,22.7 31,31 			"/>
			<polygon fill="#FFD731" points="62,39.3 62,22.7 31,31 			"/>
		</g>
		<g>
			<polygon fill="#FFD731" points="62,22.7 53.7,8.3 31,31 			"/>
			<polygon fill="#FFD731" points="62,22.7 53.7,8.3 31,31 			"/>
			<polygon fill="#FFD731" points="62,22.7 53.7,8.3 31,31 			"/>
		</g>
		<g>
			<polygon fill="#FFD731" points="53.7,8.3 39.3,0 31,31 			"/>
			<polygon fill="#FFD731" points="53.7,8.3 39.3,0 31,31 			"/>
			<polygon fill="#FFD731" points="53.7,8.3 39.3,0 31,31 			"/>
		</g>
	</g>
</g>
<g>
</g>
<g>
</g>
<g>
</g>
<g>
</g>
<g>
</g>
<g>
</g>
<g>
</g>
<g>
</g>
<g>
</g>
<g>
</g>
<g>
</g>
<g>
</g>
<g>
</g>
<g>
</g>
<g>
</g>
</svg>
